<svg xmlns="http://www.w3.org/2000/svg" xmlns:xlink="http://www.w3.org/1999/xlink" viewBox="0 0 168 168"><defs><style>.cls-1{fill:none;}.cls-2{fill:url(#linear-gradient);}.cls-3{opacity:0.5;}.cls-15,.cls-17,.cls-3,.cls-5{isolation:isolate;}.cls-4{fill:url(#linear-gradient-2);}.cls-13,.cls-5{opacity:0.3;}.cls-6{fill:url(#linear-gradient-3);}.cls-7{fill:#fff;}.cls-8{clip-path:url(#clip-path);}.cls-9{fill:url(#linear-gradient-4);}.cls-10{fill:url(#linear-gradient-5);}.cls-11{fill:url(#linear-gradient-6);}.cls-12{fill:url(#linear-gradient-7);}.cls-14{fill:url(#radial-gradient);}.cls-15{opacity:0.7;fill:url(#linear-gradient-8);}.cls-16{fill:url(#linear-gradient-9);}.cls-17{opacity:0.4;fill:url(#linear-gradient-10);}</style><linearGradient id="linear-gradient" x1="-480" y1="2033.45" x2="-480" y2="2201.45" gradientTransform="matrix(1, 0, 0, -1, 564, 2201.45)" gradientUnits="userSpaceOnUse"><stop offset="0" stop-color="#333d45"/><stop offset="1"/></linearGradient><linearGradient id="linear-gradient-2" x1="-480" y1="2038.06" x2="-480" y2="2142.06" gradientTransform="matrix(1, 0, 0, -1, 564, 2201.45)" gradientUnits="userSpaceOnUse"><stop offset="0" stop-color="#0bb7c8"/><stop offset="1" stop-color="#94fc82"/></linearGradient><linearGradient id="linear-gradient-3" x1="-480" y1="2036.56" x2="-480" y2="2199.57" gradientTransform="matrix(1, 0, 0, -1, 564, 2201.45)" gradientUnits="userSpaceOnUse"><stop offset="0" stop-color="#688199"/><stop offset="1" stop-color="#f7f9fa"/></linearGradient><clipPath id="clip-path"><path class="cls-1" d="M165.5,83.39c0-2.69-.14-5.36-.4-8h0v0a81.5,81.5,0,1,0-159.87,29,1.69,1.69,0,0,0,.14.5,81.81,81.81,0,0,0,58.19,57.5l.07,0c1.26.32,2.54.61,3.82.87l.27.06c1.26.25,2.53.48,3.81.68l.27,0q1.76.26,3.51.45l.56.06c1.2.12,2.41.21,3.62.27l.76,0q1.88.09,3.75.09t3.75-.09l.76,0c1.21-.06,2.42-.15,3.62-.27l.56-.06q1.75-.19,3.51-.45l.27,0c1.28-.2,2.55-.43,3.81-.68l.27-.06c1.28-.26,2.56-.55,3.82-.87l.07,0A81.65,81.65,0,0,0,165.5,83.39Zm-3.6-9.5H121.5V61.39a3.48,3.48,0,0,0-3.09-3.45l16.92-33.86A78.38,78.38,0,0,1,161.9,73.89Zm-45.9,12H50a.5.5,0,0,1-.5-.5v-8.5h69v8.5a.5.5,0,0,1-.5.5Zm-38.5,49.5a6.5,6.5,0,1,1,6.5,6.5A6.5,6.5,0,0,1,77.5,135.39Zm6.5-9.5a9.5,9.5,0,0,0,0,19h18.5v14.79c-2.07.5-4.16.94-6.29,1.27l-.4.06c-1.06.17-2.14.3-3.22.41l-1.12.12c-1,.09-2,.17-3,.22l-1.34.06c-.76,0-1.51.05-2.27.06H83.09c-.76,0-1.51,0-2.27-.06-.45,0-.89,0-1.34-.06-1-.05-2-.13-3-.22l-1.12-.12c-1.08-.11-2.16-.24-3.22-.41l-.4-.06c-2.13-.33-4.22-.77-6.29-1.27V112.89h37v29H90.89a9.49,9.49,0,0,0-6.89-16Zm21.5,19h27.22a78.26,78.26,0,0,1-27.22,14Zm-2.43-35H64.93l-10.5-21h59.14ZM50,60.89h68a.5.5,0,0,1,.5.5v12.5h-69V61.39A.5.5,0,0,1,50,60.89Zm83-38.78-17.9,35.78H52.93L35,22.11A78.27,78.27,0,0,1,133,22.11Zm-100.3,2L49.59,57.94a3.48,3.48,0,0,0-3.09,3.45V73.92A45.73,45.73,0,0,0,7.14,99.38,78.4,78.4,0,0,1,32.67,24.08ZM8.31,104.18A42.69,42.69,0,0,1,46.5,76.92v8.47a3.5,3.5,0,0,0,3.5,3.5h1.07L62.5,111.75v47.13A78.82,78.82,0,0,1,8.31,104.18Zm127.94,37.73H105.5V111.75l11.43-22.86H118a3.5,3.5,0,0,0,3.5-3.5v-8.5h40.71c.18,2.15.29,4.31.29,6.5a78.3,78.3,0,0,1-26.25,58.52Z"/></clipPath><linearGradient id="linear-gradient-4" x1="-492.11" y1="2105.34" x2="-468.69" y2="2128.76" gradientTransform="matrix(1, 0, 0, -1, 564, 2201.45)" gradientUnits="userSpaceOnUse"><stop offset="0.25" stop-color="#f7f9fa" stop-opacity="0"/><stop offset="0.5" stop-color="#fff"/><stop offset="0.75" stop-color="#bee6fa" stop-opacity="0"/></linearGradient><linearGradient id="linear-gradient-5" x1="-480" y1="2033.45" x2="-480" y2="2201.45" xlink:href="#linear-gradient-3"/><linearGradient id="linear-gradient-6" x1="-480" y1="2040.45" x2="-480" y2="2194.45" gradientTransform="matrix(1, 0, 0, -1, 564, 2201.45)" gradientUnits="userSpaceOnUse"><stop offset="0" stop-color="#f7f9fa"/><stop offset="1" stop-color="#f7f9fa" stop-opacity="0"/></linearGradient><linearGradient id="linear-gradient-7" x1="-528" y1="2046.02" x2="-432" y2="2046.02" gradientTransform="matrix(1, 0, 0, -1, 564, 2201.45)" gradientUnits="userSpaceOnUse"><stop offset="0" stop-color="#e8749f" stop-opacity="0"/><stop offset="0.5" stop-color="#f7f9fa"/><stop offset="1" stop-color="#e8749f" stop-opacity="0"/></linearGradient><radialGradient id="radial-gradient" cx="-3695.64" cy="246.21" fy="264.2647865976554" r="20.27" gradientTransform="matrix(2, 0, 0, -0.94, 7475.82, 372.63)" gradientUnits="userSpaceOnUse"><stop offset="0" stop-color="#fff"/><stop offset="0.68" stop-color="#e78bad" stop-opacity="0"/></radialGradient><linearGradient id="linear-gradient-8" x1="-436.26" y1="2049.49" x2="-412.84" y2="2072.92" xlink:href="#linear-gradient-4"/><linearGradient id="linear-gradient-9" x1="-547.96" y1="2161.19" x2="-524.53" y2="2184.61" xlink:href="#linear-gradient-4"/><linearGradient id="linear-gradient-10" x1="-480" y1="2117.45" x2="-480" y2="2201.45" gradientTransform="matrix(1, 0, 0, -1, 564, 2201.45)" gradientUnits="userSpaceOnUse"><stop offset="0" stop-color="#e8749f" stop-opacity="0"/><stop offset="1" stop-color="#f7f9fa"/></linearGradient></defs><g id="Layer_2" data-name="Layer 2"><g id="Layer_1-2" data-name="Layer 1"><g id="Layer_2-2" data-name="Layer 2"><g id="Layer_1-2-2" data-name="Layer 1-2"><path id="base_bkgd" data-name="base bkgd" class="cls-2" d="M84,168a84,84,0,1,1,84-84A84,84,0,0,1,84,168Z"/><g id="border_shadow" data-name="border shadow"><path d="M84,9A75,75,0,1,1,9,84,75,75,0,0,1,84,9m0-1a76,76,0,1,0,76,76A76,76,0,0,0,84,8Z"/></g><path class="cls-3" d="M165.5,84.39c0-2.69-.14-5.36-.4-8h0v0a81.5,81.5,0,1,0-159.87,29,1.69,1.69,0,0,0,.14.5,81.81,81.81,0,0,0,58.19,57.5l.07,0c1.26.32,2.54.61,3.82.87l.27.06c1.26.25,2.53.48,3.81.68l.27,0q1.76.26,3.51.45l.56.06c1.2.12,2.41.21,3.62.27l.76,0q1.88.09,3.75.09t3.75-.09l.76,0c1.21-.06,2.42-.15,3.62-.27l.56-.06q1.75-.19,3.51-.45l.27,0c1.28-.2,2.55-.43,3.81-.68l.27-.06c1.28-.26,2.56-.55,3.82-.87l.07,0A81.65,81.65,0,0,0,165.5,84.39Zm-3.6-9.5H121.5V62.39a3.48,3.48,0,0,0-3.09-3.45l16.92-33.86A78.38,78.38,0,0,1,161.9,74.89Zm-45.9,12H50a.5.5,0,0,1-.5-.5v-8.5h69v8.5a.5.5,0,0,1-.5.5Zm-38.5,49.5a6.5,6.5,0,1,1,6.5,6.5A6.5,6.5,0,0,1,77.5,136.39Zm6.5-9.5a9.5,9.5,0,0,0,0,19h18.5v14.79c-2.07.5-4.16.94-6.29,1.27l-.4.06c-1.06.17-2.14.3-3.22.41l-1.12.12c-1,.09-2,.17-3,.22l-1.34.06c-.76,0-1.51.05-2.27.06H83.09c-.76,0-1.51,0-2.27-.06-.45,0-.89,0-1.34-.06-1-.05-2-.13-3-.22l-1.12-.12c-1.08-.11-2.16-.24-3.22-.41l-.4-.06c-2.13-.33-4.22-.77-6.29-1.27V113.89h37v29H90.89a9.49,9.49,0,0,0-6.89-16Zm21.5,19h27.22a78.26,78.26,0,0,1-27.22,14Zm-2.43-35H64.93l-10.5-21h59.14ZM50,61.89h68a.5.5,0,0,1,.5.5v12.5h-69V62.39A.5.5,0,0,1,50,61.89Zm83-38.78-17.9,35.78H52.93L35,23.11A78.27,78.27,0,0,1,133,23.11Zm-100.3,2L49.59,58.94a3.48,3.48,0,0,0-3.09,3.45V74.92A45.73,45.73,0,0,0,7.14,100.38,78.4,78.4,0,0,1,32.67,25.08ZM8.31,105.18A42.69,42.69,0,0,1,46.5,77.92v8.47a3.5,3.5,0,0,0,3.5,3.5h1.07L62.5,112.75v47.13A78.82,78.82,0,0,1,8.31,105.18Zm127.94,37.73H105.5V112.75l11.43-22.86H118a3.5,3.5,0,0,0,3.5-3.5v-8.5h40.71c.18,2.15.29,4.31.29,6.5a78.3,78.3,0,0,1-26.25,58.52Z"/><path class="cls-4" d="M118,59.39H50a2,2,0,0,0-2,2v24a2,2,0,0,0,2,2h2l12,24v49.48a80.63,80.63,0,0,0,40,0V111.39l12-24h2a2,2,0,0,0,2-2v-24a2,2,0,0,0-2-2Zm-34,84a8,8,0,1,1,8-8A8,8,0,0,1,84,143.39Z"/><path class="cls-5" d="M118,87.39a2,2,0,0,0,2-2v-24a2,2,0,0,0-2-2H50a2,2,0,0,0-2,2v24a2,2,0,0,0,2,2h2l12,24v49.48a80.63,80.63,0,0,0,40,0V111.39l12-24ZM50.5,61.89h67v11h-67Zm0,23v-7h67v7Zm51,56H92.92a10.5,10.5,0,1,0-8.92,5h17.5v13c-1.89.44-3.67.79-5.44,1.07l-.4.07c-.93.14-1.94.27-3.18.4l-1.1.11c-1,.1-1.94.17-2.92.23l-1.32.06-2.25.05H83.11l-2.25-.05-1.32-.06c-1-.06-2-.13-2.92-.23l-1.11-.11c-1.23-.13-2.24-.26-3.18-.41l-.39-.06c-1.77-.28-3.55-.63-5.44-1.07v-45h35ZM92,135.39a8,8,0,1,1-8-8A8,8,0,0,1,92,135.39Zm10.45-26.5H65.55l-9.5-19H112Z"/><path class="cls-6" d="M165.5,83.39c0-2.69-.14-5.36-.4-8h0v0a81.5,81.5,0,1,0-159.87,29,1.69,1.69,0,0,0,.14.5,81.81,81.81,0,0,0,58.19,57.5l.07,0c1.26.32,2.54.61,3.82.87l.27.06c1.26.25,2.53.48,3.81.68l.27,0q1.76.26,3.51.45l.56.06c1.2.12,2.41.21,3.62.27l.76,0q1.88.09,3.75.09t3.75-.09l.76,0c1.21-.06,2.42-.15,3.62-.27l.56-.06q1.75-.19,3.51-.45l.27,0c1.28-.2,2.55-.43,3.81-.68l.27-.06c1.28-.26,2.56-.55,3.82-.87l.07,0A81.65,81.65,0,0,0,165.5,83.39Zm-3.6-9.5H121.5V61.39a3.48,3.48,0,0,0-3.09-3.45l16.92-33.86A78.38,78.38,0,0,1,161.9,73.89Zm-45.9,12H50a.5.5,0,0,1-.5-.5v-8.5h69v8.5a.5.5,0,0,1-.5.5Zm-38.5,49.5a6.5,6.5,0,1,1,6.5,6.5A6.5,6.5,0,0,1,77.5,135.39Zm6.5-9.5a9.5,9.5,0,0,0,0,19h18.5v14.79c-2.07.5-4.16.94-6.29,1.27l-.4.06c-1.06.17-2.14.3-3.22.41l-1.12.12c-1,.09-2,.17-3,.22l-1.34.06c-.76,0-1.51.05-2.27.06H83.09c-.76,0-1.51,0-2.27-.06-.45,0-.89,0-1.34-.06-1-.05-2-.13-3-.22l-1.12-.12c-1.08-.11-2.16-.24-3.22-.41l-.4-.06c-2.13-.33-4.22-.77-6.29-1.27V112.89h37v29H90.89a9.49,9.49,0,0,0-6.89-16Zm21.5,19h27.22a78.26,78.26,0,0,1-27.22,14Zm-2.43-35H64.93l-10.5-21h59.14ZM50,60.89h68a.5.5,0,0,1,.5.5v12.5h-69V61.39A.5.5,0,0,1,50,60.89Zm83-38.78-17.9,35.78H52.93L35,22.11A78.27,78.27,0,0,1,133,22.11Zm-100.3,2L49.59,57.94a3.48,3.48,0,0,0-3.09,3.45V73.92A45.73,45.73,0,0,0,7.14,99.38,78.4,78.4,0,0,1,32.67,24.08ZM8.31,104.18A42.69,42.69,0,0,1,46.5,76.92v8.47a3.5,3.5,0,0,0,3.5,3.5h1.07L62.5,111.75v47.13A78.82,78.82,0,0,1,8.31,104.18Zm127.94,37.73H105.5V111.75l11.43-22.86H118a3.5,3.5,0,0,0,3.5-3.5v-8.5h40.71c.18,2.15.29,4.31.29,6.5a78.3,78.3,0,0,1-26.25,58.52Z"/><path class="cls-7" d="M84,125.39a9.52,9.52,0,0,0-9.5,9.5c0,.09,0,.17,0,.25a9.49,9.49,0,0,1,19,0c0-.09,0-.17,0-.26A9.52,9.52,0,0,0,84,125.39Z"/><polygon class="cls-7" points="113.57 88.89 113.32 88.89 103.07 109.39 64.93 109.39 54.68 88.89 54.43 88.89 64.93 109.89 103.07 109.89 113.57 88.89"/><path class="cls-7" d="M71.79,160.94l.4.06c1.06.17,2.14.3,3.22.41l1.12.12c1,.09,2,.17,3,.22l1.34.06c.76,0,1.51.05,2.27.06h1.82c.76,0,1.51,0,2.27-.06.45,0,.89,0,1.34-.06,1-.05,2-.13,3-.22l1.12-.12c1.08-.11,2.16-.24,3.22-.41l.4-.06c2.13-.33,4.22-.77,6.29-1.27v-.5c-2.07.5-4.16.94-6.29,1.27l-.4.06c-1.06.17-2.14.3-3.22.41l-1.12.12c-1,.09-2,.17-3,.22-.45,0-.89.05-1.34.06-.76,0-1.51.05-2.27.06H83.09c-.76,0-1.51,0-2.27-.06l-1.34-.06c-1-.05-2-.13-3-.22l-1.12-.12c-1.08-.11-2.16-.24-3.22-.41l-.4-.06c-2.13-.33-4.22-.77-6.29-1.27v.5C67.57,160.17,69.66,160.61,71.79,160.94Z"/><path class="cls-7" d="M102.5,141.41H91.33c-.14.17-.28.34-.44.5H102.5Z"/><path class="cls-7" d="M84,141.89a6.5,6.5,0,0,0,6.5-6.5c0-.08,0-.16,0-.25a6.49,6.49,0,0,1-13,0c0,.09,0,.17,0,.25A6.5,6.5,0,0,0,84,141.89Z"/><path class="cls-7" d="M105.5,158.88a78.26,78.26,0,0,0,27.22-14h-.66a78.28,78.28,0,0,1-26.56,13.5Z"/><path class="cls-7" d="M84,1.89a81.61,81.61,0,0,1,81.1,73.46v0h0c.25,2.56.38,5.14.39,7.76,0-.09,0-.18,0-.27,0-2.69-.14-5.36-.4-8h0v0a81.5,81.5,0,0,0-162.6,8c0,.11,0,.21,0,.31A81.59,81.59,0,0,1,84,1.89Z"/><path class="cls-7" d="M136.25,141.41H105.5v.5h30.75A78.3,78.3,0,0,0,162.5,83.39v-.18A78.32,78.32,0,0,1,136.25,141.41Z"/><rect class="cls-7" x="49.5" y="73.39" width="69" height="0.5"/><path class="cls-7" d="M52.93,57.89h62.14L133,22.11l-.18-.14L115.07,57.39H52.93L35.21,22l-.18.14Z"/><path class="cls-7" d="M49.59,57.94l-.22-.46a3.48,3.48,0,0,0-2.87,3.41v.5A3.48,3.48,0,0,1,49.59,57.94Z"/><path class="cls-7" d="M7.14,99.38A45.73,45.73,0,0,1,46.5,73.92v-.5A45.73,45.73,0,0,0,7.14,98.88,77.77,77.77,0,0,1,5.51,83.07c0,.11,0,.22,0,.32A78.82,78.82,0,0,0,7.14,99.38Z"/><path class="cls-7" d="M62.5,158.88v-.5A78.81,78.81,0,0,1,8.4,104l-.09.21A78.82,78.82,0,0,0,62.5,158.88Z"/><path class="cls-7" d="M121.5,73.89h40.4c0-.16-.05-.33-.07-.5H121.5Z"/><path class="cls-7" d="M121.5,61.39v-.5a3.48,3.48,0,0,0-2.87-3.41l-.22.46A3.48,3.48,0,0,1,121.5,61.39Z"/><path class="cls-7" d="M118,85.89a.5.5,0,0,0,.5-.5v-.5a.5.5,0,0,1-.5.5H50a.5.5,0,0,1-.5-.5v.5a.5.5,0,0,0,.5.5Z"/><g class="cls-8"><path id="FOR_LINE_WORK_CIRCLE" data-name="FOR LINE WORK CIRCLE" class="cls-9" d="M34.62,12A87.61,87.61,0,0,0,12,36.22L131.78,156A87.61,87.61,0,0,0,156,133.38Z"/></g><path id="border" class="cls-10" d="M84,168a84,84,0,1,1,84-84A84,84,0,0,1,84,168ZM84,8a76,76,0,1,0,76,76A76,76,0,0,0,84,8Z"/><g id="border_highlight" data-name="border highlight"><path class="cls-11" d="M84,8A76,76,0,1,1,8,84,76,76,0,0,1,84,8m0-1a77,77,0,1,0,77,77A77,77,0,0,0,84,7Z"/></g><path id="outer_pink" data-name="outer pink" class="cls-12" d="M132,152.88v-10a75.82,75.82,0,0,1-96,0v10A83.75,83.75,0,0,0,132,152.88Z"/><g id="elipse" class="cls-13"><ellipse class="cls-14" cx="84.53" cy="141.81" rx="40.53" ry="19"/></g><path id="right_glare" data-name="right glare" class="cls-15" d="M153.6,131l-5.78-5.79a76.54,76.54,0,0,1-23.6,23.25l5.79,5.79A84.63,84.63,0,0,0,153.6,131Z"/><path id="left_glare" data-name="left glare" class="cls-16" d="M13.77,38l5.79,5.79a76.54,76.54,0,0,1,23.25-23.6L37,14.4A84.63,84.63,0,0,0,13.77,38Z"/><path id="top_halo" data-name="top halo" class="cls-17" d="M84,8a76.09,76.09,0,0,1,76,76h8A84,84,0,0,0,0,84H8A76.09,76.09,0,0,1,84,8Z"/></g></g></g></g></svg>