<svg xmlns="http://www.w3.org/2000/svg" xmlns:xlink="http://www.w3.org/1999/xlink" viewBox="0 0 168 168"><defs><style>.cls-1{fill:url(#linear-gradient);}.cls-2{opacity:0.5;}.cls-10,.cls-11,.cls-16,.cls-18,.cls-2,.cls-7,.cls-8,.cls-9{isolation:isolate;}.cls-3{fill:url(#linear-gradient-2);}.cls-4{opacity:0.3;}.cls-5{fill:url(#linear-gradient-3);}.cls-6{fill:#fff;}.cls-10,.cls-11,.cls-7,.cls-8,.cls-9{opacity:0.8;}.cls-7{fill:url(#linear-gradient-4);}.cls-8{fill:url(#linear-gradient-5);}.cls-9{fill:url(#linear-gradient-6);}.cls-10{fill:url(#linear-gradient-7);}.cls-11{fill:url(#linear-gradient-8);}.cls-12{fill:url(#linear-gradient-9);}.cls-13{fill:url(#linear-gradient-10);}.cls-14{fill:url(#linear-gradient-11);}.cls-15{fill:url(#radial-gradient);}.cls-16{opacity:0.7;fill:url(#linear-gradient-12);}.cls-17{fill:url(#linear-gradient-13);}.cls-18{opacity:0.4;fill:url(#linear-gradient-14);}</style><linearGradient id="linear-gradient" x1="-480" y1="1551.37" x2="-480" y2="1719.37" gradientTransform="matrix(1, 0, 0, -1, 564, 1719.37)" gradientUnits="userSpaceOnUse"><stop offset="0" stop-color="#333d45"/><stop offset="1"/></linearGradient><linearGradient id="linear-gradient-2" x1="-480" y1="1601.32" x2="-480" y2="1669.42" gradientTransform="matrix(1, 0, 0, -1, 564, 1719.37)" gradientUnits="userSpaceOnUse"><stop offset="0" stop-color="#0bb7c8"/><stop offset="1" stop-color="#94fc82"/></linearGradient><linearGradient id="linear-gradient-3" x1="-480" y1="1553.87" x2="-480" y2="1716.87" gradientTransform="matrix(1, 0, 0, -1, 564, 1719.37)" gradientUnits="userSpaceOnUse"><stop offset="0" stop-color="#688199"/><stop offset="1" stop-color="#f7f9fa"/></linearGradient><linearGradient id="linear-gradient-4" x1="-492.11" y1="1623.25" x2="-468.69" y2="1646.68" gradientTransform="matrix(1, 0, 0, -1, 564, 1719.37)" gradientUnits="userSpaceOnUse"><stop offset="0.25" stop-color="#f7f9fa" stop-opacity="0"/><stop offset="0.5" stop-color="#fff"/><stop offset="0.75" stop-color="#bee6fa" stop-opacity="0"/></linearGradient><linearGradient id="linear-gradient-5" x1="-515.78" y1="1646.92" x2="-492.35" y2="1670.35" xlink:href="#linear-gradient-4"/><linearGradient id="linear-gradient-6" x1="-546.5" y1="1677.65" x2="-523.08" y2="1701.07" xlink:href="#linear-gradient-4"/><linearGradient id="linear-gradient-7" x1="-468.71" y1="1599.86" x2="-445.29" y2="1623.28" xlink:href="#linear-gradient-4"/><linearGradient id="linear-gradient-8" x1="-443.72" y1="1574.87" x2="-420.3" y2="1598.29" xlink:href="#linear-gradient-4"/><linearGradient id="linear-gradient-9" x1="-480" y1="1551.37" x2="-480" y2="1719.37" xlink:href="#linear-gradient-3"/><linearGradient id="linear-gradient-10" x1="-480" y1="1558.37" x2="-480" y2="1712.37" gradientTransform="matrix(1, 0, 0, -1, 564, 1719.37)" gradientUnits="userSpaceOnUse"><stop offset="0" stop-color="#f7f9fa"/><stop offset="1" stop-color="#f7f9fa" stop-opacity="0"/></linearGradient><linearGradient id="linear-gradient-11" x1="-528" y1="1563.93" x2="-432" y2="1563.93" gradientTransform="matrix(1, 0, 0, -1, 564, 1719.37)" gradientUnits="userSpaceOnUse"><stop offset="0" stop-color="#e8749f" stop-opacity="0"/><stop offset="0.5" stop-color="#f7f9fa"/><stop offset="1" stop-color="#e8749f" stop-opacity="0"/></linearGradient><radialGradient id="radial-gradient" cx="-7428.21" cy="-146.86" fy="-128.80398039946405" r="20.27" gradientTransform="matrix(-2, 0, 0, 0.94, -14771.88, 279.49)" gradientUnits="userSpaceOnUse"><stop offset="0" stop-color="#fff"/><stop offset="0.68" stop-color="#e78bad" stop-opacity="0"/></radialGradient><linearGradient id="linear-gradient-12" x1="-436.26" y1="1567.41" x2="-412.84" y2="1590.83" xlink:href="#linear-gradient-4"/><linearGradient id="linear-gradient-13" x1="-547.96" y1="1679.1" x2="-524.53" y2="1702.53" xlink:href="#linear-gradient-4"/><linearGradient id="linear-gradient-14" x1="-480" y1="1635.37" x2="-480" y2="1719.37" gradientTransform="matrix(1, 0, 0, -1, 564, 1719.37)" gradientUnits="userSpaceOnUse"><stop offset="0" stop-color="#e8749f" stop-opacity="0"/><stop offset="1" stop-color="#f7f9fa"/></linearGradient></defs><g id="Layer_2" data-name="Layer 2"><g id="Layer_1-2" data-name="Layer 1"><g id="Layer_2-2" data-name="Layer 2"><g id="Layer_1-2-2" data-name="Layer 1-2"><path id="background" class="cls-1" d="M84,168a84,84,0,1,1,84-84A84,84,0,0,1,84,168Z"/><g id="outer_shadow" data-name="outer shadow"><path d="M84,9A75,75,0,1,1,9,84,75,75,0,0,1,84,9m0-1a76,76,0,1,0,76,76A76,76,0,0,0,84,8Z"/></g><path id="line_blur" data-name="line blur" class="cls-2" d="M84,3.5A81.5,81.5,0,1,0,165.5,85,81.5,81.5,0,0,0,84,3.5Zm77.31,68H156a21.51,21.51,0,0,0-19.3,12.08l-21-21a44.65,44.65,0,0,0-14.43-9.69A37.55,37.55,0,0,0,64,19.5H40.8a78.42,78.42,0,0,1,120.51,52ZM134.5,145c-1,.84-2,1.66-3.07,2.46H104a34.55,34.55,0,0,1-33.66-26.95H84a44.56,44.56,0,0,0,31.7-13.13L135.11,88a21.56,21.56,0,0,0-.61,5Zm-36-88V75.21A17.5,17.5,0,0,0,66.5,85v28c0,.25,0,.49,0,.74a41.9,41.9,0,0,1-12.1-8.44L34.12,85l20.3-20.3a41.92,41.92,0,0,1,44-9.7C98.48,55.66,98.5,56.33,98.5,57Zm0,28A14.5,14.5,0,1,1,84,70.5,14.5,14.5,0,0,1,98.5,85Zm-29,28V94.79a17.5,17.5,0,0,0,32-9.79V57c0-.25,0-.49,0-.74a41.9,41.9,0,0,1,12.1,8.44L133.88,85l-20.3,20.3a41.92,41.92,0,0,1-44,9.7C69.52,114.34,69.5,113.67,69.5,113ZM36.57,22.5H64A34.54,34.54,0,0,1,98.09,51.71,44.88,44.88,0,0,0,52.3,62.58L31.41,83.47A14.51,14.51,0,0,1,17.5,69V43.36A79,79,0,0,1,36.57,22.5ZM14.5,48.57V69A17.52,17.52,0,0,0,31.35,86.47l20.95,21a44.65,44.65,0,0,0,14.43,9.69l.06.44H12.6A78.22,78.22,0,0,1,14.5,48.57Zm-.45,72H67.26a37.57,37.57,0,0,0,36.74,30h23.2A78.35,78.35,0,0,1,14.05,120.55ZM137.5,142.37V93A18.52,18.52,0,0,1,156,74.5h5.78A78.12,78.12,0,0,1,137.5,142.37Z"/><path id="art" class="cls-3" d="M114.64,62.64a43.34,43.34,0,0,0-61.28,0L32,84l21.36,21.36a43.34,43.34,0,0,0,61.28,0L136,84ZM84,100a16,16,0,1,1,16-16A16,16,0,0,1,84,100Z"/><g id="art_shadow" data-name="art shadow" class="cls-4"><path d="M114.64,62.64a43.34,43.34,0,0,0-61.28,0L32,84l21.36,21.36a43.34,43.34,0,0,0,61.28,0L136,84ZM65.5,111.13a40.72,40.72,0,0,1-10.37-7.54L35.54,84,55.13,64.41a40.89,40.89,0,0,1,42.34-9.69c0,.42,0,.85,0,1.28V71.36A18.49,18.49,0,0,0,65.5,84ZM84,68A16,16,0,1,1,68,84,16,16,0,0,1,84,68Zm28.87,35.59a40.89,40.89,0,0,1-42.34,9.69c0-.42,0-.85,0-1.28V96.64A18.49,18.49,0,0,0,102.5,84V56.87a40.72,40.72,0,0,1,10.37,7.54L132.46,84Z"/></g><path id="lines" class="cls-5" d="M84,2.5A81.5,81.5,0,1,0,165.5,84,81.5,81.5,0,0,0,84,2.5Zm77.31,68H156a21.51,21.51,0,0,0-19.3,12.08l-21-21a44.65,44.65,0,0,0-14.43-9.69A37.55,37.55,0,0,0,64,18.5H40.8a78.42,78.42,0,0,1,120.51,52ZM134.5,144c-1,.84-2,1.66-3.07,2.46H104a34.55,34.55,0,0,1-33.66-26.95H84a44.56,44.56,0,0,0,31.7-13.13L135.11,87a21.56,21.56,0,0,0-.61,5Zm-36-88V74.21A17.5,17.5,0,0,0,66.5,84v28c0,.25,0,.49,0,.74a41.9,41.9,0,0,1-12.1-8.44L34.12,84l20.3-20.3a41.92,41.92,0,0,1,44-9.7C98.48,54.66,98.5,55.33,98.5,56Zm0,28A14.5,14.5,0,1,1,84,69.5,14.5,14.5,0,0,1,98.5,84Zm-29,28V93.79a17.5,17.5,0,0,0,32-9.79V56c0-.25,0-.49,0-.74a41.9,41.9,0,0,1,12.1,8.44L133.88,84l-20.3,20.3a41.92,41.92,0,0,1-44,9.7C69.52,113.34,69.5,112.67,69.5,112ZM36.57,21.5H64A34.54,34.54,0,0,1,98.09,50.71,44.88,44.88,0,0,0,52.3,61.58L31.41,82.47A14.51,14.51,0,0,1,17.5,68V42.36A79,79,0,0,1,36.57,21.5ZM14.5,47.57V68A17.52,17.52,0,0,0,31.35,85.47l20.95,21a44.65,44.65,0,0,0,14.43,9.69l.06.44H12.6A78.22,78.22,0,0,1,14.5,47.57Zm-.45,72H67.26a37.57,37.57,0,0,0,36.74,30h23.2A78.35,78.35,0,0,1,14.05,119.55ZM137.5,141.37V92A18.52,18.52,0,0,1,156,73.5h5.78A78.12,78.12,0,0,1,137.5,141.37Z"/><g id="line_highlight" data-name="line highlight"><path class="cls-6" d="M134.5,92.5a21.56,21.56,0,0,1,.61-5l-.14.14A21.94,21.94,0,0,0,134.5,92Z"/><path class="cls-6" d="M14.31,120.05h-.26A78.38,78.38,0,0,0,119.4,154.53a77.59,77.59,0,0,0,7.8-4.53h-.79A78.35,78.35,0,0,1,18.1,126.6c-1.37-2.12-2.63-4.31-3.79-6.55Z"/><path class="cls-6" d="M113.58,104.8l20.3-20.3-.25-.25-20,20a41.92,41.92,0,0,1-44,9.7c0-.66-.06-1.33-.06-2v.5c0,.67,0,1.34.06,2A41.92,41.92,0,0,0,113.58,104.8Z"/><path class="cls-6" d="M84,3a81.58,81.58,0,0,1,81.49,81.25c0-.08,0-.17,0-.25a81.5,81.5,0,0,0-163,0c0,.08,0,.17,0,.25A81.58,81.58,0,0,1,84,3Z"/><path class="cls-6" d="M64,19a37.55,37.55,0,0,1,37.27,33.39,44.65,44.65,0,0,1,14.43,9.69l21,21A21.51,21.51,0,0,1,156,71h5.31c0-.17-.06-.33-.09-.5H156a21.51,21.51,0,0,0-19.3,12.08l-21-21a44.65,44.65,0,0,0-14.43-9.69A37.55,37.55,0,0,0,64,18.5H41.59l-.79.5Z"/><path class="cls-6" d="M137.5,141.37v.5a78.24,78.24,0,0,0,25-57.37c0-.1,0-.2,0-.3A78.26,78.26,0,0,1,137.5,141.37Z"/><path class="cls-6" d="M101.5,56.5V56a1.77,1.77,0,0,0,0-.23h0C101.49,56,101.5,56.25,101.5,56.5Z"/><path class="cls-6" d="M31.41,83,52.3,62.08A44.88,44.88,0,0,1,98.09,51.21c0-.17-.06-.35-.09-.53a44.88,44.88,0,0,0-45.7,10.9L31.41,82.47A14.51,14.51,0,0,1,17.5,68v.5A14.51,14.51,0,0,0,31.41,83Z"/><path class="cls-6" d="M134.5,144.54V144c-1,.84-2,1.66-3.07,2.46H104a34.53,34.53,0,0,1-33.53-26.45h-.13A34.55,34.55,0,0,0,104,147h27.43C132.47,146.2,133.5,145.38,134.5,144.54Z"/><path class="cls-6" d="M12.6,117.05H66.79l-.06-.44-.14-.06h-54A77.89,77.89,0,0,1,5.5,84.27v.23A77.83,77.83,0,0,0,12.6,117.05Z"/><path class="cls-6" d="M54.42,104.8a41.9,41.9,0,0,0,12.1,8.44c0-.17,0-.34,0-.51a41.82,41.82,0,0,1-12.09-8.43l-20.05-20-.25.25Z"/><path class="cls-6" d="M84,98.5A14.52,14.52,0,0,1,69.51,84.25c0,.08,0,.17,0,.25a14.5,14.5,0,0,0,29,0c0-.08,0-.17,0-.25A14.52,14.52,0,0,1,84,98.5Z"/><path class="cls-6" d="M84,67a17.5,17.5,0,0,1,14.5,7.71v-.5A17.5,17.5,0,0,0,66.5,84v.5A17.52,17.52,0,0,1,84,67Z"/></g><path class="cls-7" d="M101.5,84V78.88L90.3,67.68A17.5,17.5,0,0,0,66.5,84v6.72l7.88,7.89A17.48,17.48,0,0,0,101.5,84ZM84,98.5A14.5,14.5,0,1,1,98.5,84h0A14.52,14.52,0,0,1,84,98.5Z"/><path class="cls-8" d="M47,71.17l7.47-7.47A41.43,41.43,0,0,1,75,52.42l-2.49-2.49A44.45,44.45,0,0,0,52.3,61.58l-7.47,7.47Z"/><path class="cls-9" d="M15.58,39.8,17.75,42A79.15,79.15,0,0,1,36.57,21.5h7.55l-3-3H40.8l.2-.13L38.83,16.2A82.32,82.32,0,0,0,15.58,39.8Z"/><path class="cls-10" d="M120.25,97.63l-6.67,6.67a41.48,41.48,0,0,1-22,11.55l2.54,2.54a44.61,44.61,0,0,0,21.53-12l6.67-6.67Z"/><path class="cls-11" d="M151.8,129.17,149.62,127a79,79,0,0,1-12.12,14.38V114.88l-3-3V144c-1,.84-2,1.66-3.07,2.46h-9.15l3,3h1.92c-.39.26-.78.5-1.18.75l2.18,2.17A82.32,82.32,0,0,0,151.8,129.17Z"/><g id="outer_border" data-name="outer border"><path class="cls-12" d="M84,168a84,84,0,1,1,84-84A84,84,0,0,1,84,168ZM84,8a76,76,0,1,0,76,76A76,76,0,0,0,84,8Z"/></g><g id="outer_highlight" data-name="outer highlight"><path class="cls-13" d="M84,8A76,76,0,1,1,8,84,76,76,0,0,1,84,8m0-1a77,77,0,1,0,77,77A77,77,0,0,0,84,7Z"/></g><path id="outer_pink_hue" data-name="outer pink hue" class="cls-14" d="M132,152.88v-10a75.82,75.82,0,0,1-96,0v10A83.75,83.75,0,0,0,132,152.88Z"/><g id="bkgd_highlight" data-name="bkgd highlight" class="cls-4"><ellipse class="cls-15" cx="84.54" cy="141.81" rx="40.53" ry="19"/></g><path id="outer_rt_glare" data-name="outer rt glare" class="cls-16" d="M153.6,131l-5.78-5.79a76.54,76.54,0,0,1-23.6,23.25l5.79,5.79A84.63,84.63,0,0,0,153.6,131Z"/><path id="outer_lt_glare" data-name="outer lt glare" class="cls-17" d="M13.77,38l5.79,5.79a76.54,76.54,0,0,1,23.25-23.6L37,14.4A84.63,84.63,0,0,0,13.77,38Z"/><path id="outer_halo" data-name="outer halo" class="cls-18" d="M84,8a76.09,76.09,0,0,1,76,76h8A84,84,0,0,0,0,84H8A76.09,76.09,0,0,1,84,8Z"/></g></g></g></g></svg>