<svg xmlns="http://www.w3.org/2000/svg" xmlns:xlink="http://www.w3.org/1999/xlink" viewBox="0 0 168 168"><defs><style>.cls-1{fill:none;}.cls-2{fill:url(#linear-gradient);}.cls-3{opacity:0.5;}.cls-15,.cls-17,.cls-3,.cls-6{isolation:isolate;}.cls-4{fill:url(#linear-gradient-2);}.cls-5{fill:url(#linear-gradient-3);}.cls-13,.cls-6{opacity:0.3;}.cls-7{fill:#fff;}.cls-8{clip-path:url(#clip-path);}.cls-9{fill:url(#linear-gradient-5);}.cls-10{fill:url(#linear-gradient-6);}.cls-11{fill:url(#linear-gradient-7);}.cls-12{fill:url(#linear-gradient-8);}.cls-14{fill:url(#radial-gradient);}.cls-15{opacity:0.7;fill:url(#linear-gradient-9);}.cls-16{fill:url(#linear-gradient-10);}.cls-17{opacity:0.4;fill:url(#linear-gradient-11);}</style><linearGradient id="linear-gradient" x1="-480" y1="2033.45" x2="-480" y2="2201.45" gradientTransform="matrix(1, 0, 0, -1, 564, 2201.45)" gradientUnits="userSpaceOnUse"><stop offset="0" stop-color="#333d45"/><stop offset="1"/></linearGradient><linearGradient id="linear-gradient-2" x1="-512.21" y1="2052.54" x2="-444.19" y2="2157.27" gradientTransform="matrix(1, 0, 0, -1, 564, 2201.45)" gradientUnits="userSpaceOnUse"><stop offset="0" stop-color="#0bb7c8"/><stop offset="1" stop-color="#94fc82"/></linearGradient><linearGradient id="linear-gradient-3" x1="-479.47" y1="2034.57" x2="-479.47" y2="2197.59" gradientTransform="matrix(1, 0, 0, -1, 564, 2201.45)" gradientUnits="userSpaceOnUse"><stop offset="0" stop-color="#688199"/><stop offset="1" stop-color="#f7f9fa"/></linearGradient><clipPath id="clip-path"><path class="cls-1" d="M166,85.38a81.5,81.5,0,1,0-91,80.93v0l1.09.11.21,0h0c.25,0,.51,0,.76.06,1.1.1,2.2.19,3.31.25,1.36.07,2.73.1,4.08.1s2.72,0,4.09-.1c1.11-.06,2.21-.15,3.31-.25l.75-.06h0l.22,0,1.08-.11v0A81.6,81.6,0,0,0,166,85.38Zm-12.9,38.1H107.86a81.85,81.85,0,0,0,53.91-52A78,78,0,0,1,153.13,123.48Zm7.32-58.07a78.75,78.75,0,0,1-56.46,56,37.46,37.46,0,0,0,4.83-60.67l-.08-.07s-.79-.69-2-1.88A46.4,46.4,0,0,1,93.28,26.17V26a15.75,15.75,0,0,1,14.27-15.62A78.83,78.83,0,0,1,160.45,65.41ZM89.58,163.7c-.47,0-.94.07-1.42.09-1.1.05-2.21.08-3.32.08h-.62c-1.11,0-2.21,0-3.32-.08l-1.42-.09L78,163.59V124.85l0,0a1.46,1.46,0,0,0,0-.69v-7.52a12.19,12.19,0,0,0,2.14,1.27l.09,0a11.35,11.35,0,0,0,1.22.47l.26.08a10.89,10.89,0,0,0,1.23.28l.23,0a9.19,9.19,0,0,0,2.67,0l.22,0a10,10,0,0,0,1.23-.28l.26-.08a10.74,10.74,0,0,0,1.23-.47.2.2,0,0,0,.08,0A11.83,11.83,0,0,0,91,116.61v47Zm-20.88-86a46.74,46.74,0,0,1-3.18-15.76c0-.65,0-1.3,0-2,.91-20,18.74-29.19,24.77-31.75A49.41,49.41,0,0,0,104.63,61c1.28,1.27,2.11,2,2.18,2l.09.07A34.49,34.49,0,0,1,94,122.56v-9c3.06-3.94,5-9.73,5-16.2,0-11.85-6.5-21.5-14.5-21.5S70,85.53,70,97.38c0,6.47,2,12.26,5,16.2v9A34.74,34.74,0,0,1,50.09,89.27a34.19,34.19,0,0,1,4.42-16.82A37,37,0,0,0,57,82.27a6.3,6.3,0,0,0,11.73-4.6Zm17.74,37.94c-.25.07-.51.13-.77.18a7.26,7.26,0,0,1-2.28,0,6.49,6.49,0,0,1-.76-.19l-.29-.07a10.36,10.36,0,0,1-4.65-3.36l-.64-.78a24.36,24.36,0,0,1-4-14c0-10.2,5.16-18.5,11.5-18.5S96,87.18,96,97.38a24.28,24.28,0,0,1-4,14l-.64.78a10.41,10.41,0,0,1-4.65,3.36l-.29.08ZM84.53,6.88a78.16,78.16,0,0,1,17.11,1.9,18.74,18.74,0,0,0-11.3,16.11c-5,1.93-26.73,11.72-27.79,34.85v.1c0,.69,0,1.39,0,2.11a50,50,0,0,0,3.37,16.77A3.31,3.31,0,0,1,64,83a3.37,3.37,0,0,1-2.28,0,3.26,3.26,0,0,1-1.93-1.85A34,34,0,0,1,57.3,67.78a1.49,1.49,0,0,0-2.69-.93,37.14,37.14,0,0,0-7.52,22.41,37.78,37.78,0,0,0,18.17,32.22A78.71,78.71,0,0,1,8.62,65.4,78.64,78.64,0,0,1,84.53,6.88ZM6,85.38A78.57,78.57,0,0,1,7.3,71.44,81.72,81.72,0,0,0,75,126.31,26.45,26.45,0,0,1,48.57,151.4H42.14A78.5,78.5,0,0,1,6,85.38Zm41.13,69h1.41A29.44,29.44,0,0,0,75,137.81v25.48A78.11,78.11,0,0,1,47.16,154.4ZM94,163.29V126.48h57.35A78.62,78.62,0,0,1,94,163.29Z"/></clipPath><linearGradient id="linear-gradient-5" x1="-492.11" y1="2105.34" x2="-468.69" y2="2128.76" gradientTransform="matrix(1, 0, 0, -1, 564, 2201.45)" gradientUnits="userSpaceOnUse"><stop offset="0.25" stop-color="#f7f9fa" stop-opacity="0"/><stop offset="0.5" stop-color="#fff"/><stop offset="0.75" stop-color="#bee6fa" stop-opacity="0"/></linearGradient><linearGradient id="linear-gradient-6" x1="-480" y1="2033.45" x2="-480" y2="2201.45" xlink:href="#linear-gradient-3"/><linearGradient id="linear-gradient-7" x1="-480" y1="2040.45" x2="-480" y2="2194.45" gradientTransform="matrix(1, 0, 0, -1, 564, 2201.45)" gradientUnits="userSpaceOnUse"><stop offset="0" stop-color="#f7f9fa"/><stop offset="1" stop-color="#f7f9fa" stop-opacity="0"/></linearGradient><linearGradient id="linear-gradient-8" x1="-528" y1="2046.02" x2="-432" y2="2046.02" gradientTransform="matrix(1, 0, 0, -1, 564, 2201.45)" gradientUnits="userSpaceOnUse"><stop offset="0" stop-color="#e8749f" stop-opacity="0"/><stop offset="0.5" stop-color="#f7f9fa"/><stop offset="1" stop-color="#e8749f" stop-opacity="0"/></linearGradient><radialGradient id="radial-gradient" cx="-7171.08" cy="293" fy="311.05018509885326" r="20.27" gradientTransform="matrix(-2, 0, 0, 0.94, -14257.63, -132.88)" gradientUnits="userSpaceOnUse"><stop offset="0" stop-color="#fff"/><stop offset="0.68" stop-color="#e78bad" stop-opacity="0"/></radialGradient><linearGradient id="linear-gradient-9" x1="-436.26" y1="2049.49" x2="-412.84" y2="2072.92" xlink:href="#linear-gradient-5"/><linearGradient id="linear-gradient-10" x1="-547.96" y1="2161.19" x2="-524.53" y2="2184.61" xlink:href="#linear-gradient-5"/><linearGradient id="linear-gradient-11" x1="-480" y1="2117.45" x2="-480" y2="2201.45" gradientTransform="matrix(1, 0, 0, -1, 564, 2201.45)" gradientUnits="userSpaceOnUse"><stop offset="0" stop-color="#e8749f" stop-opacity="0"/><stop offset="1" stop-color="#f7f9fa"/></linearGradient></defs><g id="Layer_2" data-name="Layer 2"><g id="Layer_1-2" data-name="Layer 1"><g id="Layer_2-2" data-name="Layer 2"><g id="Layer_1-2-2" data-name="Layer 1-2"><path id="base_bkgd" data-name="base bkgd" class="cls-2" d="M84,168a84,84,0,1,1,84-84A84,84,0,0,1,84,168Z"/><g id="border_shadow" data-name="border shadow"><path d="M84,9A75,75,0,1,1,9,84,75,75,0,0,1,84,9m0-1a76,76,0,1,0,76,76A76,76,0,0,0,84,8Z"/></g><path class="cls-3" d="M166,86.38a81.5,81.5,0,1,0-91,80.93v0l1.09.11.21,0h0c.25,0,.51,0,.76.06,1.1.1,2.2.19,3.31.25,1.36.07,2.73.1,4.08.1s2.72,0,4.09-.1c1.11-.06,2.21-.15,3.31-.25l.75-.06h0l.22,0,1.08-.11v0A81.6,81.6,0,0,0,166,86.38Zm-12.9,38.1H107.86a81.85,81.85,0,0,0,53.91-52A78,78,0,0,1,153.13,124.48Zm7.32-58.07a78.75,78.75,0,0,1-56.46,56,37.46,37.46,0,0,0,4.83-60.67l-.08-.07s-.79-.69-2-1.88A46.4,46.4,0,0,1,93.28,27.17V27a15.75,15.75,0,0,1,14.27-15.62A78.83,78.83,0,0,1,160.45,66.41ZM89.58,164.7c-.47,0-.94.07-1.42.09-1.1.05-2.21.08-3.32.08h-.62c-1.11,0-2.21,0-3.32-.08l-1.42-.09L78,164.59V125.85l0,0a1.46,1.46,0,0,0,0-.69v-7.52a12.19,12.19,0,0,0,2.14,1.27l.09,0a11.35,11.35,0,0,0,1.22.47l.26.08a10.89,10.89,0,0,0,1.23.28l.23,0a9.19,9.19,0,0,0,2.67,0l.22,0a10,10,0,0,0,1.23-.28l.26-.08a10.74,10.74,0,0,0,1.23-.47.2.2,0,0,0,.08,0A11.83,11.83,0,0,0,91,117.61v47Zm-20.88-86a46.74,46.74,0,0,1-3.18-15.76c0-.65,0-1.3,0-2,.91-20,18.74-29.19,24.77-31.75A49.41,49.41,0,0,0,104.63,62c1.28,1.27,2.11,2,2.18,2l.09.07A34.49,34.49,0,0,1,94,123.56v-9c3.06-3.94,5-9.73,5-16.2,0-11.85-6.5-21.5-14.5-21.5S70,86.53,70,98.38c0,6.47,2,12.26,5,16.2v9A34.74,34.74,0,0,1,50.09,90.27a34.19,34.19,0,0,1,4.42-16.82A37,37,0,0,0,57,83.27a6.3,6.3,0,0,0,11.73-4.6Zm17.74,37.94c-.25.07-.51.13-.77.18a7.26,7.26,0,0,1-2.28,0,6.49,6.49,0,0,1-.76-.19l-.29-.07a10.36,10.36,0,0,1-4.65-3.36l-.64-.78a24.36,24.36,0,0,1-4-14c0-10.2,5.16-18.5,11.5-18.5S96,88.18,96,98.38a24.28,24.28,0,0,1-4,14l-.64.78a10.41,10.41,0,0,1-4.65,3.36l-.29.08ZM84.53,7.88a78.16,78.16,0,0,1,17.11,1.9,18.74,18.74,0,0,0-11.3,16.11c-5,1.93-26.73,11.72-27.79,34.85v.1c0,.69,0,1.39,0,2.11a50,50,0,0,0,3.37,16.77A3.31,3.31,0,0,1,64,84a3.37,3.37,0,0,1-2.28,0,3.26,3.26,0,0,1-1.93-1.85A34,34,0,0,1,57.3,68.78a1.49,1.49,0,0,0-2.69-.93,37.14,37.14,0,0,0-7.52,22.41,37.78,37.78,0,0,0,18.17,32.22A78.71,78.71,0,0,1,8.62,66.4,78.64,78.64,0,0,1,84.53,7.88ZM6,86.38A78.57,78.57,0,0,1,7.3,72.44,81.72,81.72,0,0,0,75,127.31,26.45,26.45,0,0,1,48.57,152.4H42.14A78.5,78.5,0,0,1,6,86.38Zm41.13,69h1.41A29.44,29.44,0,0,0,75,138.81v25.48A78.11,78.11,0,0,1,47.16,155.4ZM94,164.29V127.48h57.35A78.62,78.62,0,0,1,94,164.29Z"/><path class="cls-4" d="M92.53,124.48a36,36,0,0,0,15.29-62.55l-.11-.1s-.81-.69-2.07-1.95A47.59,47.59,0,0,1,91.73,26.17V26c-1.18.4-26.61,9.31-27.73,33.86v.1c0,.66,0,1.33,0,2A48.27,48.27,0,0,0,67.24,78.2a4.8,4.8,0,0,1-2.16,5.88h0a4.79,4.79,0,0,1-6.52-1.85,5,5,0,0,1-.25-.52,35.68,35.68,0,0,1-2.56-14h0a36,36,0,0,0,20.78,56.74h0V165c2.64.26,5.3.4,8,.4s5.37-.14,8-.4Zm-21-27.1c0-11,5.82-20,13-20s13,9,13,20-5.82,20-13,20S71.53,108.43,71.53,97.38Z"/><path class="cls-5" d="M166,85.38a81.5,81.5,0,1,0-91,80.93v0l1.09.11.21,0h0c.25,0,.51,0,.76.06,1.1.1,2.2.19,3.31.25,1.36.07,2.73.1,4.08.1s2.72,0,4.09-.1c1.11-.06,2.21-.15,3.31-.25l.75-.06h0l.22,0,1.08-.11v0A81.6,81.6,0,0,0,166,85.38Zm-12.9,38.1H107.86a81.85,81.85,0,0,0,53.91-52A78,78,0,0,1,153.13,123.48Zm7.32-58.07a78.75,78.75,0,0,1-56.46,56,37.46,37.46,0,0,0,4.83-60.67l-.08-.07s-.79-.69-2-1.88A46.4,46.4,0,0,1,93.28,26.17V26a15.75,15.75,0,0,1,14.27-15.62A78.83,78.83,0,0,1,160.45,65.41ZM89.58,163.7c-.47,0-.94.07-1.42.09-1.1.05-2.21.08-3.32.08h-.62c-1.11,0-2.21,0-3.32-.08l-1.42-.09L78,163.59V124.85l0,0a1.46,1.46,0,0,0,0-.69v-7.52a12.19,12.19,0,0,0,2.14,1.27l.09,0a11.35,11.35,0,0,0,1.22.47l.26.08a10.89,10.89,0,0,0,1.23.28l.23,0a9.19,9.19,0,0,0,2.67,0l.22,0a10,10,0,0,0,1.23-.28l.26-.08a10.74,10.74,0,0,0,1.23-.47.2.2,0,0,0,.08,0A11.83,11.83,0,0,0,91,116.61v47Zm-20.88-86a46.74,46.74,0,0,1-3.18-15.76c0-.65,0-1.3,0-2,.91-20,18.74-29.19,24.77-31.75A49.41,49.41,0,0,0,104.63,61c1.28,1.27,2.11,2,2.18,2l.09.07A34.49,34.49,0,0,1,94,122.56v-9c3.06-3.94,5-9.73,5-16.2,0-11.85-6.5-21.5-14.5-21.5S70,85.53,70,97.38c0,6.47,2,12.26,5,16.2v9A34.74,34.74,0,0,1,50.09,89.27a34.19,34.19,0,0,1,4.42-16.82A37,37,0,0,0,57,82.27a6.3,6.3,0,0,0,11.73-4.6Zm17.74,37.94c-.25.07-.51.13-.77.18a7.26,7.26,0,0,1-2.28,0,6.49,6.49,0,0,1-.76-.19l-.29-.07a10.36,10.36,0,0,1-4.65-3.36l-.64-.78a24.36,24.36,0,0,1-4-14c0-10.2,5.16-18.5,11.5-18.5S96,87.18,96,97.38a24.28,24.28,0,0,1-4,14l-.64.78a10.41,10.41,0,0,1-4.65,3.36l-.29.08ZM84.53,6.88a78.16,78.16,0,0,1,17.11,1.9,18.74,18.74,0,0,0-11.3,16.11c-5,1.93-26.73,11.72-27.79,34.85v.1c0,.69,0,1.39,0,2.11a50,50,0,0,0,3.37,16.77A3.31,3.31,0,0,1,64,83a3.37,3.37,0,0,1-2.28,0,3.26,3.26,0,0,1-1.93-1.85A34,34,0,0,1,57.3,67.78a1.49,1.49,0,0,0-2.69-.93,37.14,37.14,0,0,0-7.52,22.41,37.78,37.78,0,0,0,18.17,32.22A78.71,78.71,0,0,1,8.62,65.4,78.64,78.64,0,0,1,84.53,6.88ZM6,85.38A78.57,78.57,0,0,1,7.3,71.44,81.72,81.72,0,0,0,75,126.31,26.45,26.45,0,0,1,48.57,151.4H42.14A78.5,78.5,0,0,1,6,85.38Zm41.13,69h1.41A29.44,29.44,0,0,0,75,137.81v25.48A78.11,78.11,0,0,1,47.16,154.4ZM94,163.29V126.48h57.35A78.62,78.62,0,0,1,94,163.29Z"/><path class="cls-6" d="M120.53,89.38a35.91,35.91,0,0,0-12.71-27.45l-.11-.1s-.81-.69-2.07-1.95A47.59,47.59,0,0,1,91.73,26.17V26c-1.18.4-26.61,9.31-27.73,33.86v.1c0,.66,0,1.34,0,2A48.27,48.27,0,0,0,67.24,78.2a4.8,4.8,0,0,1-2.16,5.88h0a4.79,4.79,0,0,1-6.52-1.85,5,5,0,0,1-.25-.52,35.68,35.68,0,0,1-2.56-14h0a36,36,0,0,0,20.78,56.74h0V165c2.64.26,5.3.4,8,.4a78.34,78.34,0,0,0,8-.4v-40.5A36,36,0,0,0,120.53,89.38ZM90,162.67l-.92.06c-.33,0-.66.05-1,.06-1.12.05-2.22.08-3.28.08h-.61c-1.06,0-2.17,0-3.28-.08-.33,0-.66,0-1-.06l-.93-.06V125a2.22,2.22,0,0,0,0-1v-5.59c.24.13.47.24.71.35l.1,0a10.72,10.72,0,0,0,1.33.51l.3.09a12,12,0,0,0,1.35.31l.24,0a10.39,10.39,0,0,0,1.47.11,10.25,10.25,0,0,0,1.56-.12l.16,0a12,12,0,0,0,1.35-.31l.28-.08a12,12,0,0,0,1.34-.52l.1,0c.24-.11.48-.23.71-.36Zm-5.5-45.29c-7.18,0-13-8.95-13-20s5.82-20,13-20,13,9,13,20S91.71,117.38,84.53,117.38ZM95,121.21v-7.29c3.18-4.26,5-10.26,5-16.54,0-12.41-7-22.5-15.5-22.5S69,85,69,97.38c0,6.28,1.82,12.28,5,16.54v7.25A33.65,33.65,0,0,1,51.09,89.28,33,33,0,0,1,54,75.69a38.23,38.23,0,0,0,2,7,7.29,7.29,0,0,0,6.75,4.55h0a7.29,7.29,0,0,0,6.84-9.87A46,46,0,0,1,66.52,61.9c0-.64,0-1.27,0-2,.84-18.16,16.33-27.26,22.87-30.3a50.5,50.5,0,0,0,14.52,32c1.24,1.24,2.07,2,2.21,2.09l.11.1A33.49,33.49,0,0,1,95,121.21Z"/><path class="cls-5" d="M166,85.38a81.5,81.5,0,1,0-91,80.93v0l1.09.11.21,0h0c.25,0,.51,0,.76.06,1.1.1,2.2.19,3.31.25,1.36.07,2.73.1,4.08.1s2.72,0,4.09-.1c1.11-.06,2.21-.15,3.31-.25l.75-.06h0l.22,0,1.08-.11v0A81.6,81.6,0,0,0,166,85.38Zm-12.9,38.1H107.86a81.85,81.85,0,0,0,53.91-52A78,78,0,0,1,153.13,123.48Zm7.32-58.07a78.75,78.75,0,0,1-56.46,56,37.46,37.46,0,0,0,4.83-60.67l-.08-.07s-.79-.69-2-1.88A46.4,46.4,0,0,1,93.28,26.17V26a15.75,15.75,0,0,1,14.27-15.62A78.83,78.83,0,0,1,160.45,65.41ZM89.58,163.7c-.47,0-.94.07-1.42.09-1.1.05-2.21.08-3.32.08h-.62c-1.11,0-2.21,0-3.32-.08l-1.42-.09L78,163.59V124.85l0,0a1.46,1.46,0,0,0,0-.69v-7.52a12.19,12.19,0,0,0,2.14,1.27l.09,0a11.35,11.35,0,0,0,1.22.47l.26.08a10.89,10.89,0,0,0,1.23.28l.23,0a9.19,9.19,0,0,0,2.67,0l.22,0a10,10,0,0,0,1.23-.28l.26-.08a10.74,10.74,0,0,0,1.23-.47.2.2,0,0,0,.08,0A11.83,11.83,0,0,0,91,116.61v47Zm-20.88-86a46.74,46.74,0,0,1-3.18-15.76c0-.65,0-1.3,0-2,.91-20,18.74-29.19,24.77-31.75A49.41,49.41,0,0,0,104.63,61c1.28,1.27,2.11,2,2.18,2l.09.07A34.49,34.49,0,0,1,94,122.56v-9c3.06-3.94,5-9.73,5-16.2,0-11.85-6.5-21.5-14.5-21.5S70,85.53,70,97.38c0,6.47,2,12.26,5,16.2v9A34.74,34.74,0,0,1,50.09,89.27a34.19,34.19,0,0,1,4.42-16.82A37,37,0,0,0,57,82.27a6.3,6.3,0,0,0,11.73-4.6Zm17.74,37.94c-.25.07-.51.13-.77.18a7.26,7.26,0,0,1-2.28,0,6.49,6.49,0,0,1-.76-.19l-.29-.07a10.36,10.36,0,0,1-4.65-3.36l-.64-.78a24.36,24.36,0,0,1-4-14c0-10.2,5.16-18.5,11.5-18.5S96,87.18,96,97.38a24.28,24.28,0,0,1-4,14l-.64.78a10.41,10.41,0,0,1-4.65,3.36l-.29.08ZM84.53,6.88a78.16,78.16,0,0,1,17.11,1.9,18.74,18.74,0,0,0-11.3,16.11c-5,1.93-26.73,11.72-27.79,34.85v.1c0,.69,0,1.39,0,2.11a50,50,0,0,0,3.37,16.77A3.31,3.31,0,0,1,64,83a3.37,3.37,0,0,1-2.28,0,3.26,3.26,0,0,1-1.93-1.85A34,34,0,0,1,57.3,67.78a1.49,1.49,0,0,0-2.69-.93,37.14,37.14,0,0,0-7.52,22.41,37.78,37.78,0,0,0,18.17,32.22A78.71,78.71,0,0,1,8.62,65.4,78.64,78.64,0,0,1,84.53,6.88ZM6,85.38A78.57,78.57,0,0,1,7.3,71.44,81.72,81.72,0,0,0,75,126.31,26.45,26.45,0,0,1,48.57,151.4H42.14A78.5,78.5,0,0,1,6,85.38Zm41.13,69h1.41A29.44,29.44,0,0,0,75,137.81v25.48A78.11,78.11,0,0,1,47.16,154.4ZM94,163.29V126.48h57.35A78.62,78.62,0,0,1,94,163.29Z"/><path class="cls-7" d="M75,162.79a77.91,77.91,0,0,1-26.9-8.39h-1A78.11,78.11,0,0,0,75,163.29Z"/><path class="cls-7" d="M92,111.39a24.28,24.28,0,0,0,4-14v-.26a24.22,24.22,0,0,1-4,13.77l-.64.78A10.41,10.41,0,0,1,86.73,115l-.29.08c-.25.07-.51.13-.77.18a7.26,7.26,0,0,1-2.28,0,6.49,6.49,0,0,1-.76-.19l-.29-.07a10.36,10.36,0,0,1-4.65-3.36l-.64-.78a24.22,24.22,0,0,1-4-13.77c0,.09,0,.17,0,.26a24.36,24.36,0,0,0,4,14l.64.78a10.36,10.36,0,0,0,4.65,3.36l.29.07a6.49,6.49,0,0,0,.76.19,7.26,7.26,0,0,0,2.28,0c.26-.05.52-.11.77-.18l.29-.08a10.47,10.47,0,0,0,4.65-3.36Z"/><path class="cls-7" d="M90.34,24.39c-5,1.93-26.73,11.72-27.79,34.85v.1c0,.69,0,1.39,0,2.11v.15c0-.59,0-1.18,0-1.76v-.1c1.06-23.13,22.82-32.92,27.79-34.85a18.74,18.74,0,0,1,11.3-16.11l-.73-.15A18.73,18.73,0,0,0,90.34,24.39Z"/><path class="cls-7" d="M105.3,120.58l-1.31.86a78.75,78.75,0,0,0,56.46-56c0-.09,0-.17-.07-.26A78.73,78.73,0,0,1,105.3,120.58Z"/><path class="cls-7" d="M109.44,123l-1.58.5h45.27a77.82,77.82,0,0,0,9.9-38.1v-.2a78,78,0,0,1-9.9,37.8Z"/><path class="cls-7" d="M78.05,124.26a1.49,1.49,0,0,0,0-.63v.5S78,124.22,78.05,124.26Z"/><path class="cls-7" d="M84.53,3.88A81.59,81.59,0,0,1,166,85.14v-.26a81.5,81.5,0,0,0-163,0c0,.09,0,.17,0,.26A81.59,81.59,0,0,1,84.53,3.88Z"/><path class="cls-7" d="M94,162.79v.5a78.62,78.62,0,0,0,57.35-36.81h-.32A78.62,78.62,0,0,1,94,162.79Z"/><path class="cls-7" d="M79.48,163.7l1.42.09c1.11.05,2.21.08,3.32.08h.62c1.11,0,2.22,0,3.32-.08.48,0,1-.06,1.42-.09l1.45-.11v-.5l-1.45.11c-.47,0-.94.07-1.42.09-1.1.05-2.21.08-3.32.08h-.62c-1.11,0-2.22,0-3.32-.08l-1.42-.09L78,163.09v.5Z"/><path class="cls-7" d="M75,122A34.76,34.76,0,0,1,50.09,89.1v.17A34.74,34.74,0,0,0,75,122.53Z"/><path class="cls-7" d="M84.53,75.38c-8,0-14.5,9.65-14.5,21.5,0,.08,0,.16,0,.24.1-11.73,6.56-21.24,14.49-21.24S98.93,85.39,99,97.12a1.93,1.93,0,0,0,0-.24C99,85,92.53,75.38,84.53,75.38Z"/><path class="cls-7" d="M65.26,121.48c-.45-.27-.88-.57-1.31-.86A78.73,78.73,0,0,1,8.69,65.16c0,.08,0,.16-.07.24A78.71,78.71,0,0,0,65.26,121.48Z"/><path class="cls-7" d="M42.14,151.4h6.43A26.45,26.45,0,0,0,75,126.31h0a26.45,26.45,0,0,1-26.34,24.6H42.14A78.47,78.47,0,0,1,6,85.18c0,.06,0,.13,0,.2A78.5,78.5,0,0,0,42.14,151.4Z"/><path class="cls-7" d="M119.08,89.38v-.22a34.75,34.75,0,0,1-25,32.9v.5A34.73,34.73,0,0,0,119.08,89.38Z"/><path class="cls-7" d="M93.28,26.17a46.4,46.4,0,0,0,13.47,32.65c1.2,1.19,2,1.87,2,1.88l.08.07A37.48,37.48,0,0,1,122.08,89.1v-.22a37.43,37.43,0,0,0-13.26-28.61l-.08-.07s-.79-.69-2-1.88A46.32,46.32,0,0,1,93.29,25.85s0,.07,0,.1Z"/><path class="cls-7" d="M56.29,66.33a1.49,1.49,0,0,1,1,1.45,34,34,0,0,0,2.45,13.37A3.22,3.22,0,0,0,61.68,83a3.32,3.32,0,0,0,2.72-.22,3.26,3.26,0,0,0,1.68-3.12,3.27,3.27,0,0,1-1.68,2.62,3.32,3.32,0,0,1-2.72.22,3.22,3.22,0,0,1-1.93-1.84A34,34,0,0,1,57.3,67.28a1.49,1.49,0,0,0-2.69-.93,37.14,37.14,0,0,0-7.52,22.41V89a37.14,37.14,0,0,1,7.52-22.13A1.5,1.5,0,0,1,56.29,66.33Z"/><path class="cls-7" d="M68.7,77.17a46.82,46.82,0,0,1-3.18-15.73c0,.16,0,.32,0,.47A46.74,46.74,0,0,0,68.7,77.67a6.44,6.44,0,0,1,.38,2A6.4,6.4,0,0,0,68.7,77.17Z"/><g class="cls-8"><path id="FOR_LINE_WORK_CIRCLE" data-name="FOR LINE WORK CIRCLE" class="cls-9" d="M34.62,12A87.61,87.61,0,0,0,12,36.22L131.78,156A87.61,87.61,0,0,0,156,133.38Z"/></g><path id="border" class="cls-10" d="M84,168a84,84,0,1,1,84-84A84,84,0,0,1,84,168ZM84,8a76,76,0,1,0,76,76A76,76,0,0,0,84,8Z"/><g id="border_highlight" data-name="border highlight"><path class="cls-11" d="M84,8A76,76,0,1,1,8,84,76,76,0,0,1,84,8m0-1a77,77,0,1,0,77,77A77,77,0,0,0,84,7Z"/></g><path id="outer_pink" data-name="outer pink" class="cls-12" d="M132,152.88v-10a75.82,75.82,0,0,1-96,0v10A83.75,83.75,0,0,0,132,152.88Z"/><g id="elipse" class="cls-13"><ellipse class="cls-14" cx="84.54" cy="141.81" rx="40.53" ry="19"/></g><path id="right_glare" data-name="right glare" class="cls-15" d="M153.6,131l-5.78-5.79a76.54,76.54,0,0,1-23.6,23.25l5.79,5.79A84.63,84.63,0,0,0,153.6,131Z"/><path id="left_glare" data-name="left glare" class="cls-16" d="M13.77,38l5.79,5.79a76.54,76.54,0,0,1,23.25-23.6L37,14.4A84.63,84.63,0,0,0,13.77,38Z"/><path id="top_halo" data-name="top halo" class="cls-17" d="M84,8a76.09,76.09,0,0,1,76,76h8A84,84,0,0,0,0,84H8A76.09,76.09,0,0,1,84,8Z"/></g></g></g></g></svg>