<svg xmlns="http://www.w3.org/2000/svg" xmlns:xlink="http://www.w3.org/1999/xlink" width="168" height="168" viewBox="0 0 168 168"><defs><style>.cls-1{fill:none;}.cls-2{fill:url(#linear-gradient);}.cls-3{opacity:0.5;}.cls-4{fill:url(#New_Gradient_Swatch_4);}.cls-13,.cls-5{opacity:0.3;}.cls-6{fill:url(#New_Gradient_Swatch_1);}.cls-7{fill:#fff;}.cls-8{clip-path:url(#clip-path);}.cls-9{fill:url(#linear-gradient-2);}.cls-10{fill:url(#linear-gradient-3);}.cls-11{fill:url(#linear-gradient-4);}.cls-12{fill:url(#linear-gradient-5);}.cls-14{fill:url(#radial-gradient);}.cls-15{opacity:0.7;fill:url(#linear-gradient-6);}.cls-16{fill:url(#linear-gradient-7);}.cls-17{opacity:0.4;fill:url(#linear-gradient-8);}</style><linearGradient id="linear-gradient" x1="84" y1="168" x2="84" gradientUnits="userSpaceOnUse"><stop offset="0" stop-color="#333d45"/><stop offset="0.9988"/></linearGradient><linearGradient id="New_Gradient_Swatch_4" x1="83.6541" y1="142.2064" x2="83.6541" y2="108.2064" gradientUnits="userSpaceOnUse"><stop offset="0" stop-color="#8359df"/><stop offset="1" stop-color="#00a894"/></linearGradient><linearGradient id="New_Gradient_Swatch_1" x1="83.6544" y1="167.2802" x2="83.6544" y2="4.2802" gradientUnits="userSpaceOnUse"><stop offset="0" stop-color="#688199"/><stop offset="1" stop-color="#f7f9fa"/></linearGradient><clipPath id="clip-path"><path class="cls-1" d="M83.6544,4.28a81.5,81.5,0,1,0,81.5,81.5A81.592,81.592,0,0,0,83.6544,4.28Zm70.5,47.0141V51.78a54.5835,54.5835,0,0,1-36.9995,51.601V62.1942h-.0982a33.5106,33.5106,0,0,0-9.7143-22.1015l-1.0611,1.06,1.0606-1.06A33.2783,33.2783,0,0,0,83.6544,30.28h-20A18.6264,18.6264,0,0,1,45.9087,16.975,78.4271,78.4271,0,0,1,154.1539,51.2943ZM67.0328,128.8427l-.1485-3.5625h33.54l-.1485,3.5625a1.4967,1.4967,0,0,1-1.499,1.4375H68.5318A1.4969,1.4969,0,0,1,67.0328,128.8427Zm-.75-18a1.5009,1.5009,0,0,1,1.499-1.5625H99.5264a1.5009,1.5009,0,0,1,1.499,1.5625l-.1432,3.4375H66.426ZM78.1544,80.28h-4.5a4.5,4.5,0,1,1,4.5-4.5Zm8,26h-5v-23h5Zm12.6445-5.753L98.08,106.28H89.1544v-23h4.5a7.5,7.5,0,1,0-7.5-7.5v4.5h-5v-4.5a7.5,7.5,0,1,0-7.5,7.5h4.5v23H69.2281l-.7188-5.753a21.6491,21.6491,0,0,0-3.2485-8.9589L57.9986,80.2714a30.6718,30.6718,0,0,1,4.0889-38.0576,30.4989,30.4989,0,0,1,43.1333,0A30.6719,30.6719,0,0,1,109.31,80.2714l-7.2622,11.2969A21.6365,21.6365,0,0,0,98.7989,100.5272ZM89.1544,80.28v-4.5a4.5,4.5,0,1,1,4.5,4.5Zm11.6028,37-.2083,5h-33.79l-.2083-5Zm-6.53,16-1.7036,3.4072A6.4644,6.4644,0,0,1,86.71,140.28H80.5982a6.4644,6.4644,0,0,1-5.8135-3.5928L73.0811,133.28Zm-9.0732,10H86.71a9.4476,9.4476,0,0,0,8.4971-5.251l2.3739-4.749h1.1954a4.4893,4.4893,0,0,0,4.4961-4.3125l.75-18a4.4763,4.4763,0,0,0-.3168-1.8462,57.2112,57.2112,0,0,0,10.4487-1.6968v50.6875a78.0376,78.0376,0,0,1-29.0005,6.13Zm15.9538-37.0371.6677-5.3428a18.6131,18.6131,0,0,1,2.7955-7.709l7.2622-11.2969a32.9972,32.9972,0,0,0,2.3213-4.2905v26.7026A54.2917,54.2917,0,0,1,101.1077,106.2431ZM43.2343,18.5145A21.36,21.36,0,0,0,63.6544,33.28h6.1212a33.5272,33.5272,0,0,0-14.3,48.6142L62.7374,93.19a18.6358,18.6358,0,0,1,2.7954,7.709l.6721,5.3809H51.8526a41.2244,41.2244,0,0,0-29.3447,12.1552l-6.7206,6.72A78.3771,78.3771,0,0,1,43.2343,18.5145ZM17.3932,127.7919l7.2358-7.2354A38.2477,38.2477,0,0,1,51.8526,109.28H63.5449a4.4831,4.4831,0,0,0-.2592,1.6875l.75,18a4.4893,4.4893,0,0,0,4.4961,4.3125h1.1948l2.3745,4.749a9.4477,9.4477,0,0,0,8.4971,5.251h1.5557v20.9619A78.4905,78.4905,0,0,1,17.3932,127.7919Zm99.7612,28.9634V106.5482a57.64,57.64,0,0,0,39.7128-49.0376,78.4144,78.4144,0,0,1-39.7128,99.2447Z"/></clipPath><linearGradient id="linear-gradient-2" x1="71.8891" y1="96.1109" x2="95.312" y2="72.688" gradientUnits="userSpaceOnUse"><stop offset="0.25" stop-color="#f7f9fa" stop-opacity="0"/><stop offset="0.5" stop-color="#fff"/><stop offset="0.75" stop-color="#bee6fa" stop-opacity="0"/></linearGradient><linearGradient id="linear-gradient-3" x1="84" y1="168" x2="84" y2="0" xlink:href="#New_Gradient_Swatch_1"/><linearGradient id="linear-gradient-4" x1="84" y1="161.4262" x2="84" y2="7.4262" gradientUnits="userSpaceOnUse"><stop offset="0" stop-color="#f7f9fa"/><stop offset="1" stop-color="#f7f9fa" stop-opacity="0"/></linearGradient><linearGradient id="linear-gradient-5" x1="36" y1="155.4357" x2="132" y2="155.4357" gradientUnits="userSpaceOnUse"><stop offset="0" stop-color="#e8749f" stop-opacity="0"/><stop offset="0.5" stop-color="#f7f9fa"/><stop offset="1" stop-color="#e8749f" stop-opacity="0"/></linearGradient><radialGradient id="radial-gradient" cx="-547.8492" cy="2025.1154" fy="2043.1699649283678" r="20.2667" gradientTransform="translate(1180.2317 -1756.3133) scale(2 0.9375)" gradientUnits="userSpaceOnUse"><stop offset="0" stop-color="#fff"/><stop offset="0.6802" stop-color="#e78bad" stop-opacity="0"/></radialGradient><linearGradient id="linear-gradient-6" x1="127.7358" y1="152.3837" x2="151.1587" y2="128.9608" xlink:href="#linear-gradient-2"/><linearGradient id="linear-gradient-7" x1="16.0425" y1="40.6905" x2="39.4654" y2="17.2675" xlink:href="#linear-gradient-2"/><linearGradient id="linear-gradient-8" x1="84" y1="84.4262" x2="84" y2="0.4262" gradientUnits="userSpaceOnUse"><stop offset="0" stop-color="#e8749f" stop-opacity="0"/><stop offset="1" stop-color="#f7f9fa"/></linearGradient></defs><g id="Layer_2" data-name="Layer 2"><g id="Layer_1-2" data-name="Layer 1"><path id="base_bkgd" data-name="base bkgd" class="cls-2" d="M84,168a84,84,0,1,1,84-84A84.0953,84.0953,0,0,1,84,168Z"/><g id="border_shadow" data-name="border shadow"><path d="M84,9A75,75,0,1,1,9,84,75.0851,75.0851,0,0,1,84,9m0-1a76,76,0,1,0,76,76A76.0862,76.0862,0,0,0,84,8Z"/></g><path class="cls-3" d="M83.6544,5.28a81.592,81.592,0,0,0-81.5,81.5c0,44.9394,36.5605,80.7942,81.5,80.7942s81.5-35.8548,81.5-80.7942A81.592,81.592,0,0,0,83.6544,5.28Zm70.5,47.0141V52.78a54.5835,54.5835,0,0,1-36.9995,51.601V63.1942h-.0982a33.5106,33.5106,0,0,0-9.7143-22.1015l-1.0611,1.06,1.0606-1.06A33.2783,33.2783,0,0,0,83.6544,31.28h-20A18.6264,18.6264,0,0,1,45.9087,17.975,78.4271,78.4271,0,0,1,154.1539,52.2943ZM67.0328,129.8427l-.1485-3.5625h33.54l-.1485,3.5625a1.4967,1.4967,0,0,1-1.499,1.4375H68.5318A1.4969,1.4969,0,0,1,67.0328,129.8427Zm-.75-18a1.5009,1.5009,0,0,1,1.499-1.5625H99.5264a1.5009,1.5009,0,0,1,1.499,1.5625l-.1432,3.4375H66.426ZM78.1544,81.28h-4.5a4.5,4.5,0,1,1,4.5-4.5Zm8,26h-5v-23h5Zm12.6445-5.753L98.08,107.28H89.1544v-23h4.5a7.5,7.5,0,1,0-7.5-7.5v4.5h-5v-4.5a7.5,7.5,0,1,0-7.5,7.5h4.5v23H69.2281l-.7188-5.753a21.6491,21.6491,0,0,0-3.2485-8.9589L57.9986,81.2714a30.6718,30.6718,0,0,1,4.0889-38.0576,30.4989,30.4989,0,0,1,43.1333,0A30.6719,30.6719,0,0,1,109.31,81.2714l-7.2622,11.2969A21.6365,21.6365,0,0,0,98.7989,101.5272ZM89.1544,81.28v-4.5a4.5,4.5,0,1,1,4.5,4.5Zm11.6028,37-.2083,5h-33.79l-.2083-5Zm-6.53,16-1.7036,3.4072A6.4644,6.4644,0,0,1,86.71,141.28H80.5982a6.4644,6.4644,0,0,1-5.8135-3.5928L73.0811,134.28Zm-9.0732,10H86.71a9.4476,9.4476,0,0,0,8.4971-5.251l2.3739-4.749h1.1954a4.4893,4.4893,0,0,0,4.4961-4.3125l.75-18a4.4763,4.4763,0,0,0-.3168-1.8462,57.2112,57.2112,0,0,0,10.4487-1.6968v50.6875a78.0376,78.0376,0,0,1-29.0005,6.13Zm15.9538-37.0371.6677-5.3428a18.6131,18.6131,0,0,1,2.7955-7.709l7.2622-11.2969a32.9972,32.9972,0,0,0,2.3213-4.2905v26.7026A54.2917,54.2917,0,0,1,101.1077,107.2431ZM43.2343,19.5145A21.36,21.36,0,0,0,63.6544,34.28h6.1212a33.5272,33.5272,0,0,0-14.3,48.6142L62.7374,94.19a18.6358,18.6358,0,0,1,2.7954,7.709l.6721,5.3809H51.8526a41.2244,41.2244,0,0,0-29.3447,12.1552l-6.7206,6.72A78.3771,78.3771,0,0,1,43.2343,19.5145ZM17.3932,128.7919l7.2358-7.2354A38.2477,38.2477,0,0,1,51.8526,110.28H63.5449a4.4831,4.4831,0,0,0-.2592,1.6875l.75,18a4.4893,4.4893,0,0,0,4.4961,4.3125h1.1948l2.3745,4.749a9.4477,9.4477,0,0,0,8.4971,5.251h1.5557v20.9619A78.4905,78.4905,0,0,1,17.3932,128.7919Zm99.7612,28.9634V107.5482a57.64,57.64,0,0,0,39.7128-49.0376,78.4144,78.4144,0,0,1-39.7128,99.2447Z"/><path class="cls-4" d="M99.5265,108.2064H67.7817a3,3,0,0,0-2.9974,3.125l.75,18a3,3,0,0,0,2.9974,2.875h2.1224l2.7889,5.5777a8,8,0,0,0,7.1554,4.4223H86.71a8,8,0,0,0,7.1555-4.4223l2.7888-5.5777h2.1224a3,3,0,0,0,2.9974-2.875l.75-18A3,3,0,0,0,99.5265,108.2064Z"/><path class="cls-5" d="M93.8653,137.7841l2.7888-5.5777h2.1224a3,3,0,0,0,2.9974-2.875l.75-18a3,3,0,0,0-2.9974-3.125H67.7817a3,3,0,0,0-2.9973,3.125l.75,18a3,3,0,0,0,2.9973,2.875h2.1224l2.7889,5.5777a8,8,0,0,0,7.1554,4.4223H86.71A8,8,0,0,0,93.8653,137.7841ZM67.2816,111.2289a.4922.4922,0,0,1,.14-.3692.4868.4868,0,0,1,.36-.1533H99.5267a.5014.5014,0,0,1,.5.52l-.1035,2.48H67.3851Zm.312,7.4775H99.7147l-.125,3H67.7186Zm.938,11a.5.5,0,0,1-.5-.48l-.105-2.52h31.455l-.1049,2.52a.5.5,0,0,1-.5.48Zm12.0664,10a5.4707,5.4707,0,0,1-4.919-3.04l-.98-1.96h17.91l-.98,1.96a5.4706,5.4706,0,0,1-4.9189,3.04Z"/><path class="cls-6" d="M83.6544,4.28a81.5,81.5,0,1,0,81.5,81.5A81.592,81.592,0,0,0,83.6544,4.28Zm70.5,47.0141V51.78a54.5835,54.5835,0,0,1-36.9995,51.601V62.1942h-.0982a33.5106,33.5106,0,0,0-9.7143-22.1015l-1.0611,1.06,1.0606-1.06A33.2783,33.2783,0,0,0,83.6544,30.28h-20A18.6264,18.6264,0,0,1,45.9087,16.975,78.4271,78.4271,0,0,1,154.1539,51.2943ZM67.0328,128.8427l-.1485-3.5625h33.54l-.1485,3.5625a1.4967,1.4967,0,0,1-1.499,1.4375H68.5318A1.4969,1.4969,0,0,1,67.0328,128.8427Zm-.75-18a1.5009,1.5009,0,0,1,1.499-1.5625H99.5264a1.5009,1.5009,0,0,1,1.499,1.5625l-.1432,3.4375H66.426ZM78.1544,80.28h-4.5a4.5,4.5,0,1,1,4.5-4.5Zm8,26h-5v-23h5Zm12.6445-5.753L98.08,106.28H89.1544v-23h4.5a7.5,7.5,0,1,0-7.5-7.5v4.5h-5v-4.5a7.5,7.5,0,1,0-7.5,7.5h4.5v23H69.2281l-.7188-5.753a21.6491,21.6491,0,0,0-3.2485-8.9589L57.9986,80.2714a30.6718,30.6718,0,0,1,4.0889-38.0576,30.4989,30.4989,0,0,1,43.1333,0A30.6719,30.6719,0,0,1,109.31,80.2714l-7.2622,11.2969A21.6365,21.6365,0,0,0,98.7989,100.5272ZM89.1544,80.28v-4.5a4.5,4.5,0,1,1,4.5,4.5Zm11.6028,37-.2083,5h-33.79l-.2083-5Zm-6.53,16-1.7036,3.4072A6.4644,6.4644,0,0,1,86.71,140.28H80.5982a6.4644,6.4644,0,0,1-5.8135-3.5928L73.0811,133.28Zm-9.0732,10H86.71a9.4476,9.4476,0,0,0,8.4971-5.251l2.3739-4.749h1.1954a4.4893,4.4893,0,0,0,4.4961-4.3125l.75-18a4.4763,4.4763,0,0,0-.3168-1.8462,57.2112,57.2112,0,0,0,10.4487-1.6968v50.6875a78.0376,78.0376,0,0,1-29.0005,6.13Zm15.9538-37.0371.6677-5.3428a18.6131,18.6131,0,0,1,2.7955-7.709l7.2622-11.2969a32.9972,32.9972,0,0,0,2.3213-4.2905v26.7026A54.2917,54.2917,0,0,1,101.1077,106.2431ZM43.2343,18.5145A21.36,21.36,0,0,0,63.6544,33.28h6.1212a33.5272,33.5272,0,0,0-14.3,48.6142L62.7374,93.19a18.6358,18.6358,0,0,1,2.7954,7.709l.6721,5.3809H51.8526a41.2244,41.2244,0,0,0-29.3447,12.1552l-6.7206,6.72A78.3771,78.3771,0,0,1,43.2343,18.5145ZM17.3932,127.7919l7.2358-7.2354A38.2477,38.2477,0,0,1,51.8526,109.28H63.5449a4.4831,4.4831,0,0,0-.2592,1.6875l.75,18a4.4893,4.4893,0,0,0,4.4961,4.3125h1.1948l2.3745,4.749a9.4477,9.4477,0,0,0,8.4971,5.251h1.5557v20.9619A78.4905,78.4905,0,0,1,17.3932,127.7919Zm99.7612,28.9634V106.5482a57.64,57.64,0,0,0,39.7128-49.0376,78.4144,78.4144,0,0,1-39.7128,99.2447Z"/><path class="cls-7" d="M73.6544,68.28a7.5082,7.5082,0,0,1,7.5,7.5v-.5a7.5,7.5,0,0,0-15,0c0,.0844.01.166.0126.25A7.5031,7.5031,0,0,1,73.6544,68.28Z"/><path class="cls-7" d="M93.6544,67.78a7.5081,7.5081,0,0,0-7.5,7.5v.5a7.4957,7.4957,0,0,1,14.9873-.25c.0028-.084.0127-.1656.0127-.25A7.5082,7.5082,0,0,0,93.6544,67.78Z"/><rect class="cls-7" x="81.1544" y="79.7802" width="5" height="0.5"/><path class="cls-7" d="M93.6544,80.28a4.505,4.505,0,0,0,4.5-4.5c0-.0855-.0206-.1656-.0253-.25a4.4933,4.4933,0,0,1-4.4747,4.25h-4.5v.5Z"/><path class="cls-7" d="M78.1544,79.78h-4.5A4.4934,4.4934,0,0,1,69.18,75.53c-.0047.0844-.0252.1645-.0252.25a4.5049,4.5049,0,0,0,4.5,4.5h4.5Z"/><path class="cls-7" d="M69.7756,33.28H68.74A33.4,33.4,0,0,0,50.2115,63.9511,33.4139,33.4139,0,0,1,69.7756,33.28Z"/><path class="cls-7" d="M69.2281,106.28h8.9263v-.5H69.2281l-.7188-5.753a21.6491,21.6491,0,0,0-3.2485-8.9589L57.9986,79.7714A30.3418,30.3418,0,0,1,53.2167,62.97a30.3694,30.3694,0,0,0,4.7819,17.3013l7.2622,11.2969a21.6491,21.6491,0,0,1,3.2485,8.9589Z"/><path class="cls-7" d="M117.1544,156.2553v.5a78.5937,78.5937,0,0,0,45-70.9751c0-.0733-.0051-.1455-.0052-.2188A78.5928,78.5928,0,0,1,117.1544,156.2553Z"/><path class="cls-7" d="M83.6544,4.28A81.5888,81.5888,0,0,1,165.148,85.53c0-.084.0064-.166.0064-.25a81.5,81.5,0,0,0-163,0c0,.084.0061.166.0063.25A81.5888,81.5888,0,0,1,83.6544,4.28Z"/><path class="cls-7" d="M103.8438,109.1088c-.0463.0034-.0918.0093-.1381.0127a4.487,4.487,0,0,1,.3041,1.6518l.0127-.3056A4.409,4.409,0,0,0,103.8438,109.1088Z"/><path class="cls-7" d="M100.2754,128.8427l.1485-3.5625h-.0208l-.1277,3.0625a1.4967,1.4967,0,0,1-1.499,1.4375H68.5318a1.4969,1.4969,0,0,1-1.499-1.4375l-.1277-3.0625h-.0208l.1485,3.5625a1.4969,1.4969,0,0,0,1.499,1.4375H98.7764A1.4967,1.4967,0,0,0,100.2754,128.8427Z"/><rect class="cls-7" x="81.1544" y="105.7802" width="5" height="0.5"/><path class="cls-7" d="M114.1544,157.6122a78.0376,78.0376,0,0,1-29.0005,6.13v.5a78.0376,78.0376,0,0,0,29.0005-6.13Z"/><path class="cls-7" d="M117.1544,102.8812v.5a54.5835,54.5835,0,0,0,37-51.601v-.4859l0-.0005A54.5833,54.5833,0,0,1,117.1544,102.8812Z"/><path class="cls-7" d="M114.1544,103.8065a54.3019,54.3019,0,0,1-12.9838,1.9331l-.0629.5035a54.2917,54.2917,0,0,0,13.0467-1.9366Z"/><path class="cls-7" d="M117.1544,62.1942v-.5h-.0982a33.5106,33.5106,0,0,0-9.7143-22.1015l-.2564.2563c.0844.0825.1722.16.2559.2437l-1.0606,1.06,1.0611-1.06a33.5106,33.5106,0,0,1,9.7143,22.1015Z"/><path class="cls-7" d="M63.6544,30.28h20a33.2692,33.2692,0,0,1,23.4309,9.5683l.2561-.2558A33.2783,33.2783,0,0,0,83.6544,29.78h-20a18.6211,18.6211,0,0,1-17.602-12.8814c-.0475.0259-.0963.05-.1437.0762A18.6264,18.6264,0,0,0,63.6544,30.28Z"/><path class="cls-7" d="M15.7873,125.1557l6.7206-6.72A41.2244,41.2244,0,0,1,51.8526,106.28H66.2049l-.0624-.5h-14.29a41.2244,41.2244,0,0,0-29.3447,12.1552l-6.7206,6.72A77.9925,77.9925,0,0,1,5.1586,85.5287c0,.0845-.0042.1675-.0042.2515A77.9948,77.9948,0,0,0,15.7873,125.1557Z"/><path class="cls-7" d="M92.5235,136.6874l1.7036-3.4072h-.25l-1.4536,2.9072A6.4644,6.4644,0,0,1,86.71,139.78H80.5982a6.4644,6.4644,0,0,1-5.8135-3.5928L73.3311,133.28h-.25l1.7036,3.4072a6.4644,6.4644,0,0,0,5.8135,3.5928H86.71A6.4644,6.4644,0,0,0,92.5235,136.6874Z"/><polygon class="cls-7" points="100.549 122.28 100.757 117.28 100.736 117.28 100.549 121.78 66.759 121.78 66.572 117.28 66.551 117.28 66.759 122.28 100.549 122.28"/><path class="cls-7" d="M109.31,80.2714A30.3694,30.3694,0,0,0,114.0915,62.97,30.341,30.341,0,0,1,109.31,79.7714l-7.2622,11.2969a21.6365,21.6365,0,0,0-3.2485,8.9589L98.08,105.78H89.1544v.5H98.08l.7193-5.753a21.6365,21.6365,0,0,1,3.2485-8.9589Z"/><path class="cls-7" d="M100.8822,114.28l.1432-3.4375a1.4855,1.4855,0,0,0-.0121-.2085l-.1311,3.146H66.426l-.1311-3.146a1.5007,1.5007,0,0,0-.0121.2085l.1432,3.4375Z"/><path class="cls-7" d="M82.1539,164.2421v-.5a78.4814,78.4814,0,0,1-64.5622-36.1484l-.1985.1982A78.4905,78.4905,0,0,0,82.1539,164.2421Z"/><path class="cls-7" d="M63.4178,109.28a4.3826,4.3826,0,0,0-.1321,1.1875l.0121.29a4.5172,4.5172,0,0,1,.2471-1.4775Z"/><g class="cls-8"><path id="FOR_LINE_WORK_CIRCLE" data-name="FOR LINE WORK CIRCLE" class="cls-9" d="M34.624,12A87.6239,87.6239,0,0,0,12,36.2218L131.7784,156A87.6232,87.6232,0,0,0,156,133.376Z"/></g><path id="border" class="cls-10" d="M84,168a84,84,0,1,1,84-84A84.0953,84.0953,0,0,1,84,168ZM84,8a76,76,0,1,0,76,76A76.0862,76.0862,0,0,0,84,8Z"/><g id="border_highlight" data-name="border highlight"><path class="cls-11" d="M84,8.4262a76,76,0,1,1-76,76,76.0861,76.0861,0,0,1,76-76m0-1a77,77,0,1,0,77,77,77.0871,77.0871,0,0,0-77-77Z"/></g><path id="outer_pink" data-name="outer pink" class="cls-12" d="M132,152.875V142.8713a75.82,75.82,0,0,1-96,0V152.875a83.7278,83.7278,0,0,0,96,0Z"/><g id="elipse" class="cls-13"><ellipse class="cls-14" cx="84.5333" cy="142.2324" rx="40.5333" ry="19"/></g><path id="right_glare" data-name="right glare" class="cls-15" d="M153.6021,131.4043l-5.7847-5.7847A76.5774,76.5774,0,0,1,124.22,148.8681l5.7867,5.7867A84.6738,84.6738,0,0,0,153.6021,131.4043Z"/><path id="left_glare" data-name="left glare" class="cls-16" d="M13.7714,38.4194l5.7868,5.7866A76.576,76.576,0,0,1,42.8067,20.6089l-5.7848-5.7847A84.6711,84.6711,0,0,0,13.7714,38.4194Z"/><path id="top_halo" data-name="top halo" class="cls-17" d="M84,8.4262a76.0862,76.0862,0,0,1,76,76h8a84,84,0,0,0-168,0H8A76.0862,76.0862,0,0,1,84,8.4262Z"/></g></g></svg>