<svg xmlns="http://www.w3.org/2000/svg" xmlns:xlink="http://www.w3.org/1999/xlink" width="168" height="168" viewBox="0 0 168 168"><defs><style>.cls-1{fill:none;}.cls-2{fill:url(#linear-gradient);}.cls-3{opacity:0.5;}.cls-4{fill:url(#New_Gradient_Swatch_4);}.cls-5{fill:url(#New_Gradient_Swatch_1);}.cls-13,.cls-6{opacity:0.3;}.cls-7{fill:#fff;}.cls-8{clip-path:url(#clip-path);}.cls-9{fill:url(#linear-gradient-2);}.cls-10{fill:url(#linear-gradient-3);}.cls-11{fill:url(#linear-gradient-4);}.cls-12{fill:url(#linear-gradient-5);}.cls-14{fill:url(#radial-gradient);}.cls-15{opacity:0.7;fill:url(#linear-gradient-6);}.cls-16{fill:url(#linear-gradient-7);}.cls-17{opacity:0.4;fill:url(#linear-gradient-8);}</style><linearGradient id="linear-gradient" x1="84" y1="168" x2="84" gradientUnits="userSpaceOnUse"><stop offset="0" stop-color="#333d45"/><stop offset="0.9988"/></linearGradient><linearGradient id="New_Gradient_Swatch_4" x1="51.7923" y1="148.9144" x2="119.8068" y2="44.1812" gradientUnits="userSpaceOnUse"><stop offset="0" stop-color="#8359df"/><stop offset="1" stop-color="#00a894"/></linearGradient><linearGradient id="New_Gradient_Swatch_1" x1="84.5333" y1="166.8806" x2="84.5333" y2="3.8806" gradientUnits="userSpaceOnUse"><stop offset="0" stop-color="#688199"/><stop offset="1" stop-color="#f7f9fa"/></linearGradient><clipPath id="clip-path"><path class="cls-1" d="M166.0333,85.3806a81.5,81.5,0,1,0-91,80.9282v.0308l1.0824.1069c.0725.0078.1451.0147.2176.022l.0516.0049c.25.0249.5023.0337.753.0561,1.0984.1,2.1985.1924,3.3089.2476,1.368.0684,2.7334.1035,4.0865.1035s2.719-.0351,4.0871-.1035c1.1091-.0552,2.208-.1479,3.3051-.2471.2519-.0229.5049-.0317.7563-.0566l.0515-.0049c.0726-.0073.1452-.0142.2177-.022l1.0823-.1069v-.0308A81.6045,81.6045,0,0,0,166.0333,85.3806Zm-12.8991,38.1006H107.86a81.8267,81.8267,0,0,0,53.9092-52.0386,78.0652,78.0652,0,0,1-8.635,52.0386ZM160.45,65.4055a78.7387,78.7387,0,0,1-56.462,56.0318,37.4622,37.4622,0,0,0,4.8353-60.6651c-.0073-.0068-.0777-.0683-.0855-.0752s-.7885-.6845-1.9868-1.8769A46.35,46.35,0,0,1,93.2848,26.17v-.22a15.7369,15.7369,0,0,1,14.2618-15.6211A78.81,78.81,0,0,1,160.45,65.4055ZM89.5837,163.7009c-.4736.03-.9476.0659-1.4208.0874q-1.6519.0762-3.32.0845-.309.0015-.6182,0-1.6687-.0066-3.32-.0845c-.4733-.0215-.9473-.0571-1.421-.0874-.4848-.0312-.9671-.0713-1.45-.1108V124.8538c.0031-.0122.0089-.0225.0118-.0347a1.4882,1.4882,0,0,0-.0118-.69V116.614a12.37,12.37,0,0,0,2.1382,1.2686c.0281.0132.0556.0278.0838.041a10.9827,10.9827,0,0,0,1.228.4692c.0867.0279.1733.0542.26.08a10.2789,10.2789,0,0,0,1.2285.2788c.074.0117.1486.0186.2228.0288a8.9508,8.9508,0,0,0,2.6764,0c.0743-.01.1489-.0171.2229-.0288a10.2729,10.2729,0,0,0,1.2284-.2788c.0872-.0254.1739-.0517.26-.08a10.9842,10.9842,0,0,0,1.2281-.4692c.0281-.0132.0557-.0278.0837-.041a12.3623,12.3623,0,0,0,2.1382-1.2686V163.59C90.5509,163.63,90.0685,163.67,89.5837,163.7009ZM68.6974,77.6736a47.0144,47.0144,0,0,1-3.1807-15.7588c-.0073-.6592.003-1.3057.0293-2.0342C66.4591,39.9138,84.29,30.6863,90.3243,28.1277a49.3483,49.3483,0,0,0,14.3091,32.8174c1.2813,1.2763,2.1079,1.9922,2.1812,2.0556.0107.01.0718.0635.083.0733a34.4973,34.4973,0,0,1-12.8643,59.4907v-8.98c3.0562-3.9443,5-9.7383,5-16.2041,0-11.8555-6.5048-21.5-14.5-21.5s-14.5,9.6445-14.5,21.5c0,6.4658,1.9438,12.26,5,16.2041v8.9463A34.7493,34.7493,0,0,1,50.0851,89.2722a34.1937,34.1937,0,0,1,4.4292-16.8213,36.797,36.797,0,0,0,2.4531,9.8145,6.299,6.299,0,0,0,11.73-4.5918Zm17.74,37.9316a7.1184,7.1184,0,0,1-.7627.1826,7.06,7.06,0,0,1-2.2819,0,7.0172,7.0172,0,0,1-.7642-.1831c-.0968-.0258-.1956-.0415-.2916-.0717a10.4213,10.4213,0,0,1-4.649-3.3672l-.6418-.773a24.3209,24.3209,0,0,1-4.0125-14.0122c0-10.2012,5.1587-18.5,11.5-18.5s11.5,8.2988,11.5,18.5a24.3217,24.3217,0,0,1-4.0124,14.0122l-.6419.773A10.423,10.423,0,0,1,86.73,115.533C86.6337,115.5632,86.5344,115.5789,86.437,115.6052ZM84.5333,6.8806A78.4123,78.4123,0,0,1,101.6384,8.78a18.7622,18.7622,0,0,0-11.302,16.1065c-4.9627,1.935-26.7292,11.72-27.7874,34.8574-.0005.0078.0009.0928.0009.1q-.044,1.0343-.0332,2.1035A49.9839,49.9839,0,0,0,65.8859,78.72a3.3032,3.3032,0,0,1-4.2027,4.2754,3.21,3.21,0,0,1-1.9326-1.8487,33.9881,33.9881,0,0,1-2.4458-13.3671,1.5,1.5,0,0,0-2.6977-.93,37.1817,37.1817,0,0,0-7.522,22.4131A37.7974,37.7974,0,0,0,65.259,121.4807,78.7338,78.7338,0,0,1,8.6173,65.4045,78.6348,78.6348,0,0,1,84.5333,6.8806Zm-78.5,78.5a78.5731,78.5731,0,0,1,1.2641-13.938,81.7182,81.7182,0,0,0,67.652,54.8648,26.45,26.45,0,0,1-26.3838,25.0908H42.1422A78.4863,78.4863,0,0,1,6.0333,85.3806ZM47.158,154.3982h1.4076A29.4517,29.4517,0,0,0,75.0333,137.81v25.4756A77.9072,77.9072,0,0,1,47.158,154.3982Zm46.8753,8.8872V126.4812H151.379A78.6079,78.6079,0,0,1,94.0333,163.2854Z"/></clipPath><linearGradient id="linear-gradient-2" x1="71.8891" y1="96.1109" x2="95.312" y2="72.688" gradientUnits="userSpaceOnUse"><stop offset="0.25" stop-color="#f7f9fa" stop-opacity="0"/><stop offset="0.5" stop-color="#fff"/><stop offset="0.75" stop-color="#bee6fa" stop-opacity="0"/></linearGradient><linearGradient id="linear-gradient-3" x1="84" y1="168" x2="84" y2="0" xlink:href="#New_Gradient_Swatch_1"/><linearGradient id="linear-gradient-4" x1="84" y1="161" x2="84" y2="7" gradientUnits="userSpaceOnUse"><stop offset="0" stop-color="#f7f9fa"/><stop offset="1" stop-color="#f7f9fa" stop-opacity="0"/></linearGradient><linearGradient id="linear-gradient-5" x1="36" y1="155.4357" x2="132" y2="155.4357" gradientUnits="userSpaceOnUse"><stop offset="0" stop-color="#e8749f" stop-opacity="0"/><stop offset="0.5" stop-color="#f7f9fa"/><stop offset="1" stop-color="#e8749f" stop-opacity="0"/></linearGradient><radialGradient id="radial-gradient" cx="-547.8492" cy="1989.6452" fy="2007.6998069992628" r="20.2667" gradientTransform="translate(1180.2318 -1723.4863) scale(2 0.9375)" gradientUnits="userSpaceOnUse"><stop offset="0" stop-color="#fff"/><stop offset="0.6802" stop-color="#e78bad" stop-opacity="0"/></radialGradient><linearGradient id="linear-gradient-6" x1="127.7358" y1="151.9575" x2="151.1587" y2="128.5346" xlink:href="#linear-gradient-2"/><linearGradient id="linear-gradient-7" x1="16.0425" y1="40.2642" x2="39.4654" y2="16.8413" xlink:href="#linear-gradient-2"/><linearGradient id="linear-gradient-8" x1="84" y1="84" x2="84" gradientUnits="userSpaceOnUse"><stop offset="0" stop-color="#e8749f" stop-opacity="0"/><stop offset="1" stop-color="#f7f9fa"/></linearGradient></defs><g id="Layer_2" data-name="Layer 2"><g id="Layer_1-2" data-name="Layer 1"><path id="base_bkgd" data-name="base bkgd" class="cls-2" d="M84,168a84,84,0,1,1,84-84A84.0953,84.0953,0,0,1,84,168Z"/><g id="border_shadow" data-name="border shadow"><path d="M84,9A75,75,0,1,1,9,84,75.0851,75.0851,0,0,1,84,9m0-1a76,76,0,1,0,76,76A76.0862,76.0862,0,0,0,84,8Z"/></g><path class="cls-3" d="M166.0333,86.3806a81.5,81.5,0,1,0-91,80.9282v.0308l1.0824.1069c.0725.0078.1451.0147.2176.022l.0516.0049c.25.0249.5023.0337.753.0561,1.0984.1,2.1985.1924,3.3089.2476,1.368.0684,2.7334.1035,4.0865.1035s2.719-.0351,4.0871-.1035c1.1091-.0552,2.208-.1479,3.3051-.2471.2519-.0229.5049-.0317.7563-.0566l.0515-.0049c.0726-.0073.1452-.0142.2177-.022l1.0823-.1069v-.0308A81.6045,81.6045,0,0,0,166.0333,86.3806Zm-12.8991,38.1006H107.86a81.8267,81.8267,0,0,0,53.9092-52.0386,78.0652,78.0652,0,0,1-8.635,52.0386ZM160.45,66.4055a78.7387,78.7387,0,0,1-56.462,56.0318,37.4622,37.4622,0,0,0,4.8353-60.6651c-.0073-.0068-.0777-.0683-.0855-.0752s-.7885-.6845-1.9868-1.8769A46.35,46.35,0,0,1,93.2848,27.17v-.22a15.7369,15.7369,0,0,1,14.2618-15.6211A78.81,78.81,0,0,1,160.45,66.4055ZM89.5837,164.7009c-.4736.03-.9476.0659-1.4208.0874q-1.6519.0762-3.32.0845-.309.0015-.6182,0-1.6687-.0066-3.32-.0845c-.4733-.0215-.9473-.0571-1.421-.0874-.4848-.0312-.9671-.0713-1.45-.1108V125.8538c.0031-.0122.0089-.0225.0118-.0347a1.4882,1.4882,0,0,0-.0118-.69V117.614a12.37,12.37,0,0,0,2.1382,1.2686c.0281.0132.0556.0278.0838.041a10.9827,10.9827,0,0,0,1.228.4692c.0867.0279.1733.0542.26.08a10.2789,10.2789,0,0,0,1.2285.2788c.074.0117.1486.0186.2228.0288a8.9508,8.9508,0,0,0,2.6764,0c.0743-.01.1489-.0171.2229-.0288a10.2729,10.2729,0,0,0,1.2284-.2788c.0872-.0254.1739-.0517.26-.08a10.9842,10.9842,0,0,0,1.2281-.4692c.0281-.0132.0557-.0278.0837-.041a12.3623,12.3623,0,0,0,2.1382-1.2686V164.59C90.5509,164.63,90.0685,164.67,89.5837,164.7009ZM68.6974,78.6736a47.0144,47.0144,0,0,1-3.1807-15.7588c-.0073-.6592.003-1.3057.0293-2.0342C66.4591,40.9138,84.29,31.6863,90.3243,29.1277a49.3483,49.3483,0,0,0,14.3091,32.8174c1.2813,1.2763,2.1079,1.9922,2.1812,2.0556.0107.01.0718.0635.083.0733a34.4973,34.4973,0,0,1-12.8643,59.4907v-8.98c3.0562-3.9443,5-9.7383,5-16.2041,0-11.8555-6.5048-21.5-14.5-21.5s-14.5,9.6445-14.5,21.5c0,6.4658,1.9438,12.26,5,16.2041v8.9463A34.7493,34.7493,0,0,1,50.0851,90.2722a34.1937,34.1937,0,0,1,4.4292-16.8213,36.797,36.797,0,0,0,2.4531,9.8145,6.299,6.299,0,0,0,11.73-4.5918Zm17.74,37.9316a7.1184,7.1184,0,0,1-.7627.1826,7.06,7.06,0,0,1-2.2819,0,7.0172,7.0172,0,0,1-.7642-.1831c-.0968-.0258-.1956-.0415-.2916-.0717a10.4213,10.4213,0,0,1-4.649-3.3672l-.6418-.773a24.3209,24.3209,0,0,1-4.0125-14.0122c0-10.2012,5.1587-18.5,11.5-18.5s11.5,8.2988,11.5,18.5a24.3217,24.3217,0,0,1-4.0124,14.0122l-.6419.773A10.423,10.423,0,0,1,86.73,116.533C86.6337,116.5632,86.5344,116.5789,86.437,116.6052ZM84.5333,7.8806A78.4123,78.4123,0,0,1,101.6384,9.78a18.7622,18.7622,0,0,0-11.302,16.1065c-4.9627,1.935-26.7292,11.72-27.7874,34.8574-.0005.0078.0009.0928.0009.1q-.044,1.0343-.0332,2.1035A49.9839,49.9839,0,0,0,65.8859,79.72a3.3032,3.3032,0,0,1-4.2027,4.2754,3.21,3.21,0,0,1-1.9326-1.8487,33.9881,33.9881,0,0,1-2.4458-13.3671,1.5,1.5,0,0,0-2.6977-.93,37.1817,37.1817,0,0,0-7.522,22.4131A37.7974,37.7974,0,0,0,65.259,122.4807,78.7338,78.7338,0,0,1,8.6173,66.4045,78.6348,78.6348,0,0,1,84.5333,7.8806Zm-78.5,78.5a78.5731,78.5731,0,0,1,1.2641-13.938,81.7182,81.7182,0,0,0,67.652,54.8648,26.45,26.45,0,0,1-26.3838,25.0908H42.1422A78.4863,78.4863,0,0,1,6.0333,86.3806ZM47.158,155.3982h1.4076A29.4517,29.4517,0,0,0,75.0333,138.81v25.4756A77.9072,77.9072,0,0,1,47.158,155.3982Zm46.8753,8.8872V127.4812H151.379A78.6079,78.6079,0,0,1,94.0333,164.2854Z"/><path class="cls-4" d="M92.5335,124.48a35.9939,35.9939,0,0,0,15.2837-62.5488c-.0379-.0323-.0736-.0674-.1118-.1,0,0-.8064-.6958-2.0648-1.9492A47.5575,47.5575,0,0,1,91.7335,26.1694V25.95c-1.1831.4014-26.6142,9.3057-27.737,33.8623-.0014.0322.0017.0635.0008.0957q-.0428.9939-.0316,2.023a48.1694,48.1694,0,0,0,3.2749,16.2646,4.8065,4.8065,0,0,1-2.1624,5.8853v0a4.7906,4.7906,0,0,1-6.77-2.3754,35.4752,35.4752,0,0,1-2.5537-13.9546v.0005A36.0066,36.0066,0,0,0,76.531,124.4863h.0025v40.4951c2.6316.2613,5.2995.3995,8,.3995s5.3683-.1382,8-.3995Zm-21-27.0991c0-11.0459,5.82-20,13-20s13,8.9541,13,20-5.82,20-13,20S71.5335,108.4268,71.5335,97.3809Z"/><path class="cls-5" d="M166.0333,85.3806a81.5,81.5,0,1,0-91,80.9282v.0308l1.0824.1069c.0725.0078.1451.0147.2176.022l.0516.0049c.25.0249.5023.0337.753.0561,1.0984.1,2.1985.1924,3.3089.2476,1.368.0684,2.7334.1035,4.0865.1035s2.719-.0351,4.0871-.1035c1.1091-.0552,2.208-.1479,3.3051-.2471.2519-.0229.5049-.0317.7563-.0566l.0515-.0049c.0726-.0073.1452-.0142.2177-.022l1.0823-.1069v-.0308A81.6045,81.6045,0,0,0,166.0333,85.3806Zm-12.8991,38.1006H107.86a81.8267,81.8267,0,0,0,53.9092-52.0386,78.0652,78.0652,0,0,1-8.635,52.0386ZM160.45,65.4055a78.7387,78.7387,0,0,1-56.462,56.0318,37.4622,37.4622,0,0,0,4.8353-60.6651c-.0073-.0068-.0777-.0683-.0855-.0752s-.7885-.6845-1.9868-1.8769A46.35,46.35,0,0,1,93.2848,26.17v-.22a15.7369,15.7369,0,0,1,14.2618-15.6211A78.81,78.81,0,0,1,160.45,65.4055ZM89.5837,163.7009c-.4736.03-.9476.0659-1.4208.0874q-1.6519.0762-3.32.0845-.309.0015-.6182,0-1.6687-.0066-3.32-.0845c-.4733-.0215-.9473-.0571-1.421-.0874-.4848-.0312-.9671-.0713-1.45-.1108V124.8538c.0031-.0122.0089-.0225.0118-.0347a1.4882,1.4882,0,0,0-.0118-.69V116.614a12.37,12.37,0,0,0,2.1382,1.2686c.0281.0132.0556.0278.0838.041a10.9827,10.9827,0,0,0,1.228.4692c.0867.0279.1733.0542.26.08a10.2789,10.2789,0,0,0,1.2285.2788c.074.0117.1486.0186.2228.0288a8.9508,8.9508,0,0,0,2.6764,0c.0743-.01.1489-.0171.2229-.0288a10.2729,10.2729,0,0,0,1.2284-.2788c.0872-.0254.1739-.0517.26-.08a10.9842,10.9842,0,0,0,1.2281-.4692c.0281-.0132.0557-.0278.0837-.041a12.3623,12.3623,0,0,0,2.1382-1.2686V163.59C90.5509,163.63,90.0685,163.67,89.5837,163.7009ZM68.6974,77.6736a47.0144,47.0144,0,0,1-3.1807-15.7588c-.0073-.6592.003-1.3057.0293-2.0342C66.4591,39.9138,84.29,30.6863,90.3243,28.1277a49.3483,49.3483,0,0,0,14.3091,32.8174c1.2813,1.2763,2.1079,1.9922,2.1812,2.0556.0107.01.0718.0635.083.0733a34.4973,34.4973,0,0,1-12.8643,59.4907v-8.98c3.0562-3.9443,5-9.7383,5-16.2041,0-11.8555-6.5048-21.5-14.5-21.5s-14.5,9.6445-14.5,21.5c0,6.4658,1.9438,12.26,5,16.2041v8.9463A34.7493,34.7493,0,0,1,50.0851,89.2722a34.1937,34.1937,0,0,1,4.4292-16.8213,36.797,36.797,0,0,0,2.4531,9.8145,6.299,6.299,0,0,0,11.73-4.5918Zm17.74,37.9316a7.1184,7.1184,0,0,1-.7627.1826,7.06,7.06,0,0,1-2.2819,0,7.0172,7.0172,0,0,1-.7642-.1831c-.0968-.0258-.1956-.0415-.2916-.0717a10.4213,10.4213,0,0,1-4.649-3.3672l-.6418-.773a24.3209,24.3209,0,0,1-4.0125-14.0122c0-10.2012,5.1587-18.5,11.5-18.5s11.5,8.2988,11.5,18.5a24.3217,24.3217,0,0,1-4.0124,14.0122l-.6419.773A10.423,10.423,0,0,1,86.73,115.533C86.6337,115.5632,86.5344,115.5789,86.437,115.6052ZM84.5333,6.8806A78.4123,78.4123,0,0,1,101.6384,8.78a18.7622,18.7622,0,0,0-11.302,16.1065c-4.9627,1.935-26.7292,11.72-27.7874,34.8574-.0005.0078.0009.0928.0009.1q-.044,1.0343-.0332,2.1035A49.9839,49.9839,0,0,0,65.8859,78.72a3.3032,3.3032,0,0,1-4.2027,4.2754,3.21,3.21,0,0,1-1.9326-1.8487,33.9881,33.9881,0,0,1-2.4458-13.3671,1.5,1.5,0,0,0-2.6977-.93,37.1817,37.1817,0,0,0-7.522,22.4131A37.7974,37.7974,0,0,0,65.259,121.4807,78.7338,78.7338,0,0,1,8.6173,65.4045,78.6348,78.6348,0,0,1,84.5333,6.8806Zm-78.5,78.5a78.5731,78.5731,0,0,1,1.2641-13.938,81.7182,81.7182,0,0,0,67.652,54.8648,26.45,26.45,0,0,1-26.3838,25.0908H42.1422A78.4863,78.4863,0,0,1,6.0333,85.3806ZM47.158,154.3982h1.4076A29.4517,29.4517,0,0,0,75.0333,137.81v25.4756A77.9072,77.9072,0,0,1,47.158,154.3982Zm46.8753,8.8872V126.4812H151.379A78.6079,78.6079,0,0,1,94.0333,163.2854Z"/><path class="cls-6" d="M120.5335,89.3806a35.9147,35.9147,0,0,0-12.7163-27.4492c-.038-.0322-.0736-.0674-.1118-.1,0,0-.8064-.6963-2.0648-1.9492A47.5585,47.5585,0,0,1,91.7335,26.17v-.22c-1.1831.4013-26.6142,9.3056-27.737,33.8623-.0014.0322.0017.0634.0008.0957q-.0428.9945-.0316,2.0234A48.1751,48.1751,0,0,0,67.2405,78.196a4.8054,4.8054,0,0,1-2.1623,5.8848v.001a4.791,4.791,0,0,1-6.77-2.376,35.4741,35.4741,0,0,1-2.5536-13.9541h0A36.0067,36.0067,0,0,0,76.531,124.4861h.0025v40.4951q3.9474.3925,8,.3994,4.05,0,8-.3994V124.48A36.0073,36.0073,0,0,0,120.5335,89.3806Zm-30.5,73.2861c-.1709.0127-.9233.0635-.9233.0635-.3311.0225-.6616.0449-.9932.06-1.1128.0518-2.2158.0791-3.2793.083h-.61c-1.062-.0039-2.1651-.0312-3.2784-.083-.3305-.0147-.6616-.0371-.9926-.06,0,0-.7525-.0508-.9234-.0635V124.9792a2.4463,2.4463,0,0,0,0-.957V118.43c.232.125.4668.2432.7036.3526l.1045.0507a11.85,11.85,0,0,0,1.3311.5088l.2939.0908a11.4434,11.4434,0,0,0,1.35.3067l.2412.03a10.6841,10.6841,0,0,0,1.4756.11,11.2158,11.2158,0,0,0,1.5537-.12l.1661-.0215a11.33,11.33,0,0,0,1.35-.3066l.2812-.086a12.0523,12.0523,0,0,0,1.3408-.5127l.0913-.0439q.3633-.1685.7168-.36Zm-5.5-45.2861c-7.18,0-13-8.9541-13-20s5.82-20,13-20,13,8.9541,13,20S91.7132,117.3806,84.5335,117.3806Zm10.5,3.8311v-7.29c3.1812-4.2588,5-10.2636,5-16.541,0-12.4062-6.9531-22.5-15.5-22.5s-15.5,10.0938-15.5,22.5c0,6.2774,1.8189,12.2822,5,16.541v7.252A33.6656,33.6656,0,0,1,51.0851,89.2751a33.0209,33.0209,0,0,1,2.9058-13.5839A37.859,37.859,0,0,0,56.04,82.6384a7.28,7.28,0,0,0,6.7534,4.5479h0a7.3025,7.3025,0,0,0,6.8413-9.8613,46.0239,46.0239,0,0,1-3.1182-15.4209c-.0073-.6446.003-1.2754.0284-1.9776.8305-18.1611,16.3217-27.2578,22.8608-30.2959a50.586,50.586,0,0,0,14.522,32.0225c1.2387,1.2344,2.0756,1.9677,2.2148,2.0888l.1074.0948a33.4959,33.4959,0,0,1-11.2168,57.375Z"/><path class="cls-5" d="M166.0333,85.3806a81.5,81.5,0,1,0-91,80.9282v.0308l1.0824.1069c.0725.0078.1451.0147.2176.022l.0516.0049c.25.0249.5023.0337.753.0561,1.0984.1,2.1985.1924,3.3089.2476,1.368.0684,2.7334.1035,4.0865.1035s2.719-.0351,4.0871-.1035c1.1091-.0552,2.208-.1479,3.3051-.2471.2519-.0229.5049-.0317.7563-.0566l.0515-.0049c.0726-.0073.1452-.0142.2177-.022l1.0823-.1069v-.0308A81.6045,81.6045,0,0,0,166.0333,85.3806Zm-12.8991,38.1006H107.86a81.8267,81.8267,0,0,0,53.9092-52.0386,78.0652,78.0652,0,0,1-8.635,52.0386ZM160.45,65.4055a78.7387,78.7387,0,0,1-56.462,56.0318,37.4622,37.4622,0,0,0,4.8353-60.6651c-.0073-.0068-.0777-.0683-.0855-.0752s-.7885-.6845-1.9868-1.8769A46.35,46.35,0,0,1,93.2848,26.17v-.22a15.7369,15.7369,0,0,1,14.2618-15.6211A78.81,78.81,0,0,1,160.45,65.4055ZM89.5837,163.7009c-.4736.03-.9476.0659-1.4208.0874q-1.6519.0762-3.32.0845-.309.0015-.6182,0-1.6687-.0066-3.32-.0845c-.4733-.0215-.9473-.0571-1.421-.0874-.4848-.0312-.9671-.0713-1.45-.1108V124.8538c.0031-.0122.0089-.0225.0118-.0347a1.4882,1.4882,0,0,0-.0118-.69V116.614a12.37,12.37,0,0,0,2.1382,1.2686c.0281.0132.0556.0278.0838.041a10.9827,10.9827,0,0,0,1.228.4692c.0867.0279.1733.0542.26.08a10.2789,10.2789,0,0,0,1.2285.2788c.074.0117.1486.0186.2228.0288a8.9508,8.9508,0,0,0,2.6764,0c.0743-.01.1489-.0171.2229-.0288a10.2729,10.2729,0,0,0,1.2284-.2788c.0872-.0254.1739-.0517.26-.08a10.9842,10.9842,0,0,0,1.2281-.4692c.0281-.0132.0557-.0278.0837-.041a12.3623,12.3623,0,0,0,2.1382-1.2686V163.59C90.5509,163.63,90.0685,163.67,89.5837,163.7009ZM68.6974,77.6736a47.0144,47.0144,0,0,1-3.1807-15.7588c-.0073-.6592.003-1.3057.0293-2.0342C66.4591,39.9138,84.29,30.6863,90.3243,28.1277a49.3483,49.3483,0,0,0,14.3091,32.8174c1.2813,1.2763,2.1079,1.9922,2.1812,2.0556.0107.01.0718.0635.083.0733a34.4973,34.4973,0,0,1-12.8643,59.4907v-8.98c3.0562-3.9443,5-9.7383,5-16.2041,0-11.8555-6.5048-21.5-14.5-21.5s-14.5,9.6445-14.5,21.5c0,6.4658,1.9438,12.26,5,16.2041v8.9463A34.7493,34.7493,0,0,1,50.0851,89.2722a34.1937,34.1937,0,0,1,4.4292-16.8213,36.797,36.797,0,0,0,2.4531,9.8145,6.299,6.299,0,0,0,11.73-4.5918Zm17.74,37.9316a7.1184,7.1184,0,0,1-.7627.1826,7.06,7.06,0,0,1-2.2819,0,7.0172,7.0172,0,0,1-.7642-.1831c-.0968-.0258-.1956-.0415-.2916-.0717a10.4213,10.4213,0,0,1-4.649-3.3672l-.6418-.773a24.3209,24.3209,0,0,1-4.0125-14.0122c0-10.2012,5.1587-18.5,11.5-18.5s11.5,8.2988,11.5,18.5a24.3217,24.3217,0,0,1-4.0124,14.0122l-.6419.773A10.423,10.423,0,0,1,86.73,115.533C86.6337,115.5632,86.5344,115.5789,86.437,115.6052ZM84.5333,6.8806A78.4123,78.4123,0,0,1,101.6384,8.78a18.7622,18.7622,0,0,0-11.302,16.1065c-4.9627,1.935-26.7292,11.72-27.7874,34.8574-.0005.0078.0009.0928.0009.1q-.044,1.0343-.0332,2.1035A49.9839,49.9839,0,0,0,65.8859,78.72a3.3032,3.3032,0,0,1-4.2027,4.2754,3.21,3.21,0,0,1-1.9326-1.8487,33.9881,33.9881,0,0,1-2.4458-13.3671,1.5,1.5,0,0,0-2.6977-.93,37.1817,37.1817,0,0,0-7.522,22.4131A37.7974,37.7974,0,0,0,65.259,121.4807,78.7338,78.7338,0,0,1,8.6173,65.4045,78.6348,78.6348,0,0,1,84.5333,6.8806Zm-78.5,78.5a78.5731,78.5731,0,0,1,1.2641-13.938,81.7182,81.7182,0,0,0,67.652,54.8648,26.45,26.45,0,0,1-26.3838,25.0908H42.1422A78.4863,78.4863,0,0,1,6.0333,85.3806ZM47.158,154.3982h1.4076A29.4517,29.4517,0,0,0,75.0333,137.81v25.4756A77.9072,77.9072,0,0,1,47.158,154.3982Zm46.8753,8.8872V126.4812H151.379A78.6079,78.6079,0,0,1,94.0333,163.2854Z"/><path class="cls-7" d="M75.0333,162.7854a77.9,77.9,0,0,1-26.9021-8.3872H47.158a77.9072,77.9072,0,0,0,27.8753,8.8872Z"/><path class="cls-7" d="M92.0209,111.3928a24.3217,24.3217,0,0,0,4.0124-14.0122c0-.0884-.0074-.1738-.0082-.2622a24.2313,24.2313,0,0,1-4.0042,13.7744l-.6419.773A10.423,10.423,0,0,1,86.73,115.033c-.0965.03-.1958.0459-.2932.0722a7.1184,7.1184,0,0,1-.7627.1826,7.06,7.06,0,0,1-2.2819,0,7.0172,7.0172,0,0,1-.7642-.1831c-.0968-.0258-.1956-.0415-.2916-.0717a10.4213,10.4213,0,0,1-4.649-3.3672l-.6418-.773a24.2305,24.2305,0,0,1-4.0042-13.7744c-.0008.0884-.0083.1738-.0083.2622a24.3209,24.3209,0,0,0,4.0125,14.0122l.6418.773a10.4213,10.4213,0,0,0,4.649,3.3672c.096.03.1948.0459.2916.0717a7.0172,7.0172,0,0,0,.7642.1831,7.06,7.06,0,0,0,2.2819,0,7.1184,7.1184,0,0,0,.7627-.1826c.0974-.0263.1967-.042.2932-.0722a10.423,10.423,0,0,0,4.6488-3.3672Z"/><path class="cls-7" d="M90.3364,24.3865c-4.9627,1.935-26.7292,11.72-27.7874,34.8574-.0005.0078.0009.0928.0009.1q-.044,1.0343-.0332,2.1035c.0006.05.0048.1016.0055.1514-.001-.5913.0033-1.18.0277-1.7549,0-.0068-.0014-.0918-.0009-.1,1.0582-23.1372,22.8247-32.9224,27.7874-34.8574A18.7622,18.7622,0,0,1,101.6384,8.78c-.2432-.0542-.489-.1015-.7331-.1533A18.75,18.75,0,0,0,90.3364,24.3865Z"/><path class="cls-7" d="M105.2958,120.5784c-.4331.29-.8624.5864-1.3082.8589A78.7387,78.7387,0,0,0,160.45,65.4055c-.0221-.084-.0479-.1665-.07-.2505A78.7331,78.7331,0,0,1,105.2958,120.5784Z"/><path class="cls-7" d="M109.4418,122.9812c-.5261.1694-1.0513.3413-1.5818.5h45.2742a77.9974,77.9974,0,0,0,9.8991-38.1006c0-.0688-.0046-.1367-.0048-.2051a77.9937,77.9937,0,0,1-9.8943,37.8057Z"/><path class="cls-7" d="M78.051,124.259a1.5033,1.5033,0,0,0-.0177-.6294v.5C78.0436,124.1716,78.0439,124.2161,78.051,124.259Z"/><path class="cls-7" d="M84.5333,3.8806A81.5888,81.5888,0,0,1,166.0272,85.14c0-.0869.0061-.1724.0061-.2593a81.5,81.5,0,0,0-163,0c0,.0869.0059.1724.0061.2593A81.5888,81.5888,0,0,1,84.5333,3.8806Z"/><path class="cls-7" d="M94.0333,162.7854v.5a78.6079,78.6079,0,0,0,57.3457-36.8042h-.3182A78.5962,78.5962,0,0,1,94.0333,162.7854Z"/><path class="cls-7" d="M79.4829,163.7009c.4737.03.9477.0659,1.421.0874q1.6518.0762,3.32.0845.309.0015.6182,0,1.6689-.0066,3.32-.0845c.4732-.0215.9472-.0571,1.4208-.0874.4848-.0312.9672-.0713,1.45-.1108v-.5c-.4824.04-.9648.08-1.45.1108-.4736.03-.9476.0659-1.4208.0874q-1.6519.0762-3.32.0845-.309.0015-.6182,0-1.6687-.0066-3.32-.0845c-.4733-.0215-.9473-.0571-1.421-.0874-.4848-.0312-.9671-.0713-1.45-.1108v.5C78.5158,163.63,78.9981,163.67,79.4829,163.7009Z"/><path class="cls-7" d="M75.0333,122.031A34.75,34.75,0,0,1,50.091,89.1c0,.0577-.0057.1143-.0059.1719A34.7493,34.7493,0,0,0,75.0333,122.531Z"/><path class="cls-7" d="M84.5333,75.3806c-7.9951,0-14.5,9.6445-14.5,21.5,0,.0806.0083.1582.0089.2388.0958-11.7344,6.5555-21.2388,14.4911-21.2388S98.9287,85.385,99.0244,97.1194c.0006-.0806.0089-.1582.0089-.2388C99.0333,85.0251,92.5285,75.3806,84.5333,75.3806Z"/><path class="cls-7" d="M65.259,121.4807c-.4467-.272-.8767-.5669-1.3107-.8559a78.73,78.73,0,0,1-55.26-55.4683c-.0222.0835-.0489.1645-.0709.248A78.7338,78.7338,0,0,0,65.259,121.4807Z"/><path class="cls-7" d="M42.1422,151.3982h6.4234a26.45,26.45,0,0,0,26.3838-25.0908l-.0368-.0049a26.4464,26.4464,0,0,1-26.347,24.5957H42.1422A78.4861,78.4861,0,0,1,6.0381,85.1755c0,.0689-.0048.1363-.0048.2051A78.4863,78.4863,0,0,0,42.1422,151.3982Z"/><path class="cls-7" d="M119.0846,89.3806c0-.0732-.0055-.145-.006-.2182a34.7527,34.7527,0,0,1-25.0453,32.9023v.5A34.7519,34.7519,0,0,0,119.0846,89.3806Z"/><path class="cls-7" d="M93.2848,26.17a46.35,46.35,0,0,0,13.4658,32.65c1.1983,1.1924,1.979,1.87,1.9868,1.8769s.0782.0684.0855.0752A37.4645,37.4645,0,0,1,122.077,89.1047c.0005-.0752.0076-.1489.0076-.2241a37.4688,37.4688,0,0,0-13.2617-28.6084c-.0073-.0068-.0777-.0683-.0855-.0752s-.7885-.6845-1.9868-1.8769A46.346,46.346,0,0,1,93.2894,25.8538c0,.0322-.0046.0639-.0046.0962Z"/><path class="cls-7" d="M56.2936,66.3337a1.4993,1.4993,0,0,1,1.0112,1.4454,33.9881,33.9881,0,0,0,2.4458,13.3671,3.21,3.21,0,0,0,1.9326,1.8487A3.32,3.32,0,0,0,64.402,82.77a3.2691,3.2691,0,0,0,1.6752-3.1236A3.2661,3.2661,0,0,1,64.402,82.27a3.32,3.32,0,0,1-2.7188.2246,3.21,3.21,0,0,1-1.9326-1.8487,33.9881,33.9881,0,0,1-2.4458-13.3671,1.5,1.5,0,0,0-2.6977-.93,37.1817,37.1817,0,0,0-7.522,22.4131c0,.0712.0063.1416.0065.2133a37.17,37.17,0,0,1,7.5155-22.1264A1.5013,1.5013,0,0,1,56.2936,66.3337Z"/><path class="cls-7" d="M68.6974,77.1736a47.0306,47.0306,0,0,1-3.18-15.7324c0,.1572-.0027.3159-.001.4736a47.0144,47.0144,0,0,0,3.1807,15.7588,6.3769,6.3769,0,0,1,.3832,1.9868A6.35,6.35,0,0,0,68.6974,77.1736Z"/><g class="cls-8"><path id="FOR_LINE_WORK_CIRCLE" data-name="FOR LINE WORK CIRCLE" class="cls-9" d="M34.624,12A87.6239,87.6239,0,0,0,12,36.2218L131.7784,156A87.6232,87.6232,0,0,0,156,133.376Z"/></g><path id="border" class="cls-10" d="M84,168a84,84,0,1,1,84-84A84.0953,84.0953,0,0,1,84,168ZM84,8a76,76,0,1,0,76,76A76.0862,76.0862,0,0,0,84,8Z"/><g id="border_highlight" data-name="border highlight"><path class="cls-11" d="M84,8A76,76,0,1,1,8,84,76.0862,76.0862,0,0,1,84,8m0-1a77,77,0,1,0,77,77A77.0872,77.0872,0,0,0,84,7Z"/></g><path id="outer_pink" data-name="outer pink" class="cls-12" d="M132,152.875V142.8713a75.82,75.82,0,0,1-96,0V152.875a83.7278,83.7278,0,0,0,96,0Z"/><g id="elipse" class="cls-13"><ellipse class="cls-14" cx="84.5333" cy="141.8061" rx="40.5333" ry="19"/></g><path id="right_glare" data-name="right glare" class="cls-15" d="M153.6021,130.978l-5.7847-5.7846A76.5785,76.5785,0,0,1,124.22,148.4419l5.7867,5.7866A84.6725,84.6725,0,0,0,153.6021,130.978Z"/><path id="left_glare" data-name="left glare" class="cls-16" d="M13.7714,37.9932,19.5582,43.78A76.5774,76.5774,0,0,1,42.8067,20.1826l-5.7848-5.7847A84.6715,84.6715,0,0,0,13.7714,37.9932Z"/><path id="top_halo" data-name="top halo" class="cls-17" d="M84,8a76.0862,76.0862,0,0,1,76,76h8A84,84,0,0,0,0,84H8A76.0862,76.0862,0,0,1,84,8Z"/></g></g></svg>