<svg xmlns="http://www.w3.org/2000/svg" xmlns:xlink="http://www.w3.org/1999/xlink" width="168" height="168" viewBox="0 0 168 168"><defs><style>.cls-1{fill:url(#linear-gradient);}.cls-2,.cls-6{opacity:0.3;}.cls-3{fill:url(#radial-gradient);}.cls-4{opacity:0.5;}.cls-5{fill:url(#New_Gradient_Swatch_4);}.cls-7{fill:url(#New_Gradient_Swatch_1);}.cls-8{fill:#fff;}.cls-9{fill:url(#linear-gradient-2);}.cls-10{fill:url(#linear-gradient-3);}.cls-11{fill:url(#linear-gradient-4);}.cls-12{fill:url(#linear-gradient-5);}.cls-13{fill:url(#linear-gradient-6);}.cls-14{fill:url(#linear-gradient-7);}.cls-15{fill:url(#linear-gradient-8);}.cls-16{fill:url(#linear-gradient-9);}.cls-17{opacity:0.7;fill:url(#linear-gradient-10);}.cls-18{fill:url(#linear-gradient-11);}.cls-19{opacity:0.4;fill:url(#linear-gradient-12);}</style><linearGradient id="linear-gradient" x1="84" y1="168" x2="84" gradientUnits="userSpaceOnUse"><stop offset="0" stop-color="#333d45"/><stop offset="0.9988"/></linearGradient><radialGradient id="radial-gradient" cx="-477.161" cy="1931.3461" fy="1949.4006533534307" r="20.2667" gradientTransform="translate(1038.8554 -1668.8308) scale(2 0.9375)" gradientUnits="userSpaceOnUse"><stop offset="0" stop-color="#fff"/><stop offset="0.6802" stop-color="#e78bad" stop-opacity="0"/></radialGradient><linearGradient id="New_Gradient_Swatch_4" x1="84.5333" y1="104.5913" x2="84.5333" y2="40.5913" gradientUnits="userSpaceOnUse"><stop offset="0" stop-color="#8359df"/><stop offset="1" stop-color="#00a894"/></linearGradient><linearGradient id="New_Gradient_Swatch_1" x1="84.5333" y1="166.0464" x2="84.5333" y2="3.0464" gradientUnits="userSpaceOnUse"><stop offset="0" stop-color="#688199"/><stop offset="1" stop-color="#f7f9fa"/></linearGradient><linearGradient id="linear-gradient-2" x1="16.5633" y1="40.7851" x2="39.9863" y2="17.3621" gradientUnits="userSpaceOnUse"><stop offset="0.25" stop-color="#f7f9fa" stop-opacity="0"/><stop offset="0.5" stop-color="#fff"/><stop offset="0.75" stop-color="#bee6fa" stop-opacity="0"/></linearGradient><linearGradient id="linear-gradient-3" x1="61.9695" y1="86.1912" x2="85.3924" y2="62.7682" xlink:href="#linear-gradient-2"/><linearGradient id="linear-gradient-4" x1="88.009" y1="112.2307" x2="111.4319" y2="88.8078" xlink:href="#linear-gradient-2"/><linearGradient id="linear-gradient-5" x1="26.3409" y1="50.5628" x2="49.7639" y2="27.1397" xlink:href="#linear-gradient-2"/><linearGradient id="linear-gradient-6" x1="110.3225" y1="134.5441" x2="133.7454" y2="111.1212" xlink:href="#linear-gradient-2"/><linearGradient id="linear-gradient-7" x1="84" y1="168" x2="84" y2="0" xlink:href="#New_Gradient_Swatch_1"/><linearGradient id="linear-gradient-8" x1="84" y1="161" x2="84" y2="7" gradientUnits="userSpaceOnUse"><stop offset="0" stop-color="#f7f9fa"/><stop offset="1" stop-color="#f7f9fa" stop-opacity="0"/></linearGradient><linearGradient id="linear-gradient-9" x1="36" y1="155.4357" x2="132" y2="155.4357" gradientUnits="userSpaceOnUse"><stop offset="0" stop-color="#e8749f" stop-opacity="0"/><stop offset="0.5" stop-color="#f7f9fa"/><stop offset="1" stop-color="#e8749f" stop-opacity="0"/></linearGradient><linearGradient id="linear-gradient-10" x1="127.7358" y1="151.9575" x2="151.1587" y2="128.5346" xlink:href="#linear-gradient-2"/><linearGradient id="linear-gradient-11" x1="16.0425" y1="40.2642" x2="39.4654" y2="16.8413" xlink:href="#linear-gradient-2"/><linearGradient id="linear-gradient-12" x1="84" y1="84" x2="84" gradientUnits="userSpaceOnUse"><stop offset="0" stop-color="#e8749f" stop-opacity="0"/><stop offset="1" stop-color="#f7f9fa"/></linearGradient></defs><g id="Layer_2" data-name="Layer 2"><g id="Layer_1-2" data-name="Layer 1"><path id="base_bkgd" data-name="base bkgd" class="cls-1" d="M84,168a84,84,0,1,1,84-84A84.0953,84.0953,0,0,1,84,168Z"/><g id="border_shadow" data-name="border shadow"><path d="M84,9A75,75,0,1,1,9,84,75.0849,75.0849,0,0,1,84,9m0-1a76,76,0,1,0,76,76A76.0862,76.0862,0,0,0,84,8Z"/></g><g id="elipse" class="cls-2"><ellipse class="cls-3" cx="84.5333" cy="141.8061" rx="40.5333" ry="19"/></g><path class="cls-4" d="M164.5,69.8447l.0168-.0327-.104-.5137c-.2744-1.3525-.591-2.6875-.9308-4.0127-.0335-.1308-.0724-.26-.1068-.3906q-.4425-1.69-.9534-3.35c-.0659-.2139-.1372-.4248-.2048-.6377q-.4887-1.5389-1.0337-3.0488c-.0849-.2344-.1723-.4668-.2593-.7q-.5517-1.48-1.1578-2.9312c-.0952-.228-.19-.456-.2875-.6826q-.6288-1.467-1.3134-2.9009c-.0962-.2021-.1894-.4057-.2872-.6069q-.73-1.5-1.5195-2.9624c-.08-.1484-.1551-.2993-.2358-.4473-.6092-1.1142-1.2385-2.2148-1.897-3.2954l-.01-.0171q-.9819-1.6105-2.0343-3.17c-.2853-.4238-.5886-.8345-.8817-1.2524-.3895-.5542-.775-1.1114-1.1776-1.6548-.4685-.6343-.9553-1.2534-1.4414-1.8736-.2317-.2944-.459-.5922-.6944-.8828-.59-.7319-1.1967-1.4492-1.8112-2.16-.1217-.14-.242-.2818-.3647-.4209A81.311,81.311,0,0,0,84.5333,4.0464c-.8706,0-1.7319.0386-2.5962.0659l.001-.0024-.0674.0039A80.9256,80.9256,0,0,0,44.47,14.6157q-.5567.3143-1.1082.6377c-.5049.2969-1.011.5913-1.5088.8985q-1.2235.7528-2.4182,1.5517c-.3374.2251-.6711.4546-1.0051.6846q-1.1565.7947-2.2869,1.6279c-.1418.1045-.2871.2051-.4282.311-.9138.6846-1.8089,1.3951-2.6944,2.1182q-.2856.2337-.5693.4693c-.8984.748-1.7856,1.5112-2.6528,2.2988-.0488.0444-.0957.09-.1443.1347q-1.23,1.1229-2.4136,2.3013c-.1711.1694-.3435.3379-.5132.5088q-1.1751,1.185-2.3059,2.4185c-.2043.2231-.4023.4516-.604.6767q-.8262.925-1.6262,1.877c-.26.3091-.5229.6157-.7786.9287q-.8974,1.1-1.7585,2.2363c-.3589.4717-.7078.9507-1.0564,1.43q-.3819.5259-.7549,1.06-1.2084,1.719-2.3313,3.5c-.0256.0411-.0525.0811-.0784.1221q-.6482,1.035-1.2636,2.0908c-.0159.0274-.033.0537-.0489.0811l-1.207,2.0683.0178.0015c-.3559.6528-.6848,1.3218-1.0234,1.9854-.1426.2793-.2893.5551-.429.8364-.3718.75-.726,1.5093-1.0751,2.272-.167.3647-.3345.7285-.4961,1.0957q-.4908,1.1154-.9468,2.2485-.2329.5757-.4563,1.1553-.4476,1.1573-.8633,2.33c-.1248.3549-.2427.7124-.3625,1.0693-.28.834-.5545,1.67-.8084,2.5156-.0759.2539-.1443.5113-.218.7661-.6531,2.2569-1.22,4.5489-1.6787,6.8809l-.0015.0078A81.5,81.5,0,1,0,164.5,69.8447ZM84.5446,7.0854a78.6668,78.6668,0,0,1,58.854,26.6094c.102.1157.2016.2339.3029.35q.9291,1.0613,1.8229,2.1553c.2079.2563.4076.52.6122.7788.4932.6221.9861,1.2441,1.4609,1.8818.68.9161,1.345,1.8438,1.9854,2.79.0764.1123.1467.23.2224.3428.6067.9057,1.1985,1.8227,1.7678,2.7548.1136.1851.22.3755.3318.562.5222.8711,1.0324,1.75,1.5213,2.6426.1116.2036.2183.41.3283.6148q.7161,1.3351,1.3843,2.6992c.0994.2036.1965.4087.2942.6133q.6655,1.3959,1.2776,2.8213c.08.187.1614.374.24.5615q.63,1.5015,1.1982,3.0332c.052.1406.107.2793.1584.42q.6294,1.7249,1.1819,3.4858l.0107.0328q1.095,3.5133,1.8557,7.1655a87.5093,87.5093,0,0,1-6.54,10.6455H133.9345c-.5644-4.876-3.7771-9.5127-9.1811-13.3941a1.5071,1.5071,0,0,0-.3048-.2241,43.9129,43.9129,0,0,0-7.1465-4.0161L85.3859,40.3569l-.0066-.0034a1.493,1.493,0,0,0-.3269-.1645c-.0293-.0108-.0586-.0186-.0886-.0274a1.4865,1.4865,0,0,0-.2764-.0547c-.033-.0034-.065-.0088-.0982-.01-.019-.001-.0368-.0059-.0559-.0059H77.1544L65.8329,28.77A65.615,65.615,0,0,0,80.6588,7.19C81.9481,7.126,83.2426,7.0854,84.5446,7.0854ZM44.5333,80.0913H38.152c.6614-4.62,4.3418-8.9463,10.14-12.457l4.0694,2.7773a1.5,1.5,0,0,0,1.6914-2.4785L51.234,66.01a64.6153,64.6153,0,0,1,17.2783-5.5044l2.6807,3.041a1.5,1.5,0,0,0,2.25-1.9844L72.02,59.9478c.9927-.1363,1.9944-.2623,3.0132-.3663V73.5688a1.5006,1.5006,0,0,0,.44,1.0606L79.33,78.4868a1.5819,1.5819,0,0,0,.1431.1651l3.9912,3.9912.002.0019.0068.0069c.0071.0068.0166.01.0239.017a1.5107,1.5107,0,0,0,.2778.2164c.0188.0112.04.0146.0594.0249.0427.0224.0871.0371.1316.0551a1.4689,1.4689,0,0,0,.2934.09,1.4412,1.4412,0,0,0,.145.019c.0435.0039.086.0171.1294.0171a1.437,1.437,0,0,0,.1875-.0239c.041-.0049.0811-.0069.1216-.0152l.0186-.0058h46.0647c-1.5566,11.73-21.7635,21.0449-46.3924,21.0449-24.5974,0-44.7829-9.291-46.3852-21h6.3852a1.5,1.5,0,0,0,0-3Zm33.5-7.1435V43.0913h5v34.856Zm8.0008-28.4957L113.7,63.57l-10.6572,5.9571L86.0438,79.0283ZM116.6,65.3862a43.4861,43.4861,0,0,1,4.1,2.18l-3.4207,1.69a1.5,1.5,0,1,0,1.3291,2.69l4.9648-2.4526c4.231,3.1733,6.7891,6.8056,7.3444,10.5532H90.372ZM84.5333,107.0913c21.6421,0,39.6258-6.81,46.5-16.5884v3.0435c0,7.17-6.9753,13.562-17.8051,17.685a86.4728,86.4728,0,0,1-19.5,4.3711c-2.9734.29-6.0474.4439-9.1949.4439-3.12,0-6.1672-.1519-9.1167-.437a86.4809,86.4809,0,0,1-19.7517-4.4439c-10.7309-4.125-17.6316-10.4878-17.6316-17.6191V90.5029C44.9076,100.2812,62.8912,107.0913,84.5333,107.0913Zm49.5-13.5449v-10.5h18.5313a86.2172,86.2172,0,0,1-21.72,19.6621A15.4708,15.4708,0,0,0,134.0333,93.5464ZM19.4591,41.7231c.0615-.0913.1253-.1811.1873-.2719A79.029,79.029,0,0,1,67.5822,8.9492c.0212-.0044.0424-.01.0639-.0141,1.0215-.2266,2.0508-.43,3.0852-.6158.2632-.0468.5284-.0874.7923-.1313.6435-.1089,1.29-.207,1.9377-.3.4685-.0664.9368-.1338,1.4075-.1914.3533-.044.709-.0781,1.0635-.1177.4511-.0493.9011-.1025,1.354-.144A62.277,62.277,0,0,1,20.3971,44.0464c-.7737,0-1.5669-.0186-2.41-.0557C18.4669,43.2271,18.9542,42.4688,19.4591,41.7231Zm-9.188,18.4331c.0972-.2832.1883-.5693.2886-.851.2717-.7647.5625-1.52.8569-2.2725.1416-.3613.2813-.7241.4283-1.0835.2944-.7207.602-1.4341.9169-2.1435q.2444-.55.4961-1.0962.4956-1.07,1.0193-2.1236c.1595-.3188.3242-.6342.4878-.9506.386-.7461.7766-1.4893,1.1853-2.2207.0972-.1739.2-.3448.2984-.5181,1.5122.1,2.8571.15,4.1484.15A65.2987,65.2987,0,0,0,63.6217,30.8008L75.0333,42.2124V56.5718q-3.1306.309-6.0957.8091a1.604,1.604,0,0,0-.1987.0337,64.7682,64.7682,0,0,0-20.9556,7.0327,1.4773,1.4773,0,0,0-.3574.208c-7.762,4.519-12.3926,10.4619-12.3926,16.936V93.5464a15.4614,15.4614,0,0,0,3.1687,9.1362A86.5037,86.5037,0,0,1,7.7223,69.38,77.7685,77.7685,0,0,1,10.2711,60.1562Zm-4.2378,25.39A78.7888,78.7888,0,0,1,6.88,74.0737a89.2384,89.2384,0,0,0,38.5205,36.0581L22.2648,133.2676A78.0822,78.0822,0,0,1,6.0333,85.5464Zm78.5,78.5A78.3674,78.3674,0,0,1,24.14,135.6343l24.1584-24.1582q2.8912,1.2759,5.88,2.3427a78.6049,78.6049,0,0,0,22.33,4.9039c2.6545.2358,5.3342.3627,8.0364.3627q4.5549,0,9.0214-.4531a78.1463,78.1463,0,0,0,21.0967-4.7226q3.1048-1.1039,6.1122-2.4268l24.1515,24.1514A78.3675,78.3675,0,0,1,84.5333,164.0464Zm62.2686-30.7788-23.1284-23.1284a89.2385,89.2385,0,0,0,38.5172-36.0337,78.2364,78.2364,0,0,1-15.3888,59.1621Z"/><path class="cls-5" d="M116.5319,62.707l.0014-.0019-32-22.1138v40l-4-4v-.0225l-4-4V56.9351c-22.6985,1.9052-40,11.7656-40,23.6562,0,13.2549,21.49,24,48,24s48-10.7451,48-24C132.5333,73.4839,126.35,67.1016,116.5319,62.707Z"/><path class="cls-6" d="M84.5333,104.5913c26.51,0,48-10.7451,48-24,0-7.1074-6.1833-13.49-16.0014-17.8843l.0014-.0019-32-22.1138v40l-4-4v-.0225l-4-4V56.9351c-22.6985,1.9052-40,11.7656-40,23.6562C36.5333,93.8462,58.0236,104.5913,84.5333,104.5913Zm32.105-39.081q.9771.4688,1.9356.99l-1.7388.8594a2.5,2.5,0,1,0,2.2153,4.4824l4.4072-2.1768c3.3135,2.5967,5.4429,5.4649,6.23,8.3809H94.2106Zm-4.8276-3.03L87.0436,76.3247,87.0348,45.36ZM74.0333,59.6978v.0214l-.0175-.02Zm-29.5,18.3935h-5.16c.9624-3.6719,4.0078-7.1934,8.8911-10.2646l3.5327,2.4111a2.5006,2.5006,0,0,0,2.8193-4.1309l-1.3842-.9443a65.7266,65.7266,0,0,1,14.9047-4.5713l2.3062,2.6162a2.5,2.5,0,0,0,3.5288.2217c.021-.0186.0415-.0371.0615-.0566v9.1962a2.5174,2.5174,0,0,0,.7325,1.7676l3.8134,3.8145a2.5723,2.5723,0,0,0,.1866.208l4.0957,4.0928.0258.0156a2.47,2.47,0,0,0,.3868.2842l.1167.0615s.1381.0557.19.0752a2.4122,2.4122,0,0,0,.5005.1514,1.6885,1.6885,0,0,0,.1938.0253l.166.0264h.0918a2.1381,2.1381,0,0,0,.3413-.0351l.0816-.01h44.7651c-2.6318,10.7676-22.0351,19.0449-45.188,19.0449-23.103,0-42.499-8.2568-45.1753-19h5.1753a2.5,2.5,0,0,0,0-5Z"/><path class="cls-7" d="M164.5,68.8447l.0168-.0327-.104-.5137c-.2744-1.3525-.591-2.6875-.9308-4.0127-.0335-.1308-.0724-.26-.1068-.3906q-.4425-1.69-.9534-3.35c-.0659-.2139-.1372-.4248-.2048-.6377q-.4887-1.5389-1.0337-3.0488c-.0849-.2344-.1723-.4668-.2593-.7q-.5517-1.48-1.1578-2.9312c-.0952-.228-.19-.456-.2875-.6826q-.6288-1.467-1.3134-2.9009c-.0962-.2021-.1894-.4057-.2872-.6069q-.73-1.5-1.5195-2.9624c-.08-.1484-.1551-.2993-.2358-.4473-.6092-1.1142-1.2385-2.2148-1.897-3.2954l-.01-.0171q-.9819-1.6105-2.0343-3.17c-.2853-.4238-.5886-.8345-.8817-1.2524-.3895-.5542-.775-1.1114-1.1776-1.6548-.4685-.6343-.9553-1.2534-1.4414-1.8736-.2317-.2944-.459-.5922-.6944-.8828-.59-.7319-1.1967-1.4492-1.8112-2.16-.1217-.14-.242-.2818-.3647-.4209A81.311,81.311,0,0,0,84.5333,3.0464c-.8706,0-1.7319.0386-2.5962.0659l.001-.0024-.0674.0039A80.9256,80.9256,0,0,0,44.47,13.6157q-.5567.3143-1.1082.6377c-.5049.2969-1.011.5913-1.5088.8985q-1.2235.7529-2.4182,1.5517c-.3374.2251-.6711.4546-1.0051.6846q-1.1565.7947-2.2869,1.6279c-.1418.1045-.2871.2051-.4282.311-.9138.6846-1.8089,1.3951-2.6944,2.1182q-.2856.2337-.5693.4693c-.8984.748-1.7856,1.5112-2.6528,2.2988-.0488.0444-.0957.09-.1443.1347q-1.23,1.1229-2.4136,2.3013c-.1711.1694-.3435.3379-.5132.5088q-1.1751,1.185-2.3059,2.4185c-.2043.2231-.4023.4516-.604.6767q-.8262.9251-1.6262,1.877c-.26.3091-.5229.6157-.7786.9287q-.8974,1.1-1.7585,2.2363c-.3589.4717-.7078.9507-1.0564,1.43q-.3819.5259-.7549,1.06-1.2084,1.719-2.3313,3.5c-.0256.0411-.0525.0811-.0784.1221q-.6482,1.035-1.2636,2.0908c-.0159.0274-.033.0537-.0489.0811l-1.207,2.0683.0178.0015c-.3559.6528-.6848,1.3218-1.0234,1.9854-.1426.2793-.2893.5551-.429.8364-.3718.75-.726,1.5093-1.0751,2.272-.167.3647-.3345.7285-.4961,1.0957q-.4908,1.1154-.9468,2.2485-.2329.5757-.4563,1.1553-.4476,1.1573-.8633,2.33c-.1248.3549-.2427.7124-.3625,1.0693-.28.834-.5545,1.67-.8084,2.5156-.0759.2539-.1443.5113-.218.7661-.6531,2.2569-1.22,4.5489-1.6787,6.8809l-.0015.0078A81.5,81.5,0,1,0,164.5,68.8447ZM84.5446,6.0854a78.6668,78.6668,0,0,1,58.854,26.6094c.102.1157.2016.2339.3029.35q.9291,1.0613,1.8229,2.1553c.2079.2563.4076.52.6122.7788.4932.6221.9861,1.2441,1.4609,1.8818.68.9161,1.345,1.8438,1.9854,2.79.0764.1123.1467.23.2224.3428.6067.9057,1.1985,1.8227,1.7678,2.7548.1136.1851.22.3755.3318.562.5222.8711,1.0324,1.75,1.5213,2.6426.1116.2036.2183.41.3283.6148q.7161,1.3351,1.3843,2.6992c.0994.2036.1965.4087.2942.6133q.6655,1.3959,1.2776,2.8213c.08.187.1614.374.24.5615q.63,1.5015,1.1982,3.0332c.052.1406.107.2793.1584.42q.6294,1.7249,1.1819,3.4858l.0107.0328q1.095,3.5133,1.8557,7.1655a87.5093,87.5093,0,0,1-6.54,10.6455H133.9345c-.5644-4.876-3.7771-9.5127-9.1811-13.3941a1.5071,1.5071,0,0,0-.3048-.2241,43.9129,43.9129,0,0,0-7.1465-4.0161L85.3859,39.3569l-.0066-.0034a1.493,1.493,0,0,0-.3269-.1645c-.0293-.0108-.0586-.0186-.0886-.0274a1.4865,1.4865,0,0,0-.2764-.0547c-.033-.0034-.065-.0088-.0982-.01-.019-.001-.0368-.0059-.0559-.0059H77.1544L65.8329,27.77A65.615,65.615,0,0,0,80.6588,6.19C81.9481,6.126,83.2426,6.0854,84.5446,6.0854ZM44.5333,79.0913H38.152c.6614-4.62,4.3418-8.9463,10.14-12.457l4.0694,2.7773a1.5,1.5,0,0,0,1.6914-2.4785L51.234,65.01a64.6153,64.6153,0,0,1,17.2783-5.5044l2.6807,3.041a1.5,1.5,0,0,0,2.25-1.9844L72.02,58.9478c.9927-.1363,1.9944-.2623,3.0132-.3663V72.5688a1.5006,1.5006,0,0,0,.44,1.0606L79.33,77.4868a1.5819,1.5819,0,0,0,.1431.1651l3.9912,3.9912.002.0019.0068.0069c.0071.0068.0166.01.0239.017a1.5107,1.5107,0,0,0,.2778.2164c.0188.0112.04.0146.0594.0249.0427.0224.0871.0371.1316.0551a1.4689,1.4689,0,0,0,.2934.09,1.4412,1.4412,0,0,0,.145.019c.0435.0039.086.0171.1294.0171a1.437,1.437,0,0,0,.1875-.0239c.041-.0049.0811-.0069.1216-.0152l.0186-.0058h46.0647c-1.5566,11.73-21.7635,21.0449-46.3924,21.0449-24.5974,0-44.7829-9.291-46.3852-21h6.3852a1.5,1.5,0,0,0,0-3Zm33.5-7.1435V42.0913h5v34.856Zm8.0008-28.4957L113.7,62.57l-10.6572,5.9571L86.0438,78.0283ZM116.6,64.3862a43.4861,43.4861,0,0,1,4.1,2.18l-3.4207,1.69a1.5,1.5,0,1,0,1.3291,2.69l4.9648-2.4526c4.231,3.1733,6.7891,6.8056,7.3444,10.5532H90.372ZM84.5333,106.0913c21.6421,0,39.6258-6.81,46.5-16.5884v3.0435c0,7.17-6.9753,13.562-17.8051,17.685a86.4728,86.4728,0,0,1-19.5,4.3711c-2.9734.29-6.0474.4439-9.1949.4439-3.12,0-6.1672-.1519-9.1167-.437a86.4809,86.4809,0,0,1-19.7517-4.4439c-10.7309-4.125-17.6316-10.4878-17.6316-17.6191V89.5029C44.9076,99.2812,62.8912,106.0913,84.5333,106.0913Zm49.5-13.5449v-10.5h18.5313a86.2172,86.2172,0,0,1-21.72,19.6621A15.4708,15.4708,0,0,0,134.0333,92.5464ZM19.4591,40.7231c.0615-.0913.1253-.1811.1873-.2719A79.029,79.029,0,0,1,67.5822,7.9492c.0212-.0044.0424-.01.0639-.0141,1.0215-.2266,2.0508-.43,3.0852-.6158.2632-.0468.5284-.0874.7923-.1313.6435-.1089,1.29-.207,1.9377-.3.4685-.0664.9368-.1338,1.4075-.1914.3533-.044.709-.0781,1.0635-.1177.4511-.0493.9011-.1025,1.354-.144A62.277,62.277,0,0,1,20.3971,43.0464c-.7737,0-1.5669-.0186-2.41-.0557C18.4669,42.2271,18.9542,41.4688,19.4591,40.7231Zm-9.188,18.4331c.0972-.2832.1883-.5693.2886-.851.2717-.7647.5625-1.52.8569-2.2725.1416-.3613.2813-.7241.4283-1.0835.2944-.7207.602-1.4341.9169-2.1435q.2444-.55.4961-1.0962.4956-1.07,1.0193-2.1236c.1595-.3188.3242-.6342.4878-.9506.386-.7461.7766-1.4893,1.1853-2.2207.0972-.1739.2-.3448.2984-.5181,1.5122.1,2.8571.15,4.1484.15A65.2987,65.2987,0,0,0,63.6217,29.8008L75.0333,41.2124V55.5718q-3.1306.309-6.0957.8091a1.604,1.604,0,0,0-.1987.0337,64.7682,64.7682,0,0,0-20.9556,7.0327,1.4773,1.4773,0,0,0-.3574.208c-7.762,4.519-12.3926,10.4619-12.3926,16.936V92.5464a15.4614,15.4614,0,0,0,3.1687,9.1362A86.5037,86.5037,0,0,1,7.7223,68.38,77.7685,77.7685,0,0,1,10.2711,59.1562Zm-4.2378,25.39A78.7888,78.7888,0,0,1,6.88,73.0737a89.2384,89.2384,0,0,0,38.5205,36.0581L22.2648,132.2676A78.0822,78.0822,0,0,1,6.0333,84.5464Zm78.5,78.5A78.3674,78.3674,0,0,1,24.14,134.6343l24.1584-24.1582q2.8912,1.2759,5.88,2.3427a78.6049,78.6049,0,0,0,22.33,4.9039c2.6545.2358,5.3342.3627,8.0364.3627q4.5549,0,9.0214-.4531a78.1463,78.1463,0,0,0,21.0967-4.7226q3.1048-1.1039,6.1122-2.4268l24.1515,24.1514A78.3675,78.3675,0,0,1,84.5333,163.0464Zm62.2686-30.7788-23.1284-23.1284a89.2385,89.2385,0,0,0,38.5172-36.0337,78.2364,78.2364,0,0,1-15.3888,59.1621Z"/><g id="top_highlight" data-name="top highlight"><polygon class="cls-8" points="86.044 78.028 103.043 68.527 113.7 62.57 113.3 62.293 103.043 68.027 86.044 77.528 86.034 43.452 86.034 43.452 86.044 78.028"/><path class="cls-8" d="M131.0333,92.5464v-.5c0,7.17-6.9753,13.562-17.8051,17.685a86.4728,86.4728,0,0,1-19.5,4.3711c-2.9734.29-6.0474.4439-9.1949.4439-3.12,0-6.1672-.1519-9.1167-.437a86.4809,86.4809,0,0,1-19.7517-4.4439c-10.7309-4.125-17.6316-10.4878-17.6316-17.6191v.5c0,7.1313,6.9007,13.4941,17.6316,17.6191a86.4809,86.4809,0,0,0,19.7517,4.4439c2.95.2851,5.9969.437,9.1167.437,3.1475,0,6.2215-.1538,9.1949-.4439a86.4728,86.4728,0,0,0,19.5-4.3711C124.058,106.1084,131.0333,99.7163,131.0333,92.5464Z"/><path class="cls-8" d="M116.47,69.3433a1.4953,1.4953,0,0,1,.8089-1.087l3.4207-1.69c-.1512-.0913-.3171-.1772-.471-.2671l-2.95,1.457A1.4953,1.4953,0,0,0,116.47,69.3433Z"/><path class="cls-8" d="M131.4609,100.8c-.1966.3052-.3981.6089-.6158.9087a86.2172,86.2172,0,0,0,21.72-19.6621h-.41A86.2017,86.2017,0,0,1,131.4609,100.8Z"/><path class="cls-8" d="M90.372,79.0464h40.5448c-.0248-.1675-.075-.333-.1078-.5H91.2665Z"/><path class="cls-8" d="M124.005,108.9707c-.1113.0547-.22.1143-.3315.1685l23.1284,23.1284a78.0821,78.0821,0,0,0,16.2314-47.7212c0-.0884-.0046-.1758-.0048-.2642a78.0818,78.0818,0,0,1-16.2266,47.4854Z"/><path class="cls-8" d="M77.1544,39.0913h7.3789c.0191,0,.0369.0049.0559.0059.0332.0009.0652.0063.0982.01a1.4865,1.4865,0,0,1,.2764.0547c.03.0088.0593.0166.0886.0274a1.493,1.493,0,0,1,.3269.1645l.0066.0034,31.9162,22.0552a43.9129,43.9129,0,0,1,7.1465,4.0161,1.5071,1.5071,0,0,1,.3048.2241c5.404,3.8814,8.6167,8.5181,9.1811,13.3941h20.8808a87.5093,87.5093,0,0,0,6.54-10.6455c-.0246-.1172-.0566-.2324-.0817-.35a87.541,87.541,0,0,1-6.4588,10.4951H133.9345c-.5644-4.876-3.7771-9.5127-9.1811-13.3941a1.5071,1.5071,0,0,0-.3048-.2241,43.9129,43.9129,0,0,0-7.1465-4.0161L85.3859,38.8569l-.0066-.0034a1.493,1.493,0,0,0-.3269-.1645c-.0293-.0108-.0586-.0186-.0886-.0274a1.4865,1.4865,0,0,0-.2764-.0547c-.033-.0034-.065-.0088-.0982-.01-.019-.001-.0368-.0059-.0559-.0059H77.1544L66.0812,27.5181c-.0842.082-.1636.17-.2483.2514Z"/><path class="cls-8" d="M84.5333,162.5464a78.3572,78.3572,0,0,1-60.1628-28.1426l-.23.2305a78.3921,78.3921,0,0,0,120.7861,0l-.23-.2305A78.3571,78.3571,0,0,1,84.5333,162.5464Z"/><path class="cls-8" d="M4.5719,68.812l.0015-.0078c.4585-2.332,1.0256-4.624,1.6787-6.8809.0737-.2548.1421-.5122.218-.7661.2539-.8452.5281-1.6816.8084-2.5156.12-.3569.2377-.7144.3625-1.0693q.4131-1.174.8633-2.33.2241-.58.4563-1.1553.4581-1.1324.9468-2.2485c.1616-.3672.3291-.731.4961-1.0957.3491-.7627.7033-1.522,1.0751-2.272.14-.2813.2864-.5571.429-.8364.3386-.6636.6675-1.3326,1.0234-1.9854l-.0178-.0015L14.12,43.58c.0159-.0274.033-.0537.0489-.0811q.6182-1.0547,1.2636-2.0908c.0259-.041.0528-.081.0784-.1221q1.121-1.7818,2.3313-3.5.3742-.5331.7549-1.06c.3486-.48.6975-.9585,1.0564-1.43q.8618-1.1352,1.7585-2.2363c.2557-.313.5184-.62.7786-.9287q.8-.9522,1.6262-1.877c.2017-.2251.4-.4536.604-.6767q1.1288-1.2357,2.3059-2.4185c.17-.1709.3421-.3394.5132-.5088q1.1862-1.1748,2.4136-2.3013c.0486-.0444.0955-.09.1443-.1347.8672-.7876,1.7544-1.5508,2.6528-2.2988q.2838-.2359.5693-.4693c.8855-.7231,1.7806-1.4336,2.6944-2.1182.1411-.1059.2864-.2065.4282-.311q1.1291-.8349,2.2869-1.6279c.334-.23.6677-.46,1.0051-.6846q1.1968-.7961,2.4182-1.5517c.4978-.3072,1.0039-.6016,1.5088-.8985q.5519-.3229,1.1082-.6377A80.9256,80.9256,0,0,1,81.8707,3.1138l.0674-.0039-.001.0024c.8643-.0273,1.7256-.0659,2.5962-.0659a81.311,81.311,0,0,1,61.2777,27.855c.1227.1391.243.2807.3647.4209.6145.71,1.2212,1.4277,1.8112,2.16.2354.2906.4627.5884.6944.8828.4861.62.9729,1.2393,1.4414,1.8736.4026.5434.7881,1.1006,1.1776,1.6548.2931.4179.5964.8286.8817,1.2524q1.0527,1.5587,2.0343,3.17l.01.0171c.6585,1.0806,1.2878,2.1812,1.897,3.2954.0807.148.156.2989.2358.4473q.7886,1.4634,1.5195,2.9624c.0978.2012.191.4048.2872.6069q.6837,1.4349,1.3134,2.9009c.0974.2266.1923.4546.2875.6826q.6064,1.4509,1.1578,2.9312c.087.2329.1744.4653.2593.7q.5468,1.5095,1.0337,3.0488c.0676.2129.1389.4238.2048.6377q.5116,1.659.9534,3.35c.0344.1309.0733.26.1068.3906.34,1.3252.6564,2.66.9308,4.0127l.104.5137-.0168.0327a81.5767,81.5767,0,0,1,1.5266,15.4488c0-.0826.0063-.1641.0063-.2471A81.54,81.54,0,0,0,164.5,68.3447l.0168-.0327-.104-.5137c-.2744-1.3525-.591-2.6875-.9308-4.0127-.0335-.1308-.0724-.26-.1068-.3906q-.4425-1.69-.9534-3.35c-.0659-.2139-.1372-.4248-.2048-.6377q-.4887-1.5389-1.0337-3.0488c-.0849-.2344-.1723-.4668-.2593-.7q-.5517-1.48-1.1578-2.9312c-.0952-.228-.19-.456-.2875-.6826q-.6288-1.467-1.3134-2.9009c-.0962-.2021-.1894-.4057-.2872-.6069q-.73-1.5-1.5195-2.9624c-.08-.1484-.1551-.2993-.2358-.4473-.6092-1.1142-1.2385-2.2148-1.897-3.2954l-.01-.0171q-.9819-1.6105-2.0343-3.17c-.2853-.4238-.5886-.8345-.8817-1.2524-.3895-.5542-.775-1.1114-1.1776-1.6548-.4685-.6343-.9553-1.2534-1.4414-1.8736-.2317-.2944-.459-.5922-.6944-.8828-.59-.7319-1.1967-1.4492-1.8112-2.16-.1217-.14-.242-.2818-.3647-.4209A81.311,81.311,0,0,0,84.5333,2.5464c-.8706,0-1.7319.0386-2.5962.0659l.001-.0024-.0674.0039A80.9256,80.9256,0,0,0,44.47,13.1157q-.5567.3143-1.1082.6377c-.5049.2969-1.011.5913-1.5088.8985q-1.2235.7529-2.4182,1.5517c-.3374.2251-.6711.4546-1.0051.6846q-1.1565.7947-2.2869,1.6279c-.1418.1045-.2871.2051-.4282.311-.9138.6846-1.8089,1.3951-2.6944,2.1182q-.2856.2337-.5693.4693c-.8984.748-1.7856,1.5112-2.6528,2.2988-.0488.0444-.0957.09-.1443.1347q-1.23,1.1229-2.4136,2.3013c-.1711.1694-.3435.3379-.5132.5088q-1.1751,1.185-2.3059,2.4185c-.2043.2231-.4023.4516-.604.6767q-.8262.9251-1.6262,1.877c-.26.3091-.5229.6157-.7786.9287q-.8974,1.1-1.7585,2.2363c-.3589.4717-.7078.9507-1.0564,1.43q-.3819.5259-.7549,1.06-1.2084,1.719-2.3313,3.5c-.0256.0411-.0525.0811-.0784.1221q-.6482,1.035-1.2636,2.0908c-.0159.0274-.033.0537-.0489.0811l-1.207,2.0683.0178.0015c-.3559.6528-.6848,1.3218-1.0234,1.9854-.1426.2793-.2893.5551-.429.8364-.3718.75-.726,1.5093-1.0751,2.272-.167.3647-.3345.7285-.4961,1.0957q-.4908,1.1154-.9468,2.2485-.2329.5757-.4563,1.1553-.4476,1.1573-.8633,2.33c-.1248.3549-.2427.7124-.3625,1.0693-.28.834-.5545,1.67-.8084,2.5156-.0759.2539-.1443.5113-.218.7661-.6531,2.2569-1.22,4.5489-1.6787,6.8809l-.0015.0078A81.5585,81.5585,0,0,0,3.0333,84.0464c0,.083.0061.1645.0064.2475A81.5757,81.5757,0,0,1,4.5719,68.812Z"/><path class="cls-8" d="M38.202,101.6826c-.2146-.2964-.4131-.5972-.6071-.8989A86.5,86.5,0,0,1,7.8021,68.0283c-.0251.1177-.0549.2339-.08.3521A86.5037,86.5037,0,0,0,38.202,101.6826Z"/><path class="cls-8" d="M20.3971,43.0464A62.277,62.277,0,0,0,77.2863,6.4351c-.084.0078-.1673.018-.251.0268A62.2689,62.2689,0,0,1,20.3971,42.5464c-.6738,0-1.3689-.0166-2.0923-.0449-.1042.164-.2138.3247-.3174.4892C18.83,43.0278,19.6234,43.0464,20.3971,43.0464Z"/><path class="cls-8" d="M22.2648,132.2676l23.1357-23.1358c-.1116-.0542-.22-.1137-.3315-.1684L22.2648,131.7676A78.0825,78.0825,0,0,1,6.0382,84.2822c0,.0884-.0049.1758-.0049.2642A78.0822,78.0822,0,0,0,22.2648,132.2676Z"/><path class="cls-8" d="M73.443,60.562a1.49,1.49,0,0,1,.3481.7359,1.4914,1.4914,0,0,0-.3481-1.2359l-1.0249-1.1626c-.1313.0176-.2668.03-.398.0484Z"/><path class="cls-8" d="M47.4259,63.1553c-7.762,4.519-12.3926,10.4619-12.3926,16.936v.5c0-6.4741,4.6306-12.417,12.3926-16.936a1.4773,1.4773,0,0,1,.3574-.208,64.7682,64.7682,0,0,1,20.9556-7.0327,1.604,1.604,0,0,1,.1987-.0337q2.9619-.4981,6.0957-.8091v-.5q-3.1306.309-6.0957.8091a1.604,1.604,0,0,0-.1987.0337,64.7682,64.7682,0,0,0-20.9556,7.0327A1.4773,1.4773,0,0,0,47.4259,63.1553Z"/><path class="cls-8" d="M44.5333,79.0913a1.4973,1.4973,0,0,1,1.4749,1.25,1.478,1.478,0,0,0-1.4749-1.75h-6.289c-.0318.1665-.0684.3325-.0923.5Z"/><polygon class="cls-8" points="83.033 76.947 83.033 76.447 78.033 71.448 78.033 71.948 83.033 76.947"/><path class="cls-8" d="M54.0524,66.9331a1.4954,1.4954,0,0,1,.63.9839,1.4981,1.4981,0,0,0-.63-1.4839l-2.3863-1.6284c-.142.0693-.2919.1348-.4321.2051Z"/><path class="cls-8" d="M84.5333,103.0913c24.6289,0,44.8358-9.3149,46.3924-21.0449h-.0916c-2.0574,11.4927-22.0242,20.5449-46.3008,20.5449-24.2448,0-44.19-9.0283-46.2915-20.5h-.0937C39.75,93.8,59.9359,103.0913,84.5333,103.0913Z"/></g><g id="_45_highlight" data-name="45 highlight"><path class="cls-9" d="M18.295,42.5168c.3822-.602.7648-1.2038,1.1641-1.7937.0615-.0913.1253-.1811.1873-.2719A79.1238,79.1238,0,0,1,41.5909,18.9668l-2.22-2.22c-.3157.2112-.6287.4258-.9415.6411q-1.1565.7947-2.2869,1.6279c-.1418.1045-.2871.2051-.4282.311-.9138.6846-1.8089,1.3951-2.6944,2.1182q-.2856.2337-.5693.4693c-.8984.748-1.7856,1.5112-2.6528,2.2988-.0489.0444-.0957.09-.1443.1347q-1.23,1.1229-2.4136,2.3013c-.1711.1694-.3435.3379-.5132.5088q-1.1751,1.185-2.3059,2.4185c-.2043.2231-.4023.4516-.604.6767q-.8262.9251-1.6262,1.877c-.26.3091-.523.6157-.7786.9287q-.8976,1.1-1.7585,2.2363c-.3589.4717-.7078.9507-1.0564,1.43q-.3819.5259-.7549,1.06c-.5912.8409-1.15,1.7046-1.71,2.5677Z"/><path class="cls-10" d="M79.4728,77.6519l3.9912,3.9912.0019.0019.0069.0069c.0071.0068.0166.01.0239.017a1.5107,1.5107,0,0,0,.2778.2164c.0188.0112.04.0146.0594.0249.0427.0224.0871.0371.1316.0551a1.467,1.467,0,0,0,.2934.09,1.4412,1.4412,0,0,0,.145.019c.0435.0039.086.0171.1294.0171a1.437,1.437,0,0,0,.1875-.0239c.041-.0049.0811-.0069.1216-.0152l.0186-.0058H104.67l-3-3H90.3719l7.2475-4.051-2.2048-2.2049-9.3708,5.2378L86.04,63.4155l-3.0064-3.0063V76.9473l-5-4.9995V55.4092l-3-3v3.1626q-3.1306.309-6.0957.8091a1.604,1.604,0,0,0-.1987.0337,64.7682,64.7682,0,0,0-20.9556,7.0327,1.4773,1.4773,0,0,0-.3574.208,36.7911,36.7911,0,0,0-4.7345,3.2578L44.82,69.0415a33.2738,33.2738,0,0,1,3.4718-2.4072l4.0694,2.7773a1.5,1.5,0,0,0,1.6914-2.4785L51.234,65.01a64.6153,64.6153,0,0,1,17.2783-5.5044l2.6807,3.041a1.5,1.5,0,0,0,2.25-1.9844L72.02,58.9478c.9927-.1363,1.9944-.2623,3.0132-.3663V72.5688a1.5006,1.5006,0,0,0,.44,1.0606L79.33,77.4868A1.5819,1.5819,0,0,0,79.4728,77.6519Z"/><path class="cls-11" d="M118.5353,95.9111c-8.4918,4.4124-20.5866,7.18-34.002,7.18-1.9815,0-3.93-.0664-5.8473-.1836l3.1436,3.1436c.8953.0237,1.7949.04,2.7037.04,14.4435,0,27.2519-3.0361,36.2216-7.96Z"/><path class="cls-12" d="M18.7964,43.0181l2.9963,2.9965a65.3057,65.3057,0,0,0,35.5158-11.33l-2.1532-2.1531A62.39,62.39,0,0,1,20.3971,43.0464C19.8777,43.0464,19.3425,43.0349,18.7964,43.0181Z"/><path class="cls-13" d="M152.3342,129.71l-2.1748-2.175q-1.5963,2.4276-3.3575,4.7324l-23.1284-23.1284c1.797-.8711,3.5582-1.8106,5.29-2.7994l-3.3155-3.3154a39.0324,39.0324,0,0,1-12.42,7.207,86.47,86.47,0,0,1-19.5,4.3711c-1.0216.1-2.0592.177-3.1035.2437l2.7986,2.7986c.0475-.0047.0954-.0076.1428-.0125a78.1463,78.1463,0,0,0,21.0967-4.7226q3.1047-1.1039,6.1122-2.4268l24.1515,24.1514A79.1459,79.1459,0,0,1,126.5784,150.8l2.1616,2.1614A82.134,82.134,0,0,0,152.3342,129.71Z"/></g><path id="border" class="cls-14" d="M84,168a84,84,0,1,1,84-84A84.0953,84.0953,0,0,1,84,168ZM84,8a76,76,0,1,0,76,76A76.0862,76.0862,0,0,0,84,8Z"/><g id="border_highlight" data-name="border highlight"><path class="cls-15" d="M84,8A76,76,0,1,1,8,84,76.0862,76.0862,0,0,1,84,8m0-1a77,77,0,1,0,77,77A77.0872,77.0872,0,0,0,84,7Z"/></g><path id="outer_pink" data-name="outer pink" class="cls-16" d="M132,152.875V142.8713a75.82,75.82,0,0,1-96,0V152.875a83.7278,83.7278,0,0,0,96,0Z"/><path id="right_glare" data-name="right glare" class="cls-17" d="M153.6021,130.978l-5.7847-5.7846A76.5785,76.5785,0,0,1,124.22,148.4419l5.7867,5.7866A84.6725,84.6725,0,0,0,153.6021,130.978Z"/><path id="left_glare" data-name="left glare" class="cls-18" d="M13.7714,37.9932,19.5582,43.78A76.5774,76.5774,0,0,1,42.8067,20.1826l-5.7848-5.7847A84.6715,84.6715,0,0,0,13.7714,37.9932Z"/><path id="top_halo" data-name="top halo" class="cls-19" d="M84,8a76.0862,76.0862,0,0,1,76,76h8A84,84,0,0,0,0,84H8A76.0862,76.0862,0,0,1,84,8Z"/></g></g></svg>