<svg xmlns="http://www.w3.org/2000/svg" xmlns:xlink="http://www.w3.org/1999/xlink" viewBox="0 0 168.18 168"><defs><style>.cls-1{fill:none;}.cls-2{fill:url(#linear-gradient);}.cls-3{opacity:0.5;}.cls-15,.cls-17,.cls-3,.cls-5{isolation:isolate;}.cls-4{fill:url(#linear-gradient-2);}.cls-13,.cls-5{opacity:0.3;}.cls-6{fill:url(#linear-gradient-3);}.cls-7{fill:#fff;}.cls-8{clip-path:url(#clip-path);}.cls-9{fill:url(#linear-gradient-4);}.cls-10{fill:url(#linear-gradient-5);}.cls-11{fill:url(#linear-gradient-6);}.cls-12{fill:url(#linear-gradient-7);}.cls-14{fill:url(#radial-gradient);}.cls-15{opacity:0.7;fill:url(#linear-gradient-8);}.cls-16{fill:url(#linear-gradient-9);}.cls-17{opacity:0.4;fill:url(#linear-gradient-10);}</style><linearGradient id="linear-gradient" x1="-479.82" y1="2033.45" x2="-479.82" y2="2201.45" gradientTransform="matrix(1, 0, 0, -1, 564, 2201.45)" gradientUnits="userSpaceOnUse"><stop offset="0" stop-color="#333d45"/><stop offset="1"/></linearGradient><linearGradient id="linear-gradient-2" x1="-483.65" y1="2076.29" x2="-483.65" y2="2172.29" gradientTransform="matrix(1, 0, 0, -1, 564, 2201.45)" gradientUnits="userSpaceOnUse"><stop offset="0" stop-color="#0bb7c8"/><stop offset="1" stop-color="#94fc82"/></linearGradient><linearGradient id="linear-gradient-3" x1="-481.08" y1="2035.45" x2="-481.08" y2="2198.45" gradientTransform="matrix(1, 0, 0, -1, 564, 2201.45)" gradientUnits="userSpaceOnUse"><stop offset="0" stop-color="#688199"/><stop offset="1" stop-color="#f7f9fa"/></linearGradient><clipPath id="clip-path"><path class="cls-1" d="M148.35,134a82.65,82.65,0,1,0-.5.64h.5Zm-2-2.36H125.85V105.58a31.21,31.21,0,0,0-.21-3.61,21.52,21.52,0,0,0,16.21-20.81V31.84a78.34,78.34,0,0,1,4.54,99.82Zm-38-8h-6.5v-21h18.5a20.1,20.1,0,0,0,2.33-.14,28.53,28.53,0,0,1,.17,3.06v26.08h-13v-6.5a1.5,1.5,0,0,0-1.5-1.5Zm-57.5,1.5v6.5h-2.5a18.52,18.52,0,0,1-18.5-18.5V46.66a28.5,28.5,0,0,1,21,27.5h0A29.55,29.55,0,0,0,67.4,99.66H60.35a1.5,1.5,0,0,0-1.5,1.5v22.5h-6.5a1.5,1.5,0,0,0-1.5,1.5Zm29.91-42a1.5,1.5,0,0,0-1.5,1.5v6.86a10.09,10.09,0,0,1-5.64-17.12l7.14-7.14,7.14,7.14a10.09,10.09,0,0,1-5.64,17.12V84.68a1.5,1.5,0,0,0-1.5-1.5Zm18.09,19.48v21h-37v-21Zm1.5-3h-7A29.6,29.6,0,0,0,109,80l5.46,5.46a28.39,28.39,0,0,1,7.71,14.13,16.56,16.56,0,0,1-1.86.1Zm16.27-16.35-7-7a28.47,28.47,0,0,0,.18-3.2c0-11.86-8.14-25.22-16-34.38V6.68a78.28,78.28,0,0,1,45,22V81.16A18.53,18.53,0,0,1,125.16,99,31.28,31.28,0,0,0,116.62,83.31Zm-9.77-10.15c0,.12,0,.24,0,.37l-4.64-4.65a28.28,28.28,0,0,1-8.35-20.15V43.52C100.43,51.86,106.85,63,106.85,73.16ZM100.07,71l6.43,6.43A26.55,26.55,0,0,1,82.26,99.58v-5A13.08,13.08,0,0,0,90,72.3l-8.2-8.2a1.53,1.53,0,0,0-2.12,0l-8.2,8.2a13.08,13.08,0,0,0,7.76,22.26v5.07A26.53,26.53,0,0,1,53.85,73.16c0-19.17,23-42,26.46-42.5,1.4.19,5.75,3.8,10.54,9.26v8.81A31.31,31.31,0,0,0,100.07,71ZM53.85,126.66h53v5h-53ZM83.68,6c2.42,0,4.81.13,7.17.34V35.46c-4.59-4.79-8.7-7.8-10.5-7.8-4.46,0-22.92,18.36-28.12,36.5a31.53,31.53,0,0,0-29.88-21.5h-5A78.52,78.52,0,0,1,83.68,6ZM5.18,84.5A77.94,77.94,0,0,1,15.51,45.66h6.84a29.46,29.46,0,0,1,4.5.35v67.15a21.52,21.52,0,0,0,21.5,21.5h74.5v17.83A78.44,78.44,0,0,1,5.18,84.5Zm120.67,66.16v-16H144A79,79,0,0,1,125.85,150.66Z"/></clipPath><linearGradient id="linear-gradient-4" x1="-491.93" y1="2105.34" x2="-468.51" y2="2128.76" gradientTransform="matrix(1, 0, 0, -1, 564, 2201.45)" gradientUnits="userSpaceOnUse"><stop offset="0.25" stop-color="#f7f9fa" stop-opacity="0"/><stop offset="0.5" stop-color="#fff"/><stop offset="0.75" stop-color="#bee6fa" stop-opacity="0"/></linearGradient><linearGradient id="linear-gradient-5" x1="-479.82" y1="2033.45" x2="-479.82" y2="2201.45" xlink:href="#linear-gradient-3"/><linearGradient id="linear-gradient-6" x1="-479.82" y1="2040.45" x2="-479.82" y2="2194.45" gradientTransform="matrix(1, 0, 0, -1, 564, 2201.45)" gradientUnits="userSpaceOnUse"><stop offset="0" stop-color="#f7f9fa"/><stop offset="1" stop-color="#f7f9fa" stop-opacity="0"/></linearGradient><linearGradient id="linear-gradient-7" x1="-527.82" y1="2046.02" x2="-431.82" y2="2046.02" gradientTransform="matrix(1, 0, 0, -1, 564, 2201.45)" gradientUnits="userSpaceOnUse"><stop offset="0" stop-color="#e8749f" stop-opacity="0"/><stop offset="0.5" stop-color="#f7f9fa"/><stop offset="1" stop-color="#e8749f" stop-opacity="0"/></linearGradient><radialGradient id="radial-gradient" cx="-7463.12" cy="210.86" fy="228.91734669314138" r="20.27" gradientTransform="matrix(-2, 0, 0, 0.94, -14841.53, -55.88)" gradientUnits="userSpaceOnUse"><stop offset="0" stop-color="#fff"/><stop offset="0.68" stop-color="#e78bad" stop-opacity="0"/></radialGradient><linearGradient id="linear-gradient-8" x1="-436.08" y1="2049.49" x2="-412.66" y2="2072.92" xlink:href="#linear-gradient-4"/><linearGradient id="linear-gradient-9" x1="-547.78" y1="2161.19" x2="-524.35" y2="2184.61" xlink:href="#linear-gradient-4"/><linearGradient id="linear-gradient-10" x1="-479.82" y1="2117.45" x2="-479.82" y2="2201.45" gradientTransform="matrix(1, 0, 0, -1, 564, 2201.45)" gradientUnits="userSpaceOnUse"><stop offset="0" stop-color="#e8749f" stop-opacity="0"/><stop offset="1" stop-color="#f7f9fa"/></linearGradient></defs><g id="Layer_2" data-name="Layer 2"><g id="Layer_1-2" data-name="Layer 1"><g id="Layer_2-2" data-name="Layer 2"><g id="Layer_1-2-2" data-name="Layer 1-2"><path id="base_bkgd" data-name="base bkgd" class="cls-2" d="M84.18,168a84,84,0,1,1,84-84A84,84,0,0,1,84.18,168Z"/><g id="border_shadow" data-name="border shadow"><path d="M84.18,9a75,75,0,1,1-75,75,75,75,0,0,1,75-75m0-1a76,76,0,1,0,76,76A76,76,0,0,0,84.18,8Z"/></g><path class="cls-3" d="M148.35,135a82.65,82.65,0,1,0-.5.64h.5Zm-2-2.36H125.85V106.58a31.21,31.21,0,0,0-.21-3.61,21.52,21.52,0,0,0,16.21-20.81V32.84a78.34,78.34,0,0,1,4.54,99.82Zm-38-8h-6.5v-21h18.5a20.1,20.1,0,0,0,2.33-.14,28.53,28.53,0,0,1,.17,3.06v26.08h-13v-6.5a1.5,1.5,0,0,0-1.5-1.5Zm-57.5,1.5v6.5h-2.5a18.52,18.52,0,0,1-18.5-18.5V47.66a28.5,28.5,0,0,1,21,27.5h0a29.55,29.55,0,0,0,16.53,25.5H60.35a1.5,1.5,0,0,0-1.5,1.5v22.5h-6.5a1.5,1.5,0,0,0-1.5,1.5Zm29.91-42a1.5,1.5,0,0,0-1.5,1.5v6.86a10.09,10.09,0,0,1-5.64-17.12l7.14-7.14,7.14,7.14a10.09,10.09,0,0,1-5.64,17.12V85.68a1.5,1.5,0,0,0-1.5-1.5Zm18.09,19.48v21h-37v-21Zm1.5-3h-7A29.6,29.6,0,0,0,109,81l5.46,5.46a28.39,28.39,0,0,1,7.71,14.13,16.56,16.56,0,0,1-1.86.1Zm16.27-16.35-7-7a28.47,28.47,0,0,0,.18-3.2c0-11.86-8.14-25.22-16-34.38V7.68a78.28,78.28,0,0,1,45,22V82.16A18.53,18.53,0,0,1,125.16,100,31.28,31.28,0,0,0,116.62,84.31Zm-9.77-10.15c0,.12,0,.24,0,.37l-4.64-4.65a28.28,28.28,0,0,1-8.35-20.15V44.52C100.43,52.86,106.85,64,106.85,74.16ZM100.07,72l6.43,6.43a26.55,26.55,0,0,1-24.24,22.15v-5A13.08,13.08,0,0,0,90,73.3l-8.2-8.2a1.53,1.53,0,0,0-2.12,0l-8.2,8.2a13.08,13.08,0,0,0,7.76,22.26v5.07A26.53,26.53,0,0,1,53.85,74.16c0-19.17,23-42,26.46-42.5,1.4.19,5.75,3.8,10.54,9.26v8.81A31.31,31.31,0,0,0,100.07,72ZM53.85,127.66h53v5h-53ZM83.68,7c2.42,0,4.81.13,7.17.34V36.46c-4.59-4.79-8.7-7.8-10.5-7.8-4.46,0-22.92,18.36-28.12,36.5a31.53,31.53,0,0,0-29.88-21.5h-5A78.52,78.52,0,0,1,83.68,7ZM5.18,85.5A77.94,77.94,0,0,1,15.51,46.66h6.84a29.46,29.46,0,0,1,4.5.35v67.15a21.52,21.52,0,0,0,21.5,21.5h74.5v17.83A78.44,78.44,0,0,1,5.18,85.5Zm120.67,66.16v-16H144A79,79,0,0,1,125.85,151.66Z"/><path class="cls-4" d="M108.35,73.16c0-20-24-44-28-44s-28,24-28,44a28,28,0,0,0,27.13,28l0,0H60.35v24h40v-24H81A28,28,0,0,0,108.35,73.16ZM72.56,89.76a11.59,11.59,0,0,1,0-16.4h0l8.2-8.2,8.2,8.2a11.6,11.6,0,0,1-16.4,16.4Z"/><path class="cls-5" d="M80.35,29.16c-4,0-28,24-28,44a28,28,0,0,0,27.13,28l0,0H60.35v24h40v-24H81a28,28,0,0,0,27.38-28C108.35,53.16,84.35,29.16,80.35,29.16Zm17.5,74.5v19h-35v-19ZM72.56,89.76a11.59,11.59,0,0,1,0-16.4h0l8.2-8.2,8.2,8.2a11.6,11.6,0,0,1-16.4,16.4ZM94.85,46.48c4.41,6,10.11,15.36,10.9,24.55l-2.85-2.85a27.35,27.35,0,0,1-8.05-19.45Zm4.52,25.23,6.06,6.06A25.38,25.38,0,0,1,83.26,98.48v-3a14.1,14.1,0,0,0,7.47-23.84l-8.2-8.2a2.55,2.55,0,0,0-3.54,0l-8.2,8.2a14.1,14.1,0,0,0,7.47,23.84v3.14A25.42,25.42,0,0,1,54.85,73.16c0-19,22.23-40.42,25.46-41.48,1,.35,4.65,3.09,9.54,8.62v8.43A32.23,32.23,0,0,0,99.37,71.71Z"/><path class="cls-6" d="M148.35,134a82.65,82.65,0,1,0-.5.64h.5Zm-2-2.36H125.85V105.58a31.21,31.21,0,0,0-.21-3.61,21.52,21.52,0,0,0,16.21-20.81V31.84a78.34,78.34,0,0,1,4.54,99.82Zm-38-8h-6.5v-21h18.5a20.1,20.1,0,0,0,2.33-.14,28.53,28.53,0,0,1,.17,3.06v26.08h-13v-6.5a1.5,1.5,0,0,0-1.5-1.5Zm-57.5,1.5v6.5h-2.5a18.52,18.52,0,0,1-18.5-18.5V46.66a28.5,28.5,0,0,1,21,27.5h0A29.55,29.55,0,0,0,67.4,99.66H60.35a1.5,1.5,0,0,0-1.5,1.5v22.5h-6.5a1.5,1.5,0,0,0-1.5,1.5Zm29.91-42a1.5,1.5,0,0,0-1.5,1.5v6.86a10.09,10.09,0,0,1-5.64-17.12l7.14-7.14,7.14,7.14a10.09,10.09,0,0,1-5.64,17.12V84.68a1.5,1.5,0,0,0-1.5-1.5Zm18.09,19.48v21h-37v-21Zm1.5-3h-7A29.6,29.6,0,0,0,109,80l5.46,5.46a28.39,28.39,0,0,1,7.71,14.13,16.56,16.56,0,0,1-1.86.1Zm16.27-16.35-7-7a28.47,28.47,0,0,0,.18-3.2c0-11.86-8.14-25.22-16-34.38V6.68a78.28,78.28,0,0,1,45,22V81.16A18.53,18.53,0,0,1,125.16,99,31.28,31.28,0,0,0,116.62,83.31Zm-9.77-10.15c0,.12,0,.24,0,.37l-4.64-4.65a28.28,28.28,0,0,1-8.35-20.15V43.52C100.43,51.86,106.85,63,106.85,73.16ZM100.07,71l6.43,6.43A26.55,26.55,0,0,1,82.26,99.58v-5A13.08,13.08,0,0,0,90,72.3l-8.2-8.2a1.53,1.53,0,0,0-2.12,0l-8.2,8.2a13.08,13.08,0,0,0,7.76,22.26v5.07A26.53,26.53,0,0,1,53.85,73.16c0-19.17,23-42,26.46-42.5,1.4.19,5.75,3.8,10.54,9.26v8.81A31.31,31.31,0,0,0,100.07,71ZM53.85,126.66h53v5h-53ZM83.68,6c2.42,0,4.81.13,7.17.34V35.46c-4.59-4.79-8.7-7.8-10.5-7.8-4.46,0-22.92,18.36-28.12,36.5a31.53,31.53,0,0,0-29.88-21.5h-5A78.52,78.52,0,0,1,83.68,6ZM5.18,84.5A77.94,77.94,0,0,1,15.51,45.66h6.84a29.46,29.46,0,0,1,4.5.35v67.15a21.52,21.52,0,0,0,21.5,21.5h74.5v17.83A78.44,78.44,0,0,1,5.18,84.5Zm120.67,66.16v-16H144A79,79,0,0,1,125.85,150.66Z"/><path class="cls-7" d="M90,71.8l-8.2-8.2a1.53,1.53,0,0,0-2.12,0l-8.2,8.2a13,13,0,0,0-3.82,9.51,13.07,13.07,0,0,1,3.82-9l8.2-8.2a1.53,1.53,0,0,1,2.12,0L90,72.3a13,13,0,0,1,3.82,9A13,13,0,0,0,90,71.8Z"/><path class="cls-7" d="M100.35,99.66h20a16.56,16.56,0,0,0,1.86-.1l-.13-.49c-.57.05-1.15.09-1.73.09H94.25l-1,.5Z"/><rect class="cls-7" x="61.85" y="123.16" width="37" height="0.5"/><rect class="cls-7" x="53.85" y="131.16" width="53" height="0.5"/><path class="cls-7" d="M58.85,100.66v.5a1.5,1.5,0,0,1,1.5-1.5H67.4c-.32-.16-.62-.34-.94-.5H60.35A1.5,1.5,0,0,0,58.85,100.66Z"/><path class="cls-7" d="M125.85,105.58v-.5c0-1-.07-2.09-.17-3.12h0A31.21,31.21,0,0,1,125.85,105.58Z"/><path class="cls-7" d="M125.85,150.16v.5a79,79,0,0,0,18.16-16h-.43A79,79,0,0,1,125.85,150.16Z"/><path class="cls-7" d="M52.35,123.66h6.5v-.5h-6.5a1.5,1.5,0,0,0-1.5,1.5v.5a1.5,1.5,0,0,1,1.5-1.5Z"/><path class="cls-7" d="M80.76,83.18a1.5,1.5,0,0,1,1.5,1.5v-.5a1.5,1.5,0,0,0-3,0v.5A1.5,1.5,0,0,1,80.76,83.18Z"/><path class="cls-7" d="M79.26,91a10.06,10.06,0,0,1-8.58-9.73,10.06,10.06,0,0,0,8.58,10.23Z"/><path class="cls-7" d="M82.26,91.54a10.05,10.05,0,0,0,8.58-10.23A10.05,10.05,0,0,1,82.26,91Z"/><path class="cls-7" d="M83.68,3a81.59,81.59,0,0,1,81.5,81.27V84a81.5,81.5,0,0,0-163,0c0,.08,0,.17,0,.25A81.58,81.58,0,0,1,83.68,3Z"/><path class="cls-7" d="M109.85,124.66a1.5,1.5,0,0,0-1.5-1.5h-6.5v.5h6.5a1.5,1.5,0,0,1,1.5,1.5h0Z"/><path class="cls-7" d="M102.2,68.88l4.64,4.65c0-.13,0-.25,0-.37s0-.14,0-.2V73l-4.64-4.65a28.28,28.28,0,0,1-8.35-20.15v.5A28.28,28.28,0,0,0,102.2,68.88Z"/><path class="cls-7" d="M83.68,163a78.06,78.06,0,0,0,39.17-10.51V152A78.43,78.43,0,0,1,5.19,84.2c0,.1,0,.2,0,.3A78.6,78.6,0,0,0,83.68,163Z"/><path class="cls-7" d="M162.18,84.27a78.08,78.08,0,0,1-15.79,46.89H125.85v.5h20.54A78.09,78.09,0,0,0,162.18,84.5Z"/><path class="cls-7" d="M109.84,73c0-.1,0-.2,0-.3,0-11.86-8.14-25.22-16-34.38v.5C101.67,47.89,109.75,61.15,109.84,73Z"/><path class="cls-7" d="M22.35,42.66a31.52,31.52,0,0,1,29.88,21.5c5.2-18.14,23.66-36.5,28.12-36.5,1.8,0,5.91,3,10.5,7.8V35c-4.59-4.79-8.7-7.8-10.5-7.8-4.46,0-22.92,18.36-28.12,36.5a31.52,31.52,0,0,0-29.88-21.5H17.64l-.33.5Z"/><path class="cls-7" d="M79.26,99.63v-.5A26.52,26.52,0,0,1,53.86,73c0,.06,0,.13,0,.2A26.53,26.53,0,0,0,79.26,99.63Z"/><path class="cls-7" d="M82.26,99.08v.5A26.55,26.55,0,0,0,106.5,77.43l-.09-.09A26.52,26.52,0,0,1,82.26,99.08Z"/><path class="cls-7" d="M138.85,81.16v-.5A18.53,18.53,0,0,1,125.16,98.5a31.28,31.28,0,0,0-8.54-15.69l-6.91-6.91c0,.15,0,.31,0,.46l7,7A31.28,31.28,0,0,1,125.16,99,18.53,18.53,0,0,0,138.85,81.16Z"/><path class="cls-7" d="M48.35,131.66h2.5v-.5h-2.5a18.52,18.52,0,0,1-18.5-18.5v.5A18.52,18.52,0,0,0,48.35,131.66Z"/><rect class="cls-7" x="109.85" y="131.16" width="13" height="0.5"/><g class="cls-8"><path id="FOR_LINE_WORK_CIRCLE" data-name="FOR LINE WORK CIRCLE" class="cls-9" d="M34.81,12A87.5,87.5,0,0,0,12.18,36.22L132,156a87.61,87.61,0,0,0,24.22-22.62Z"/></g><path id="border" class="cls-10" d="M84.18,168a84,84,0,1,1,84-84A84,84,0,0,1,84.18,168Zm0-160a76,76,0,1,0,76,76A76,76,0,0,0,84.18,8Z"/><g id="border_highlight" data-name="border highlight"><path class="cls-11" d="M84.18,8a76,76,0,1,1-76,76,76,76,0,0,1,76-76m0-1a77,77,0,1,0,77,77A77,77,0,0,0,84.18,7Z"/></g><path id="outer_pink" data-name="outer pink" class="cls-12" d="M132.18,152.88v-10a75.82,75.82,0,0,1-96,0v10A83.75,83.75,0,0,0,132.18,152.88Z"/><g id="elipse" class="cls-13"><ellipse class="cls-14" cx="84.72" cy="141.81" rx="40.53" ry="19"/></g><path id="right_glare" data-name="right glare" class="cls-15" d="M153.78,131,148,125.19a76.54,76.54,0,0,1-23.6,23.25l5.79,5.79A84.5,84.5,0,0,0,153.78,131Z"/><path id="left_glare" data-name="left glare" class="cls-16" d="M14,38l5.79,5.79A76.54,76.54,0,0,1,43,20.18L37.2,14.4A84.77,84.77,0,0,0,14,38Z"/><path id="top_halo" data-name="top halo" class="cls-17" d="M84.18,8a76.09,76.09,0,0,1,76,76h8a84,84,0,0,0-168,0h8A76.09,76.09,0,0,1,84.18,8Z"/></g></g></g></g></svg>