<svg xmlns="http://www.w3.org/2000/svg" xmlns:xlink="http://www.w3.org/1999/xlink" viewBox="0 0 174.27 170.92"><defs><style>.cls-1{fill:none;}.cls-2{fill:url(#linear-gradient);}.cls-3{fill:url(#New_Gradient_Swatch_13);}.cls-4{opacity:0.3;}.cls-5{fill:#fff;}.cls-6{opacity:0.5;}.cls-7{fill:url(#New_Gradient_Swatch_12);}.cls-8{fill:url(#New_Gradient_Swatch_12-2);}.cls-9{clip-path:url(#clip-path);}.cls-10,.cls-21,.cls-22{opacity:0.6;}.cls-10{fill:url(#New_Gradient_Swatch_6);}.cls-11{opacity:0.3;}.cls-12{clip-path:url(#clip-path-2);}.cls-13{fill:url(#radial-gradient);}.cls-14{fill:url(#linear-gradient-2);}.cls-15{fill:url(#linear-gradient-3);}.cls-16{opacity:0.8;}.cls-17{clip-path:url(#clip-path-3);}.cls-18{fill:url(#New_Gradient_Swatch_8);}.cls-19{opacity:0.4;}.cls-20{clip-path:url(#clip-path-4);}.cls-21{fill:url(#New_Gradient_Swatch_11);}.cls-22{fill:url(#linear-gradient-4);}.cls-23{fill:url(#linear-gradient-5);}</style><linearGradient id="linear-gradient" x1="83.54" y1="163.85" x2="83.54" y2="4" gradientTransform="translate(83.81 -34.49) rotate(45)" gradientUnits="userSpaceOnUse"><stop offset="0" stop-color="#333d45"/><stop offset="1"/></linearGradient><linearGradient id="New_Gradient_Swatch_13" x1="88.22" y1="120.82" x2="88.22" y2="45.69" gradientUnits="userSpaceOnUse"><stop offset="0" stop-color="#fd602c"/><stop offset="1" stop-color="#e60a87"/></linearGradient><linearGradient id="New_Gradient_Swatch_12" x1="77.17" y1="120.82" x2="77.17" y2="92.41" gradientUnits="userSpaceOnUse"><stop offset="0" stop-color="#688097"/><stop offset="1" stop-color="#f5f7f8"/></linearGradient><linearGradient id="New_Gradient_Swatch_12-2" x1="83.52" y1="165.71" x2="83.52" y2="2.71" xlink:href="#New_Gradient_Swatch_12"/><clipPath id="clip-path" transform="translate(4.19)"><path class="cls-1" d="M159.61,71.09,96.73,8.21a18.64,18.64,0,0,0-26.34,0L7.51,71.09a18.63,18.63,0,0,0,0,26.33l62.88,62.89a18.64,18.64,0,0,0,26.34,0l62.88-62.89a18.63,18.63,0,0,0,0-26.33ZM85.06,5.84a15.44,15.44,0,0,1,9.54,4.49l39.94,39.94-12.1,12.1H104.22L85.06,43Zm11.86,115H90.06v-29l18.15-18.49-8.07-8.07,21.42,0V86.75l-8.5-8.48L96.92,94.78ZM90.06,87.63V65.35H95.9L104,73.44ZM72.52,10.33a15.44,15.44,0,0,1,9.54-4.49V43L62.94,62.32l0,0H46L33.23,49.62ZM9.63,95.3a15.63,15.63,0,0,1,0-22.09L31.11,51.74,43.83,64.46V89.51A1.86,1.86,0,0,0,47,90.83l7.71-7.72L67.36,96.55v24.32H35.2Zm67.58,66.11a15.61,15.61,0,0,1-4.69-3.23L38.2,123.87h39Zm0-40.54H70.36V95.36L54.78,78.8l-8,8V65.35H68.24L59.63,74,77.2,92.46h0ZM72.45,65.35h4.74V88.1L63.82,74S72.42,65.4,72.45,65.35Zm7.74-3H67.12L83.56,45.74,100,62.35H87.06v58.52H80.21ZM94.6,158.18a15.63,15.63,0,0,1-14.39,4.22V123.87H96.92v32Zm5.32-5.32V96l13.16-13.47L121.54,91l.17.17,20,20ZM157.49,95.3,143.79,109,124.55,89.75V64.5l12.11-12.11,20.82,20.82a15.63,15.63,0,0,1,0,22.09Z"/></clipPath><linearGradient id="New_Gradient_Swatch_6" x1="4829.98" y1="2278.76" x2="4861.98" y2="2278.76" gradientTransform="translate(-4761.22 -2195.52)" gradientUnits="userSpaceOnUse"><stop offset="0.25" stop-color="#f6f8f9" stop-opacity="0"/><stop offset="0.5" stop-color="#fff"/><stop offset="0.75" stop-color="#b2e6fb" stop-opacity="0"/></linearGradient><clipPath id="clip-path-2" transform="translate(4.19)"><path class="cls-1" d="M33.11,120.05l39.12,39.12a16,16,0,0,0,22.63,0L134,120.05Z"/></clipPath><radialGradient id="radial-gradient" cx="-579.51" cy="1603.27" fy="1621.3207336632552" r="20.27" gradientTransform="translate(1247.36 -1360.06) scale(2 0.94)" gradientUnits="userSpaceOnUse"><stop offset="0" stop-color="#fff"/><stop offset="0.68" stop-color="#e589ab" stop-opacity="0"/></radialGradient><linearGradient id="linear-gradient-2" x1="84" y1="168" x2="84" y2="0" xlink:href="#New_Gradient_Swatch_12"/><linearGradient id="linear-gradient-3" x1="83.89" y1="160.76" x2="83.89" y2="7.04" gradientUnits="userSpaceOnUse"><stop offset="0" stop-color="#f5f7f8"/><stop offset="1" stop-color="#f5f7f8" stop-opacity="0"/></linearGradient><clipPath id="clip-path-3" transform="translate(4.19)"><path class="cls-1" d="M140.69,108,92.54,156.17a12.22,12.22,0,0,1-17.3,0L27.09,108H16L70.3,162.33a19.37,19.37,0,0,0,27.39,0L152,108Z"/></clipPath><linearGradient id="New_Gradient_Swatch_8" x1="39.73" y1="142.38" x2="135.73" y2="142.38" gradientUnits="userSpaceOnUse"><stop offset="0" stop-color="#e6749d" stop-opacity="0"/><stop offset="0.5" stop-color="#f5f7f8"/><stop offset="1" stop-color="#e6749d" stop-opacity="0"/></linearGradient><clipPath id="clip-path-4" transform="translate(4.19)"><path class="cls-1" d="M8.36,86.67a12.23,12.23,0,0,1,3.25-11.42L75.24,11.62a12.24,12.24,0,0,1,17.3,0l63.63,63.63a12.15,12.15,0,0,1,3.58,8.65,12.79,12.79,0,0,1-.32,2.77h8.37A19.75,19.75,0,0,0,168,84a19.29,19.29,0,0,0-5.67-13.7L97.69,5.67a19.37,19.37,0,0,0-27.39,0L5.66,70.3A19.37,19.37,0,0,0,.2,86.67Z"/></clipPath><linearGradient id="New_Gradient_Swatch_11" x1="87.14" y1="84" x2="87.14" gradientUnits="userSpaceOnUse"><stop offset="0" stop-color="#e6749d" stop-opacity="0"/><stop offset="1" stop-color="#f5f7f8"/></linearGradient><linearGradient id="linear-gradient-4" x1="121.34" y1="137.21" x2="144.85" y2="113.71" gradientUnits="userSpaceOnUse"><stop offset="0.25" stop-color="#f5f7f8" stop-opacity="0"/><stop offset="0.5" stop-color="#fff"/><stop offset="0.75" stop-color="#bce4f8" stop-opacity="0"/></linearGradient><linearGradient id="linear-gradient-5" x1="35.12" y1="50.49" x2="58.62" y2="26.98" xlink:href="#linear-gradient-4"/></defs><g id="Layer_2" data-name="Layer 2"><g id="Layer_1-2" data-name="Layer 1"><rect class="cls-2" x="22.34" y="22.72" width="122.41" height="122.41" rx="16" transform="translate(-30.69 83.66) rotate(-45)"/><polygon class="cls-3" points="125.58 65.32 125.57 86.7 117.07 78.22 100.94 94.73 100.94 120.82 74.38 120.82 74.38 95.31 58.8 78.75 50.85 86.71 50.85 65.3 72.26 65.3 63.65 73.9 81.22 92.41 81.23 92.42 81.23 93.39 84.22 93.04 84.21 62.3 71.14 62.3 87.58 45.69 104.02 62.3 91.08 62.3 91.08 92.22 94.08 91.86 112.23 73.37 104.16 65.3 125.58 65.32"/><g class="cls-4"><polygon class="cls-1" points="62.39 73.89 69.98 66.3 51.98 66.3 51.98 84.3 58.95 77.32 75.51 94.92 75.51 119.82 80.36 119.82 80.35 92.81 62.39 73.89"/><polygon class="cls-1" points="87.71 47.12 73.67 61.3 85.34 61.3 85.36 119.82 90.21 119.82 90.21 61.3 101.76 61.3 87.71 47.12"/><polygon class="cls-1" points="124.7 84.3 124.71 66.32 106.71 66.31 113.77 73.37 95.21 92.27 95.21 119.82 100.07 119.82 100.07 94.33 117.19 76.8 124.7 84.3"/><path d="M121.38,86.7V65.32L100,65.3,108,73.37,89.89,91.86l-3,.36V62.3H99.83L83.39,45.69,67,62.3H80V93l-3,.35v-1h0L59.46,73.9l8.61-8.6H46.66V86.71l8-8L70.19,95.31v25.51H96.75V94.73l16.13-16.51ZM71.32,119.82V94.92L54.77,77.32l-7,7v-18h18L58.2,73.89l18,18.92v27Zm14.7,0H81.17l0-58.52H69.48l14-14.18,14,14.18H86Zm9.86-25.49v25.49H91V92.27l18.56-18.9-7.06-7.06h18v18L113,76.8Z" transform="translate(4.19)"/></g><path class="cls-5" d="M77.16,91.94v0Z" transform="translate(4.19)"/><path class="cls-5" d="M159.57,70.57,96.69,7.69a18.64,18.64,0,0,0-26.34,0L7.47,70.57a18.63,18.63,0,0,0,0,26.33l62.88,62.89a18.64,18.64,0,0,0,26.34,0L159.57,96.9a18.63,18.63,0,0,0,0-26.33ZM85,5.32a15.44,15.44,0,0,1,9.54,4.49L134.5,49.75l-12.1,12.1H104.18L85,42.46Zm11.86,115H90v-29L108.17,72.9l-8.07-8.07,21.42,0V86.23L113,77.75,96.88,94.26ZM90,87.11V64.83h5.84L104,72.92ZM72.48,9.81A15.44,15.44,0,0,1,82,5.32V42.46L62.9,61.8l0,0H45.92L33.19,49.1Zm-62.89,85a15.63,15.63,0,0,1,0-22.09L31.07,51.22,43.79,63.94V89A1.86,1.86,0,0,0,47,90.31l7.71-7.72L67.32,96v24.32H35.16Zm67.58,66.11a15.61,15.61,0,0,1-4.69-3.23L38.16,123.35h39Zm0-40.54H70.32V94.84L54.74,78.28l-8,8V64.83H68.2l-8.61,8.6L77.16,91.94h0ZM72.41,64.83h4.74V87.58L63.78,73.49S72.38,64.88,72.41,64.83Zm7.74-3H67.08L83.52,45.22,100,61.83H87v58.52H80.17Zm14.41,95.83a15.63,15.63,0,0,1-14.39,4.22V123.35H96.88v32Zm5.32-5.32V95.48L113,82l8.46,8.45.17.17,20,20Zm57.57-57.56-13.7,13.7L124.51,89.23V64l12.11-12.11,20.82,20.82a15.63,15.63,0,0,1,0,22.09Z" transform="translate(4.19)"/><g class="cls-6"><path d="M77.16,93.41v0Z" transform="translate(4.19)"/><path d="M159.57,72,96.69,9.16a18.64,18.64,0,0,0-26.34,0L7.47,72a18.63,18.63,0,0,0,0,26.33l62.88,62.89a18.64,18.64,0,0,0,26.34,0l62.88-62.89a18.63,18.63,0,0,0,0-26.33ZM85,6.79a15.44,15.44,0,0,1,9.54,4.49L134.5,51.22l-12.1,12.1H104.18L85,43.93Zm11.86,115H90v-29l18.15-18.49L100.1,66.3l21.42,0V87.7L113,79.22,96.88,95.73ZM90,88.58V66.3h5.84L104,74.39ZM72.48,11.28A15.44,15.44,0,0,1,82,6.79V43.93L62.9,63.27l0,0H45.92L33.19,50.57Zm-62.89,85a15.63,15.63,0,0,1,0-22.09L31.07,52.69,43.79,65.41v25A1.86,1.86,0,0,0,47,91.78l7.71-7.72L67.32,97.5v24.32H35.16Zm67.58,66.11a15.61,15.61,0,0,1-4.69-3.23L38.16,124.82h39Zm0-40.54H70.32V96.31L54.74,79.75l-8,8V66.3H68.2l-8.61,8.6L77.16,93.41h0ZM72.41,66.3h4.74V89.05L63.78,75S72.38,66.35,72.41,66.3Zm7.74-3H67.08L83.52,46.69,100,63.3H87v58.52H80.17Zm14.41,95.83a15.63,15.63,0,0,1-14.39,4.22V124.82H96.88v32Zm5.32-5.32V97L113,83.48l8.46,8.45.17.17,20,20Zm57.57-57.56L143.75,110,124.51,90.7V65.45l12.11-12.11,20.82,20.82a15.63,15.63,0,0,1,0,22.09Z" transform="translate(4.19)"/></g><path class="cls-7" d="M77.16,92.41v0Z" transform="translate(4.19)"/><path class="cls-8" d="M159.57,71,96.69,8.16a18.64,18.64,0,0,0-26.34,0L7.47,71a18.63,18.63,0,0,0,0,26.33l62.88,62.89a18.64,18.64,0,0,0,26.34,0l62.88-62.89a18.63,18.63,0,0,0,0-26.33ZM85,5.79a15.44,15.44,0,0,1,9.54,4.49L134.5,50.22l-12.1,12.1H104.18L85,42.93Zm11.86,115H90v-29l18.15-18.49L100.1,65.3l21.42,0V86.7L113,78.22,96.88,94.73ZM90,87.58V65.3h5.84L104,73.39ZM72.48,10.28A15.44,15.44,0,0,1,82,5.79V42.93L62.9,62.27l0,0H45.92L33.19,49.57Zm-62.89,85a15.63,15.63,0,0,1,0-22.09L31.07,51.69,43.79,64.41v25A1.86,1.86,0,0,0,47,90.78l7.71-7.72L67.32,96.5v24.32H35.16Zm67.58,66.11a15.61,15.61,0,0,1-4.69-3.23L38.16,123.82h39Zm0-40.54H70.32V95.31L54.74,78.75l-8,8V65.3H68.2l-8.61,8.6L77.16,92.41h0ZM72.41,65.3h4.74V88.05L63.78,74S72.38,65.35,72.41,65.3Zm7.74-3H67.08L83.52,45.69,100,62.3H87v58.52H80.17Zm14.41,95.83a15.63,15.63,0,0,1-14.39,4.22V123.82H96.88v32Zm5.32-5.32V96L113,82.48l8.46,8.45.17.17,20,20Zm57.57-57.56L143.75,109,124.51,89.7V64.45l12.11-12.11,20.82,20.82a15.63,15.63,0,0,1,0,22.09Z" transform="translate(4.19)"/><g class="cls-9"><rect id="glare" class="cls-10" x="68.76" y="-16.76" width="32" height="200" transform="translate(-29.85 84.31) rotate(-45)"/></g><g class="cls-11"><path d="M83.89,9a11.15,11.15,0,0,1,7.94,3.28L155.46,76a11.21,11.21,0,0,1,0,15.87L91.83,155.47a11.23,11.23,0,0,1-15.88,0L12.32,91.83a11.24,11.24,0,0,1,0-15.87L76,12.32A11.15,11.15,0,0,1,83.89,9m0-1a12.15,12.15,0,0,0-8.65,3.58L11.61,75.25a12.23,12.23,0,0,0,0,17.29l63.63,63.63a12.22,12.22,0,0,0,17.3,0l63.63-63.63a12.23,12.23,0,0,0,0-17.29L92.54,11.62A12.15,12.15,0,0,0,83.89,8Z" transform="translate(4.19)"/></g><g class="cls-12"><g class="cls-11"><ellipse class="cls-13" cx="88.34" cy="143" rx="40.53" ry="19"/></g></g><path class="cls-14" d="M84,168a19.28,19.28,0,0,1-13.7-5.67L5.66,97.7a19.4,19.4,0,0,1,0-27.4L70.3,5.67a19.37,19.37,0,0,1,27.39,0L162.33,70.3a19.39,19.39,0,0,1,0,27.4h0L97.69,162.33A19.25,19.25,0,0,1,84,168ZM83.89,8a12.15,12.15,0,0,0-8.65,3.58L11.61,75.25a12.23,12.23,0,0,0,0,17.29l63.63,63.63a12.22,12.22,0,0,0,17.3,0l63.63-63.63a12.23,12.23,0,0,0,0-17.29L92.54,11.62A12.15,12.15,0,0,0,83.89,8Z" transform="translate(4.19)"/><path class="cls-15" d="M83.89,8a12.15,12.15,0,0,1,8.65,3.58l63.63,63.63a12.23,12.23,0,0,1,0,17.29L92.54,156.17a12.22,12.22,0,0,1-17.3,0L11.61,92.54a12.23,12.23,0,0,1,0-17.29L75.24,11.62A12.15,12.15,0,0,1,83.89,8m0-1a13.11,13.11,0,0,0-9.35,3.87L10.9,74.54a13.24,13.24,0,0,0,0,18.71l63.64,63.63a13.21,13.21,0,0,0,18.7,0l63.64-63.63a13.24,13.24,0,0,0,0-18.71L93.24,10.91A13.11,13.11,0,0,0,83.89,7Z" transform="translate(4.19)"/><g class="cls-16"><g class="cls-17"><rect class="cls-18" x="39.73" y="113.84" width="96" height="57.08"/></g></g><g class="cls-19"><g class="cls-20"><rect class="cls-21" width="174.27" height="84"/></g></g><polygon class="cls-22" points="147.66 116.55 142.02 110.88 118.53 134.37 124.17 140.04 147.66 116.55"/><polygon class="cls-23" points="37.84 53.21 61.33 29.72 55.9 24.26 32.41 47.75 37.84 53.21"/></g></g></svg>