<svg xmlns="http://www.w3.org/2000/svg" xmlns:xlink="http://www.w3.org/1999/xlink" width="168" height="168" viewBox="0 0 168 168"><defs><style>.cls-1{fill:none;}.cls-2{fill:url(#linear-gradient);}.cls-3{opacity:0.5;}.cls-4{fill:url(#New_Gradient_Swatch_4);}.cls-13,.cls-5{opacity:0.3;}.cls-6{fill:url(#linear-gradient-2);}.cls-7{fill:#fff;}.cls-8{clip-path:url(#clip-path);}.cls-9{fill:url(#linear-gradient-3);}.cls-10{fill:url(#linear-gradient-4);}.cls-11{fill:url(#linear-gradient-5);}.cls-12{fill:url(#linear-gradient-6);}.cls-14{fill:url(#radial-gradient);}.cls-15{opacity:0.7;fill:url(#linear-gradient-7);}.cls-16{fill:url(#linear-gradient-8);}.cls-17{opacity:0.4;fill:url(#linear-gradient-9);}</style><linearGradient id="linear-gradient" x1="84" y1="168" x2="84" gradientUnits="userSpaceOnUse"><stop offset="0" stop-color="#333d45"/><stop offset="0.9988"/></linearGradient><linearGradient id="New_Gradient_Swatch_4" x1="80.1672" y1="125.1573" x2="80.1672" y2="29.1573" gradientUnits="userSpaceOnUse"><stop offset="0" stop-color="#8359df"/><stop offset="1" stop-color="#00a894"/></linearGradient><linearGradient id="linear-gradient-2" x1="83.5" y1="166" x2="83.5" y2="3" gradientUnits="userSpaceOnUse"><stop offset="0" stop-color="#688199"/><stop offset="1" stop-color="#f7f9fa"/></linearGradient><clipPath id="clip-path"><path class="cls-1" d="M148.167,134.0215a82.92,82.92,0,1,0-.5.6357h.5Zm-1.9548-2.3643H125.667V105.584a31.9945,31.9945,0,0,0-.2117-3.6118,21.5185,21.5185,0,0,0,16.2117-20.815V31.8428a78.3373,78.3373,0,0,1,4.5452,99.8144Zm-38.0452-8h-6.5v-21h18.5a21.6759,21.6759,0,0,0,2.334-.1323,28.9542,28.9542,0,0,1,.166,3.0591v26.0732h-13v-6.5A1.5,1.5,0,0,0,108.167,123.6572Zm-57.5,1.5v6.5h-2.5a18.521,18.521,0,0,1-18.5-18.5v-66.5a28.513,28.513,0,0,1,21,27.5h.0254a29.5353,29.5353,0,0,0,16.5277,25.5H60.167a1.5,1.5,0,0,0-1.5,1.5v22.5h-6.5A1.5,1.5,0,0,0,50.6675,125.1572ZM80.5806,83.1777a1.5,1.5,0,0,0-1.5,1.5v6.8575A10.085,10.085,0,0,1,73.44,74.4189l7.1407-7.1406,7.14,7.1406a10.0851,10.0851,0,0,1-5.64,17.1163V84.6777A1.5,1.5,0,0,0,80.5806,83.1777Zm18.0864,19.48v21h-37v-21Zm1.5-3H93.1139a29.6114,29.6114,0,0,0,15.7493-19.6831l5.4566,5.4566a28.3064,28.3064,0,0,1,7.7064,14.1323,18.5738,18.5738,0,0,1-1.8592.0942ZM116.4409,83.31,109.49,76.3589a29.6772,29.6772,0,0,0,.1768-3.2017c0-11.8584-8.1359-25.2187-16-34.38V6.68a78.31,78.31,0,0,1,45,22.0376V81.1572a18.5162,18.5162,0,0,1-13.6922,17.8443A31.2809,31.2809,0,0,0,116.4409,83.31ZM106.667,73.1572c0,.124-.0077.2461-.0094.3692l-4.643-4.6426A28.3145,28.3145,0,0,1,93.667,48.7305V43.521C100.2464,51.8633,106.667,63.0234,106.667,73.1572Zm-6.7734-2.1523,6.4243,6.4238A26.543,26.543,0,0,1,82.0806,99.5806V94.5645a13.09,13.09,0,0,0,7.7612-22.2666l-8.2007-8.2012a1.544,1.544,0,0,0-2.1211,0l-8.2012,8.2012a13.09,13.09,0,0,0,7.7618,22.2666V99.63A26.529,26.529,0,0,1,53.667,73.1572c0-19.166,22.9653-42.01,26.4619-42.5019,1.3953.1924,5.75,3.8022,10.5381,9.2622v8.813A31.2938,31.2938,0,0,0,99.8936,71.0049ZM53.6675,126.6572h53v5h-53ZM83.5,6c2.4173,0,4.8047.1265,7.167.3413v29.12c-4.5906-4.7885-8.6957-7.8037-10.5-7.8037-4.4552,0-22.92,18.3584-28.12,36.5064a31.524,31.524,0,0,0-29.88-21.5064H17.1306A78.4955,78.4955,0,0,1,83.5,6ZM5,84.5A77.99,77.99,0,0,1,15.3264,45.6572h6.8411a28.8812,28.8812,0,0,1,4.5.3565v67.1435a21.5243,21.5243,0,0,0,21.5,21.5h74.5v17.83A78.44,78.44,0,0,1,5,84.5Zm120.667,66.1611V134.6572h18.1661A79.1051,79.1051,0,0,1,125.667,150.6611Z"/></clipPath><linearGradient id="linear-gradient-3" x1="71.8891" y1="96.1109" x2="95.312" y2="72.688" gradientUnits="userSpaceOnUse"><stop offset="0.25" stop-color="#f7f9fa" stop-opacity="0"/><stop offset="0.5" stop-color="#fff"/><stop offset="0.75" stop-color="#bee6fa" stop-opacity="0"/></linearGradient><linearGradient id="linear-gradient-4" x1="84" y1="168" x2="84" y2="0" xlink:href="#linear-gradient-2"/><linearGradient id="linear-gradient-5" x1="84" y1="161" x2="84" y2="7" gradientUnits="userSpaceOnUse"><stop offset="0" stop-color="#f7f9fa"/><stop offset="1" stop-color="#f7f9fa" stop-opacity="0"/></linearGradient><linearGradient id="linear-gradient-6" x1="36" y1="155.4357" x2="132" y2="155.4357" gradientUnits="userSpaceOnUse"><stop offset="0" stop-color="#e8749f" stop-opacity="0"/><stop offset="0.5" stop-color="#f7f9fa"/><stop offset="1" stop-color="#e8749f" stop-opacity="0"/></linearGradient><radialGradient id="radial-gradient" cx="-547.8492" cy="2071.7784" fy="2089.833010124263" r="20.2667" gradientTransform="translate(1180.2318 -1800.4862) scale(2 0.9375)" gradientUnits="userSpaceOnUse"><stop offset="0" stop-color="#fff"/><stop offset="0.6802" stop-color="#e78bad" stop-opacity="0"/></radialGradient><linearGradient id="linear-gradient-7" x1="127.7358" y1="151.9575" x2="151.1587" y2="128.5346" xlink:href="#linear-gradient-3"/><linearGradient id="linear-gradient-8" x1="16.0425" y1="40.2642" x2="39.4654" y2="16.8413" xlink:href="#linear-gradient-3"/><linearGradient id="linear-gradient-9" x1="84" y1="84" x2="84" gradientUnits="userSpaceOnUse"><stop offset="0" stop-color="#e8749f" stop-opacity="0"/><stop offset="1" stop-color="#f7f9fa"/></linearGradient></defs><g id="Layer_2" data-name="Layer 2"><g id="Layer_1-2" data-name="Layer 1"><path id="base_bkgd" data-name="base bkgd" class="cls-2" d="M84,168a84,84,0,1,1,84-84A84.0953,84.0953,0,0,1,84,168Z"/><g id="border_shadow" data-name="border shadow"><path d="M84,9A75,75,0,1,1,9,84,75.0851,75.0851,0,0,1,84,9m0-1a76,76,0,1,0,76,76A76.0862,76.0862,0,0,0,84,8Z"/></g><path class="cls-3" d="M148.167,135.0215a82.92,82.92,0,1,0-.5.6357h.5Zm-1.9548-2.3643H125.667V106.584a31.9945,31.9945,0,0,0-.2117-3.6118,21.5185,21.5185,0,0,0,16.2117-20.815V32.8428a78.3373,78.3373,0,0,1,4.5452,99.8144Zm-38.0452-8h-6.5v-21h18.5a21.6759,21.6759,0,0,0,2.334-.1323,28.9542,28.9542,0,0,1,.166,3.0591v26.0732h-13v-6.5A1.5,1.5,0,0,0,108.167,124.6572Zm-57.5,1.5v6.5h-2.5a18.521,18.521,0,0,1-18.5-18.5v-66.5a28.513,28.513,0,0,1,21,27.5h.0254a29.5353,29.5353,0,0,0,16.5277,25.5H60.167a1.5,1.5,0,0,0-1.5,1.5v22.5h-6.5A1.5,1.5,0,0,0,50.6675,126.1572ZM80.5806,84.1777a1.5,1.5,0,0,0-1.5,1.5v6.8575A10.085,10.085,0,0,1,73.44,75.4189l7.1407-7.1406,7.14,7.1406a10.0851,10.0851,0,0,1-5.64,17.1163V85.6777A1.5,1.5,0,0,0,80.5806,84.1777Zm18.0864,19.48v21h-37v-21Zm1.5-3H93.1139a29.6114,29.6114,0,0,0,15.7493-19.6831l5.4566,5.4566a28.3064,28.3064,0,0,1,7.7064,14.1323,18.5738,18.5738,0,0,1-1.8592.0942ZM116.4409,84.31,109.49,77.3589a29.6772,29.6772,0,0,0,.1768-3.2017c0-11.8584-8.1359-25.2187-16-34.38V7.68a78.31,78.31,0,0,1,45,22.0376V82.1572a18.5162,18.5162,0,0,1-13.6922,17.8443A31.2809,31.2809,0,0,0,116.4409,84.31ZM106.667,74.1572c0,.124-.0077.2461-.0094.3692l-4.643-4.6426A28.3145,28.3145,0,0,1,93.667,49.7305V44.521C100.2464,52.8633,106.667,64.0234,106.667,74.1572Zm-6.7734-2.1523,6.4243,6.4238a26.543,26.543,0,0,1-24.2373,22.1519V95.5645a13.09,13.09,0,0,0,7.7612-22.2666l-8.2007-8.2012a1.544,1.544,0,0,0-2.1211,0l-8.2012,8.2012a13.09,13.09,0,0,0,7.7618,22.2666V100.63A26.529,26.529,0,0,1,53.667,74.1572c0-19.166,22.9653-42.01,26.4619-42.5019,1.3953.1924,5.75,3.8022,10.5381,9.2622v8.813A31.2938,31.2938,0,0,0,99.8936,72.0049ZM53.6675,127.6572h53v5h-53ZM83.5,7c2.4173,0,4.8047.1265,7.167.3413v29.12c-4.5906-4.7885-8.6957-7.8037-10.5-7.8037-4.4552,0-22.92,18.3584-28.12,36.5064a31.524,31.524,0,0,0-29.88-21.5064H17.1306A78.4955,78.4955,0,0,1,83.5,7ZM5,85.5A77.99,77.99,0,0,1,15.3264,46.6572h6.8411a28.8812,28.8812,0,0,1,4.5.3565v67.1435a21.5243,21.5243,0,0,0,21.5,21.5h74.5v17.83A78.44,78.44,0,0,1,5,85.5Zm120.667,66.1611V135.6572h18.1661A79.1051,79.1051,0,0,1,125.667,151.6611Z"/><path class="cls-4" d="M108.1672,73.1573c0-20-24-44-28-44s-28,24-28,44a28.0006,28.0006,0,0,0,27.1267,27.9868c.0124,0,.0248.0113.0373.0132H60.1672v24h40v-24H80.7706c.0045-.0005.0091-.0063.0136-.0068A28,28,0,0,0,108.1672,73.1573ZM72.38,89.76a11.5975,11.5975,0,0,1,0-16.4019L80.58,65.1573l8.2009,8.2012A11.5979,11.5979,0,0,1,72.38,89.76Z"/><path class="cls-5" d="M80.1672,29.1572c-4,0-28,24-28,44A28.0006,28.0006,0,0,0,79.2939,101.144c.0124,0,.0248.0113.0373.0132H60.1672v24h40v-24H80.7706c.0045-.0005.0091-.0063.0136-.0068a28,28,0,0,0,27.383-27.9932C108.1672,53.1572,84.1672,29.1572,80.1672,29.1572Zm17.5,74.5v19h-35v-19ZM72.38,89.76a11.5975,11.5975,0,0,1,0-16.4019L80.58,65.1572l8.2009,8.2012A11.5979,11.5979,0,0,1,72.38,89.76ZM94.667,46.4834c4.4077,5.9951,10.1089,15.36,10.9058,24.5439l-2.8511-2.85A27.321,27.321,0,0,1,94.667,48.7305Zm4.5195,25.2285,6.0576,6.0576A25.3787,25.3787,0,0,1,83.0806,98.4844V95.43a14.1,14.1,0,0,0,7.4682-23.8389L82.3481,63.39a2.5428,2.5428,0,0,0-3.5351,0l-8.2012,8.2012A14.0922,14.0922,0,0,0,78.0806,95.43v3.1377a25.4211,25.4211,0,0,1-23.4136-25.41c0-18.959,22.2275-40.4218,25.4609-41.4765,1.022.3466,4.65,3.0849,9.5391,8.6142v8.4356A32.2858,32.2858,0,0,0,99.1865,71.7119Z"/><path class="cls-6" d="M148.167,134.0215a82.92,82.92,0,1,0-.5.6357h.5Zm-1.9548-2.3643H125.667V105.584a31.9945,31.9945,0,0,0-.2117-3.6118,21.5185,21.5185,0,0,0,16.2117-20.815V31.8428a78.3373,78.3373,0,0,1,4.5452,99.8144Zm-38.0452-8h-6.5v-21h18.5a21.6759,21.6759,0,0,0,2.334-.1323,28.9542,28.9542,0,0,1,.166,3.0591v26.0732h-13v-6.5A1.5,1.5,0,0,0,108.167,123.6572Zm-57.5,1.5v6.5h-2.5a18.521,18.521,0,0,1-18.5-18.5v-66.5a28.513,28.513,0,0,1,21,27.5h.0254a29.5353,29.5353,0,0,0,16.5277,25.5H60.167a1.5,1.5,0,0,0-1.5,1.5v22.5h-6.5A1.5,1.5,0,0,0,50.6675,125.1572ZM80.5806,83.1777a1.5,1.5,0,0,0-1.5,1.5v6.8575A10.085,10.085,0,0,1,73.44,74.4189l7.1407-7.1406,7.14,7.1406a10.0851,10.0851,0,0,1-5.64,17.1163V84.6777A1.5,1.5,0,0,0,80.5806,83.1777Zm18.0864,19.48v21h-37v-21Zm1.5-3H93.1139a29.6114,29.6114,0,0,0,15.7493-19.6831l5.4566,5.4566a28.3064,28.3064,0,0,1,7.7064,14.1323,18.5738,18.5738,0,0,1-1.8592.0942ZM116.4409,83.31,109.49,76.3589a29.6772,29.6772,0,0,0,.1768-3.2017c0-11.8584-8.1359-25.2187-16-34.38V6.68a78.31,78.31,0,0,1,45,22.0376V81.1572a18.5162,18.5162,0,0,1-13.6922,17.8443A31.2809,31.2809,0,0,0,116.4409,83.31ZM106.667,73.1572c0,.124-.0077.2461-.0094.3692l-4.643-4.6426A28.3145,28.3145,0,0,1,93.667,48.7305V43.521C100.2464,51.8633,106.667,63.0234,106.667,73.1572Zm-6.7734-2.1523,6.4243,6.4238A26.543,26.543,0,0,1,82.0806,99.5806V94.5645a13.09,13.09,0,0,0,7.7612-22.2666l-8.2007-8.2012a1.544,1.544,0,0,0-2.1211,0l-8.2012,8.2012a13.09,13.09,0,0,0,7.7618,22.2666V99.63A26.529,26.529,0,0,1,53.667,73.1572c0-19.166,22.9653-42.01,26.4619-42.5019,1.3953.1924,5.75,3.8022,10.5381,9.2622v8.813A31.2938,31.2938,0,0,0,99.8936,71.0049ZM53.6675,126.6572h53v5h-53ZM83.5,6c2.4173,0,4.8047.1265,7.167.3413v29.12c-4.5906-4.7885-8.6957-7.8037-10.5-7.8037-4.4552,0-22.92,18.3584-28.12,36.5064a31.524,31.524,0,0,0-29.88-21.5064H17.1306A78.4955,78.4955,0,0,1,83.5,6ZM5,84.5A77.99,77.99,0,0,1,15.3264,45.6572h6.8411a28.8812,28.8812,0,0,1,4.5.3565v67.1435a21.5243,21.5243,0,0,0,21.5,21.5h74.5v17.83A78.44,78.44,0,0,1,5,84.5Zm120.667,66.1611V134.6572h18.1661A79.1051,79.1051,0,0,1,125.667,150.6611Z"/><path class="cls-7" d="M89.8418,71.7979l-8.2007-8.2012a1.544,1.544,0,0,0-2.1211,0l-8.2012,8.2012A13.0507,13.0507,0,0,0,67.5005,81.31a13.043,13.043,0,0,1,3.8183-9.0117L79.52,64.0967a1.544,1.544,0,0,1,2.1211,0l8.2007,8.2012A13.043,13.043,0,0,1,93.66,81.31,13.0507,13.0507,0,0,0,89.8418,71.7979Z"/><path class="cls-7" d="M100.167,99.6572h20a18.5738,18.5738,0,0,0,1.8592-.0942c-.0356-.1665-.0858-.3281-.1243-.4937-.5718.0537-1.1493.0879-1.7349.0879H94.0656c-.3156.1695-.6294.3418-.9517.5Z"/><rect class="cls-7" x="61.667" y="123.1572" width="37" height="0.5"/><rect class="cls-7" x="53.6675" y="131.1572" width="52.9995" height="0.5"/><path class="cls-7" d="M58.667,100.6572v.5a1.5,1.5,0,0,1,1.5-1.5H67.22c-.3189-.1562-.6257-.3325-.938-.5H60.167A1.5,1.5,0,0,0,58.667,100.6572Z"/><path class="cls-7" d="M125.667,105.584v-.5c0-1.0518-.0664-2.0923-.1693-3.1245-.0144.0034-.028.0093-.0424.0127A31.9945,31.9945,0,0,1,125.667,105.584Z"/><path class="cls-7" d="M125.667,150.1611v.5a79.1051,79.1051,0,0,0,18.1661-16.0039H143.4A79.1185,79.1185,0,0,1,125.667,150.1611Z"/><path class="cls-7" d="M52.1675,123.6572h6.5v-.5h-6.5a1.5,1.5,0,0,0-1.5,1.5v.5A1.5,1.5,0,0,1,52.1675,123.6572Z"/><path class="cls-7" d="M80.5806,83.1777a1.5,1.5,0,0,1,1.5,1.5v-.5a1.5,1.5,0,0,0-3,0v.5A1.5,1.5,0,0,1,80.5806,83.1777Z"/><path class="cls-7" d="M79.0806,91.0352A10.0466,10.0466,0,0,1,70.4991,81.31a10.05,10.05,0,0,0,8.5815,10.2256Z"/><path class="cls-7" d="M82.0806,91.5352A10.05,10.05,0,0,0,90.6616,81.31a10.047,10.047,0,0,1-8.581,9.7256Z"/><path class="cls-7" d="M83.5,3a81.5892,81.5892,0,0,1,81.4943,81.2734c0-.0918.0057-.1821.0057-.2734A81.5,81.5,0,0,0,2,84c0,.084.0061.166.0063.25A81.5889,81.5889,0,0,1,83.5,3Z"/><path class="cls-7" d="M109.667,124.6572a1.5,1.5,0,0,0-1.5-1.5h-6.5v.5h6.5a1.5,1.5,0,0,1,1.5,1.5Z"/><path class="cls-7" d="M102.0146,68.8838l4.643,4.6426c.0017-.1231.0094-.2452.0094-.3692,0-.0659-.0071-.1328-.0077-.1987l-.0017.0679-4.643-4.6426A28.3145,28.3145,0,0,1,93.667,48.2305v.5A28.3145,28.3145,0,0,0,102.0146,68.8838Z"/><path class="cls-7" d="M83.5,163a77.9915,77.9915,0,0,0,39.167-10.5132v-.5A78.4359,78.4359,0,0,1,5.005,84.1982c0,.1006-.005.2007-.005.3018A78.5887,78.5887,0,0,0,83.5,163Z"/><path class="cls-7" d="M161.9944,84.2666a78.0855,78.0855,0,0,1-15.7822,46.8906H125.667v.5h20.5452A78.0877,78.0877,0,0,0,162,84.5C162,84.4219,161.9947,84.3447,161.9944,84.2666Z"/><path class="cls-7" d="M109.6586,72.9551c.001-.1.0084-.1978.0084-.2979,0-11.8584-8.1359-25.2187-16-34.38v.5C101.4868,47.8867,109.5675,61.147,109.6586,72.9551Z"/><path class="cls-7" d="M22.1675,42.6572a31.524,31.524,0,0,1,29.88,21.5064c5.2-18.148,23.6647-36.5064,28.12-36.5064,1.8043,0,5.9094,3.0152,10.5,7.8037v-.5c-4.5906-4.7885-8.6957-7.8037-10.5-7.8037-4.4552,0-22.92,18.3584-28.12,36.5064a31.524,31.524,0,0,0-29.88-21.5064h-4.71c-.1078.1675-.2207.3316-.3272.5Z"/><path class="cls-7" d="M79.0806,99.63v-.5A26.5262,26.5262,0,0,1,53.6744,72.9551c-.0006.0674-.0074.1352-.0074.2021A26.529,26.529,0,0,0,79.0806,99.63Z"/><path class="cls-7" d="M82.0806,99.0806v.5a26.543,26.543,0,0,0,24.2373-22.1519l-.0858-.0859A26.5345,26.5345,0,0,1,82.0806,99.0806Z"/><path class="cls-7" d="M138.667,81.1572v-.5a18.5162,18.5162,0,0,1-13.6922,17.8443A31.2809,31.2809,0,0,0,116.4409,82.81l-6.9126-6.9126c-.0143.1538-.0215.3091-.0381.4619l6.9507,6.9507a31.2809,31.2809,0,0,1,8.5339,15.6919A18.5162,18.5162,0,0,0,138.667,81.1572Z"/><path class="cls-7" d="M48.1675,131.6572h2.5v-.5h-2.5a18.521,18.521,0,0,1-18.5-18.5v.5A18.521,18.521,0,0,0,48.1675,131.6572Z"/><rect class="cls-7" x="109.667" y="131.1572" width="13" height="0.5"/><g class="cls-8"><path id="FOR_LINE_WORK_CIRCLE" data-name="FOR LINE WORK CIRCLE" class="cls-9" d="M34.624,12A87.6239,87.6239,0,0,0,12,36.2218L131.7784,156A87.6232,87.6232,0,0,0,156,133.376Z"/></g><path id="border" class="cls-10" d="M84,168a84,84,0,1,1,84-84A84.0953,84.0953,0,0,1,84,168ZM84,8a76,76,0,1,0,76,76A76.0862,76.0862,0,0,0,84,8Z"/><g id="border_highlight" data-name="border highlight"><path class="cls-11" d="M84,8A76,76,0,1,1,8,84,76.0862,76.0862,0,0,1,84,8m0-1a77,77,0,1,0,77,77A77.0872,77.0872,0,0,0,84,7Z"/></g><path id="outer_pink" data-name="outer pink" class="cls-12" d="M132,152.875V142.8713a75.82,75.82,0,0,1-96,0V152.875a83.7278,83.7278,0,0,0,96,0Z"/><g id="elipse" class="cls-13"><ellipse class="cls-14" cx="84.5333" cy="141.8061" rx="40.5333" ry="19"/></g><path id="right_glare" data-name="right glare" class="cls-15" d="M153.6021,130.978l-5.7847-5.7846A76.5785,76.5785,0,0,1,124.22,148.4419l5.7867,5.7866A84.6725,84.6725,0,0,0,153.6021,130.978Z"/><path id="left_glare" data-name="left glare" class="cls-16" d="M13.7714,37.9932,19.5582,43.78A76.5774,76.5774,0,0,1,42.8067,20.1826l-5.7848-5.7847A84.6715,84.6715,0,0,0,13.7714,37.9932Z"/><path id="top_halo" data-name="top halo" class="cls-17" d="M84,8a76.0862,76.0862,0,0,1,76,76h8A84,84,0,0,0,0,84H8A76.0862,76.0862,0,0,1,84,8Z"/></g></g></svg>