<svg xmlns="http://www.w3.org/2000/svg" xmlns:xlink="http://www.w3.org/1999/xlink" width="168" height="168" viewBox="0 0 168 168"><defs><style>.cls-1{fill:none;}.cls-2{fill:url(#linear-gradient);}.cls-3{opacity:0.3;}.cls-4{opacity:0.5;}.cls-5{opacity:0.8;}.cls-6{fill:url(#linear-gradient-2);}.cls-7{fill:url(#New_Gradient_Swatch_1);}.cls-8{fill:#fff;}.cls-9{clip-path:url(#clip-path);}.cls-10{fill:url(#linear-gradient-4);}.cls-11{fill:url(#linear-gradient-5);}.cls-12{fill:url(#radial-gradient);}.cls-13{fill:url(#linear-gradient-6);}.cls-14{fill:url(#linear-gradient-7);}.cls-15{opacity:0.7;fill:url(#linear-gradient-8);}.cls-16{fill:url(#linear-gradient-9);}.cls-17{opacity:0.4;fill:url(#linear-gradient-10);}</style><linearGradient id="linear-gradient" x1="84" y1="164" x2="84" y2="4" gradientUnits="userSpaceOnUse"><stop offset="0" stop-color="#333d45"/><stop offset="0.9988"/></linearGradient><linearGradient id="linear-gradient-2" x1="84.4666" y1="139.1715" x2="84.4666" y2="38.4716" gradientUnits="userSpaceOnUse"><stop offset="0" stop-color="#ff602c" stop-opacity="0.8"/><stop offset="1" stop-color="#e80a89"/></linearGradient><linearGradient id="New_Gradient_Swatch_1" x1="84.4667" y1="166.6718" x2="84.4667" y2="3.6718" gradientUnits="userSpaceOnUse"><stop offset="0" stop-color="#688199"/><stop offset="1" stop-color="#f7f9fa"/></linearGradient><clipPath id="clip-path"><path class="cls-1" d="M164.7332,80.02l-27.1088-53.416A41.9356,41.9356,0,0,0,99.974,3.6718H68.9593a41.9356,41.9356,0,0,0-37.65,22.9326L4.2,80.02a11.4252,11.4252,0,0,0,0,10.3017L17.6524,116.829h0l13.6567,26.91a41.9367,41.9367,0,0,0,37.65,22.9327H99.974A42.0254,42.0254,0,0,0,133.5,150.2548a1.5079,1.5079,0,0,0,.2793-.3721,41.9306,41.9306,0,0,0,3.8447-6.1436l27.1088-53.417A11.4262,11.4262,0,0,0,164.7332,80.02ZM60.557,26.0526a9.5818,9.5818,0,0,0-2.8814-2.8808,9.5833,9.5833,0,0,0,2.8814-2.8809,9.583,9.583,0,0,0,2.8813,2.8809A9.5815,9.5815,0,0,0,60.557,26.0526Zm-1.5-18.1245v7.2437a6.5076,6.5076,0,0,1-6.5,6.5h-2a1.5,1.5,0,0,0,0,3h2a6.5075,6.5075,0,0,1,6.5,6.5v2a1.5,1.5,0,1,0,3,0v-2a6.5075,6.5075,0,0,1,6.5-6.5h2a1.5,1.5,0,0,0,0-3h-2a6.5076,6.5076,0,0,1-6.5-6.5V7.2885a40.19,40.19,0,0,1,6.9023-.6167H99.974a39.4792,39.4792,0,0,1,20.7067,5.8037A28.4342,28.4342,0,0,1,92.4666,36.9716h-8A37.56,37.56,0,0,0,48.46,64.0175c-6.781,2.7905-12.0781,5.8154-15.7195,8.9052A51.9111,51.9111,0,0,0,33.9666,61.74V27.9955l.0171-.0337A38.7273,38.7273,0,0,1,59.057,7.9281Zm59.91,66.5435a34.4465,34.4465,0,0,1-.9963,8.2158,151.4413,151.4413,0,0,1-30.3665,8.0859A150.84,150.84,0,0,1,55.2782,92.83a34.4923,34.4923,0,1,1,63.6884-18.3584Zm-1.6335-18.0352c12.5222,1.1929,20.6921,4.625,21.5559,9.1709a6.2383,6.2383,0,0,1-1.3677,4.71c-2.6322,3.7631-8.4114,7.5761-16.1876,10.9746a37.3232,37.3232,0,0,0-4.0006-24.8555Zm-8.8665,81.2354a8.5,8.5,0,1,1,8.5-8.5A8.51,8.51,0,0,1,108.4666,137.6718Zm-24-28.7a34.4478,34.4478,0,0,1-27.061-13.1387q2.2991.0841,4.6846.0859a163.8189,163.8189,0,0,0,25.998-2.1845A156.8717,156.8717,0,0,0,116.8665,86.33,34.56,34.56,0,0,1,84.4666,108.9716Zm-54.375-27.563c.2256-.5459.4314-1.1.6379-1.6538C32.7332,75.871,38.7,71.54,47.6021,67.6366a37.32,37.32,0,0,0,4.0246,24.9165c-12.7343-1.21-20.7279-4.7212-21.5824-9.2173A4.7278,4.7278,0,0,1,30.0916,81.4086ZM6.8753,81.3778,30.9666,33.9071V61.74a48.49,48.49,0,0,1-3.0383,16.938,9.9751,9.9751,0,0,0-.6233,1.6167,48.4332,48.4332,0,0,1-10.5434,15.74l-4.1778,4.1773L6.8758,88.9647A8.4142,8.4142,0,0,1,6.8753,81.3778Zm62.084,82.294a38.9525,38.9525,0,0,1-34.9756-21.29L22.1722,119.1063a46.4543,46.4543,0,0,1,52.7705,44.5655Zm31.0147,0H77.9286a49.37,49.37,0,0,0-57.1824-47.375l-6.7344-13.2706,4.8709-4.87a51.6974,51.6974,0,0,0,8.9914-12.0713c2.9707,5.5689,12.9121,8.6314,25.6494,9.5411a37.4444,37.4444,0,0,0,53.4431,8.8251v13.33a11.4888,11.4888,0,0,0,.0949,22.7959,11.5105,11.5105,0,0,0,11.4051,10.0948h10.8025A39.1115,39.1115,0,0,1,99.974,163.6718Zm62.0839-74.7071L134.95,142.3817a38.9461,38.9461,0,0,1-3.2594,5.29H118.4666a8.5065,8.5065,0,0,1-8.3789-7.128,11.4861,11.4861,0,0,0-.1211-22.7627V101.933a37.5474,37.5474,0,0,0,10.5076-17.0122c9.3513-3.85,16.3269-8.34,19.5051-12.8838a9.087,9.087,0,0,0,1.857-6.99c-1.213-6.3848-10.8514-10.6592-26.4624-11.78A37.6965,37.6965,0,0,0,97.9532,39.49a31.414,31.414,0,0,0,25.4613-25.1533,38.6632,38.6632,0,0,1,11.535,13.625l27.1084,53.416h0A8.4145,8.4145,0,0,1,162.0579,88.9647Z"/></clipPath><linearGradient id="linear-gradient-4" x1="70.2321" y1="99.0529" x2="94.6593" y2="74.6258" gradientUnits="userSpaceOnUse"><stop offset="0.25" stop-color="#f7f9fa" stop-opacity="0"/><stop offset="0.5" stop-color="#fff"/><stop offset="0.75" stop-color="#bee6fa" stop-opacity="0"/></linearGradient><linearGradient id="linear-gradient-5" x1="84" y1="168" x2="84" y2="0" xlink:href="#New_Gradient_Swatch_1"/><radialGradient id="radial-gradient" cx="-115.1771" cy="2003.6989" fy="2021.7534700856568" r="20.2667" gradientTransform="translate(359.2856 -1734.4677) scale(2.3947 0.9375)" gradientUnits="userSpaceOnUse"><stop offset="0" stop-color="#fff"/><stop offset="0.6802" stop-color="#e78bad" stop-opacity="0"/></radialGradient><linearGradient id="linear-gradient-6" x1="36" y1="154.2754" x2="132" y2="154.2754" gradientUnits="userSpaceOnUse"><stop offset="0" stop-color="#e8749f" stop-opacity="0"/><stop offset="0.5" stop-color="#f7f9fa"/><stop offset="1" stop-color="#e8749f" stop-opacity="0"/></linearGradient><linearGradient id="linear-gradient-7" x1="84" y1="160.9999" x2="84" y2="6.9999" gradientUnits="userSpaceOnUse"><stop offset="0" stop-color="#f7f9fa"/><stop offset="1" stop-color="#f7f9fa" stop-opacity="0"/></linearGradient><linearGradient id="linear-gradient-8" x1="123.5526" y1="151.3005" x2="146.9938" y2="127.8594" xlink:href="#linear-gradient-4"/><linearGradient id="linear-gradient-9" x1="17.4472" y1="45.1952" x2="40.8884" y2="21.754" xlink:href="#linear-gradient-4"/><linearGradient id="linear-gradient-10" x1="84" y1="84" x2="84" gradientUnits="userSpaceOnUse"><stop offset="0" stop-color="#e8749f" stop-opacity="0"/><stop offset="1" stop-color="#f7f9fa"/></linearGradient></defs><g id="Layer_2" data-name="Layer 2"><g id="Layer_1-2" data-name="Layer 1"><path class="cls-2" d="M68.4849,164a40.4456,40.4456,0,0,1-36.313-22.1113L5.064,88.4727a9.9189,9.9189,0,0,1,0-8.9454l27.1079-53.416A40.4456,40.4456,0,0,1,68.4849,4h31.03a40.4455,40.4455,0,0,1,36.313,22.1113l27.1084,53.417a9.9184,9.9184,0,0,1,0,8.9444l-27.1079,53.416A40.4455,40.4455,0,0,1,99.5151,164Z"/><g id="shadow" class="cls-3"><path d="M99.515,9a35.4692,35.4692,0,0,1,31.8543,19.3745L158.4772,81.79a4.9,4.9,0,0,1,0,4.419l-27.1079,53.416A35.47,35.47,0,0,1,99.515,159h-31.03a35.4693,35.4693,0,0,1-31.8543-19.3745L9.5232,86.21a4.9,4.9,0,0,1,0-4.42l27.1079-53.416A35.4693,35.4693,0,0,1,68.4849,9h31.03m0-1h-31.03A36.4649,36.4649,0,0,0,35.7388,27.9218L8.6309,81.3378a5.9042,5.9042,0,0,0,0,5.3252l27.1074,53.415A36.4649,36.4649,0,0,0,68.4849,160h31.03a36.4647,36.4647,0,0,0,32.7461-19.9219L159.369,86.662a5.9052,5.9052,0,0,0,0-5.3242l-27.1079-53.416A36.4647,36.4647,0,0,0,99.515,8Z"/></g><g class="cls-4"><path d="M140.4666,100.6718h-2.5v-2.5a1.5,1.5,0,1,0-3,0v2.5h-2.5a1.5,1.5,0,0,0,0,3h2.5v2.5a1.5,1.5,0,0,0,3,0v-2.5h2.5a1.5,1.5,0,0,0,0-3Z"/><path d="M164.7332,81.02l-27.1088-53.416A41.9356,41.9356,0,0,0,99.974,4.6718H68.9593a41.9356,41.9356,0,0,0-37.65,22.9326L4.2,81.02a11.4252,11.4252,0,0,0,0,10.3017L17.6524,117.829h0l13.6567,26.91a41.9367,41.9367,0,0,0,37.65,22.9327H99.974A42.0254,42.0254,0,0,0,133.5,151.2548a1.5079,1.5079,0,0,0,.2793-.3721,41.9306,41.9306,0,0,0,3.8447-6.1436l27.1088-53.417A11.4262,11.4262,0,0,0,164.7332,81.02ZM60.557,27.0526a9.5818,9.5818,0,0,0-2.8814-2.8808,9.5833,9.5833,0,0,0,2.8814-2.8809,9.583,9.583,0,0,0,2.8813,2.8809A9.5815,9.5815,0,0,0,60.557,27.0526Zm-1.5-18.1245v7.2437a6.5076,6.5076,0,0,1-6.5,6.5h-2a1.5,1.5,0,0,0,0,3h2a6.5075,6.5075,0,0,1,6.5,6.5v2a1.5,1.5,0,1,0,3,0v-2a6.5075,6.5075,0,0,1,6.5-6.5h2a1.5,1.5,0,0,0,0-3h-2a6.5076,6.5076,0,0,1-6.5-6.5V8.2885a40.19,40.19,0,0,1,6.9023-.6167H99.974a39.4792,39.4792,0,0,1,20.7067,5.8037A28.4342,28.4342,0,0,1,92.4666,37.9716h-8A37.56,37.56,0,0,0,48.46,65.0175c-6.781,2.7905-12.0781,5.8154-15.7195,8.9052A51.9111,51.9111,0,0,0,33.9666,62.74V28.9955l.0171-.0337A38.7273,38.7273,0,0,1,59.057,8.9281Zm59.91,66.5435a34.4465,34.4465,0,0,1-.9963,8.2158,151.4413,151.4413,0,0,1-30.3665,8.0859A150.84,150.84,0,0,1,55.2782,93.83a34.4923,34.4923,0,1,1,63.6884-18.3584Zm-1.6335-18.0352c12.5222,1.1929,20.6921,4.625,21.5559,9.1709a6.2383,6.2383,0,0,1-1.3677,4.71c-2.6322,3.7631-8.4114,7.5761-16.1876,10.9746a37.3232,37.3232,0,0,0-4.0006-24.8555Zm-8.8665,81.2354a8.5,8.5,0,1,1,8.5-8.5A8.51,8.51,0,0,1,108.4666,138.6718Zm-24-28.7a34.4478,34.4478,0,0,1-27.061-13.1387q2.2991.0841,4.6846.0859a163.8189,163.8189,0,0,0,25.998-2.1845A156.8717,156.8717,0,0,0,116.8665,87.33,34.56,34.56,0,0,1,84.4666,109.9716Zm-54.375-27.563c.2256-.5459.4314-1.1.6379-1.6538C32.7332,76.871,38.7,72.54,47.6021,68.6366a37.32,37.32,0,0,0,4.0246,24.9165c-12.7343-1.21-20.7279-4.7212-21.5824-9.2173A4.7278,4.7278,0,0,1,30.0916,82.4086ZM6.8753,82.3778,30.9666,34.9071V62.74a48.49,48.49,0,0,1-3.0383,16.938,9.9751,9.9751,0,0,0-.6233,1.6167,48.4332,48.4332,0,0,1-10.5434,15.74l-4.1778,4.1773L6.8758,89.9647A8.4142,8.4142,0,0,1,6.8753,82.3778Zm62.084,82.294a38.9525,38.9525,0,0,1-34.9756-21.29L22.1722,120.1063a46.4543,46.4543,0,0,1,52.7705,44.5655Zm31.0147,0H77.9286a49.37,49.37,0,0,0-57.1824-47.375l-6.7344-13.2706,4.8709-4.87a51.6974,51.6974,0,0,0,8.9914-12.0713c2.9707,5.5689,12.9121,8.6314,25.6494,9.5411a37.4444,37.4444,0,0,0,53.4431,8.8251v13.33a11.4888,11.4888,0,0,0,.0949,22.7959,11.5105,11.5105,0,0,0,11.4051,10.0948h10.8025A39.1115,39.1115,0,0,1,99.974,164.6718Zm62.0839-74.7071L134.95,143.3817a38.9461,38.9461,0,0,1-3.2594,5.29H118.4666a8.5065,8.5065,0,0,1-8.3789-7.128,11.4861,11.4861,0,0,0-.1211-22.7627V102.933a37.5474,37.5474,0,0,0,10.5076-17.0122c9.3513-3.85,16.3269-8.34,19.5051-12.8838a9.087,9.087,0,0,0,1.857-6.99c-1.213-6.3848-10.8514-10.6592-26.4624-11.78A37.6965,37.6965,0,0,0,97.9532,40.49a31.414,31.414,0,0,0,25.4613-25.1533,38.6632,38.6632,0,0,1,11.535,13.625l27.1084,53.416h0A8.4145,8.4145,0,0,1,162.0579,89.9647Z"/><path d="M140.4666,100.6718h-2.5v-2.5a1.5,1.5,0,1,0-3,0v2.5h-2.5a1.5,1.5,0,0,0,0,3h2.5v2.5a1.5,1.5,0,0,0,3,0v-2.5h2.5a1.5,1.5,0,0,0,0-3Z"/><path d="M164.7332,81.02l-27.1088-53.416A41.9356,41.9356,0,0,0,99.974,4.6718H68.9593a41.9356,41.9356,0,0,0-37.65,22.9326L4.2,81.02a11.4252,11.4252,0,0,0,0,10.3017L17.6524,117.829h0l13.6567,26.91a41.9367,41.9367,0,0,0,37.65,22.9327H99.974A42.0254,42.0254,0,0,0,133.5,151.2548a1.5079,1.5079,0,0,0,.2793-.3721,41.9306,41.9306,0,0,0,3.8447-6.1436l27.1088-53.417A11.4262,11.4262,0,0,0,164.7332,81.02ZM60.557,27.0526a9.5818,9.5818,0,0,0-2.8814-2.8808,9.5833,9.5833,0,0,0,2.8814-2.8809,9.583,9.583,0,0,0,2.8813,2.8809A9.5815,9.5815,0,0,0,60.557,27.0526Zm-1.5-18.1245v7.2437a6.5076,6.5076,0,0,1-6.5,6.5h-2a1.5,1.5,0,0,0,0,3h2a6.5075,6.5075,0,0,1,6.5,6.5v2a1.5,1.5,0,1,0,3,0v-2a6.5075,6.5075,0,0,1,6.5-6.5h2a1.5,1.5,0,0,0,0-3h-2a6.5076,6.5076,0,0,1-6.5-6.5V8.2885a40.19,40.19,0,0,1,6.9023-.6167H99.974a39.4792,39.4792,0,0,1,20.7067,5.8037A28.4342,28.4342,0,0,1,92.4666,37.9716h-8A37.56,37.56,0,0,0,48.46,65.0175c-6.781,2.7905-12.0781,5.8154-15.7195,8.9052A51.9111,51.9111,0,0,0,33.9666,62.74V28.9955l.0171-.0337A38.7273,38.7273,0,0,1,59.057,8.9281Zm59.91,66.5435a34.4465,34.4465,0,0,1-.9963,8.2158,151.4413,151.4413,0,0,1-30.3665,8.0859A150.84,150.84,0,0,1,55.2782,93.83a34.4923,34.4923,0,1,1,63.6884-18.3584Zm-1.6335-18.0352c12.5222,1.1929,20.6921,4.625,21.5559,9.1709a6.2383,6.2383,0,0,1-1.3677,4.71c-2.6322,3.7631-8.4114,7.5761-16.1876,10.9746a37.3232,37.3232,0,0,0-4.0006-24.8555Zm-8.8665,81.2354a8.5,8.5,0,1,1,8.5-8.5A8.51,8.51,0,0,1,108.4666,138.6718Zm-24-28.7a34.4478,34.4478,0,0,1-27.061-13.1387q2.2991.0841,4.6846.0859a163.8189,163.8189,0,0,0,25.998-2.1845A156.8717,156.8717,0,0,0,116.8665,87.33,34.56,34.56,0,0,1,84.4666,109.9716Zm-54.375-27.563c.2256-.5459.4314-1.1.6379-1.6538C32.7332,76.871,38.7,72.54,47.6021,68.6366a37.32,37.32,0,0,0,4.0246,24.9165c-12.7343-1.21-20.7279-4.7212-21.5824-9.2173A4.7278,4.7278,0,0,1,30.0916,82.4086ZM6.8753,82.3778,30.9666,34.9071V62.74a48.49,48.49,0,0,1-3.0383,16.938,9.9751,9.9751,0,0,0-.6233,1.6167,48.4332,48.4332,0,0,1-10.5434,15.74l-4.1778,4.1773L6.8758,89.9647A8.4142,8.4142,0,0,1,6.8753,82.3778Zm62.084,82.294a38.9525,38.9525,0,0,1-34.9756-21.29L22.1722,120.1063a46.4543,46.4543,0,0,1,52.7705,44.5655Zm31.0147,0H77.9286a49.37,49.37,0,0,0-57.1824-47.375l-6.7344-13.2706,4.8709-4.87a51.6974,51.6974,0,0,0,8.9914-12.0713c2.9707,5.5689,12.9121,8.6314,25.6494,9.5411a37.4444,37.4444,0,0,0,53.4431,8.8251v13.33a11.4888,11.4888,0,0,0,.0949,22.7959,11.5105,11.5105,0,0,0,11.4051,10.0948h10.8025A39.1115,39.1115,0,0,1,99.974,164.6718Zm62.0839-74.7071L134.95,143.3817a38.9461,38.9461,0,0,1-3.2594,5.29H118.4666a8.5065,8.5065,0,0,1-8.3789-7.128,11.4861,11.4861,0,0,0-.1211-22.7627V102.933a37.5474,37.5474,0,0,0,10.5076-17.0122c9.3513-3.85,16.3269-8.34,19.5051-12.8838a9.087,9.087,0,0,0,1.857-6.99c-1.213-6.3848-10.8514-10.6592-26.4624-11.78A37.6965,37.6965,0,0,0,97.9532,40.49a31.414,31.414,0,0,0,25.4613-25.1533,38.6632,38.6632,0,0,1,11.535,13.625l27.1084,53.416h0A8.4145,8.4145,0,0,1,162.0579,89.9647Z"/></g><g class="cls-5"><circle class="cls-6" cx="84.4666" cy="74.4716" r="36"/><circle class="cls-6" cx="108.4666" cy="129.1715" r="10"/></g><g class="cls-3"><path d="M84.4667,110.4716a36,36,0,1,0-36-36A36,36,0,0,0,84.4667,110.4716Zm0-2.5A33.2994,33.2994,0,0,1,59.61,96.8944c.833.0166,1.6616.0244,2.48.0244a165.0267,165.0267,0,0,0,26.16-2.1972,161.4952,161.4952,0,0,0,26.85-6.6924A33.6531,33.6531,0,0,1,84.4665,107.9716Zm-33.5-33.5a33.5,33.5,0,1,1,66.1518,7.4755A150.6469,150.6469,0,0,1,87.442,89.786a159.78,159.78,0,0,1-25.6342,2.2227c-2.0376,0-4.0381-.05-5.9551-.1494A33.3389,33.3389,0,0,1,50.9665,74.4716Z"/><path d="M108.4667,119.1718a10,10,0,1,0,10,10A10,10,0,0,0,108.4667,119.1718Zm0,17.5a7.5,7.5,0,1,1,7.5-7.5A7.5082,7.5082,0,0,1,108.4665,136.6718Z"/></g><path d="M140.4666,99.6718h-2.5v-2.5a1.5,1.5,0,1,0-3,0v2.5h-2.5a1.5,1.5,0,0,0,0,3h2.5v2.5a1.5,1.5,0,0,0,3,0v-2.5h2.5a1.5,1.5,0,0,0,0-3Z"/><path d="M164.7332,80.02l-27.1088-53.416A41.9356,41.9356,0,0,0,99.974,3.6718H68.9593a41.9356,41.9356,0,0,0-37.65,22.9326L4.2,80.02a11.4252,11.4252,0,0,0,0,10.3017L17.6524,116.829h0l13.6567,26.91a41.9367,41.9367,0,0,0,37.65,22.9327H99.974A42.0254,42.0254,0,0,0,133.5,150.2548a1.5079,1.5079,0,0,0,.2793-.3721,41.9306,41.9306,0,0,0,3.8447-6.1436l27.1088-53.417A11.4262,11.4262,0,0,0,164.7332,80.02ZM60.557,26.0526a9.5818,9.5818,0,0,0-2.8814-2.8808,9.5833,9.5833,0,0,0,2.8814-2.8809,9.583,9.583,0,0,0,2.8813,2.8809A9.5815,9.5815,0,0,0,60.557,26.0526Zm-1.5-18.1245v7.2437a6.5076,6.5076,0,0,1-6.5,6.5h-2a1.5,1.5,0,0,0,0,3h2a6.5075,6.5075,0,0,1,6.5,6.5v2a1.5,1.5,0,1,0,3,0v-2a6.5075,6.5075,0,0,1,6.5-6.5h2a1.5,1.5,0,0,0,0-3h-2a6.5076,6.5076,0,0,1-6.5-6.5V7.2885a40.19,40.19,0,0,1,6.9023-.6167H99.974a39.4792,39.4792,0,0,1,20.7067,5.8037A28.4342,28.4342,0,0,1,92.4666,36.9716h-8A37.56,37.56,0,0,0,48.46,64.0175c-6.781,2.7905-12.0781,5.8154-15.7195,8.9052A51.9111,51.9111,0,0,0,33.9666,61.74V27.9955l.0171-.0337A38.7273,38.7273,0,0,1,59.057,7.9281Zm59.91,66.5435a34.4465,34.4465,0,0,1-.9963,8.2158,151.4413,151.4413,0,0,1-30.3665,8.0859A150.84,150.84,0,0,1,55.2782,92.83a34.4923,34.4923,0,1,1,63.6884-18.3584Zm-1.6335-18.0352c12.5222,1.1929,20.6921,4.625,21.5559,9.1709a6.2383,6.2383,0,0,1-1.3677,4.71c-2.6322,3.7631-8.4114,7.5761-16.1876,10.9746a37.3232,37.3232,0,0,0-4.0006-24.8555Zm-8.8665,81.2354a8.5,8.5,0,1,1,8.5-8.5A8.51,8.51,0,0,1,108.4666,137.6718Zm-24-28.7a34.4478,34.4478,0,0,1-27.061-13.1387q2.2991.0841,4.6846.0859a163.8189,163.8189,0,0,0,25.998-2.1845A156.8717,156.8717,0,0,0,116.8665,86.33,34.56,34.56,0,0,1,84.4666,108.9716Zm-54.375-27.563c.2256-.5459.4314-1.1.6379-1.6538C32.7332,75.871,38.7,71.54,47.6021,67.6366a37.32,37.32,0,0,0,4.0246,24.9165c-12.7343-1.21-20.7279-4.7212-21.5824-9.2173A4.7278,4.7278,0,0,1,30.0916,81.4086ZM6.8753,81.3778,30.9666,33.9071V61.74a48.49,48.49,0,0,1-3.0383,16.938,9.9751,9.9751,0,0,0-.6233,1.6167,48.4332,48.4332,0,0,1-10.5434,15.74l-4.1778,4.1773L6.8758,88.9647A8.4142,8.4142,0,0,1,6.8753,81.3778Zm62.084,82.294a38.9525,38.9525,0,0,1-34.9756-21.29L22.1722,119.1063a46.4543,46.4543,0,0,1,52.7705,44.5655Zm31.0147,0H77.9286a49.37,49.37,0,0,0-57.1824-47.375l-6.7344-13.2706,4.8709-4.87a51.6974,51.6974,0,0,0,8.9914-12.0713c2.9707,5.5689,12.9121,8.6314,25.6494,9.5411a37.4444,37.4444,0,0,0,53.4431,8.8251v13.33a11.4888,11.4888,0,0,0,.0949,22.7959,11.5105,11.5105,0,0,0,11.4051,10.0948h10.8025A39.1115,39.1115,0,0,1,99.974,163.6718Zm62.0839-74.7071L134.95,142.3817a38.9461,38.9461,0,0,1-3.2594,5.29H118.4666a8.5065,8.5065,0,0,1-8.3789-7.128,11.4861,11.4861,0,0,0-.1211-22.7627V101.933a37.5474,37.5474,0,0,0,10.5076-17.0122c9.3513-3.85,16.3269-8.34,19.5051-12.8838a9.087,9.087,0,0,0,1.857-6.99c-1.213-6.3848-10.8514-10.6592-26.4624-11.78A37.6965,37.6965,0,0,0,97.9532,39.49a31.414,31.414,0,0,0,25.4613-25.1533,38.6632,38.6632,0,0,1,11.535,13.625l27.1084,53.416h0A8.4145,8.4145,0,0,1,162.0579,88.9647Z"/><path class="cls-7" d="M140.4666,99.6718h-2.5v-2.5a1.5,1.5,0,1,0-3,0v2.5h-2.5a1.5,1.5,0,0,0,0,3h2.5v2.5a1.5,1.5,0,0,0,3,0v-2.5h2.5a1.5,1.5,0,0,0,0-3Z"/><path class="cls-7" d="M164.7332,80.02l-27.1088-53.416A41.9356,41.9356,0,0,0,99.974,3.6718H68.9593a41.9356,41.9356,0,0,0-37.65,22.9326L4.2,80.02a11.4252,11.4252,0,0,0,0,10.3017L17.6524,116.829h0l13.6567,26.91a41.9367,41.9367,0,0,0,37.65,22.9327H99.974A42.0254,42.0254,0,0,0,133.5,150.2548a1.5079,1.5079,0,0,0,.2793-.3721,41.9306,41.9306,0,0,0,3.8447-6.1436l27.1088-53.417A11.4262,11.4262,0,0,0,164.7332,80.02ZM60.557,26.0526a9.5818,9.5818,0,0,0-2.8814-2.8808,9.5833,9.5833,0,0,0,2.8814-2.8809,9.583,9.583,0,0,0,2.8813,2.8809A9.5815,9.5815,0,0,0,60.557,26.0526Zm-1.5-18.1245v7.2437a6.5076,6.5076,0,0,1-6.5,6.5h-2a1.5,1.5,0,0,0,0,3h2a6.5075,6.5075,0,0,1,6.5,6.5v2a1.5,1.5,0,1,0,3,0v-2a6.5075,6.5075,0,0,1,6.5-6.5h2a1.5,1.5,0,0,0,0-3h-2a6.5076,6.5076,0,0,1-6.5-6.5V7.2885a40.19,40.19,0,0,1,6.9023-.6167H99.974a39.4792,39.4792,0,0,1,20.7067,5.8037A28.4342,28.4342,0,0,1,92.4666,36.9716h-8A37.56,37.56,0,0,0,48.46,64.0175c-6.781,2.7905-12.0781,5.8154-15.7195,8.9052A51.9111,51.9111,0,0,0,33.9666,61.74V27.9955l.0171-.0337A38.7273,38.7273,0,0,1,59.057,7.9281Zm59.91,66.5435a34.4465,34.4465,0,0,1-.9963,8.2158,151.4413,151.4413,0,0,1-30.3665,8.0859A150.84,150.84,0,0,1,55.2782,92.83a34.4923,34.4923,0,1,1,63.6884-18.3584Zm-1.6335-18.0352c12.5222,1.1929,20.6921,4.625,21.5559,9.1709a6.2383,6.2383,0,0,1-1.3677,4.71c-2.6322,3.7631-8.4114,7.5761-16.1876,10.9746a37.3232,37.3232,0,0,0-4.0006-24.8555Zm-8.8665,81.2354a8.5,8.5,0,1,1,8.5-8.5A8.51,8.51,0,0,1,108.4666,137.6718Zm-24-28.7a34.4478,34.4478,0,0,1-27.061-13.1387q2.2991.0841,4.6846.0859a163.8189,163.8189,0,0,0,25.998-2.1845A156.8717,156.8717,0,0,0,116.8665,86.33,34.56,34.56,0,0,1,84.4666,108.9716Zm-54.375-27.563c.2256-.5459.4314-1.1.6379-1.6538C32.7332,75.871,38.7,71.54,47.6021,67.6366a37.32,37.32,0,0,0,4.0246,24.9165c-12.7343-1.21-20.7279-4.7212-21.5824-9.2173A4.7278,4.7278,0,0,1,30.0916,81.4086ZM6.8753,81.3778,30.9666,33.9071V61.74a48.49,48.49,0,0,1-3.0383,16.938,9.9751,9.9751,0,0,0-.6233,1.6167,48.4332,48.4332,0,0,1-10.5434,15.74l-4.1778,4.1773L6.8758,88.9647A8.4142,8.4142,0,0,1,6.8753,81.3778Zm62.084,82.294a38.9525,38.9525,0,0,1-34.9756-21.29L22.1722,119.1063a46.4543,46.4543,0,0,1,52.7705,44.5655Zm31.0147,0H77.9286a49.37,49.37,0,0,0-57.1824-47.375l-6.7344-13.2706,4.8709-4.87a51.6974,51.6974,0,0,0,8.9914-12.0713c2.9707,5.5689,12.9121,8.6314,25.6494,9.5411a37.4444,37.4444,0,0,0,53.4431,8.8251v13.33a11.4888,11.4888,0,0,0,.0949,22.7959,11.5105,11.5105,0,0,0,11.4051,10.0948h10.8025A39.1115,39.1115,0,0,1,99.974,163.6718Zm62.0839-74.7071L134.95,142.3817a38.9461,38.9461,0,0,1-3.2594,5.29H118.4666a8.5065,8.5065,0,0,1-8.3789-7.128,11.4861,11.4861,0,0,0-.1211-22.7627V101.933a37.5474,37.5474,0,0,0,10.5076-17.0122c9.3513-3.85,16.3269-8.34,19.5051-12.8838a9.087,9.087,0,0,0,1.857-6.99c-1.213-6.3848-10.8514-10.6592-26.4624-11.78A37.6965,37.6965,0,0,0,97.9532,39.49a31.414,31.414,0,0,0,25.4613-25.1533,38.6632,38.6632,0,0,1,11.535,13.625l27.1084,53.416h0A8.4145,8.4145,0,0,1,162.0579,88.9647Z"/><path class="cls-8" d="M137.9667,99.6718h2.5a1.4971,1.4971,0,0,1,1.4747,1.25,1.477,1.477,0,0,0-1.4747-1.75h-2.5Z"/><path class="cls-8" d="M136.4667,95.6718a1.5,1.5,0,0,1,1.5,1.5v-.5a1.5,1.5,0,0,0-3,0v.5A1.5,1.5,0,0,1,136.4667,95.6718Z"/><path class="cls-8" d="M132.4667,99.6718h2.5v-.5h-2.5a1.478,1.478,0,0,0-1.4749,1.75A1.4974,1.4974,0,0,1,132.4667,99.6718Z"/><path class="cls-8" d="M84.4667,108.9716a34.56,34.56,0,0,0,32.4-22.6416c-.0786.0293-.1621.0566-.241.0854a34.4433,34.4433,0,0,1-58.7951,9.4253c-.1394-.0049-.2859-.0029-.4248-.0078A34.4473,34.4473,0,0,0,84.4667,108.9716Z"/><path class="cls-8" d="M116.9667,129.1718c0-.0845-.01-.1661-.0127-.25a8.4908,8.4908,0,0,1-16.9747,0c-.0025.0839-.0126.1655-.0126.25a8.5,8.5,0,0,0,17,0Z"/><path class="cls-8" d="M106.9667,117.7811v-.5a11.5093,11.5093,0,0,0-10,11.3907c0,.0839.01.1655.0117.25A11.5048,11.5048,0,0,1,106.9667,117.7811Z"/><path class="cls-8" d="M137.5214,70.3173a6.661,6.661,0,0,0,1.4353-4.1675,7.1,7.1,0,0,1-1.4353,3.6675c-2.6223,3.749-8.3689,7.5468-16.1,10.9355-.0306.1792-.0546.36-.0876.5391C129.11,77.8934,134.8891,74.08,137.5214,70.3173Z"/><path class="cls-8" d="M121.96,74.2587c.0007-.0962.0068-.191.0068-.2871a37.2434,37.2434,0,0,0-4.3627-17.5059c-.0919-.0088-.1786-.02-.2708-.0293A37.2649,37.2649,0,0,1,121.96,74.2587Z"/><path class="cls-8" d="M99.974,163.1718H77.9286a49.37,49.37,0,0,0-57.1824-47.375L14.18,102.8578l-.1682.1684,6.7343,13.2706a49.37,49.37,0,0,1,57.1824,47.375H99.974a39.1118,39.1118,0,0,0,29.2952-13h-.471A39.1147,39.1147,0,0,1,99.974,163.1718Z"/><path class="cls-8" d="M4.2,80.02,31.309,26.6044a41.9355,41.9355,0,0,1,37.65-22.9326H99.974a41.9355,41.9355,0,0,1,37.65,22.9326L164.7333,80.02a11.3734,11.3734,0,0,1,1.2123,4.9009,11.3842,11.3842,0,0,0-1.2123-5.4009l-27.1089-53.416A41.9355,41.9355,0,0,0,99.974,3.1718H68.9594a41.9355,41.9355,0,0,0-37.65,22.9326L4.2,79.52a11.3843,11.3843,0,0,0-1.2124,5.4009A11.3749,11.3749,0,0,1,4.2,80.02Z"/><path class="cls-8" d="M33.9838,141.8817l-11.57-22.8c-.0805.0108-.1608.0142-.2411.0249l11.8115,23.2754a38.9524,38.9524,0,0,0,34.9756,21.29h5.9834c-.0054-.168-.0213-.3326-.0285-.5H68.9594A38.9524,38.9524,0,0,1,33.9838,141.8817Z"/><path class="cls-8" d="M115.3739,53.267c15.6111,1.1206,25.2493,5.395,26.4624,11.78a7.4619,7.4619,0,0,1,.1184,1.28,7.4829,7.4829,0,0,0-.1184-1.78c-1.2131-6.3848-10.8513-10.6592-26.4624-11.78A37.6908,37.6908,0,0,0,98.7267,39.3241c-.259.0518-.5122.12-.7734.166A37.6962,37.6962,0,0,1,115.3739,53.267Z"/><path class="cls-8" d="M134.95,141.8817a38.9467,38.9467,0,0,1-3.26,5.29H118.4667a8.5,8.5,0,0,1-8.2781-6.647c-.0339.0049-.0666.0141-.1008.019a8.5063,8.5063,0,0,0,8.3789,7.128H131.69a38.9467,38.9467,0,0,0,3.26-5.29l27.1084-53.417a8.3819,8.3819,0,0,0,.8889-4.0434,8.371,8.371,0,0,1-.8889,3.5434Z"/><path class="cls-8" d="M59.057,14.6718a6.5076,6.5076,0,0,1-6.5,6.5h-2a1.4775,1.4775,0,0,0-1.4748,1.75,1.4972,1.4972,0,0,1,1.4748-1.25h2a6.5076,6.5076,0,0,0,6.5-6.5Z"/><path class="cls-8" d="M48.46,64.0175A37.56,37.56,0,0,1,84.4667,36.9716h8a28.4343,28.4343,0,0,0,28.2141-24.4961c-.0244-.0152-.05-.0274-.0749-.0425A28.4294,28.4294,0,0,1,92.4667,36.4716h-8A37.56,37.56,0,0,0,48.46,63.5175c-6.7141,2.7626-11.9676,5.7558-15.6054,8.8139-.041.1963-.0709.3955-.114.5913C36.3822,69.8329,41.6793,66.808,48.46,64.0175Z"/><path class="cls-8" d="M60.557,26.0526a9.5818,9.5818,0,0,1,2.8814-2.8808c-.12-.0772-.23-.1675-.3469-.25a9.5746,9.5746,0,0,0-2.5345,2.6308,9.575,9.575,0,0,0-2.5346-2.6308c-.1164.0825-.2266.1728-.3467.25A9.5815,9.5815,0,0,1,60.557,26.0526Z"/><path class="cls-8" d="M6.8759,88.9647l5.708,11.2476,4.1777-4.1773a48.4319,48.4319,0,0,0,10.5435-15.74,9.9659,9.9659,0,0,1,.6233-1.6167A48.4922,48.4922,0,0,0,30.9667,61.74v-.5a48.4922,48.4922,0,0,1-3.0383,16.938,9.9659,9.9659,0,0,0-.6233,1.6167,48.4319,48.4319,0,0,1-10.5435,15.74l-4.1777,4.1773L6.8759,88.4647a8.3675,8.3675,0,0,1-.8894-3.5434A8.3768,8.3768,0,0,0,6.8759,88.9647Z"/><path class="cls-8" d="M55.2782,92.83a150.8418,150.8418,0,0,0,32.3257-2.0567A151.4449,151.4449,0,0,0,117.97,82.6874a34.4465,34.4465,0,0,0,.9963-8.2158c0-.0918-.0064-.1822-.0071-.274a34.46,34.46,0,0,1-.9892,7.99,151.4449,151.4449,0,0,1-30.3665,8.0859A150.8418,150.8418,0,0,1,55.2782,92.33,34.2807,34.2807,0,0,1,49.974,74.1781c-.0007.0981-.0073.1948-.0073.2935A34.2819,34.2819,0,0,0,55.2782,92.83Z"/><path class="cls-8" d="M46.9735,74.1844a37.6017,37.6017,0,0,1,.6287-6.5478c-.03.0132-.058.0264-.0878.04a37.3832,37.3832,0,0,0-.5477,6.2955C46.9667,74.0428,46.973,74.1132,46.9735,74.1844Z"/><path class="cls-8" d="M68.557,21.6718h2a1.4972,1.4972,0,0,1,1.4748,1.25,1.4775,1.4775,0,0,0-1.4748-1.75h-2a6.5076,6.5076,0,0,1-6.5-6.5v.5A6.5076,6.5076,0,0,0,68.557,21.6718Z"/><path class="cls-8" d="M109.9667,117.2811v.5a11.5049,11.5049,0,0,1,9.9883,11.1416c.0019-.084.0117-.1665.0117-.2509A11.5094,11.5094,0,0,0,109.9667,117.2811Z"/><path class="cls-8" d="M30.0443,83.3358c.8545,4.4961,8.8482,8.0078,21.5823,9.2173-.0957-.1733-.1787-.3545-.2718-.53-12.5727-1.2339-20.4623-4.7241-21.31-9.1875a4.4457,4.4457,0,0,1-.0515-.6426A4.5132,4.5132,0,0,0,30.0443,83.3358Z"/><g class="cls-9"><path id="FOR_LINE_WORK_LIPS" data-name="FOR LINE WORK LIPS" class="cls-10" d="M32.0928,12.0593A90.3458,90.3458,0,0,0,8.8311,37.08L131.9853,160.8061a90.2609,90.2609,0,0,0,24.9043-23.37Z"/></g><path class="cls-11" d="M99.515,168h-31.03a44.4269,44.4269,0,0,1-39.88-24.3008L1.4971,90.2832a13.9332,13.9332,0,0,1-.0005-12.5654L28.605,24.3008A44.4269,44.4269,0,0,1,68.4849,0h31.03a44.4268,44.4268,0,0,1,39.88,24.3008l27.1084,53.417a13.9327,13.9327,0,0,1,0,12.5644l-27.1084,53.417A44.4268,44.4268,0,0,1,99.515,168ZM68.4849,8A36.4647,36.4647,0,0,0,35.7388,27.9219L8.6309,81.3379a5.9042,5.9042,0,0,0,0,5.3252l27.1074,53.415A36.4647,36.4647,0,0,0,68.4849,160h31.03a36.4647,36.4647,0,0,0,32.7461-19.9219l27.1079-53.416a5.9052,5.9052,0,0,0,0-5.3242l-27.1079-53.416A36.4647,36.4647,0,0,0,99.515,8Z"/><g class="cls-3"><ellipse class="cls-12" cx="83.4667" cy="144" rx="48.5333" ry="19"/></g><path class="cls-13" d="M132,140.5508A36.46,36.46,0,0,1,99.515,160h-31.03A36.46,36.46,0,0,1,36,140.5508v13.6145A44.62,44.62,0,0,0,68.4849,168h31.03A44.62,44.62,0,0,0,132,154.1653Z"/><path class="cls-14" d="M99.515,8a36.4647,36.4647,0,0,1,32.7461,19.9219l27.1079,53.416a5.9052,5.9052,0,0,1,0,5.3242l-27.1079,53.416A36.4647,36.4647,0,0,1,99.515,160h-31.03A36.4649,36.4649,0,0,1,35.7388,140.078L8.6314,86.663a5.9042,5.9042,0,0,1,0-5.3252l27.1079-53.416A36.4649,36.4649,0,0,1,68.4849,8h31.03m0-1h-31.03A37.46,37.46,0,0,0,34.8471,27.4691L7.7392,80.8851a6.9089,6.9089,0,0,0,0,6.2305l27.1075,53.4151A37.46,37.46,0,0,0,68.4849,161h31.03a37.46,37.46,0,0,0,33.6378-20.4692l27.1079-53.4161a6.9072,6.9072,0,0,0,0-6.23l-27.108-53.416A37.46,37.46,0,0,0,99.515,7Z"/><path class="cls-15" d="M147.2853,128.1511,141.3341,122.2l-9.073,17.8784a36.1924,36.1924,0,0,1-8.7838,11.147l5.67,5.67a44.2086,44.2086,0,0,0,10.2473-13.1963Z"/><path class="cls-16" d="M34.57,15.4351a44.3645,44.3645,0,0,0-5.9645,8.8657l-10.79,21.2619,5.9513,5.9515L35.7388,27.9219A36.34,36.34,0,0,1,40.24,21.1055Z"/><path class="cls-17" d="M7.9967,84a5.8844,5.8844,0,0,1,.6342-2.6621l27.1079-53.416A36.4647,36.4647,0,0,1,68.4849,8h31.03a36.4647,36.4647,0,0,1,32.7461,19.9219l27.1079,53.416A5.8856,5.8856,0,0,1,160.0031,84H168a13.8882,13.8882,0,0,0-1.4967-6.2822l-27.1084-53.417A44.4268,44.4268,0,0,0,99.515,0h-31.03a44.4269,44.4269,0,0,0-39.88,24.3008L1.4966,77.7178A13.8868,13.8868,0,0,0,0,84Z"/></g></g></svg>