<svg xmlns="http://www.w3.org/2000/svg" xmlns:xlink="http://www.w3.org/1999/xlink" viewBox="0 0 168 168"><defs><style>.cls-1{fill:none;}.cls-2{fill:url(#linear-gradient);}.cls-3{opacity:0.5;}.cls-15,.cls-17,.cls-3,.cls-5{isolation:isolate;}.cls-4{fill:url(#linear-gradient-2);}.cls-13,.cls-5{opacity:0.3;}.cls-6{fill:url(#linear-gradient-3);}.cls-7{clip-path:url(#clip-path);}.cls-8{fill:url(#linear-gradient-4);}.cls-9{fill:#fff;}.cls-10{fill:url(#linear-gradient-5);}.cls-11{fill:url(#linear-gradient-6);}.cls-12{fill:url(#linear-gradient-7);}.cls-14{fill:url(#radial-gradient);}.cls-15{opacity:0.7;fill:url(#linear-gradient-8);}.cls-16{fill:url(#linear-gradient-9);}.cls-17{opacity:0.4;fill:url(#linear-gradient-10);}</style><linearGradient id="linear-gradient" x1="-480" y1="2033.45" x2="-480" y2="2201.45" gradientTransform="matrix(1, 0, 0, -1, 564, 2201.45)" gradientUnits="userSpaceOnUse"><stop offset="0" stop-color="#333d45"/><stop offset="1"/></linearGradient><linearGradient id="linear-gradient-2" x1="-484.93" y1="2056.61" x2="-462.51" y2="2183.75" gradientTransform="matrix(1, 0, 0, -1, 564, 2201.45)" gradientUnits="userSpaceOnUse"><stop offset="0" stop-color="#0bb7c8"/><stop offset="1" stop-color="#94fc82"/></linearGradient><linearGradient id="linear-gradient-3" x1="-480" y1="2036.68" x2="-480" y2="2199.68" gradientTransform="matrix(1, 0, 0, -1, 564, 2201.45)" gradientUnits="userSpaceOnUse"><stop offset="0" stop-color="#688199"/><stop offset="1" stop-color="#f7f9fa"/></linearGradient><clipPath id="clip-path"><path class="cls-1" d="M84,1.78a81.5,81.5,0,1,0,81.5,81.5h0A81.59,81.59,0,0,0,84,1.78Zm33.83,132.81a9.81,9.81,0,0,1-.25-6.46,10.68,10.68,0,0,1,1.19-2.7,9.11,9.11,0,0,1,.68-1l.24-.28a7,7,0,0,1,.52-.56l.3-.28c.17-.15.35-.3.53-.43l.32-.23a5.51,5.51,0,0,1,.61-.37l.27-.15a7.17,7.17,0,0,1,.91-.36l.14,0a5.29,5.29,0,0,1,.79-.17l.31,0a4.85,4.85,0,0,1,.66,0l.24,0a4.09,4.09,0,0,1,.85.15h0a5.73,5.73,0,0,1,3.66,3.51,10.34,10.34,0,0,1-3.38,11.79,5.43,5.43,0,0,1-8.62-2.47Zm-2.51,1.74-24.27-7h0l-3.55-1v-4.83a18.42,18.42,0,0,1,4.16-11.66L120,120l-.1.07a10,10,0,0,0-.91.65l-.15.12c-.27.23-.54.46-.79.71l-.15.15c-.28.28-.54.59-.8.9l-.16.21c-.25.34-.5.68-.73,1s-.32.54-.47.82a13.71,13.71,0,0,0-1,2.64,12.77,12.77,0,0,0,.36,8.43c.08.2.17.4.26.59Zm-66,1.89a5.73,5.73,0,0,1-5-1,10.33,10.33,0,0,1-3.38-11.79,5.75,5.75,0,0,1,3.66-3.51,5.06,5.06,0,0,1,.88-.16h.24a4.7,4.7,0,0,1,.65,0l.32,0a5.4,5.4,0,0,1,.78.16l.15,0a6.37,6.37,0,0,1,.91.36c.09,0,.17.1.26.15a5.63,5.63,0,0,1,.62.37l.31.22c.19.14.37.29.54.44l.3.27c.18.18.35.37.52.57l.24.27c.24.31.47.63.68,1a10.68,10.68,0,0,1,1.19,2.7,9.78,9.78,0,0,1-.25,6.45,5.75,5.75,0,0,1-3.66,3.51ZM44.58,116a5.78,5.78,0,0,1-3.66-3.51,9.84,9.84,0,0,1-.24-6.45,10.68,10.68,0,0,1,1.19-2.7,7.46,7.46,0,0,1,6-3.87,5.33,5.33,0,0,1,1.37.19l30.89,8.86h0l3.47,1L88.57,111a21.42,21.42,0,0,0-4.07,12.55v4L49.32,117.4h0ZM70.29,62.5a42.3,42.3,0,0,1-2.86-14.18c0-.59,0-1.17,0-1.83C68.27,28.74,84,20.44,89.54,18a44.73,44.73,0,0,0,13,29.52c1.16,1.15,1.91,1.8,2,1.85l.08.07h0a31,31,0,0,1-6.22,51.38A15.62,15.62,0,0,0,99,83.08L87.26,64.77a1.55,1.55,0,0,0-2.18-.35,1.41,1.41,0,0,0-.34.35L73,83.08A15.6,15.6,0,0,0,75,102.43l.34.33A31,31,0,0,1,54.88,64a30.56,30.56,0,0,1,2.38-5.66,33.35,33.35,0,0,0,2.17,8.45A5.83,5.83,0,0,0,70.29,62.5Zm6.87,37.8a12.55,12.55,0,0,1-1.67-15.59L86,68.35,96.51,84.71a12.55,12.55,0,0,1-1.67,15.59h0A12.51,12.51,0,0,1,77.16,100.3ZM55.7,135.87a12.8,12.8,0,0,0,.36-8.44A14,14,0,0,0,55,124.79c-.14-.28-.3-.55-.46-.81a12.43,12.43,0,0,0-.94-1.31l-.06-.09a13,13,0,0,0-1-1.08l-.07-.08,27.71,8-24.73,7.08C55.53,136.26,55.61,136.07,55.7,135.87Zm70.47-19.7-4.29,1.23-21.65-6.2L94,109.42a18.44,18.44,0,0,1,7.1-3.76l20.35-5.83c2.6-.75,5.57.73,7.4,3.68a10.68,10.68,0,0,1,1.19,2.7,9.84,9.84,0,0,1-.25,6.45A5.75,5.75,0,0,1,126.17,116.17Zm-7.67-43a34,34,0,0,0-12-25.93l-1,1.14,1-1.15-.08-.07s-.71-.61-1.79-1.69A41.69,41.69,0,0,1,92.5,16.05V5.24a78.25,78.25,0,0,1,44.67,20.35A54.35,54.35,0,0,1,142.5,49.2a55,55,0,0,1-40.28,52.92A34,34,0,0,0,118.5,73.12ZM84,4.78c1.85,0,3.68.08,5.5.21v9.82c-4.74,1.87-24.09,10.76-25,31.63,0,.63,0,1.27,0,1.91a45.41,45.41,0,0,0,3,15.19,2.83,2.83,0,0,1-3.61,3.67,2.74,2.74,0,0,1-1.65-1.58,30.33,30.33,0,0,1-2.2-12,1.51,1.51,0,0,0-1.47-1.53,1.48,1.48,0,0,0-1.23.6,34,34,0,0,0,3.11,44.43,34.55,34.55,0,0,0,4.89,4.06L50.1,96.82a7.85,7.85,0,0,0-2.36-.3H6.64A78.38,78.38,0,0,1,84,4.78ZM7.2,99.51H41.14a12.55,12.55,0,0,0-1.82,2.29,13.35,13.35,0,0,0-1.52,3.46,12.77,12.77,0,0,0,.36,8.43,8.69,8.69,0,0,0,5.6,5.24l.12,0-.12,0h0a8.67,8.67,0,0,0-5.6,5.24,13.33,13.33,0,0,0,4.41,15.39,9.21,9.21,0,0,0,5.3,1.79,8.39,8.39,0,0,0,2.23-.31h0l34.39-9.86v30.52l-.5,0A78.62,78.62,0,0,1,7.2,99.51Zm80.3,62.18V131.47L120.66,141a7.94,7.94,0,0,0,2.22.31,9.17,9.17,0,0,0,5.31-1.79,13.32,13.32,0,0,0,4.41-15.39,8.75,8.75,0,0,0-5.34-5.15,8.74,8.74,0,0,0,5.34-5.14,12.8,12.8,0,0,0,.36-8.44,14,14,0,0,0-1.52-3.45c-2.54-4.1-6.88-6.11-10.78-5l-.57.16a57.89,57.89,0,0,0,22.52-66A78.44,78.44,0,0,1,87.5,161.69Z"/></clipPath><linearGradient id="linear-gradient-4" x1="-492.11" y1="2105.34" x2="-468.69" y2="2128.76" gradientTransform="matrix(1, 0, 0, -1, 564, 2201.45)" gradientUnits="userSpaceOnUse"><stop offset="0.25" stop-color="#f7f9fa" stop-opacity="0"/><stop offset="0.5" stop-color="#fff"/><stop offset="0.75" stop-color="#bee6fa" stop-opacity="0"/></linearGradient><linearGradient id="linear-gradient-5" x1="-480" y1="2033.45" x2="-480" y2="2201.45" xlink:href="#linear-gradient-3"/><linearGradient id="linear-gradient-6" x1="-480" y1="2040.45" x2="-480" y2="2194.45" gradientTransform="matrix(1, 0, 0, -1, 564, 2201.45)" gradientUnits="userSpaceOnUse"><stop offset="0" stop-color="#f7f9fa"/><stop offset="1" stop-color="#f7f9fa" stop-opacity="0"/></linearGradient><linearGradient id="linear-gradient-7" x1="-528" y1="2046.02" x2="-432" y2="2046.02" gradientTransform="matrix(1, 0, 0, -1, 564, 2201.45)" gradientUnits="userSpaceOnUse"><stop offset="0" stop-color="#e8749f" stop-opacity="0"/><stop offset="0.5" stop-color="#f7f9fa"/><stop offset="1" stop-color="#e8749f" stop-opacity="0"/></linearGradient><radialGradient id="radial-gradient" cx="-7265.4" cy="281.26" fy="299.3168474791881" r="20.27" gradientTransform="matrix(-2, 0, 0, 0.94, -14446.27, -121.88)" gradientUnits="userSpaceOnUse"><stop offset="0" stop-color="#fff"/><stop offset="0.68" stop-color="#e78bad" stop-opacity="0"/></radialGradient><linearGradient id="linear-gradient-8" x1="-436.26" y1="2049.49" x2="-412.84" y2="2072.92" xlink:href="#linear-gradient-4"/><linearGradient id="linear-gradient-9" x1="-547.96" y1="2161.19" x2="-524.53" y2="2184.61" xlink:href="#linear-gradient-4"/><linearGradient id="linear-gradient-10" x1="-480" y1="2117.45" x2="-480" y2="2201.45" gradientTransform="matrix(1, 0, 0, -1, 564, 2201.45)" gradientUnits="userSpaceOnUse"><stop offset="0" stop-color="#e8749f" stop-opacity="0"/><stop offset="1" stop-color="#f7f9fa"/></linearGradient></defs><g id="Layer_2" data-name="Layer 2"><g id="Layer_1-2" data-name="Layer 1"><g id="Layer_2-2" data-name="Layer 2"><g id="Layer_1-2-2" data-name="Layer 1-2"><path id="base_bkgd" data-name="base bkgd" class="cls-2" d="M84,168a84,84,0,1,1,84-84A84,84,0,0,1,84,168Z"/><g id="border_shadow" data-name="border shadow"><path d="M84,9A75,75,0,1,1,9,84,75,75,0,0,1,84,9m0-1a76,76,0,1,0,76,76A76,76,0,0,0,84,8Z"/></g><path class="cls-3" d="M84,2.78a81.5,81.5,0,1,0,81.5,81.5h0A81.59,81.59,0,0,0,84,2.78Zm33.83,132.81a9.81,9.81,0,0,1-.25-6.46,10.68,10.68,0,0,1,1.19-2.7,9.11,9.11,0,0,1,.68-1l.24-.28a7,7,0,0,1,.52-.56l.3-.28c.17-.15.35-.3.53-.43l.32-.23a5.51,5.51,0,0,1,.61-.37l.27-.15a7.17,7.17,0,0,1,.91-.36l.14,0a5.29,5.29,0,0,1,.79-.17l.31,0a4.85,4.85,0,0,1,.66,0l.24,0a4.09,4.09,0,0,1,.85.15h0a5.73,5.73,0,0,1,3.66,3.51,10.34,10.34,0,0,1-3.38,11.79,5.43,5.43,0,0,1-8.62-2.47Zm-2.51,1.74-24.27-7h0l-3.55-1v-4.83a18.42,18.42,0,0,1,4.16-11.66L120,121l-.1.07a10,10,0,0,0-.91.65l-.15.12c-.27.23-.54.46-.79.71l-.15.15c-.28.28-.54.59-.8.9l-.16.21c-.25.34-.5.68-.73,1s-.32.54-.47.82a13.71,13.71,0,0,0-1,2.64,12.77,12.77,0,0,0,.36,8.43c.08.2.17.4.26.59Zm-66,1.89a5.73,5.73,0,0,1-5-1,10.33,10.33,0,0,1-3.38-11.79,5.75,5.75,0,0,1,3.66-3.51,5.06,5.06,0,0,1,.88-.16h.24a4.7,4.7,0,0,1,.65,0l.32,0a5.4,5.4,0,0,1,.78.16l.15,0a6.37,6.37,0,0,1,.91.36c.09,0,.17.1.26.15a5.63,5.63,0,0,1,.62.37l.31.22c.19.14.37.29.54.44l.3.27c.18.18.35.37.52.57l.24.27c.24.31.47.63.68,1a10.68,10.68,0,0,1,1.19,2.7,9.78,9.78,0,0,1-.25,6.45,5.75,5.75,0,0,1-3.66,3.51ZM44.58,117a5.78,5.78,0,0,1-3.66-3.51,9.84,9.84,0,0,1-.24-6.45,10.68,10.68,0,0,1,1.19-2.7,7.46,7.46,0,0,1,6-3.87,5.33,5.33,0,0,1,1.37.19l30.89,8.86h0l3.47,1L88.57,112a21.42,21.42,0,0,0-4.07,12.55v4L49.32,118.4h0ZM70.29,63.5a42.3,42.3,0,0,1-2.86-14.18c0-.59,0-1.17,0-1.83C68.27,29.74,84,21.44,89.54,19a44.73,44.73,0,0,0,13,29.52c1.16,1.15,1.91,1.8,2,1.85l.08.07h0a31,31,0,0,1-6.22,51.38A15.62,15.62,0,0,0,99,84.08L87.26,65.77a1.55,1.55,0,0,0-2.18-.35,1.41,1.41,0,0,0-.34.35L73,84.08A15.6,15.6,0,0,0,75,103.43l.34.33A31,31,0,0,1,54.88,65a30.56,30.56,0,0,1,2.38-5.66,33.35,33.35,0,0,0,2.17,8.45A5.83,5.83,0,0,0,70.29,63.5Zm6.87,37.8a12.55,12.55,0,0,1-1.67-15.59L86,69.35,96.51,85.71a12.55,12.55,0,0,1-1.67,15.59h0A12.51,12.51,0,0,1,77.16,101.3ZM55.7,136.87a12.8,12.8,0,0,0,.36-8.44A14,14,0,0,0,55,125.79c-.14-.28-.3-.55-.46-.81a12.43,12.43,0,0,0-.94-1.31l-.06-.09a13,13,0,0,0-1-1.08l-.07-.08,27.71,8-24.73,7.08C55.53,137.26,55.61,137.07,55.7,136.87Zm70.47-19.7-4.29,1.23-21.65-6.2L94,110.42a18.44,18.44,0,0,1,7.1-3.76l20.35-5.83c2.6-.75,5.57.73,7.4,3.68a10.68,10.68,0,0,1,1.19,2.7,9.84,9.84,0,0,1-.25,6.45A5.75,5.75,0,0,1,126.17,117.17Zm-7.67-43a34,34,0,0,0-12-25.93l-1,1.14,1-1.15-.08-.07s-.71-.61-1.79-1.69A41.69,41.69,0,0,1,92.5,17.05V6.24a78.25,78.25,0,0,1,44.67,20.35A54.35,54.35,0,0,1,142.5,50.2a55,55,0,0,1-40.28,52.92A34,34,0,0,0,118.5,74.12ZM84,5.78c1.85,0,3.68.08,5.5.21v9.82c-4.74,1.87-24.09,10.76-25,31.63,0,.63,0,1.27,0,1.91a45.41,45.41,0,0,0,3,15.19,2.83,2.83,0,0,1-3.61,3.67,2.74,2.74,0,0,1-1.65-1.58,30.33,30.33,0,0,1-2.2-12,1.51,1.51,0,0,0-1.47-1.53,1.48,1.48,0,0,0-1.23.6,34,34,0,0,0,3.11,44.43,34.55,34.55,0,0,0,4.89,4.06L50.1,97.82a7.85,7.85,0,0,0-2.36-.3H6.64A78.38,78.38,0,0,1,84,5.78ZM7.2,100.51H41.14a12.55,12.55,0,0,0-1.82,2.29,13.35,13.35,0,0,0-1.52,3.46,12.77,12.77,0,0,0,.36,8.43,8.69,8.69,0,0,0,5.6,5.24l.12,0-.12,0h0a8.67,8.67,0,0,0-5.6,5.24,13.33,13.33,0,0,0,4.41,15.39,9.21,9.21,0,0,0,5.3,1.79,8.39,8.39,0,0,0,2.23-.31h0l34.39-9.86v30.52l-.5,0A78.62,78.62,0,0,1,7.2,100.51Zm80.3,62.18V132.47L120.66,142a7.94,7.94,0,0,0,2.22.31,9.17,9.17,0,0,0,5.31-1.79,13.32,13.32,0,0,0,4.41-15.39,8.75,8.75,0,0,0-5.34-5.15,8.74,8.74,0,0,0,5.34-5.14,12.8,12.8,0,0,0,.36-8.44,14,14,0,0,0-1.52-3.45c-2.54-4.1-6.88-6.11-10.78-5l-.57.16a57.89,57.89,0,0,0,22.52-66A78.44,78.44,0,0,1,87.5,162.69Z"/><path class="cls-4" d="M131.52,105.79a12.23,12.23,0,0,0-1.36-3.07c-2.12-3.43-5.74-5.29-9.09-4.33l-24.86,7.13a13.69,13.69,0,0,1,3.79-3.83,32.48,32.48,0,0,0,5.52-53.35l-.1-.09s-.73-.63-1.86-1.76A42.91,42.91,0,0,1,91,16.05v-.2c-1.07.36-24,8.4-25,30.57v.09c0,.6,0,1.21,0,1.82a43.5,43.5,0,0,0,3,14.69,4.34,4.34,0,0,1-8.07,3.17,32.15,32.15,0,0,1-2.3-12.6h0A32.41,32.41,0,0,0,68,101.11a14.33,14.33,0,0,1,3.46,3.4L49.68,98.26c-3.34-1-7,.9-9.09,4.33a12.43,12.43,0,0,0-1.35,3.08c-1.52,5.31.68,10.6,4.93,11.82l5,1.44-.1.1-4.93,1.41c3.35-1,7,.9,9.09,4.33a12.3,12.3,0,0,1,1.36,3.08c1.52,5.3-.69,10.6-4.94,11.81l35.7-10.23.22-.06,35.47,10.17c-4.25-1.22-6.45-6.51-4.93-11.82a12.43,12.43,0,0,1,1.35-3.08c2.13-3.43,5.75-5.29,9.09-4.33l-4.7-1.35,4.7-1.35C130.83,116.39,133,111.1,131.52,105.79Zm-57.3-21.9L86,65.58,97.78,83.89a14,14,0,0,1-1.88,17.47h0a14,14,0,0,1-19.8,0h0a14,14,0,0,1-1.88-17.47Z"/><path class="cls-5" d="M85.6,129.37l35.47,10.17c-4.24-1.22-6.45-6.51-4.93-11.82a12.43,12.43,0,0,1,1.35-3.08c2.13-3.43,5.75-5.29,9.09-4.33l-4.7-1.35,4.7-1.35c4.25-1.22,6.46-6.51,4.94-11.81a12.3,12.3,0,0,0-1.36-3.08c-2.12-3.43-5.74-5.29-9.09-4.33l-24.86,7.13a13.69,13.69,0,0,1,3.79-3.83,32.48,32.48,0,0,0,5.52-53.35l-.1-.09s-.73-.63-1.86-1.76A42.91,42.91,0,0,1,91,16.05v-.2c-1.07.36-24,8.4-25,30.57v.09c0,.6,0,1.21,0,1.82a43.5,43.5,0,0,0,3,14.69,4.34,4.34,0,0,1-8.07,3.17,32.15,32.15,0,0,1-2.3-12.6h0A32.41,32.41,0,0,0,68,101.11a14.33,14.33,0,0,1,3.46,3.4L49.68,98.26c-3.34-1-7,.9-9.09,4.33a12.43,12.43,0,0,0-1.35,3.08c-1.52,5.31.68,10.6,4.93,11.82l5,1.44-.1.1-4.93,1.41c3.35-1,7,.9,9.09,4.33a12.3,12.3,0,0,1,1.36,3.08c1.52,5.3-.69,10.6-4.94,11.81l35.7-10.23Zm15.81-22.74,20.35-5.84a4.11,4.11,0,0,1,1.1-.15A6.49,6.49,0,0,1,128,104a10.1,10.1,0,0,1,1.08,2.45,8.88,8.88,0,0,1-.21,5.8,4.81,4.81,0,0,1-3,2.93l-4,1.15L96.23,109a17.32,17.32,0,0,1,5.18-2.39Zm16.41,13.77c-.16.14-.33.3-.5.47l-.13.13a11.34,11.34,0,0,0-.85,1l-.18.22c-.28.37-.55.75-.79,1.14s-.34.57-.5.87a15.06,15.06,0,0,0-1.13,2.83,14,14,0,0,0-.07,7.79L88.5,127.6v-4.08A17.54,17.54,0,0,1,92,113Zm-21.92-19h0a14,14,0,0,1-19.8,0h0a14,14,0,0,1-1.88-17.47L86,65.58,97.78,83.89A14,14,0,0,1,95.9,101.36ZM63.26,94.29A30,30,0,0,1,56.8,61.56a34.66,34.66,0,0,0,1.7,5.56,6.83,6.83,0,0,0,6.32,4.26h0a6.91,6.91,0,0,0,3.33-.86,6.8,6.8,0,0,0,3.08-8.37,41.28,41.28,0,0,1-2.8-13.84c0-.58,0-1.14,0-1.77.25-5.5,2.74-18.93,20.18-27a46,46,0,0,0,13.15,28.73c1.08,1.07,1.82,1.72,2,1.88l.11.1a30,30,0,0,1-2.81,47.87,16.56,16.56,0,0,0-1.21-15.57L88.1,64.22a2.54,2.54,0,0,0-3.55-.64,2.33,2.33,0,0,0-.65.64L72.12,82.54a16.62,16.62,0,0,0,.07,17.94A30.18,30.18,0,0,1,63.26,94.29Zm-6.18,40.65a14.09,14.09,0,0,0-.06-7.78,15.06,15.06,0,0,0-1.13-2.83c-.16-.3-.33-.6-.5-.88l-.12-.18,21.26,6.09Zm26.42-8.78L44.86,115.08a4.79,4.79,0,0,1-3-2.93,8.84,8.84,0,0,1-.21-5.79,9.77,9.77,0,0,1,1.08-2.45,6.5,6.5,0,0,1,5.18-3.4,4,4,0,0,1,1.09.15l38,10.89a22.34,22.34,0,0,0-3.47,12Z"/><path class="cls-6" d="M84,1.78a81.5,81.5,0,1,0,81.5,81.5h0A81.59,81.59,0,0,0,84,1.78Zm33.83,132.81a9.81,9.81,0,0,1-.25-6.46,10.68,10.68,0,0,1,1.19-2.7,9.11,9.11,0,0,1,.68-1l.24-.28a7,7,0,0,1,.52-.56l.3-.28c.17-.15.35-.3.53-.43l.32-.23a5.51,5.51,0,0,1,.61-.37l.27-.15a7.17,7.17,0,0,1,.91-.36l.14,0a5.29,5.29,0,0,1,.79-.17l.31,0a4.85,4.85,0,0,1,.66,0l.24,0a4.09,4.09,0,0,1,.85.15h0a5.73,5.73,0,0,1,3.66,3.51,10.34,10.34,0,0,1-3.38,11.79,5.43,5.43,0,0,1-8.62-2.47Zm-2.51,1.74-24.27-7h0l-3.55-1v-4.83a18.42,18.42,0,0,1,4.16-11.66L120,120l-.1.07a10,10,0,0,0-.91.65l-.15.12c-.27.23-.54.46-.79.71l-.15.15c-.28.28-.54.59-.8.9l-.16.21c-.25.34-.5.68-.73,1s-.32.54-.47.82a13.71,13.71,0,0,0-1,2.64,12.77,12.77,0,0,0,.36,8.43c.08.2.17.4.26.59Zm-66,1.89a5.73,5.73,0,0,1-5-1,10.33,10.33,0,0,1-3.38-11.79,5.75,5.75,0,0,1,3.66-3.51,5.06,5.06,0,0,1,.88-.16h.24a4.7,4.7,0,0,1,.65,0l.32,0a5.4,5.4,0,0,1,.78.16l.15,0a6.37,6.37,0,0,1,.91.36c.09,0,.17.1.26.15a5.63,5.63,0,0,1,.62.37l.31.22c.19.14.37.29.54.44l.3.27c.18.18.35.37.52.57l.24.27c.24.31.47.63.68,1a10.68,10.68,0,0,1,1.19,2.7,9.78,9.78,0,0,1-.25,6.45,5.75,5.75,0,0,1-3.66,3.51ZM44.58,116a5.78,5.78,0,0,1-3.66-3.51,9.84,9.84,0,0,1-.24-6.45,10.68,10.68,0,0,1,1.19-2.7,7.46,7.46,0,0,1,6-3.87,5.33,5.33,0,0,1,1.37.19l30.89,8.86h0l3.47,1L88.57,111a21.42,21.42,0,0,0-4.07,12.55v4L49.32,117.4h0ZM70.29,62.5a42.3,42.3,0,0,1-2.86-14.18c0-.59,0-1.17,0-1.83C68.27,28.74,84,20.44,89.54,18a44.73,44.73,0,0,0,13,29.52c1.16,1.15,1.91,1.8,2,1.85l.08.07h0a31,31,0,0,1-6.22,51.38A15.62,15.62,0,0,0,99,83.08L87.26,64.77a1.55,1.55,0,0,0-2.18-.35,1.41,1.41,0,0,0-.34.35L73,83.08A15.6,15.6,0,0,0,75,102.43l.34.33A31,31,0,0,1,54.88,64a30.56,30.56,0,0,1,2.38-5.66,33.35,33.35,0,0,0,2.17,8.45A5.83,5.83,0,0,0,70.29,62.5Zm6.87,37.8a12.55,12.55,0,0,1-1.67-15.59L86,68.35,96.51,84.71a12.55,12.55,0,0,1-1.67,15.59h0A12.51,12.51,0,0,1,77.16,100.3ZM55.7,135.87a12.8,12.8,0,0,0,.36-8.44A14,14,0,0,0,55,124.79c-.14-.28-.3-.55-.46-.81a12.43,12.43,0,0,0-.94-1.31l-.06-.09a13,13,0,0,0-1-1.08l-.07-.08,27.71,8-24.73,7.08C55.53,136.26,55.61,136.07,55.7,135.87Zm70.47-19.7-4.29,1.23-21.65-6.2L94,109.42a18.44,18.44,0,0,1,7.1-3.76l20.35-5.83c2.6-.75,5.57.73,7.4,3.68a10.68,10.68,0,0,1,1.19,2.7,9.84,9.84,0,0,1-.25,6.45A5.75,5.75,0,0,1,126.17,116.17Zm-7.67-43a34,34,0,0,0-12-25.93l-1,1.14,1-1.15-.08-.07s-.71-.61-1.79-1.69A41.69,41.69,0,0,1,92.5,16.05V5.24a78.25,78.25,0,0,1,44.67,20.35A54.35,54.35,0,0,1,142.5,49.2a55,55,0,0,1-40.28,52.92A34,34,0,0,0,118.5,73.12ZM84,4.78c1.85,0,3.68.08,5.5.21v9.82c-4.74,1.87-24.09,10.76-25,31.63,0,.63,0,1.27,0,1.91a45.41,45.41,0,0,0,3,15.19,2.83,2.83,0,0,1-3.61,3.67,2.74,2.74,0,0,1-1.65-1.58,30.33,30.33,0,0,1-2.2-12,1.51,1.51,0,0,0-1.47-1.53,1.48,1.48,0,0,0-1.23.6,34,34,0,0,0,3.11,44.43,34.55,34.55,0,0,0,4.89,4.06L50.1,96.82a7.85,7.85,0,0,0-2.36-.3H6.64A78.38,78.38,0,0,1,84,4.78ZM7.2,99.51H41.14a12.55,12.55,0,0,0-1.82,2.29,13.35,13.35,0,0,0-1.52,3.46,12.77,12.77,0,0,0,.36,8.43,8.69,8.69,0,0,0,5.6,5.24l.12,0-.12,0h0a8.67,8.67,0,0,0-5.6,5.24,13.33,13.33,0,0,0,4.41,15.39,9.21,9.21,0,0,0,5.3,1.79,8.39,8.39,0,0,0,2.23-.31h0l34.39-9.86v30.52l-.5,0A78.62,78.62,0,0,1,7.2,99.51Zm80.3,62.18V131.47L120.66,141a7.94,7.94,0,0,0,2.22.31,9.17,9.17,0,0,0,5.31-1.79,13.32,13.32,0,0,0,4.41-15.39,8.75,8.75,0,0,0-5.34-5.15,8.74,8.74,0,0,0,5.34-5.14,12.8,12.8,0,0,0,.36-8.44,14,14,0,0,0-1.52-3.45c-2.54-4.1-6.88-6.11-10.78-5l-.57.16a57.89,57.89,0,0,0,22.52-66A78.44,78.44,0,0,1,87.5,161.69Z"/><g class="cls-7"><path id="FOR_LINE_WORK_CIRCLE" data-name="FOR LINE WORK CIRCLE" class="cls-8" d="M34.62,12A87.61,87.61,0,0,0,12,36.22L131.78,156A87.61,87.61,0,0,0,156,133.38Z"/></g><path class="cls-9" d="M52.52,121.5a13,13,0,0,1,1,1.08l.06.09a12.43,12.43,0,0,1,.94,1.31c.16.26.32.53.46.81a14,14,0,0,1,1.59,5.9,13.88,13.88,0,0,0-1.59-6.4c-.14-.28-.3-.55-.46-.81a12.43,12.43,0,0,0-.94-1.31l-.06-.09c-.15-.17-.3-.32-.45-.48l-.64-.18Z"/><path class="cls-9" d="M40.69,99.51a12,12,0,0,0-1.37,1.79,13.74,13.74,0,0,0-2,7.22,14,14,0,0,1,2-6.72,12.55,12.55,0,0,1,1.82-2.29Z"/><path class="cls-9" d="M80.16,129.37l-.88-.25-23.59,6.76c-.08.2-.17.39-.26.57Z"/><path class="cls-9" d="M49.27,137.72a5.73,5.73,0,0,1-5-1,9.78,9.78,0,0,1-3.63-5.34,10.64,10.64,0,0,1-.42-2.86,10.62,10.62,0,0,0,.42,3.36,9.78,9.78,0,0,0,3.63,5.34,5.43,5.43,0,0,0,7.65-.72,5.37,5.37,0,0,0,1-1.75,9,9,0,0,0,.66-3.58,8.81,8.81,0,0,1-.66,3.08A5.75,5.75,0,0,1,49.27,137.72Z"/><path class="cls-9" d="M98.33,100.86A31,31,0,0,0,115.5,73.12c0-.1,0-.19,0-.29a31,31,0,0,1-16.6,27.22C98.71,100.32,98.53,100.6,98.33,100.86Z"/><path class="cls-9" d="M53.51,72.82c0,.07,0,.13,0,.2a31.09,31.09,0,0,0,21.88,29.74l-.34-.33-.38-.42A31,31,0,0,1,53.51,72.82Z"/><path class="cls-9" d="M142.85,31.41l-.24-.28A57.56,57.56,0,0,1,145.5,49V48.7A57.56,57.56,0,0,0,142.85,31.41Z"/><path class="cls-9" d="M38.16,123.74a12,12,0,0,0-.89,5.17,11.87,11.87,0,0,1,.89-4.67,8.67,8.67,0,0,1,5.6-5.24h0l.12,0-.12,0a6.32,6.32,0,0,1-.61-.22A8.79,8.79,0,0,0,38.16,123.74Z"/><path class="cls-9" d="M87.5,161.19v.5a78.59,78.59,0,0,0,75-78.41c0-.09,0-.17,0-.26A78.59,78.59,0,0,1,87.5,161.19Z"/><path class="cls-9" d="M84,1.78A81.58,81.58,0,0,1,165.49,83c0-.09,0-.17,0-.25a81.5,81.5,0,0,0-163,0c0,.08,0,.16,0,.25A81.58,81.58,0,0,1,84,1.78Z"/><path class="cls-9" d="M116.22,123.85c.23-.37.48-.71.73-1l.16-.21c.26-.31.52-.62.8-.9l.15-.15a10.55,10.55,0,0,1,.79-.71l.15-.12a10,10,0,0,1,.91-.65l.1-.07-.5-.15c-.17.12-.35.24-.51.37l-.15.12c-.27.23-.54.46-.79.71l-.15.15c-.28.28-.54.59-.8.9l-.16.21c-.25.34-.5.68-.73,1s-.32.54-.47.82a13.84,13.84,0,0,0-1.58,6.4,14.1,14.1,0,0,1,1.58-5.9C115.9,124.39,116.06,124.12,116.22,123.85Z"/><path class="cls-9" d="M106.49,47.19a33.93,33.93,0,0,1,12,25.65c0-.07,0-.15,0-.22a34,34,0,0,0-12-25.93l-.24.29.15.13.08.07-1,1.16Z"/><path class="cls-9" d="M103.62,101.2c-.46.32-.92.63-1.4.92A55,55,0,0,0,142.5,49.2c0-.08,0-.15,0-.22A55,55,0,0,1,103.62,101.2Z"/><path class="cls-9" d="M59,52.17a1.51,1.51,0,0,1,1,1.45,30.33,30.33,0,0,0,2.2,12,2.74,2.74,0,0,0,1.65,1.58,2.82,2.82,0,0,0,3.77-2.91,2.76,2.76,0,0,1-1.43,2.22,2.82,2.82,0,0,1-2.34.19,2.74,2.74,0,0,1-1.65-1.58,30.33,30.33,0,0,1-2.2-12,1.51,1.51,0,0,0-1.47-1.53,1.49,1.49,0,0,0-1.23.6A33.71,33.71,0,0,0,50.5,72.51c0,.11,0,.22,0,.33a33.61,33.61,0,0,1,6.81-20.15A1.51,1.51,0,0,1,59,52.17Z"/><path class="cls-9" d="M84,161.78l.5,0v-.5l-.5,0A78.62,78.62,0,0,1,7.32,99.51H7.2A78.62,78.62,0,0,0,84,161.78Z"/><path class="cls-9" d="M84.5,127,49.32,116.9h0l-4.73-1.36A5.73,5.73,0,0,1,40.93,112a8.82,8.82,0,0,1-.67-3.08,8.94,8.94,0,0,0,.67,3.58A5.73,5.73,0,0,0,44.59,116l4.73,1.36h0L84.5,127.49Z"/><path class="cls-9" d="M121.49,138.09a5.77,5.77,0,0,0,5-1,9.83,9.83,0,0,0,3.63-5.34,11,11,0,0,0,.41-3.37,11.18,11.18,0,0,1-.41,2.87,9.83,9.83,0,0,1-3.63,5.34,5.43,5.43,0,0,1-7.65-.73,5.33,5.33,0,0,1-1-1.74,8.92,8.92,0,0,1-.67-3.09,9,9,0,0,0,.67,3.59A5.74,5.74,0,0,0,121.49,138.09Z"/><path class="cls-9" d="M92.5,16.05a41.69,41.69,0,0,0,12.11,29.37c.79.78,1.37,1.31,1.63,1.55l.24-.29-.08-.07s-.71-.61-1.79-1.69A41.69,41.69,0,0,1,92.5,15.55Z"/><path class="cls-9" d="M6.64,96.51h41.1a7.85,7.85,0,0,1,2.36.3l15.22,4.36c-.39-.26-.77-.54-1.15-.83l-14.07-4a7.85,7.85,0,0,0-2.36-.3H6.64A77.18,77.18,0,0,1,5.51,83c0,.08,0,.16,0,.24A79.31,79.31,0,0,0,6.64,96.51Z"/><path class="cls-9" d="M133,104.88a14,14,0,0,0-1.52-3.45c-2.42-3.91-6.47-5.91-10.22-5.12-.38.27-.75.54-1.14.8l.58-.16c3.9-1.13,8.24.88,10.78,5a14,14,0,0,1,2.05,6.71A13.66,13.66,0,0,0,133,104.88Z"/><path class="cls-9" d="M88.29,110.89A21.44,21.44,0,0,0,84.5,123v.5A21.42,21.42,0,0,1,88.57,111Z"/><path class="cls-9" d="M89.5,14.31c-4.74,1.87-24.09,10.76-25,31.63,0,.63,0,1.27,0,1.91,0,0,0,.1,0,.15,0-.52,0-1,0-1.56,1-20.87,20.3-29.76,25-31.63Z"/><path class="cls-9" d="M70.29,62.5a5.61,5.61,0,0,1,.36,1.82A5.73,5.73,0,0,0,70.29,62a42.63,42.63,0,0,1-2.86-14.16v.48A42.3,42.3,0,0,0,70.29,62.5Z"/><path class="cls-9" d="M87.26,64.27a1.55,1.55,0,0,0-2.18-.35,1.41,1.41,0,0,0-.34.35L73,82.58a15.55,15.55,0,0,0-2.43,8.85A15.52,15.52,0,0,1,73,83.08L84.74,64.77a1.55,1.55,0,0,1,2.18-.35,1.41,1.41,0,0,1,.34.35L99,83.08a15.45,15.45,0,0,1,2.43,7.83A15.47,15.47,0,0,0,99,82.58Z"/><path class="cls-9" d="M132.6,123.61a8.86,8.86,0,0,0-4.7-4.9c-.21.09-.42.18-.64.25a8.75,8.75,0,0,1,5.34,5.15,12,12,0,0,1,.89,4.67A12.19,12.19,0,0,0,132.6,123.61Z"/><path class="cls-9" d="M129.83,112.66a9,9,0,0,0,.66-3.59,8.86,8.86,0,0,1-.66,3.09,5.75,5.75,0,0,1-3.66,3.51l-4.29,1.23-21.65-6.2-5.71-1.64c-.16.12-.33.23-.48.36l6.19,1.78,21.65,6.2,4.29-1.23A5.75,5.75,0,0,0,129.83,112.66Z"/><path class="cls-9" d="M94.84,100.3h0a12.47,12.47,0,0,0,3.63-8.94,12.47,12.47,0,0,1-3.63,8.44h0a12.48,12.48,0,0,1-21.31-8.44,12.47,12.47,0,0,0,21.31,8.94Z"/><path class="cls-9" d="M91.05,129.37h0l24.27,7c-.09-.19-.17-.38-.26-.58l-24-6.88h0l-3.55-1v.5Z"/><path id="border" class="cls-10" d="M84,168a84,84,0,1,1,84-84A84,84,0,0,1,84,168ZM84,8a76,76,0,1,0,76,76A76,76,0,0,0,84,8Z"/><g id="border_highlight" data-name="border highlight"><path class="cls-11" d="M84,8A76,76,0,1,1,8,84,76,76,0,0,1,84,8m0-1a77,77,0,1,0,77,77A77,77,0,0,0,84,7Z"/></g><path id="outer_pink" data-name="outer pink" class="cls-12" d="M132,152.88v-10a75.82,75.82,0,0,1-96,0v10A83.75,83.75,0,0,0,132,152.88Z"/><g id="elipse" class="cls-13"><ellipse class="cls-14" cx="84.54" cy="141.81" rx="40.53" ry="19"/></g><path id="right_glare" data-name="right glare" class="cls-15" d="M153.6,131l-5.78-5.79a76.54,76.54,0,0,1-23.6,23.25l5.79,5.79A84.63,84.63,0,0,0,153.6,131Z"/><path id="left_glare" data-name="left glare" class="cls-16" d="M13.77,38l5.79,5.79a76.54,76.54,0,0,1,23.25-23.6L37,14.4A84.63,84.63,0,0,0,13.77,38Z"/><path id="top_halo" data-name="top halo" class="cls-17" d="M84,8a76.09,76.09,0,0,1,76,76h8A84,84,0,0,0,0,84H8A76.09,76.09,0,0,1,84,8Z"/></g></g></g></g></svg>