<svg xmlns="http://www.w3.org/2000/svg" xmlns:xlink="http://www.w3.org/1999/xlink" width="168" height="168" viewBox="0 0 168 168"><defs><style>.cls-1{fill:none;}.cls-2{fill:url(#linear-gradient);}.cls-3{opacity:0.3;}.cls-4{fill:#161b1f;}.cls-5{opacity:0.8;fill:url(#New_Gradient_Swatch_2);}.cls-6{opacity:0.3;}.cls-7{fill:url(#New_Gradient_Swatch_1);}.cls-8{fill:#fff;}.cls-9{clip-path:url(#clip-path);}.cls-10{fill:url(#linear-gradient-2);}.cls-11{fill:url(#linear-gradient-3);}.cls-12{fill:url(#radial-gradient);}.cls-13{fill:url(#linear-gradient-4);}.cls-14{fill:url(#linear-gradient-5);}.cls-15{opacity:0.7;fill:url(#linear-gradient-6);}.cls-16{fill:url(#linear-gradient-7);}.cls-17{opacity:0.4;fill:url(#linear-gradient-8);}</style><linearGradient id="linear-gradient" x1="84" y1="164" x2="84" y2="4" gradientUnits="userSpaceOnUse"><stop offset="0" stop-color="#333d45"/><stop offset="0.9988"/></linearGradient><linearGradient id="New_Gradient_Swatch_2" x1="83.9999" y1="138.2967" x2="83.9999" y2="36.7475" gradientUnits="userSpaceOnUse"><stop offset="0" stop-color="#ff602c"/><stop offset="1" stop-color="#e80a89"/></linearGradient><linearGradient id="New_Gradient_Swatch_1" x1="83.9999" y1="166.2478" x2="83.9999" y2="3.2478" gradientUnits="userSpaceOnUse"><stop offset="0" stop-color="#688199"/><stop offset="1" stop-color="#f7f9fa"/></linearGradient><clipPath id="clip-path"><path class="cls-1" d="M164.2656,79.5964,137.1577,26.18a41.9366,41.9366,0,0,0-37.65-22.9326H68.4926A41.9353,41.9353,0,0,0,30.8423,26.18L3.7339,79.5964a11.42,11.42,0,0,0,0,10.3018l27.1084,53.417a41.9364,41.9364,0,0,0,37.65,22.9326H99.5073a41.9383,41.9383,0,0,0,37.65-22.9326l27.1079-53.417A11.4177,11.4177,0,0,0,164.2656,79.5964ZM134.4829,27.5378l13.9435,27.4756A43.1874,43.1874,0,0,1,144,55.2478a42.5481,42.5481,0,0,1-42.5-42.5,42.9762,42.9762,0,0,1,.4906-6.4151A38.8814,38.8814,0,0,1,134.4829,27.5378Zm-25.4556,78.3555,5.8628,29.5058L88.64,120.7048l-.0128-.0058-3.3265-1.8624A138.6709,138.6709,0,0,1,58.915,99.6658l-2.81-2.5987h0l-1.69-1.563-14.74-13.6313h0l-5.6556-5.23,28.22-3.3457.002-.0005L63.8921,73.1A9.56,9.56,0,0,0,71.4,67.6452L84,40.3288,96.6,67.6452A9.5605,9.5605,0,0,0,104.1079,73.1l29.874,3.542L111.895,97.0671A9.561,9.561,0,0,0,109.0273,105.8933Zm-50.0552,0a9.34,9.34,0,0,0,.16-2.001,141.7156,141.7156,0,0,0,22.0824,16.043,9.3438,9.3438,0,0,0-1.8548.77h-.0005l-26.25,14.6933ZM33.5171,27.5378a38.9511,38.9511,0,0,1,34.9755-21.29H82.4655L82.5,36.4192l-13.8243,29.97a6.5422,6.5422,0,0,1-5.1368,3.7324l-33.103,3.9248-.0018.0005L8.6,76.636l9.2592-18.2452A22.0871,22.0871,0,0,1,37.644,46.2478H39a7.5082,7.5082,0,0,1,7.5,7.5v3a1.5,1.5,0,0,0,3,0v-3a7.5081,7.5081,0,0,1,7.5-7.5h3a1.5,1.5,0,0,0,0-3H57a7.5082,7.5082,0,0,1-7.5-7.5v-3a1.5,1.5,0,0,0-3,0v3a7.5083,7.5083,0,0,1-7.5,7.5H36a1.4893,1.4893,0,0,0-.5209.0981,25.0641,25.0641,0,0,0-12.2117,4.3882Zm10.8867,17.21A10.5823,10.5823,0,0,0,48,41.1511a10.5823,10.5823,0,0,0,3.5962,3.5967A10.5823,10.5823,0,0,0,48,48.3445,10.5823,10.5823,0,0,0,44.4038,44.7478Zm55.1035,118.5H85.4707l.0293-6.4932h-.0007l.0007-.0068v-3a7.5081,7.5081,0,0,1,7.5-7.5h3a1.5,1.5,0,0,0,0-3H93a7.5082,7.5082,0,0,1-7.5-7.5v-3a1.5,1.5,0,0,0-3,0v3a7.5083,7.5083,0,0,1-7.5,7.5H72a1.5,1.5,0,0,0,0,3h3a7.5082,7.5082,0,0,1,7.5,7.5v2.9931l-.0294,6.5069H68.4926a38.9521,38.9521,0,0,1-34.9755-21.29L6.4087,88.5408a8.4129,8.4129,0,0,1,0-7.587l.56-1.1045,23.1324-2.7421,7.5354,6.9682,0,.0005L54.068,99.27a6.54,6.54,0,0,1,1.9618,6.0391l-6.4966,32.6953a1.4995,1.4995,0,0,0,2.2041,1.6006L80.8247,123.323a6.5434,6.5434,0,0,1,6.3495,0l1.8264,1.0219L99.1033,130l.0021.0015,31.7306,17.7617A39.0379,39.0379,0,0,1,99.5073,163.2478ZM84,148.3445a10.5823,10.5823,0,0,0-3.5962-3.5967A10.5823,10.5823,0,0,0,84,141.1511a10.5823,10.5823,0,0,0,3.5962,3.5967A10.5823,10.5823,0,0,0,84,148.3445Zm77.5908-59.8037-27.1079,53.4169c-.5858,1.1543-1.2414,2.2549-1.9278,3.33l-14.2236-7.9614L111.97,105.3093a6.5422,6.5422,0,0,1,1.9624-6.0391l24.4741-22.6328a1.5,1.5,0,0,0-.8418-2.5908l-33.103-3.9248a6.5434,6.5434,0,0,1-5.1372-3.7324L85.5,36.4177l-.0341-30.17H98.9668a46.0486,46.0486,0,0,0-.4668,6.5,45.5514,45.5514,0,0,0,45.5,45.5,45.9454,45.9454,0,0,0,5.8728-.3843l11.718,23.09A8.4129,8.4129,0,0,1,161.5908,88.5408Z"/></clipPath><linearGradient id="linear-gradient-2" x1="70.2321" y1="99.0529" x2="94.6593" y2="74.6258" gradientUnits="userSpaceOnUse"><stop offset="0.25" stop-color="#f7f9fa" stop-opacity="0"/><stop offset="0.5" stop-color="#fff"/><stop offset="0.75" stop-color="#bee6fa" stop-opacity="0"/></linearGradient><linearGradient id="linear-gradient-3" x1="84" y1="168" x2="84" y2="0" xlink:href="#New_Gradient_Swatch_1"/><radialGradient id="radial-gradient" cx="-115.1771" cy="2003.6989" fy="2021.7534700856568" r="20.2667" gradientTransform="translate(359.2856 -1734.4677) scale(2.3947 0.9375)" gradientUnits="userSpaceOnUse"><stop offset="0" stop-color="#fff"/><stop offset="0.6802" stop-color="#e78bad" stop-opacity="0"/></radialGradient><linearGradient id="linear-gradient-4" x1="36" y1="154.2754" x2="132" y2="154.2754" gradientUnits="userSpaceOnUse"><stop offset="0" stop-color="#e8749f" stop-opacity="0"/><stop offset="0.5" stop-color="#f7f9fa"/><stop offset="1" stop-color="#e8749f" stop-opacity="0"/></linearGradient><linearGradient id="linear-gradient-5" x1="84" y1="160.9999" x2="84" y2="6.9999" gradientUnits="userSpaceOnUse"><stop offset="0" stop-color="#f7f9fa"/><stop offset="1" stop-color="#f7f9fa" stop-opacity="0"/></linearGradient><linearGradient id="linear-gradient-6" x1="123.5526" y1="151.3005" x2="146.9938" y2="127.8594" xlink:href="#linear-gradient-2"/><linearGradient id="linear-gradient-7" x1="17.4472" y1="45.1952" x2="40.8884" y2="21.754" xlink:href="#linear-gradient-2"/><linearGradient id="linear-gradient-8" x1="84" y1="84" x2="84" gradientUnits="userSpaceOnUse"><stop offset="0" stop-color="#e8749f" stop-opacity="0"/><stop offset="1" stop-color="#f7f9fa"/></linearGradient></defs><g id="Layer_2" data-name="Layer 2"><g id="Layer_1-2" data-name="Layer 1"><path class="cls-2" d="M68.4849,164a40.4456,40.4456,0,0,1-36.313-22.1113L5.064,88.4727a9.9189,9.9189,0,0,1,0-8.9454l27.1079-53.416A40.4456,40.4456,0,0,1,68.4849,4h31.03a40.4455,40.4455,0,0,1,36.313,22.1113l27.1084,53.417a9.9184,9.9184,0,0,1,0,8.9444l-27.1079,53.416A40.4455,40.4455,0,0,1,99.5151,164Z"/><g class="cls-3"><path d="M99.515,9a35.4692,35.4692,0,0,1,31.8543,19.3745L158.4772,81.79a4.9,4.9,0,0,1,0,4.419l-27.1079,53.416A35.47,35.47,0,0,1,99.515,159h-31.03a35.4693,35.4693,0,0,1-31.8543-19.3745L9.5232,86.21a4.9,4.9,0,0,1,0-4.42l27.1079-53.416A35.4693,35.4693,0,0,1,68.4849,9h31.03m0-1h-31.03A36.4649,36.4649,0,0,0,35.7388,27.9218L8.6309,81.3378a5.9042,5.9042,0,0,0,0,5.3252l27.1074,53.415A36.4649,36.4649,0,0,0,68.4849,160h31.03a36.4647,36.4647,0,0,0,32.7461-19.9219L159.369,86.662a5.9052,5.9052,0,0,0,0-5.3242l-27.1079-53.416A36.4647,36.4647,0,0,0,99.515,8Z"/></g><path class="cls-4" d="M164.2656,80.5964,137.1577,27.18a41.9366,41.9366,0,0,0-37.65-22.9326H68.4926A41.9353,41.9353,0,0,0,30.8423,27.18L3.7339,80.5964a11.42,11.42,0,0,0,0,10.3018l27.1084,53.417a41.9364,41.9364,0,0,0,37.65,22.9326H99.5073a41.9383,41.9383,0,0,0,37.65-22.9326l27.1079-53.417A11.4177,11.4177,0,0,0,164.2656,80.5964ZM134.4829,28.5378l13.9435,27.4756A43.1874,43.1874,0,0,1,144,56.2478a42.5481,42.5481,0,0,1-42.5-42.5,42.9762,42.9762,0,0,1,.4906-6.4151A38.8814,38.8814,0,0,1,134.4829,28.5378Zm-25.4556,78.3555,5.8628,29.5058L88.64,121.7048l-.0128-.0058-3.3265-1.8624A138.6709,138.6709,0,0,1,58.915,100.6658l-2.81-2.5987h0l-1.69-1.563-14.74-13.6313h0l-5.6556-5.23,28.22-3.3457.002-.0005L63.8921,74.1A9.56,9.56,0,0,0,71.4,68.6452L84,41.3288,96.6,68.6452A9.5605,9.5605,0,0,0,104.1079,74.1l29.874,3.542L111.895,98.0671A9.561,9.561,0,0,0,109.0273,106.8933Zm-50.0552,0a9.34,9.34,0,0,0,.16-2.001,141.7156,141.7156,0,0,0,22.0824,16.043,9.3438,9.3438,0,0,0-1.8548.77h-.0005l-26.25,14.6933ZM33.5171,28.5378a38.9511,38.9511,0,0,1,34.9755-21.29H82.4655L82.5,37.4192l-13.8243,29.97a6.5422,6.5422,0,0,1-5.1368,3.7324l-33.103,3.9248-.0018.0005L8.6,77.636l9.2592-18.2452A22.0871,22.0871,0,0,1,37.644,47.2478H39a7.5082,7.5082,0,0,1,7.5,7.5v3a1.5,1.5,0,0,0,3,0v-3a7.5081,7.5081,0,0,1,7.5-7.5h3a1.5,1.5,0,0,0,0-3H57a7.5082,7.5082,0,0,1-7.5-7.5v-3a1.5,1.5,0,0,0-3,0v3a7.5083,7.5083,0,0,1-7.5,7.5H36a1.4893,1.4893,0,0,0-.5209.0981,25.0641,25.0641,0,0,0-12.2117,4.3882Zm10.8867,17.21A10.5823,10.5823,0,0,0,48,42.1511a10.5823,10.5823,0,0,0,3.5962,3.5967A10.5823,10.5823,0,0,0,48,49.3445,10.5823,10.5823,0,0,0,44.4038,45.7478Zm55.1035,118.5H85.4707l.0293-6.4932h-.0007l.0007-.0068v-3a7.5081,7.5081,0,0,1,7.5-7.5h3a1.5,1.5,0,0,0,0-3H93a7.5082,7.5082,0,0,1-7.5-7.5v-3a1.5,1.5,0,0,0-3,0v3a7.5083,7.5083,0,0,1-7.5,7.5H72a1.5,1.5,0,0,0,0,3h3a7.5082,7.5082,0,0,1,7.5,7.5v2.9931l-.0294,6.5069H68.4926a38.9521,38.9521,0,0,1-34.9755-21.29L6.4087,89.5408a8.4129,8.4129,0,0,1,0-7.587l.56-1.1045,23.1324-2.7421,7.5354,6.9682,0,.0005L54.068,100.27a6.54,6.54,0,0,1,1.9618,6.0391l-6.4966,32.6953a1.4995,1.4995,0,0,0,2.2041,1.6006L80.8247,124.323a6.5434,6.5434,0,0,1,6.3495,0l1.8264,1.0219L99.1033,131l.0021.0015,31.7306,17.7617A39.0379,39.0379,0,0,1,99.5073,164.2478ZM84,149.3445a10.5823,10.5823,0,0,0-3.5962-3.5967A10.5823,10.5823,0,0,0,84,142.1511a10.5823,10.5823,0,0,0,3.5962,3.5967A10.5823,10.5823,0,0,0,84,149.3445Zm77.5908-59.8037-27.1079,53.4169c-.5858,1.1543-1.2414,2.2549-1.9278,3.33l-14.2236-7.9614L111.97,106.3093a6.5422,6.5422,0,0,1,1.9624-6.0391l24.4741-22.6328a1.5,1.5,0,0,0-.8418-2.5908l-33.103-3.9248a6.5434,6.5434,0,0,1-5.1372-3.7324L85.5,37.4177l-.0341-30.17H98.9668a46.0486,46.0486,0,0,0-.4668,6.5,45.5514,45.5514,0,0,0,45.5,45.5,45.9454,45.9454,0,0,0,5.8728-.3843l11.718,23.09A8.4129,8.4129,0,0,1,161.5908,89.5408Z"/><path class="cls-5" d="M80.0924,122.0146,51.0046,138.2967l6.4966-32.6956a8,8,0,0,0-2.415-7.4326L30.6124,75.5359,63.7153,71.611a8,8,0,0,0,6.3225-4.5936L84,36.7475l13.9621,30.27a8,8,0,0,0,6.3226,4.5936l33.1029,3.9249L112.9136,98.1685a8,8,0,0,0-2.4149,7.4326l6.4965,32.6956L87.9074,122.0146A8,8,0,0,0,80.0924,122.0146Z"/><path class="cls-6" d="M70.0378,67.0173a8,8,0,0,1-6.3226,4.5938L30.6124,75.5359,55.0862,98.1687a8,8,0,0,1,2.415,7.4326l-6.4966,32.6953,29.0878-16.2822a8,8,0,0,1,7.815,0l29.0879,16.2822-6.4966-32.6953a8,8,0,0,1,2.415-7.4326l24.4738-22.6328-33.1029-3.9248a8,8,0,0,1-6.3225-4.5938L84,36.7478Zm-15.5251,66.45s5.457-27.4658,5.4653-27.51a143.1186,143.1186,0,0,0,19.01,13.8116C78.9487,119.79,54.5127,133.4675,54.5127,133.4675ZM95.6919,68.0642a10.5694,10.5694,0,0,0,8.2983,6.0293L131.7114,77.38,111.2158,96.3327a10.5692,10.5692,0,0,0-3.1694,9.7559l5.44,27.3789-24.291-13.5937-.0992-.0655-.04-.0156-3.2671-1.8281A137.7052,137.7052,0,0,1,59.5942,98.9314L36.289,77.38,64.01,74.0935a10.57,10.57,0,0,0,8.2984-6.0293L84,42.7165Z"/><path class="cls-7" d="M164.2656,79.5964,137.1577,26.18a41.9366,41.9366,0,0,0-37.65-22.9326H68.4926A41.9353,41.9353,0,0,0,30.8423,26.18L3.7339,79.5964a11.42,11.42,0,0,0,0,10.3018l27.1084,53.417a41.9364,41.9364,0,0,0,37.65,22.9326H99.5073a41.9383,41.9383,0,0,0,37.65-22.9326l27.1079-53.417A11.4177,11.4177,0,0,0,164.2656,79.5964ZM134.4829,27.5378l13.9435,27.4756A43.1874,43.1874,0,0,1,144,55.2478a42.5481,42.5481,0,0,1-42.5-42.5,42.9762,42.9762,0,0,1,.4906-6.4151A38.8814,38.8814,0,0,1,134.4829,27.5378Zm-25.4556,78.3555,5.8628,29.5058L88.64,120.7048l-.0128-.0058-3.3265-1.8624A138.6709,138.6709,0,0,1,58.915,99.6658l-2.81-2.5987h0l-1.69-1.563-14.74-13.6313h0l-5.6556-5.23,28.22-3.3457.002-.0005L63.8921,73.1A9.56,9.56,0,0,0,71.4,67.6452L84,40.3288,96.6,67.6452A9.5605,9.5605,0,0,0,104.1079,73.1l29.874,3.542L111.895,97.0671A9.561,9.561,0,0,0,109.0273,105.8933Zm-50.0552,0a9.34,9.34,0,0,0,.16-2.001,141.7156,141.7156,0,0,0,22.0824,16.043,9.3438,9.3438,0,0,0-1.8548.77h-.0005l-26.25,14.6933ZM33.5171,27.5378a38.9511,38.9511,0,0,1,34.9755-21.29H82.4655L82.5,36.4192l-13.8243,29.97a6.5422,6.5422,0,0,1-5.1368,3.7324l-33.103,3.9248-.0018.0005L8.6,76.636l9.2592-18.2452A22.0871,22.0871,0,0,1,37.644,46.2478H39a7.5082,7.5082,0,0,1,7.5,7.5v3a1.5,1.5,0,0,0,3,0v-3a7.5081,7.5081,0,0,1,7.5-7.5h3a1.5,1.5,0,0,0,0-3H57a7.5082,7.5082,0,0,1-7.5-7.5v-3a1.5,1.5,0,0,0-3,0v3a7.5083,7.5083,0,0,1-7.5,7.5H36a1.4893,1.4893,0,0,0-.5209.0981,25.0641,25.0641,0,0,0-12.2117,4.3882Zm10.8867,17.21A10.5823,10.5823,0,0,0,48,41.1511a10.5823,10.5823,0,0,0,3.5962,3.5967A10.5823,10.5823,0,0,0,48,48.3445,10.5823,10.5823,0,0,0,44.4038,44.7478Zm55.1035,118.5H85.4707l.0293-6.4932h-.0007l.0007-.0068v-3a7.5081,7.5081,0,0,1,7.5-7.5h3a1.5,1.5,0,0,0,0-3H93a7.5082,7.5082,0,0,1-7.5-7.5v-3a1.5,1.5,0,0,0-3,0v3a7.5083,7.5083,0,0,1-7.5,7.5H72a1.5,1.5,0,0,0,0,3h3a7.5082,7.5082,0,0,1,7.5,7.5v2.9931l-.0294,6.5069H68.4926a38.9521,38.9521,0,0,1-34.9755-21.29L6.4087,88.5408a8.4129,8.4129,0,0,1,0-7.587l.56-1.1045,23.1324-2.7421,7.5354,6.9682,0,.0005L54.068,99.27a6.54,6.54,0,0,1,1.9618,6.0391l-6.4966,32.6953a1.4995,1.4995,0,0,0,2.2041,1.6006L80.8247,123.323a6.5434,6.5434,0,0,1,6.3495,0l1.8264,1.0219L99.1033,130l.0021.0015,31.7306,17.7617A39.0379,39.0379,0,0,1,99.5073,163.2478ZM84,148.3445a10.5823,10.5823,0,0,0-3.5962-3.5967A10.5823,10.5823,0,0,0,84,141.1511a10.5823,10.5823,0,0,0,3.5962,3.5967A10.5823,10.5823,0,0,0,84,148.3445Zm77.5908-59.8037-27.1079,53.4169c-.5858,1.1543-1.2414,2.2549-1.9278,3.33l-14.2236-7.9614L111.97,105.3093a6.5422,6.5422,0,0,1,1.9624-6.0391l24.4741-22.6328a1.5,1.5,0,0,0-.8418-2.5908l-33.103-3.9248a6.5434,6.5434,0,0,1-5.1372-3.7324L85.5,36.4177l-.0341-30.17H98.9668a46.0486,46.0486,0,0,0-.4668,6.5,45.5514,45.5514,0,0,0,45.5,45.5,45.9454,45.9454,0,0,0,5.8728-.3843l11.718,23.09A8.4129,8.4129,0,0,1,161.5908,88.5408Z"/><path class="cls-8" d="M85.5,132.2478a1.5,1.5,0,0,0-3,0v.5a1.5,1.5,0,0,1,3,0Z"/><path class="cls-8" d="M96,142.7478H93a7.5082,7.5082,0,0,1-7.5-7.5v.5a7.5082,7.5082,0,0,0,7.5,7.5h3a1.4972,1.4972,0,0,1,1.4748,1.25A1.4775,1.4775,0,0,0,96,142.7478Z"/><path class="cls-8" d="M79.3593,120.7058H79.36a9.3438,9.3438,0,0,1,1.8548-.77c-.1752-.103-.3471-.2119-.5218-.3154a8.6431,8.6431,0,0,0-1.333.5859h-.0005L53.2211,134.8366l-.1118.5625Z"/><path class="cls-8" d="M133.9819,76.6423l-.4792-.0566L111.895,96.5671a9.554,9.554,0,0,0-3.0274,6.8994,9.5649,9.5649,0,0,1,3.0274-6.3994Z"/><path class="cls-8" d="M39.6739,81.8728h0l14.74,13.6313,1.69,1.563h0l2.81,2.5987a138.6709,138.6709,0,0,0,26.3858,19.1708l3.3265,1.8624.0128.0058,26.25,14.6943-.1117-.5625L88.64,120.2048l-.0128-.0058-3.3265-1.8624A138.6709,138.6709,0,0,1,58.915,99.1658l-2.81-2.5987h0l-1.69-1.563-14.74-13.6313h0l-5.1764-4.7871-.4792.0566Z"/><path class="cls-8" d="M134.4829,141.4577c-.5858,1.1543-1.2414,2.2549-1.9278,3.33l-14.2236-7.9614L111.97,104.8093a6.3936,6.3936,0,0,1-.109-1.1621,6.432,6.432,0,0,0,.109,1.6621l6.3618,32.0171,14.2236,7.9614c.6864-1.0752,1.342-2.1758,1.9278-3.33l27.1079-53.4169a8.3794,8.3794,0,0,0,.8893-4.0435,8.3678,8.3678,0,0,1-.8893,3.5435Z"/><path class="cls-8" d="M3.7339,79.5964,30.8423,26.18a41.9353,41.9353,0,0,1,37.65-22.9326H99.5073a41.9366,41.9366,0,0,1,37.65,22.9326l27.1079,53.416a11.3647,11.3647,0,0,1,1.2134,4.9009,11.3749,11.3749,0,0,0-1.2134-5.4009L137.1577,25.68a41.9366,41.9366,0,0,0-37.65-22.9326H68.4926A41.9353,41.9353,0,0,0,30.8423,25.68L3.7339,79.0964a11.377,11.377,0,0,0-1.2131,5.4009A11.3672,11.3672,0,0,1,3.7339,79.5964Z"/><path class="cls-8" d="M99.5073,162.7478H85.4729l-.0022.5H99.5073a39.0379,39.0379,0,0,0,31.3287-15.4844l-.2764-.1548A39.0365,39.0365,0,0,1,99.5073,162.7478Z"/><path class="cls-8" d="M82.5,135.2478a7.5083,7.5083,0,0,1-7.5,7.5H72a1.4775,1.4775,0,0,0-1.4748,1.75A1.4972,1.4972,0,0,1,72,143.2478h3a7.5083,7.5083,0,0,0,7.5-7.5Z"/><path class="cls-8" d="M56.03,105.3093a6.436,6.436,0,0,0,.1092-1.6626,6.3862,6.3862,0,0,1-.1092,1.1626l-6.4966,32.6953a1.48,1.48,0,0,0-.0011.52c.0013-.0068,0-.0131.0011-.02Z"/><path class="cls-8" d="M35.4791,43.3459A1.4893,1.4893,0,0,1,36,43.2478h3a7.5083,7.5083,0,0,0,7.5-7.5v-.5a7.5083,7.5083,0,0,1-7.5,7.5H36a1.4893,1.4893,0,0,0-.5209.0981A25.0591,25.0591,0,0,0,23.6455,46.989l-.3781.7451A25.0641,25.0641,0,0,1,35.4791,43.3459Z"/><path class="cls-8" d="M60,42.7478H57a7.5082,7.5082,0,0,1-7.5-7.5v.5a7.5082,7.5082,0,0,0,7.5,7.5h3a1.4972,1.4972,0,0,1,1.4748,1.25A1.4775,1.4775,0,0,0,60,42.7478Z"/><path class="cls-8" d="M30.4337,74.0471l.0018-.0005,33.103-3.9248a6.5422,6.5422,0,0,0,5.1368-3.7324L82.5,36.4192l-.0005-.4986L68.6753,65.8894a6.5422,6.5422,0,0,1-5.1368,3.7324l-33.103,3.9248-.0018.0005L8.87,76.1037l-.27.5323Z"/><path class="cls-8" d="M87.5962,144.7478c-.1261-.0762-.24-.169-.3628-.25A10.57,10.57,0,0,0,84,147.8445a10.5718,10.5718,0,0,0-3.2335-3.3467c-.1226.081-.2366.1738-.3627.25A10.5823,10.5823,0,0,1,84,148.3445,10.5823,10.5823,0,0,1,87.5962,144.7478Z"/><path class="cls-8" d="M48,48.3445a10.5823,10.5823,0,0,1,3.5962-3.5967c-.1261-.0762-.24-.169-.3628-.25A10.57,10.57,0,0,0,48,47.8445a10.5718,10.5718,0,0,0-3.2335-3.3467c-.1226.081-.2366.1738-.3627.25A10.5823,10.5823,0,0,1,48,48.3445Z"/><path class="cls-8" d="M6.4087,88.5408l27.1084,53.4169a38.9521,38.9521,0,0,0,34.9755,21.29h13.978l.0294-6.5069v-.5l-.0294,6.5069H68.4926a38.9521,38.9521,0,0,1-34.9755-21.29L6.4087,88.0408a8.3694,8.3694,0,0,1-.8894-3.5435A8.38,8.38,0,0,0,6.4087,88.5408Z"/><path class="cls-8" d="M98.9042,6.2478a45.9041,45.9041,0,0,0-.4042,6c0,.07.005.14.0053.21a46.1338,46.1338,0,0,1,.4615-6.2095Z"/><path class="cls-8" d="M144,55.2478a43.1874,43.1874,0,0,0,4.4264-.2344l-.2441-.481c-1.3877.1363-2.7859.2154-4.1823.2154A42.5455,42.5455,0,0,1,101.5055,12.466c-.0006.0943-.0055.188-.0055.2818A42.5481,42.5481,0,0,0,144,55.2478Z"/><path class="cls-8" d="M85.5,36.4177,99.3242,66.3894a6.5434,6.5434,0,0,0,5.1372,3.7324l33.103,3.9248a1.4989,1.4989,0,0,1,1.25,1.0254,1.46,1.46,0,0,1,.0385.2236,1.4711,1.4711,0,0,0-1.2885-1.749l-33.103-3.9248a6.5434,6.5434,0,0,1-5.1372-3.7324L85.5,35.9177l-.0335-29.67h-.0006Z"/><path class="cls-8" d="M49.5,32.2478a1.5,1.5,0,0,0-3,0v.5a1.5,1.5,0,0,1,3,0Z"/><g class="cls-9"><path id="FOR_LINE_WORK_LIPS" data-name="FOR LINE WORK LIPS" class="cls-10" d="M32.0928,12.0593A90.3458,90.3458,0,0,0,8.8311,37.08L131.9853,160.8061a90.2609,90.2609,0,0,0,24.9043-23.37Z"/></g><path class="cls-11" d="M99.515,168h-31.03a44.4269,44.4269,0,0,1-39.88-24.3008L1.4971,90.2832a13.9332,13.9332,0,0,1-.0005-12.5654L28.605,24.3008A44.4269,44.4269,0,0,1,68.4849,0h31.03a44.4268,44.4268,0,0,1,39.88,24.3008l27.1084,53.417a13.9327,13.9327,0,0,1,0,12.5644l-27.1084,53.417A44.4268,44.4268,0,0,1,99.515,168ZM68.4849,8A36.4647,36.4647,0,0,0,35.7388,27.9219L8.6309,81.3379a5.9042,5.9042,0,0,0,0,5.3252l27.1074,53.415A36.4647,36.4647,0,0,0,68.4849,160h31.03a36.4647,36.4647,0,0,0,32.7461-19.9219l27.1079-53.416a5.9052,5.9052,0,0,0,0-5.3242l-27.1079-53.416A36.4647,36.4647,0,0,0,99.515,8Z"/><g class="cls-3"><ellipse class="cls-12" cx="83.4667" cy="144" rx="48.5333" ry="19"/></g><path class="cls-13" d="M132,140.5508A36.46,36.46,0,0,1,99.515,160h-31.03A36.46,36.46,0,0,1,36,140.5508v13.6145A44.62,44.62,0,0,0,68.4849,168h31.03A44.62,44.62,0,0,0,132,154.1653Z"/><path class="cls-14" d="M99.515,8a36.4647,36.4647,0,0,1,32.7461,19.9219l27.1079,53.416a5.9052,5.9052,0,0,1,0,5.3242l-27.1079,53.416A36.4647,36.4647,0,0,1,99.515,160h-31.03A36.4649,36.4649,0,0,1,35.7388,140.078L8.6314,86.663a5.9042,5.9042,0,0,1,0-5.3252l27.1079-53.416A36.4649,36.4649,0,0,1,68.4849,8h31.03m0-1h-31.03A37.46,37.46,0,0,0,34.8471,27.4691L7.7392,80.8851a6.9089,6.9089,0,0,0,0,6.2305l27.1075,53.4151A37.46,37.46,0,0,0,68.4849,161h31.03a37.46,37.46,0,0,0,33.6378-20.4692l27.1079-53.4161a6.9072,6.9072,0,0,0,0-6.23l-27.108-53.416A37.46,37.46,0,0,0,99.515,7Z"/><path class="cls-15" d="M147.2853,128.1511,141.3341,122.2l-9.073,17.8784a36.1924,36.1924,0,0,1-8.7838,11.147l5.67,5.67a44.2086,44.2086,0,0,0,10.2473-13.1963Z"/><path class="cls-16" d="M34.57,15.4351a44.3645,44.3645,0,0,0-5.9645,8.8657l-10.79,21.2619,5.9513,5.9515L35.7388,27.9219A36.34,36.34,0,0,1,40.24,21.1055Z"/><path class="cls-17" d="M7.9967,84a5.8844,5.8844,0,0,1,.6342-2.6621l27.1079-53.416A36.4647,36.4647,0,0,1,68.4849,8h31.03a36.4647,36.4647,0,0,1,32.7461,19.9219l27.1079,53.416A5.8856,5.8856,0,0,1,160.0031,84H168a13.8882,13.8882,0,0,0-1.4967-6.2822l-27.1084-53.417A44.4268,44.4268,0,0,0,99.515,0h-31.03a44.4269,44.4269,0,0,0-39.88,24.3008L1.4966,77.7178A13.8868,13.8868,0,0,0,0,84Z"/></g></g></svg>