<svg xmlns="http://www.w3.org/2000/svg" xmlns:xlink="http://www.w3.org/1999/xlink" viewBox="0 0 168 168"><defs><style>.cls-1{fill:none;}.cls-2{fill:url(#linear-gradient);}.cls-3{opacity:0.5;}.cls-15,.cls-17,.cls-3,.cls-6{isolation:isolate;}.cls-4{fill:url(#linear-gradient-2);}.cls-5{opacity:0.3;}.cls-6{opacity:0.8;}.cls-7{fill:url(#linear-gradient-3);}.cls-8{fill:#fff;}.cls-9{clip-path:url(#clip-path);}.cls-10{fill:url(#linear-gradient-4);}.cls-11{fill:url(#linear-gradient-5);}.cls-12{fill:url(#linear-gradient-6);}.cls-13{fill:url(#linear-gradient-7);}.cls-14{fill:url(#radial-gradient);}.cls-15{opacity:0.7;fill:url(#linear-gradient-8);}.cls-16{fill:url(#linear-gradient-9);}.cls-17{opacity:0.4;fill:url(#linear-gradient-10);}</style><linearGradient id="linear-gradient" x1="-480" y1="2033.45" x2="-480" y2="2201.45" gradientTransform="matrix(1, 0, 0, -1, 564, 2201.45)" gradientUnits="userSpaceOnUse"><stop offset="0" stop-color="#333d45"/><stop offset="1"/></linearGradient><linearGradient id="linear-gradient-2" x1="42.58" y1="117.01" x2="122.35" y2="70.95" gradientUnits="userSpaceOnUse"><stop offset="0" stop-color="#0bb7c8"/><stop offset="1" stop-color="#94fc82"/></linearGradient><linearGradient id="linear-gradient-3" x1="-480" y1="2035.7" x2="-480" y2="2198.7" gradientTransform="matrix(1, 0, 0, -1, 564, 2201.45)" gradientUnits="userSpaceOnUse"><stop offset="0" stop-color="#688199"/><stop offset="1" stop-color="#f7f9fa"/></linearGradient><clipPath id="clip-path"><path class="cls-1" d="M84,2.75a81.5,81.5,0,1,0,81.5,81.5A81.5,81.5,0,0,0,84,2.75Zm78.22,87.87a67.46,67.46,0,0,0-48.72,45.76v-8.13a13.51,13.51,0,0,0-8-12.3,9.49,9.49,0,0,0,3.83-6.2H116a9.52,9.52,0,0,0,9.5-9.5V59.75h33.06a78.14,78.14,0,0,1,3.94,24.5c0,2.15-.11,4.27-.28,6.37ZM57.5,133.75h53v5h-53Zm4-25.5V59.75H88.19a14.48,14.48,0,0,0-5.67,11L72.64,86.12a13.51,13.51,0,1,0,22.72,0L85.52,70.83A11.49,11.49,0,0,1,97,59.75h9.51v48.5a6.5,6.5,0,0,1-6.5,6.5H68A6.5,6.5,0,0,1,61.5,108.25Zm-3-1.5H52a6.5,6.5,0,0,1-6.5-6.5v-42a6.5,6.5,0,0,1,6.5-6.5h6.5Zm32-68h-13v-6.5a6.5,6.5,0,0,1,13,0Zm9.5,3a6.5,6.5,0,0,1,6.5,6.5v8.5h-45v-8.5a6.5,6.5,0,0,1,6.5-6.5Zm9.5,10H116a6.51,6.51,0,0,1,6.32,5H109.5Zm0,8h13v40.5a6.5,6.5,0,0,1-6.5,6.5h-6.5ZM84,74l8.83,13.74a10.5,10.5,0,1,1-17.66,0Zm16,43.74a10.51,10.51,0,0,1,10.5,10.5v2.5H88.89a5.5,5.5,0,1,0-9.78,0H57.5v-2.5A10.51,10.51,0,0,1,68,117.75Zm-18.5,10.5a2.5,2.5,0,1,1,2.5,2.5A2.5,2.5,0,0,1,81.5,128.25Zm76-71.5H125.37a9.51,9.51,0,0,0-9.37-8h-6.5v-.5a9.52,9.52,0,0,0-9.5-9.5H93.5v-6.5a9.5,9.5,0,0,0-19,0v6.5H68a9.52,9.52,0,0,0-9.5,9.5v.5H52a9.47,9.47,0,0,0-6.5,2.59V15.88A78.42,78.42,0,0,1,152.34,45.62,79.77,79.77,0,0,1,157.52,56.75ZM42.5,17.66v82.59a9.52,9.52,0,0,0,9.5,9.5h6.63a9.49,9.49,0,0,0,3.83,6.2,13.51,13.51,0,0,0-8,12.3v2.5H20.8A78.39,78.39,0,0,1,37.35,21.15Q39.86,19.31,42.5,17.66ZM23.13,133.75H54.5v6.5a1.5,1.5,0,0,0,1.5,1.5h54.5v16.39A78.41,78.41,0,0,1,23.13,133.75ZM113.52,157c0-.24,0-.48,0-.72a64.5,64.5,0,0,1,48.4-62.46A78.68,78.68,0,0,1,113.52,157Z"/></clipPath><linearGradient id="linear-gradient-4" x1="-492.11" y1="2105.34" x2="-468.69" y2="2128.76" gradientTransform="matrix(1, 0, 0, -1, 564, 2201.45)" gradientUnits="userSpaceOnUse"><stop offset="0.25" stop-color="#f7f9fa" stop-opacity="0"/><stop offset="0.5" stop-color="#fff"/><stop offset="0.75" stop-color="#bee6fa" stop-opacity="0"/></linearGradient><linearGradient id="linear-gradient-5" y1="2033.45" y2="2201.45" xlink:href="#linear-gradient-3"/><linearGradient id="linear-gradient-6" x1="-480" y1="2040.45" x2="-480" y2="2194.45" gradientTransform="matrix(1, 0, 0, -1, 564, 2201.45)" gradientUnits="userSpaceOnUse"><stop offset="0" stop-color="#f7f9fa"/><stop offset="1" stop-color="#f7f9fa" stop-opacity="0"/></linearGradient><linearGradient id="linear-gradient-7" x1="-528" y1="2046.02" x2="-432" y2="2046.02" gradientTransform="matrix(1, 0, 0, -1, 564, 2201.45)" gradientUnits="userSpaceOnUse"><stop offset="0" stop-color="#e8749f" stop-opacity="0"/><stop offset="0.5" stop-color="#f7f9fa"/><stop offset="1" stop-color="#e8749f" stop-opacity="0"/></linearGradient><radialGradient id="radial-gradient" cx="-7566.7" cy="199.13" fy="217.18414241199778" r="20.27" gradientTransform="matrix(-2, 0, 0, 0.94, -15048.87, -44.88)" gradientUnits="userSpaceOnUse"><stop offset="0" stop-color="#fff"/><stop offset="0.68" stop-color="#e78bad" stop-opacity="0"/></radialGradient><linearGradient id="linear-gradient-8" x1="-436.26" y1="2049.49" x2="-412.84" y2="2072.92" xlink:href="#linear-gradient-4"/><linearGradient id="linear-gradient-9" x1="-547.96" y1="2161.19" x2="-524.53" y2="2184.61" xlink:href="#linear-gradient-4"/><linearGradient id="linear-gradient-10" x1="-480" y1="2117.45" x2="-480" y2="2201.45" gradientTransform="matrix(1, 0, 0, -1, 564, 2201.45)" gradientUnits="userSpaceOnUse"><stop offset="0" stop-color="#e8749f" stop-opacity="0"/><stop offset="1" stop-color="#f7f9fa"/></linearGradient></defs><g id="Layer_2" data-name="Layer 2"><g id="Layer_1-2" data-name="Layer 1"><g id="Layer_2-2" data-name="Layer 2"><g id="Layer_1-2-2" data-name="Layer 1-2"><path id="base_bkgd" data-name="base bkgd" class="cls-2" d="M84,168a84,84,0,1,1,84-84A84,84,0,0,1,84,168Z"/><g id="border_shadow" data-name="border shadow"><path d="M84,9A75,75,0,1,1,9,84,75,75,0,0,1,84,9m0-1a76,76,0,1,0,76,76A76,76,0,0,0,84,8Z"/></g><path class="cls-3" d="M84,3.75a81.5,81.5,0,1,0,81.5,81.5A81.5,81.5,0,0,0,84,3.75Zm78.22,87.87a67.46,67.46,0,0,0-48.72,45.76v-8.13a13.51,13.51,0,0,0-8-12.3,9.49,9.49,0,0,0,3.83-6.2H116a9.52,9.52,0,0,0,9.5-9.5V60.75h33.06a78.14,78.14,0,0,1,3.94,24.5c0,2.15-.11,4.27-.28,6.37ZM57.5,134.75h53v5h-53Zm4-25.5V60.75H88.19a14.48,14.48,0,0,0-5.67,11L72.64,87.12a13.51,13.51,0,1,0,22.72,0L85.52,71.83A11.49,11.49,0,0,1,97,60.75h9.51v48.5a6.5,6.5,0,0,1-6.5,6.5H68A6.5,6.5,0,0,1,61.5,109.25Zm-3-1.5H52a6.5,6.5,0,0,1-6.5-6.5v-42a6.5,6.5,0,0,1,6.5-6.5h6.5Zm32-68h-13v-6.5a6.5,6.5,0,0,1,13,0Zm9.5,3a6.5,6.5,0,0,1,6.5,6.5v8.5h-45v-8.5a6.5,6.5,0,0,1,6.5-6.5Zm9.5,10H116a6.51,6.51,0,0,1,6.32,5H109.5Zm0,8h13v40.5a6.5,6.5,0,0,1-6.5,6.5h-6.5ZM84,75l8.83,13.74a10.5,10.5,0,1,1-17.66,0Zm16,43.74a10.51,10.51,0,0,1,10.5,10.5v2.5H88.89a5.5,5.5,0,1,0-9.78,0H57.5v-2.5A10.51,10.51,0,0,1,68,118.75Zm-18.5,10.5a2.5,2.5,0,1,1,2.5,2.5A2.5,2.5,0,0,1,81.5,129.25Zm76-71.5H125.37a9.51,9.51,0,0,0-9.37-8h-6.5v-.5a9.52,9.52,0,0,0-9.5-9.5H93.5v-6.5a9.5,9.5,0,0,0-19,0v6.5H68a9.52,9.52,0,0,0-9.5,9.5v.5H52a9.47,9.47,0,0,0-6.5,2.59V16.88A78.42,78.42,0,0,1,152.34,46.62,79.77,79.77,0,0,1,157.52,57.75ZM42.5,18.66v82.59a9.52,9.52,0,0,0,9.5,9.5h6.63a9.49,9.49,0,0,0,3.83,6.2,13.51,13.51,0,0,0-8,12.3v2.5H20.8A78.39,78.39,0,0,1,37.35,22.15Q39.86,20.31,42.5,18.66ZM23.13,134.75H54.5v6.5a1.5,1.5,0,0,0,1.5,1.5h54.5v16.39A78.41,78.41,0,0,1,23.13,134.75ZM113.52,158c0-.24,0-.48,0-.72a64.5,64.5,0,0,1,48.4-62.46A78.68,78.68,0,0,1,113.52,158Z"/><path class="cls-4" d="M84,71.24,73.91,86.94a12,12,0,0,0,1.6,15h0a12,12,0,0,0,17,0h0a12,12,0,0,0,1.61-15Zm24-13H60v-10a8,8,0,0,1,8-8h32a8,8,0,0,1,8,8Zm4,82H56v-12a12,12,0,0,1,12-12h32a12,12,0,0,1,12,12Z"/><g class="cls-5"><path class="cls-6" d="M108,48.25a8,8,0,0,0-8-8H68a8,8,0,0,0-8,8v10h48Zm-2.5,7.5h-43v-7.5a5.5,5.5,0,0,1,5.5-5.5h32a5.5,5.5,0,0,1,5.5,5.5Z"/><path class="cls-6" d="M73.91,86.94a12,12,0,0,0,1.6,15h0a12,12,0,0,0,18.58-15L84,71.23ZM92,88.29a9.5,9.5,0,1,1-16,0l8-12.43Z"/><path class="cls-6" d="M112,128.25a12,12,0,0,0-12-12H68a12,12,0,0,0-12,12v12h56Zm-2.5,9.5h-51v-3h51Zm-27-9.5a1.5,1.5,0,1,1,1.5,1.5A1.5,1.5,0,0,1,82.5,128.25Zm27,1.5H90.32a6.28,6.28,0,0,0,.18-1.5,6.5,6.5,0,0,0-13,0,6.28,6.28,0,0,0,.18,1.5H58.5v-1.5a9.52,9.52,0,0,1,9.5-9.5h32a9.52,9.52,0,0,1,9.5,9.5Z"/></g><path class="cls-7" d="M84,2.75a81.5,81.5,0,1,0,81.5,81.5A81.5,81.5,0,0,0,84,2.75Zm78.22,87.87a67.46,67.46,0,0,0-48.72,45.76v-8.13a13.51,13.51,0,0,0-8-12.3,9.49,9.49,0,0,0,3.83-6.2H116a9.52,9.52,0,0,0,9.5-9.5V59.75h33.06a78.14,78.14,0,0,1,3.94,24.5c0,2.15-.11,4.27-.28,6.37ZM57.5,133.75h53v5h-53Zm4-25.5V59.75H88.19a14.48,14.48,0,0,0-5.67,11L72.64,86.12a13.51,13.51,0,1,0,22.72,0L85.52,70.83A11.49,11.49,0,0,1,97,59.75h9.51v48.5a6.5,6.5,0,0,1-6.5,6.5H68A6.5,6.5,0,0,1,61.5,108.25Zm-3-1.5H52a6.5,6.5,0,0,1-6.5-6.5v-42a6.5,6.5,0,0,1,6.5-6.5h6.5Zm32-68h-13v-6.5a6.5,6.5,0,0,1,13,0Zm9.5,3a6.5,6.5,0,0,1,6.5,6.5v8.5h-45v-8.5a6.5,6.5,0,0,1,6.5-6.5Zm9.5,10H116a6.51,6.51,0,0,1,6.32,5H109.5Zm0,8h13v40.5a6.5,6.5,0,0,1-6.5,6.5h-6.5ZM84,74l8.83,13.74a10.5,10.5,0,1,1-17.66,0Zm16,43.74a10.51,10.51,0,0,1,10.5,10.5v2.5H88.89a5.5,5.5,0,1,0-9.78,0H57.5v-2.5A10.51,10.51,0,0,1,68,117.75Zm-18.5,10.5a2.5,2.5,0,1,1,2.5,2.5A2.5,2.5,0,0,1,81.5,128.25Zm76-71.5H125.37a9.51,9.51,0,0,0-9.37-8h-6.5v-.5a9.52,9.52,0,0,0-9.5-9.5H93.5v-6.5a9.5,9.5,0,0,0-19,0v6.5H68a9.52,9.52,0,0,0-9.5,9.5v.5H52a9.47,9.47,0,0,0-6.5,2.59V15.88A78.42,78.42,0,0,1,152.34,45.62,79.77,79.77,0,0,1,157.52,56.75ZM42.5,17.66v82.59a9.52,9.52,0,0,0,9.5,9.5h6.63a9.49,9.49,0,0,0,3.83,6.2,13.51,13.51,0,0,0-8,12.3v2.5H20.8A78.39,78.39,0,0,1,37.35,21.15Q39.86,19.31,42.5,17.66ZM23.13,133.75H54.5v6.5a1.5,1.5,0,0,0,1.5,1.5h54.5v16.39A78.41,78.41,0,0,1,23.13,133.75ZM113.52,157c0-.24,0-.48,0-.72a64.5,64.5,0,0,1,48.4-62.46A78.68,78.68,0,0,1,113.52,157Z"/><path class="cls-8" d="M122.32,56.75a4.91,4.91,0,0,0-.17-.5H109.5v.5Z"/><path class="cls-8" d="M116,106.75a6.5,6.5,0,0,0,6.5-6.5v-.5a6.5,6.5,0,0,1-6.5,6.5h-6.5v.5Z"/><path class="cls-8" d="M95.36,85.62l-9.8-15.23c0,.14,0,.29,0,.44l9.84,15.29a13.48,13.48,0,0,1,2.11,7.22A13.5,13.5,0,0,0,95.36,85.62Z"/><path class="cls-8" d="M76.58,100.85a10.47,10.47,0,0,0,17.89-7.58,10.47,10.47,0,0,1-20.94,0A10.49,10.49,0,0,0,76.58,100.85Z"/><path class="cls-8" d="M84,22.75a9.52,9.52,0,0,1,9.5,9.5v-.5a9.5,9.5,0,0,0-19,0v.5A9.52,9.52,0,0,1,84,22.75Z"/><rect class="cls-8" x="77.5" y="38.25" width="13" height="0.5"/><polygon class="cls-8" points="96.98 56.75 106.5 56.75 106.5 56.25 96.98 56.25 61.5 56.25 61.5 56.75 96.98 56.75"/><path class="cls-8" d="M113.52,156.47c0-.16,0-.31,0-.47,0,.08,0,.17,0,.25,0,.24,0,.48,0,.72A78.68,78.68,0,0,0,161.9,93.79l-.07,0A78.7,78.7,0,0,1,113.52,156.47Z"/><path class="cls-8" d="M82.52,70.26,72.64,85.62a13.5,13.5,0,0,0-2.11,7.72,13.42,13.42,0,0,1,2.11-7.21l9.88-15.37a14.48,14.48,0,0,1,5.67-11h-.58A14.43,14.43,0,0,0,82.52,70.26Z"/><path class="cls-8" d="M125.58,113.23a67.32,67.32,0,0,0-12.08,22.65v.5a67.46,67.46,0,0,1,48.72-45.76c.17-2.1.28-4.22.28-6.37,0-.09,0-.18,0-.27,0,2.07-.11,4.11-.27,6.14A67.68,67.68,0,0,0,125.58,113.23Z"/><path class="cls-8" d="M100,38.25H93.5v.5H100a9.52,9.52,0,0,1,9.5,9.5v-.5A9.52,9.52,0,0,0,100,38.25Z"/><path class="cls-8" d="M116,48.25h-6.5v.5H116a9.51,9.51,0,0,1,9.37,8h32.15c-.07-.17-.14-.33-.2-.5H125.37A9.51,9.51,0,0,0,116,48.25Z"/><path class="cls-8" d="M84,2.75A81.58,81.58,0,0,1,165.49,84c0-.08,0-.17,0-.25a81.5,81.5,0,0,0-163,0c0,.08,0,.17,0,.25A81.58,81.58,0,0,1,84,2.75Z"/><path class="cls-8" d="M68,38.75h6.5v-.5H68a9.52,9.52,0,0,0-9.5,9.5v.5A9.52,9.52,0,0,1,68,38.75Z"/><path class="cls-8" d="M52,48.75h6.5v-.5H52a9.47,9.47,0,0,0-6.5,2.59v.5A9.47,9.47,0,0,1,52,48.75Z"/><path class="cls-8" d="M113.5,127.75a13.52,13.52,0,0,0-7.57-12.11c-.13.11-.26.22-.39.31a13.51,13.51,0,0,1,8,12.3Z"/><path class="cls-8" d="M20.8,130.75H54.5v-.5H20.8A78.19,78.19,0,0,1,5.5,84v.28A78.07,78.07,0,0,0,20.8,130.75Z"/><path class="cls-8" d="M68,114.75h32a6.5,6.5,0,0,0,6.5-6.5v-.5a6.5,6.5,0,0,1-6.5,6.5H68a6.5,6.5,0,0,1-6.5-6.5v.5A6.5,6.5,0,0,0,68,114.75Z"/><path class="cls-8" d="M52,106.75h6.5v-.5H52a6.5,6.5,0,0,1-6.5-6.5v.5A6.5,6.5,0,0,0,52,106.75Z"/><path class="cls-8" d="M110.5,130.25H89.11a3.16,3.16,0,0,1-.22.5H110.5Z"/><path class="cls-8" d="M79.11,130.75a3.16,3.16,0,0,1-.22-.5H57.5v.5Z"/><path class="cls-8" d="M84,122.25a5.5,5.5,0,0,0-5.5,5.5c0,.08,0,.15,0,.23a5.5,5.5,0,0,1,11,0c0-.08,0-.15,0-.23A5.5,5.5,0,0,0,84,122.25Z"/><path class="cls-8" d="M84,130.75a2.5,2.5,0,0,0,2.5-2.5,1.07,1.07,0,0,0,0-.25,2.48,2.48,0,0,1-4.94,0,1.07,1.07,0,0,0,0,.25A2.5,2.5,0,0,0,84,130.75Z"/><rect class="cls-8" x="57.5" y="138.25" width="53" height="0.5"/><path class="cls-8" d="M84,162.75a78.24,78.24,0,0,0,26.5-4.61v-.5a78.38,78.38,0,0,1-86.95-23.89h-.42A78.37,78.37,0,0,0,84,162.75Z"/><path class="cls-8" d="M62.46,116c-.13-.09-.26-.2-.39-.31a13.52,13.52,0,0,0-7.57,12.11v.5A13.51,13.51,0,0,1,62.46,116Z"/><g class="cls-9"><path id="FOR_LINE_WORK_CIRCLE" data-name="FOR LINE WORK CIRCLE" class="cls-10" d="M34.62,12A87.61,87.61,0,0,0,12,36.22L131.78,156A87.61,87.61,0,0,0,156,133.38Z"/></g><path id="border" class="cls-11" d="M84,168a84,84,0,1,1,84-84A84,84,0,0,1,84,168ZM84,8a76,76,0,1,0,76,76A76,76,0,0,0,84,8Z"/><g id="border_highlight" data-name="border highlight"><path class="cls-12" d="M84,8A76,76,0,1,1,8,84,76,76,0,0,1,84,8m0-1a77,77,0,1,0,77,77A77,77,0,0,0,84,7Z"/></g><path id="outer_pink" data-name="outer pink" class="cls-13" d="M132,152.88v-10a75.82,75.82,0,0,1-96,0v10A83.75,83.75,0,0,0,132,152.88Z"/><g id="elipse" class="cls-5"><ellipse class="cls-14" cx="84.54" cy="141.81" rx="40.53" ry="19"/></g><path id="right_glare" data-name="right glare" class="cls-15" d="M153.6,131l-5.78-5.79a76.54,76.54,0,0,1-23.6,23.25l5.79,5.79A84.63,84.63,0,0,0,153.6,131Z"/><path id="left_glare" data-name="left glare" class="cls-16" d="M13.77,38l5.79,5.79a76.54,76.54,0,0,1,23.25-23.6L37,14.4A84.63,84.63,0,0,0,13.77,38Z"/><path id="top_halo" data-name="top halo" class="cls-17" d="M84,8a76.09,76.09,0,0,1,76,76h8A84,84,0,0,0,0,84H8A76.09,76.09,0,0,1,84,8Z"/></g></g></g></g></svg>