<svg xmlns="http://www.w3.org/2000/svg" xmlns:xlink="http://www.w3.org/1999/xlink" width="168" height="168" viewBox="0 0 168 168"><defs><style>.cls-1{fill:none;}.cls-2{fill:url(#linear-gradient);}.cls-3{opacity:0.3;}.cls-4{fill:url(#radial-gradient);}.cls-5{opacity:0.5;}.cls-6{fill:#161b1f;}.cls-7,.cls-8{fill-rule:evenodd;}.cls-7{opacity:0.8;fill:url(#New_Gradient_Swatch_2);}.cls-9{opacity:0.99;}.cls-10{fill:url(#New_Gradient_Swatch_1);}.cls-11{fill:#fff;}.cls-12{clip-path:url(#clip-path);}.cls-13{fill:url(#linear-gradient-2);}.cls-14{clip-path:url(#clip-path-2);}.cls-15{fill:url(#linear-gradient-4);}.cls-16{fill:url(#linear-gradient-5);}.cls-17{fill:url(#linear-gradient-6);}.cls-18{fill:url(#linear-gradient-7);}.cls-19{opacity:0.7;fill:url(#linear-gradient-8);}.cls-20{opacity:0.4;fill:url(#linear-gradient-9);}</style><linearGradient id="linear-gradient" x1="84" y1="164" x2="84" y2="4" gradientUnits="userSpaceOnUse"><stop offset="0" stop-color="#333d45"/><stop offset="0.9988"/></linearGradient><radialGradient id="radial-gradient" cx="-119.0088" cy="2038.7626" fy="2056.817204305026" r="20.2667" gradientTransform="translate(368.4614 -1767.34) scale(2.3947 0.9375)" gradientUnits="userSpaceOnUse"><stop offset="0" stop-color="#fff"/><stop offset="0.6802" stop-color="#e78bad" stop-opacity="0"/></radialGradient><linearGradient id="New_Gradient_Swatch_2" x1="84" y1="126.0483" x2="84" y2="28.7505" gradientUnits="userSpaceOnUse"><stop offset="0" stop-color="#ff602c"/><stop offset="1" stop-color="#e80a89"/></linearGradient><linearGradient id="New_Gradient_Swatch_1" x1="84" y1="165.7505" x2="84" y2="2.7505" gradientUnits="userSpaceOnUse"><stop offset="0" stop-color="#688199"/><stop offset="1" stop-color="#f7f9fa"/></linearGradient><clipPath id="clip-path"><path class="cls-1" d="M164.2657,79.0991l-27.1079-53.416a41.9366,41.9366,0,0,0-37.65-22.9326H68.4923a41.9347,41.9347,0,0,0-37.65,22.9326L3.734,79.0991a11.4208,11.4208,0,0,0,0,10.3018l27.1084,53.417a41.9358,41.9358,0,0,0,37.65,22.9326H99.5074a41.9383,41.9383,0,0,0,37.65-22.9326l27.1079-53.417A11.4177,11.4177,0,0,0,164.2657,79.0991ZM134.483,27.0405l27.1079,53.416c.0616.1211.1064.2486.1616.3721H129.5l-.0009-26.376A28.2938,28.2938,0,0,0,76.7334,41.38,28.3466,28.3466,0,0,0,69.5,47.9312V5.7505H99.5074A38.9523,38.9523,0,0,1,134.483,27.0405ZM92.0787,124.5483h-27.06A25.5458,25.5458,0,0,1,41.5,99.2593a25.2486,25.2486,0,0,1,9.1941-19.4922c.443-.3662.9-.7119,1.3647-1.0454.144-.1035.2873-.208.4335-.3086q.7431-.5091,1.5179-.9644.1664-.0974.3346-.1924c.5659-.32,1.141-.6225,1.7286-.8974.0448-.021.09-.0405.1353-.0615a25.37,25.37,0,0,1,6.0977-1.9224c.0539-.0093.108-.0195.162-.0288q1.001-.1743,2.0171-.2676c.0824-.0073.1655-.0122.248-.0185.6821-.0562,1.3674-.0909,2.0556-.0909a25.2,25.2,0,0,1,25.29,24.26v26.3193Zm-25.29-53.5791c-.5473,0-1.09.02-1.63.05-.1331.0078-.2655.021-.3985.03-.4228.03-.8432.0684-1.2607.1167-.1275.0151-.2546.0322-.3818.0488q-.6741.0879-1.3379.2071c-.0823.0146-.1647.0283-.2469.0439a28.063,28.063,0,0,0-4.8044,1.3579c-.0563.0215-.1119.0445-.168.0664q-.6562.2556-1.2959.542-.1677.0747-.3344.1514-.565.2622-1.1157.5483c-.0891.0459-.1813.086-.27.1328a25.5343,25.5343,0,0,1,14.83-10.58l.0312-.0088c.4229-.1089.8511-.2017,1.2807-.2891.17-.0337.34-.0669.51-.0972.3468-.0629.6954-.12,1.0459-.1679.2951-.04.592-.0713.8891-.1011.26-.0264.5186-.0566.78-.0747.58-.04,1.1629-.0659,1.7489-.0659a25.2,25.2,0,0,1,25.29,24.2588v26.32H95.0787l-.001-15.2871A28.2023,28.2023,0,0,0,66.7892,70.9692ZM74.6617,59.88c-.6682,0-1.3321.0317-1.9936.0781q-.184.0132-.3674.0283a28.0835,28.0835,0,0,0-9.0115,2.2754,25.23,25.23,0,0,1,3.85-4.3476l.3794-.3282q.8591-.7426,1.7756-1.4009l.0062-.0043a25.2864,25.2864,0,0,1,3.7989-2.25c.0372-.0181.0738-.0367.1111-.0542a25.2657,25.2657,0,0,1,3.9947-1.4927c.09-.0254.18-.0523.2713-.0767.6784-.1826,1.3639-.3413,2.057-.4673.0214-.0039.0433-.0058.0647-.01.6373-.1143,1.2811-.1958,1.9278-.2608.16-.0161.3208-.0312.4819-.0444.6746-.0547,1.3521-.0913,2.0332-.0913A25.2,25.2,0,0,1,109.33,75.6929v26.3193h-6.3784l-.001-14.93A28.2014,28.2014,0,0,0,74.6617,59.88Zm9.3789-11.4463c-.6553,0-1.3078.0273-1.9579.0722-.2455.0171-.4876.0474-.7315.07-.3963.038-.7921.0776-1.1855.1323-.3018.0415-.6.0937-.9.1445-.3245.0557-.6482.1143-.97.1812-.3321.0683-.6613.144-.99.2241-.276.0679-.55.1411-.8238.2168-.3554.0986-.7091.2-1.0594.312-.2266.0723-.45.1528-.6747.231-.3842.1337-.7679.2675-1.1452.4174-.1369.0542-.27.1162-.4065.1729a28.1974,28.1974,0,0,0-2.8787,1.3755,25.3273,25.3273,0,0,1,8.903-8.6157c.1387-.08.2777-.1592.4179-.2364q.5068-.279,1.0267-.5361c.1453-.0713.2916-.1406.4381-.209.3437-.1616.6906-.3169,1.0419-.4629.1628-.0679.3273-.1308.4914-.1948.34-.1333.6816-.2622,1.0279-.3809.19-.0649.3826-.1225.5742-.1831.3268-.103.6541-.2055.9858-.2954.2281-.0615.4589-.1133.6888-.1684.3024-.0733.604-.1485.91-.2105.2783-.0561.5594-.0986.84-.1455.2661-.0444.5305-.0952.7989-.1313.3477-.0464.6983-.0762,1.0484-.108.208-.02.4141-.0473.6233-.0615.564-.0376,1.13-.0581,1.6981-.0581a25.2,25.2,0,0,1,25.2891,24.26V90.5659H112.33l-.001-14.93A28.2009,28.2009,0,0,0,84.0406,48.4341Zm7.7915-11.4473c-.7782,0-1.55.0352-2.3163.0977-.2765.0229-.5491.0674-.8243.0981-.4843.0542-.9691.1055-1.447.1841-.35.0576-.695.1372-1.0424.2075-.3921.08-.7854.1548-1.1723.251-.3885.0962-.7707.2124-1.1546.3247-.3344.0986-.6694.1934-.999.3037-.1378.0464-.28.0791-.4166.127A25.2981,25.2981,0,0,1,126.5,54.5093V80.8286h-6.3789L120.12,64.19A28.2018,28.2018,0,0,0,91.8321,36.9868ZM33.5172,27.0405A38.8861,38.8861,0,0,1,66.5,5.8184V52.729a28.242,28.242,0,0,0-1.215,2.811,28.28,28.28,0,0,0-7.0758,9.669,28.5621,28.5621,0,0,0-2.532,2.0415H13.1108Zm0,114.42L6.4088,88.0435a8.4129,8.4129,0,0,1,0-7.587l5.18-10.206H52.8125a28.02,28.02,0,0,0-4.4784,7.5947A28.2286,28.2286,0,0,0,38.5,99.2593a28.56,28.56,0,0,0,26.3476,28.2851l27.231.0035v35.2026H68.4923A38.952,38.952,0,0,1,33.5172,141.46ZM161.5909,88.0435,134.483,141.46a38.9533,38.9533,0,0,1-34.9756,21.29H95.0787V126.0483h0l0-9.5888h7.873l0-11.4473H112.33l0-11.4463h7.7919l0-9.7373H162.47A8.3807,8.3807,0,0,1,161.5909,88.0435Z"/></clipPath><linearGradient id="linear-gradient-2" x1="70.2321" y1="99.0529" x2="94.6593" y2="74.6258" gradientUnits="userSpaceOnUse"><stop offset="0.25" stop-color="#f7f9fa" stop-opacity="0"/><stop offset="0.5" stop-color="#fff"/><stop offset="0.75" stop-color="#bee6fa" stop-opacity="0"/></linearGradient><clipPath id="clip-path-2"><path class="cls-1" d="M66.7892,84.3647a14.8946,14.8946,0,1,0,14.895,14.8946A14.9115,14.9115,0,0,0,66.7892,84.3647Zm0,26.7891a11.8946,11.8946,0,1,1,11.895-11.8945A11.9081,11.9081,0,0,1,66.7892,111.1538Z"/></clipPath><linearGradient id="linear-gradient-4" x1="84" y1="168" x2="84" y2="0" xlink:href="#New_Gradient_Swatch_1"/><linearGradient id="linear-gradient-5" x1="36" y1="154.2754" x2="132" y2="154.2754" gradientUnits="userSpaceOnUse"><stop offset="0" stop-color="#e8749f" stop-opacity="0"/><stop offset="0.5" stop-color="#f7f9fa"/><stop offset="1" stop-color="#e8749f" stop-opacity="0"/></linearGradient><linearGradient id="linear-gradient-6" x1="84.0001" y1="160.9999" x2="84.0001" y2="6.9999" gradientUnits="userSpaceOnUse"><stop offset="0" stop-color="#f7f9fa"/><stop offset="1" stop-color="#f7f9fa" stop-opacity="0"/></linearGradient><linearGradient id="linear-gradient-7" x1="17.4242" y1="45.1952" x2="40.8654" y2="21.754" xlink:href="#linear-gradient-2"/><linearGradient id="linear-gradient-8" x1="123.5526" y1="151.3005" x2="146.9938" y2="127.8594" xlink:href="#linear-gradient-2"/><linearGradient id="linear-gradient-9" x1="84" y1="84" x2="84" gradientUnits="userSpaceOnUse"><stop offset="0" stop-color="#e8749f" stop-opacity="0"/><stop offset="1" stop-color="#f7f9fa"/></linearGradient></defs><g id="Layer_2" data-name="Layer 2"><g id="Layer_1-2" data-name="Layer 1"><path class="cls-2" d="M68.4849,164a40.4456,40.4456,0,0,1-36.313-22.1113L5.064,88.4727a9.9189,9.9189,0,0,1,0-8.9454l27.1079-53.416A40.4456,40.4456,0,0,1,68.4849,4h31.03a40.4455,40.4455,0,0,1,36.313,22.1113l27.1084,53.417a9.9184,9.9184,0,0,1,0,8.9444l-27.1079,53.416A40.4455,40.4455,0,0,1,99.5151,164Z"/><g class="cls-3"><ellipse class="cls-4" cx="83.4667" cy="144" rx="48.5333" ry="19"/></g><g id="above" class="cls-3"><path d="M99.515,9a35.47,35.47,0,0,1,31.8544,19.3745l27.1078,53.4161a4.9,4.9,0,0,1,0,4.4189l-27.1079,53.416A35.47,35.47,0,0,1,99.515,159H68.485a35.47,35.47,0,0,1-31.8544-19.3745L9.5233,86.21a4.9007,4.9007,0,0,1-.0006-4.42L36.6306,28.3744A35.47,35.47,0,0,1,68.485,9h31.03m0-1H68.485A36.4647,36.4647,0,0,0,35.7389,27.9218L8.631,81.3378a5.9042,5.9042,0,0,0,.0005,5.3252l27.1074,53.4151A36.4648,36.4648,0,0,0,68.485,160h31.03a36.4648,36.4648,0,0,0,32.7461-19.9218L159.369,86.662a5.9052,5.9052,0,0,0,0-5.3242l-27.1079-53.416A36.4647,36.4647,0,0,0,99.515,8Z"/></g><g class="cls-5"><path class="cls-6" d="M164.2657,80.0991l-27.1079-53.416a41.9366,41.9366,0,0,0-37.65-22.9326H68.4923a41.9347,41.9347,0,0,0-37.65,22.9326L3.734,80.0991a11.4208,11.4208,0,0,0,0,10.3018l27.1084,53.417a41.9358,41.9358,0,0,0,37.65,22.9326H99.5074a41.9383,41.9383,0,0,0,37.65-22.9326l27.1079-53.417A11.4177,11.4177,0,0,0,164.2657,80.0991ZM134.483,28.0405l27.1079,53.416c.0616.1211.1064.2486.1616.3721H129.5l-.0009-26.376A28.2938,28.2938,0,0,0,76.7334,42.38,28.3466,28.3466,0,0,0,69.5,48.9312V6.7505H99.5074A38.9523,38.9523,0,0,1,134.483,28.0405ZM92.0787,125.5483h-27.06A25.5458,25.5458,0,0,1,41.5,100.2593a25.2486,25.2486,0,0,1,9.1941-19.4922c.443-.3662.9-.7119,1.3647-1.0454.144-.1035.2873-.208.4335-.3086q.7431-.5091,1.5179-.9644.1664-.0974.3346-.1924c.5659-.32,1.141-.6225,1.7286-.8974.0448-.021.09-.0405.1353-.0615a25.37,25.37,0,0,1,6.0977-1.9224c.0539-.0093.108-.0195.162-.0288q1.001-.1743,2.0171-.2676c.0824-.0073.1655-.0122.248-.0185.6821-.0562,1.3674-.0909,2.0556-.0909a25.2,25.2,0,0,1,25.29,24.26v26.3193Zm-25.29-53.5791c-.5473,0-1.09.02-1.63.05-.1331.0078-.2655.021-.3985.03-.4228.03-.8432.0684-1.2607.1167-.1275.0151-.2546.0322-.3818.0488q-.6741.0879-1.3379.2071c-.0823.0146-.1647.0283-.2469.0439a28.063,28.063,0,0,0-4.8044,1.3579c-.0563.0215-.1119.0445-.168.0664q-.6562.2556-1.2959.542-.1677.0747-.3344.1514-.565.2622-1.1157.5483c-.0891.0459-.1813.086-.27.1328a25.5343,25.5343,0,0,1,14.83-10.58l.0312-.0088c.4229-.1089.8511-.2017,1.2807-.2891.17-.0337.34-.0669.51-.0972.3468-.0629.6954-.12,1.0459-.1679.2951-.04.592-.0713.8891-.1011.26-.0264.5186-.0566.78-.0747.58-.04,1.1629-.0659,1.7489-.0659a25.2,25.2,0,0,1,25.29,24.2588v26.32H95.0787l-.001-15.2871A28.2023,28.2023,0,0,0,66.7892,71.9692ZM74.6617,60.88c-.6682,0-1.3321.0317-1.9936.0781q-.184.0132-.3674.0283a28.0835,28.0835,0,0,0-9.0115,2.2754,25.23,25.23,0,0,1,3.85-4.3476l.3794-.3282q.8591-.7426,1.7756-1.4009l.0062-.0043a25.2864,25.2864,0,0,1,3.7989-2.25c.0372-.0181.0738-.0367.1111-.0542a25.2657,25.2657,0,0,1,3.9947-1.4927c.09-.0254.18-.0523.2713-.0767.6784-.1826,1.3639-.3413,2.057-.4673.0214-.0039.0433-.0058.0647-.01.6373-.1143,1.2811-.1958,1.9278-.2608.16-.0161.3208-.0312.4819-.0444.6746-.0547,1.3521-.0913,2.0332-.0913A25.2,25.2,0,0,1,109.33,76.6929v26.3193h-6.3784l-.001-14.93A28.2014,28.2014,0,0,0,74.6617,60.88Zm9.3789-11.4463c-.6553,0-1.3078.0273-1.9579.0722-.2455.0171-.4876.0474-.7315.07-.3963.038-.7921.0776-1.1855.1323-.3018.0415-.6.0937-.9.1445-.3245.0557-.6482.1143-.97.1812-.3321.0683-.6613.144-.99.2241-.276.0679-.55.1411-.8238.2168-.3554.0986-.7091.2-1.0594.312-.2266.0723-.45.1528-.6747.231-.3842.1337-.7679.2675-1.1452.4174-.1369.0542-.27.1162-.4065.1729a28.1974,28.1974,0,0,0-2.8787,1.3755,25.3273,25.3273,0,0,1,8.903-8.6157c.1387-.08.2777-.1592.4179-.2364q.5068-.279,1.0267-.5361c.1453-.0713.2916-.1406.4381-.209.3437-.1616.6906-.3169,1.0419-.4629.1628-.0679.3273-.1308.4914-.1948.34-.1333.6816-.2622,1.0279-.3809.19-.0649.3826-.1225.5742-.1831.3268-.103.6541-.2055.9858-.2954.2281-.0615.4589-.1133.6888-.1684.3024-.0733.604-.1485.91-.2105.2783-.0561.5594-.0986.84-.1455.2661-.0444.5305-.0952.7989-.1313.3477-.0464.6983-.0762,1.0484-.108.208-.02.4141-.0473.6233-.0615.564-.0376,1.13-.0581,1.6981-.0581a25.2,25.2,0,0,1,25.2891,24.26V91.5659H112.33l-.001-14.93A28.2009,28.2009,0,0,0,84.0406,49.4341Zm7.7915-11.4473c-.7782,0-1.55.0352-2.3163.0977-.2765.0229-.5491.0674-.8243.0981-.4843.0542-.9691.1055-1.447.1841-.35.0576-.695.1372-1.0424.2075-.3921.08-.7854.1548-1.1723.251-.3885.0962-.7707.2124-1.1546.3247-.3344.0986-.6694.1934-.999.3037-.1378.0464-.28.0791-.4166.127A25.2981,25.2981,0,0,1,126.5,55.5093V81.8286h-6.3789L120.12,65.19A28.2018,28.2018,0,0,0,91.8321,37.9868ZM33.5172,28.0405A38.8861,38.8861,0,0,1,66.5,6.8184V53.729a28.242,28.242,0,0,0-1.215,2.811,28.28,28.28,0,0,0-7.0758,9.669,28.5621,28.5621,0,0,0-2.532,2.0415H13.1108Zm0,114.42L6.4088,89.0435a8.4129,8.4129,0,0,1,0-7.587l5.18-10.206H52.8125a28.02,28.02,0,0,0-4.4784,7.5947A28.2286,28.2286,0,0,0,38.5,100.2593a28.56,28.56,0,0,0,26.3476,28.2851l27.231.0035v35.2026H68.4923A38.952,38.952,0,0,1,33.5172,142.46ZM161.5909,89.0435,134.483,142.46a38.9533,38.9533,0,0,1-34.9756,21.29H95.0787V127.0483h0l0-9.5888h7.873l0-11.4473H112.33l0-11.4463h7.7919l0-9.7373H162.47A8.3807,8.3807,0,0,1,161.5909,89.0435Z"/><path class="cls-6" d="M66.7892,85.3647a14.8946,14.8946,0,1,0,14.895,14.8946A14.9115,14.9115,0,0,0,66.7892,85.3647Zm0,26.7891a11.8946,11.8946,0,1,1,11.895-11.8945A11.9081,11.9081,0,0,1,66.7892,112.1538Z"/></g><path class="cls-7" d="M101.2106,28.7505a26.764,26.764,0,0,0-22.7754,12.69A3.1373,3.1373,0,0,1,77.34,42.75,26.88,26.88,0,0,0,66.8631,55.5682a4.1109,4.1109,0,0,1-.9187,1.4117,26.8608,26.8608,0,0,0-6.1271,8.2957,5.8512,5.8512,0,0,1-1.13,1.41,26.8573,26.8573,0,0,0-8.81,11.312q-.1484.361-.2865.7274s-.5314.4546-.79.6894A26.7146,26.7146,0,0,0,40,99.2593a27.0673,27.0673,0,0,0,24.9617,26.789h28.617V114.96h7.8723V103.5127H110.83V92.0659h7.7915V82.3291H128v-27.82A26.8072,26.8072,0,0,0,101.2106,28.7505ZM66.7893,112.6538A13.3948,13.3948,0,1,1,80.1841,99.2593,13.3947,13.3947,0,0,1,66.7893,112.6538Z"/><g class="cls-5"><path class="cls-8" d="M66.7892,83.3647a15.8946,15.8946,0,1,0,15.895,15.8946A15.9124,15.9124,0,0,0,66.7892,83.3647Zm0,29.2891A13.3948,13.3948,0,1,1,80.1841,99.2593,13.3947,13.3947,0,0,1,66.7893,112.6538Z"/><path class="cls-8" d="M65.9444,56.98a26.86,26.86,0,0,0-6.1271,8.2954,5.85,5.85,0,0,1-1.13,1.41,26.8557,26.8557,0,0,0-8.81,11.312q-.1485.361-.2866.7275s-.5314.4546-.79.69A26.7141,26.7141,0,0,0,40,99.2593a27.0673,27.0673,0,0,0,24.9617,26.789h28.617V114.96h7.8723V103.5127H110.83V92.0659h7.7915V82.3291H128v-27.82A26.8,26.8,0,0,0,78.4352,41.4409,3.14,3.14,0,0,1,77.34,42.75,26.8785,26.8785,0,0,0,66.8631,55.5684,4.1128,4.1128,0,0,1,65.9444,56.98Zm25.1343,66.5683-25.9814.003A24.5517,24.5517,0,0,1,42.5,99.2593a24.2309,24.2309,0,0,1,8.8315-18.7217c.4258-.3516.8648-.6836,1.35-1.0332l.375-.2666c.4766-.3252.9624-.6357,1.4619-.9277l.3189-.1836c.5893-.334,1.1323-.6153,1.6919-.876l.0976-.0449A24.3541,24.3541,0,0,1,62.4845,75.36l.1552-.0284c.6338-.11,1.2857-.1972,1.94-.2578l.2353-.0166c.7212-.0595,1.3672-.0879,1.9742-.0879a24.18,24.18,0,0,1,24.29,23.26ZM98.9513,112.46H96.0787l-.0015-14.3252a29.1994,29.1994,0,0,0-29.288-28.1651c-.5669,0-1.1285.02-1.688.0528l-.4141.03c-.4365.0323-.8711.07-1.3081.1221l-.39.05c-.4658.0606-.9282.1309-1.46.2266l-.1817.0332A29.1779,29.1779,0,0,0,56.8,71.731a24.4915,24.4915,0,0,1,11.8574-7.087c.4063-.1044.8179-.1923,1.2271-.2763l.4907-.0938c.334-.0605.6694-.1152,1-.1611.2851-.0381.5718-.0674.8589-.0967l.2-.0215c.1826-.0185.3657-.0381.5459-.0508.5586-.038,1.1186-.0634,1.6821-.0634a24.18,24.18,0,0,1,24.29,23.2588Zm2.2592-81.209A24.18,24.18,0,0,1,125.5,54.5093V79.8286h-4.3789L121.12,64.1519A29.1993,29.1993,0,0,0,91.8321,35.9868c-.77,0-1.5766.0342-2.4009.1016-.1806.0146-.36.0381-.539.0615l-.4863.0576c-.4439.05-.8873.1006-1.3233.1729-.26.042-.5161.0957-.7729.15l-.2759.0576A24.3385,24.3385,0,0,1,101.2105,31.2505ZM79.7857,44.1978l.3365-.1905c.3242-.1787.6528-.3506.9834-.5127l.4248-.2031c.33-.1553.6626-.3037,1.0019-.4453l.4683-.1856c.3271-.1279.6557-.2519.9858-.3652.127-.043.6035-.1914.6035-.1914.2974-.0937.5948-.1875.8911-.2676.1739-.0459.7886-.1924.7886-.1924.25-.06.5005-.122.7505-.1728.1939-.0391.3887-.07.584-.1016l.4624-.0781c.1758-.0312.3516-.0625.5269-.0859.2954-.0391.5932-.0655.8911-.0928l.3608-.0361c.1177-.0127.2354-.0254.356-.0332q.8123-.0558,1.6308-.0567a24.18,24.18,0,0,1,24.2891,23.26V89.5659H113.33l-.0015-13.9678a29.1984,29.1984,0,0,0-29.2876-28.164c-.6372,0-1.3.0244-2.0293.0752-.1743.0117-.3467.03-.519.0478l-.2368.0244c-.4107.0391-.82.0811-1.2246.1368-.2686.0371-.5352.082-.8013.1279l-.1294.0215c-.3379.0566-.6743.1181-1.0059.1875-.3437.0713-.6845.1484-1.0288.2324-.2837.07-.5664.1455-.853.2246-.3672.1025-.7324.207-1.0933.3223-.1889.0605-.3755.1259-.5625.1914l-.2422.0849c-.2944.1026-.5888.2061-.8813.3184A24.7062,24.7062,0,0,1,79.7857,44.1978ZM68.172,58.3433c.5434-.47,1.1172-.9229,1.7055-1.3448l.0679-.05a24.4359,24.4359,0,0,1,3.6006-2.123l.0933-.0449a24.3243,24.3243,0,0,1,3.8359-1.4336l.26-.0743c.7-.1875,1.3466-.3339,2.039-.458.5479-.0986,1.1362-.1777,1.8545-.25.1519-.0166.3047-.03.4595-.042.7456-.06,1.3662-.0888,1.9526-.0888A24.1793,24.1793,0,0,1,108.33,75.6929v25.3193h-4.3784L103.95,87.0444A29.1986,29.1986,0,0,0,74.6617,58.88c-.6152,0-1.271.0254-2.0654.081l-.3779.0293a29.3153,29.3153,0,0,0-5.87,1.0908q.6923-.7353,1.4444-1.41Z"/></g><g class="cls-9"><path class="cls-6" d="M164.2657,79.0991l-27.1079-53.416a41.9366,41.9366,0,0,0-37.65-22.9326H68.4923a41.9347,41.9347,0,0,0-37.65,22.9326L3.734,79.0991a11.4208,11.4208,0,0,0,0,10.3018l27.1084,53.417a41.9358,41.9358,0,0,0,37.65,22.9326H99.5074a41.9383,41.9383,0,0,0,37.65-22.9326l27.1079-53.417A11.4177,11.4177,0,0,0,164.2657,79.0991ZM134.483,27.0405l27.1079,53.416c.0616.1211.1064.2486.1616.3721H129.5l-.0009-26.376A28.2938,28.2938,0,0,0,76.7334,41.38,28.3466,28.3466,0,0,0,69.5,47.9312V5.7505H99.5074A38.9523,38.9523,0,0,1,134.483,27.0405ZM92.0787,124.5483h-27.06A25.5458,25.5458,0,0,1,41.5,99.2593a25.2486,25.2486,0,0,1,9.1941-19.4922c.443-.3662.9-.7119,1.3647-1.0454.144-.1035.2873-.208.4335-.3086q.7431-.5091,1.5179-.9644.1664-.0974.3346-.1924c.5659-.32,1.141-.6225,1.7286-.8974.0448-.021.09-.0405.1353-.0615a25.37,25.37,0,0,1,6.0977-1.9224c.0539-.0093.108-.0195.162-.0288q1.001-.1743,2.0171-.2676c.0824-.0073.1655-.0122.248-.0185.6821-.0562,1.3674-.0909,2.0556-.0909a25.2,25.2,0,0,1,25.29,24.26v26.3193Zm-25.29-53.5791c-.5473,0-1.09.02-1.63.05-.1331.0078-.2655.021-.3985.03-.4228.03-.8432.0684-1.2607.1167-.1275.0151-.2546.0322-.3818.0488q-.6741.0879-1.3379.2071c-.0823.0146-.1647.0283-.2469.0439a28.063,28.063,0,0,0-4.8044,1.3579c-.0563.0215-.1119.0445-.168.0664q-.6562.2556-1.2959.542-.1677.0747-.3344.1514-.565.2622-1.1157.5483c-.0891.0459-.1813.086-.27.1328a25.5343,25.5343,0,0,1,14.83-10.58l.0312-.0088c.4229-.1089.8511-.2017,1.2807-.2891.17-.0337.34-.0669.51-.0972.3468-.0629.6954-.12,1.0459-.1679.2951-.04.592-.0713.8891-.1011.26-.0264.5186-.0566.78-.0747.58-.04,1.1629-.0659,1.7489-.0659a25.2,25.2,0,0,1,25.29,24.2588v26.32H95.0787l-.001-15.2871A28.2023,28.2023,0,0,0,66.7892,70.9692ZM74.6617,59.88c-.6682,0-1.3321.0317-1.9936.0781q-.184.0132-.3674.0283a28.0835,28.0835,0,0,0-9.0115,2.2754,25.23,25.23,0,0,1,3.85-4.3476l.3794-.3282q.8591-.7426,1.7756-1.4009l.0062-.0043a25.2864,25.2864,0,0,1,3.7989-2.25c.0372-.0181.0738-.0367.1111-.0542a25.2657,25.2657,0,0,1,3.9947-1.4927c.09-.0254.18-.0523.2713-.0767.6784-.1826,1.3639-.3413,2.057-.4673.0214-.0039.0433-.0058.0647-.01.6373-.1143,1.2811-.1958,1.9278-.2608.16-.0161.3208-.0312.4819-.0444.6746-.0547,1.3521-.0913,2.0332-.0913A25.2,25.2,0,0,1,109.33,75.6929v26.3193h-6.3784l-.001-14.93A28.2014,28.2014,0,0,0,74.6617,59.88Zm9.3789-11.4463c-.6553,0-1.3078.0273-1.9579.0722-.2455.0171-.4876.0474-.7315.07-.3963.038-.7921.0776-1.1855.1323-.3018.0415-.6.0937-.9.1445-.3245.0557-.6482.1143-.97.1812-.3321.0683-.6613.144-.99.2241-.276.0679-.55.1411-.8238.2168-.3554.0986-.7091.2-1.0594.312-.2266.0723-.45.1528-.6747.231-.3842.1337-.7679.2675-1.1452.4174-.1369.0542-.27.1162-.4065.1729a28.1974,28.1974,0,0,0-2.8787,1.3755,25.3273,25.3273,0,0,1,8.903-8.6157c.1387-.08.2777-.1592.4179-.2364q.5068-.279,1.0267-.5361c.1453-.0713.2916-.1406.4381-.209.3437-.1616.6906-.3169,1.0419-.4629.1628-.0679.3273-.1308.4914-.1948.34-.1333.6816-.2622,1.0279-.3809.19-.0649.3826-.1225.5742-.1831.3268-.103.6541-.2055.9858-.2954.2281-.0615.4589-.1133.6888-.1684.3024-.0733.604-.1485.91-.2105.2783-.0561.5594-.0986.84-.1455.2661-.0444.5305-.0952.7989-.1313.3477-.0464.6983-.0762,1.0484-.108.208-.02.4141-.0473.6233-.0615.564-.0376,1.13-.0581,1.6981-.0581a25.2,25.2,0,0,1,25.2891,24.26V90.5659H112.33l-.001-14.93A28.2009,28.2009,0,0,0,84.0406,48.4341Zm7.7915-11.4473c-.7782,0-1.55.0352-2.3163.0977-.2765.0229-.5491.0674-.8243.0981-.4843.0542-.9691.1055-1.447.1841-.35.0576-.695.1372-1.0424.2075-.3921.08-.7854.1548-1.1723.251-.3885.0962-.7707.2124-1.1546.3247-.3344.0986-.6694.1934-.999.3037-.1378.0464-.28.0791-.4166.127A25.2981,25.2981,0,0,1,126.5,54.5093V80.8286h-6.3789L120.12,64.19A28.2018,28.2018,0,0,0,91.8321,36.9868ZM33.5172,27.0405A38.8861,38.8861,0,0,1,66.5,5.8184V52.729a28.242,28.242,0,0,0-1.215,2.811,28.28,28.28,0,0,0-7.0758,9.669,28.5621,28.5621,0,0,0-2.532,2.0415H13.1108Zm0,114.42L6.4088,88.0435a8.4129,8.4129,0,0,1,0-7.587l5.18-10.206H52.8125a28.02,28.02,0,0,0-4.4784,7.5947A28.2286,28.2286,0,0,0,38.5,99.2593a28.56,28.56,0,0,0,26.3476,28.2851l27.231.0035v35.2026H68.4923A38.952,38.952,0,0,1,33.5172,141.46ZM161.5909,88.0435,134.483,141.46a38.9533,38.9533,0,0,1-34.9756,21.29H95.0787V126.0483h0l0-9.5888h7.873l0-11.4473H112.33l0-11.4463h7.7919l0-9.7373H162.47A8.3807,8.3807,0,0,1,161.5909,88.0435Z"/><path class="cls-6" d="M66.7892,84.3647a14.8946,14.8946,0,1,0,14.895,14.8946A14.9115,14.9115,0,0,0,66.7892,84.3647Zm0,26.7891a11.8946,11.8946,0,1,1,11.895-11.8945A11.9081,11.9081,0,0,1,66.7892,111.1538Z"/><path class="cls-10" d="M164.2657,79.0991l-27.1079-53.416a41.9366,41.9366,0,0,0-37.65-22.9326H68.4923a41.9347,41.9347,0,0,0-37.65,22.9326L3.734,79.0991a11.4208,11.4208,0,0,0,0,10.3018l27.1084,53.417a41.9358,41.9358,0,0,0,37.65,22.9326H99.5074a41.9383,41.9383,0,0,0,37.65-22.9326l27.1079-53.417A11.4177,11.4177,0,0,0,164.2657,79.0991ZM134.483,27.0405l27.1079,53.416c.0616.1211.1064.2486.1616.3721H129.5l-.0009-26.376A28.2938,28.2938,0,0,0,76.7334,41.38,28.3466,28.3466,0,0,0,69.5,47.9312V5.7505H99.5074A38.9523,38.9523,0,0,1,134.483,27.0405ZM92.0787,124.5483h-27.06A25.5458,25.5458,0,0,1,41.5,99.2593a25.2486,25.2486,0,0,1,9.1941-19.4922c.443-.3662.9-.7119,1.3647-1.0454.144-.1035.2873-.208.4335-.3086q.7431-.5091,1.5179-.9644.1664-.0974.3346-.1924c.5659-.32,1.141-.6225,1.7286-.8974.0448-.021.09-.0405.1353-.0615a25.37,25.37,0,0,1,6.0977-1.9224c.0539-.0093.108-.0195.162-.0288q1.001-.1743,2.0171-.2676c.0824-.0073.1655-.0122.248-.0185.6821-.0562,1.3674-.0909,2.0556-.0909a25.2,25.2,0,0,1,25.29,24.26v26.3193Zm-25.29-53.5791c-.5473,0-1.09.02-1.63.05-.1331.0078-.2655.021-.3985.03-.4228.03-.8432.0684-1.2607.1167-.1275.0151-.2546.0322-.3818.0488q-.6741.0879-1.3379.2071c-.0823.0146-.1647.0283-.2469.0439a28.063,28.063,0,0,0-4.8044,1.3579c-.0563.0215-.1119.0445-.168.0664q-.6562.2556-1.2959.542-.1677.0747-.3344.1514-.565.2622-1.1157.5483c-.0891.0459-.1813.086-.27.1328a25.5343,25.5343,0,0,1,14.83-10.58l.0312-.0088c.4229-.1089.8511-.2017,1.2807-.2891.17-.0337.34-.0669.51-.0972.3468-.0629.6954-.12,1.0459-.1679.2951-.04.592-.0713.8891-.1011.26-.0264.5186-.0566.78-.0747.58-.04,1.1629-.0659,1.7489-.0659a25.2,25.2,0,0,1,25.29,24.2588v26.32H95.0787l-.001-15.2871A28.2023,28.2023,0,0,0,66.7892,70.9692ZM74.6617,59.88c-.6682,0-1.3321.0317-1.9936.0781q-.184.0132-.3674.0283a28.0835,28.0835,0,0,0-9.0115,2.2754,25.23,25.23,0,0,1,3.85-4.3476l.3794-.3282q.8591-.7426,1.7756-1.4009l.0062-.0043a25.2864,25.2864,0,0,1,3.7989-2.25c.0372-.0181.0738-.0367.1111-.0542a25.2657,25.2657,0,0,1,3.9947-1.4927c.09-.0254.18-.0523.2713-.0767.6784-.1826,1.3639-.3413,2.057-.4673.0214-.0039.0433-.0058.0647-.01.6373-.1143,1.2811-.1958,1.9278-.2608.16-.0161.3208-.0312.4819-.0444.6746-.0547,1.3521-.0913,2.0332-.0913A25.2,25.2,0,0,1,109.33,75.6929v26.3193h-6.3784l-.001-14.93A28.2014,28.2014,0,0,0,74.6617,59.88Zm9.3789-11.4463c-.6553,0-1.3078.0273-1.9579.0722-.2455.0171-.4876.0474-.7315.07-.3963.038-.7921.0776-1.1855.1323-.3018.0415-.6.0937-.9.1445-.3245.0557-.6482.1143-.97.1812-.3321.0683-.6613.144-.99.2241-.276.0679-.55.1411-.8238.2168-.3554.0986-.7091.2-1.0594.312-.2266.0723-.45.1528-.6747.231-.3842.1337-.7679.2675-1.1452.4174-.1369.0542-.27.1162-.4065.1729a28.1974,28.1974,0,0,0-2.8787,1.3755,25.3273,25.3273,0,0,1,8.903-8.6157c.1387-.08.2777-.1592.4179-.2364q.5068-.279,1.0267-.5361c.1453-.0713.2916-.1406.4381-.209.3437-.1616.6906-.3169,1.0419-.4629.1628-.0679.3273-.1308.4914-.1948.34-.1333.6816-.2622,1.0279-.3809.19-.0649.3826-.1225.5742-.1831.3268-.103.6541-.2055.9858-.2954.2281-.0615.4589-.1133.6888-.1684.3024-.0733.604-.1485.91-.2105.2783-.0561.5594-.0986.84-.1455.2661-.0444.5305-.0952.7989-.1313.3477-.0464.6983-.0762,1.0484-.108.208-.02.4141-.0473.6233-.0615.564-.0376,1.13-.0581,1.6981-.0581a25.2,25.2,0,0,1,25.2891,24.26V90.5659H112.33l-.001-14.93A28.2009,28.2009,0,0,0,84.0406,48.4341Zm7.7915-11.4473c-.7782,0-1.55.0352-2.3163.0977-.2765.0229-.5491.0674-.8243.0981-.4843.0542-.9691.1055-1.447.1841-.35.0576-.695.1372-1.0424.2075-.3921.08-.7854.1548-1.1723.251-.3885.0962-.7707.2124-1.1546.3247-.3344.0986-.6694.1934-.999.3037-.1378.0464-.28.0791-.4166.127A25.2981,25.2981,0,0,1,126.5,54.5093V80.8286h-6.3789L120.12,64.19A28.2018,28.2018,0,0,0,91.8321,36.9868ZM33.5172,27.0405A38.8861,38.8861,0,0,1,66.5,5.8184V52.729a28.242,28.242,0,0,0-1.215,2.811,28.28,28.28,0,0,0-7.0758,9.669,28.5621,28.5621,0,0,0-2.532,2.0415H13.1108Zm0,114.42L6.4088,88.0435a8.4129,8.4129,0,0,1,0-7.587l5.18-10.206H52.8125a28.02,28.02,0,0,0-4.4784,7.5947A28.2286,28.2286,0,0,0,38.5,99.2593a28.56,28.56,0,0,0,26.3476,28.2851l27.231.0035v35.2026H68.4923A38.952,38.952,0,0,1,33.5172,141.46ZM161.5909,88.0435,134.483,141.46a38.9533,38.9533,0,0,1-34.9756,21.29H95.0787V126.0483h0l0-9.5888h7.873l0-11.4473H112.33l0-11.4463h7.7919l0-9.7373H162.47A8.3807,8.3807,0,0,1,161.5909,88.0435Z"/><path class="cls-10" d="M66.7892,84.3647a14.8946,14.8946,0,1,0,14.895,14.8946A14.9115,14.9115,0,0,0,66.7892,84.3647Zm0,26.7891a11.8946,11.8946,0,1,1,11.895-11.8945A11.9081,11.9081,0,0,1,66.7892,111.1538Z"/></g><g id="highlight"><rect class="cls-11" x="120.121" y="83.8286" height="9.2373"/><path class="cls-11" d="M95.0787,113.46h4.8726v-.5H95.0787l-.001-15.2871A28.2023,28.2023,0,0,0,66.7892,70.4692c-.5473,0-1.09.02-1.63.05-.1331.0078-.2655.021-.3985.03-.4228.03-.8432.0684-1.2607.1167-.1275.0151-.2546.0322-.3818.0488q-.6741.0879-1.3379.2071c-.0823.0146-.1647.0283-.2469.0439a28.063,28.063,0,0,0-4.8044,1.3579c-.0563.0215-.1119.0445-.168.0664q-.6562.2556-1.2959.542-.1677.0747-.3344.1514c-.275.1274-.5446.2641-.8145.4-.1884.2617-.3924.5112-.5711.7807.0886-.0468.1808-.0869.27-.1328q.5512-.2856,1.1157-.5483.1667-.0769.3344-.1514.64-.2863,1.2959-.542c.0561-.0219.1117-.0449.168-.0664a28.063,28.063,0,0,1,4.8044-1.3579c.0822-.0156.1646-.0293.2469-.0439q.6639-.1194,1.3379-.2071c.1272-.0166.2543-.0337.3818-.0488.4175-.0483.8379-.0864,1.2607-.1167.133-.0093.2654-.0225.3985-.03.54-.0307,1.0823-.05,1.63-.05A28.2023,28.2023,0,0,1,95.0777,98.1724Z"/><rect class="cls-11" x="112.3295" y="93.5659" height="10.9463"/><rect class="cls-11" x="102.9511" y="105.0122" height="10.9473"/><path class="cls-11" d="M92.0787,124.0483h-27.06a25.5468,25.5468,0,0,1-23.5124-25.02c-.0007.0777-.0066.1533-.0066.231a25.5458,25.5458,0,0,0,23.519,25.289h27.06Z"/><path class="cls-11" d="M134.483,140.96a38.9533,38.9533,0,0,1-34.9756,21.29H95.0787v.5h4.4287a38.9533,38.9533,0,0,0,34.9756-21.29l27.1079-53.4169a8.3807,8.3807,0,0,0,.8794-4.2149h-.006a8.3165,8.3165,0,0,1-.8734,3.7149Z"/><path class="cls-11" d="M38.5,98.7593c0,.0893.0057.1772.0065.2661a28.2278,28.2278,0,0,1,9.8275-21.18,28.02,28.02,0,0,1,4.4784-7.5947h-.3812a27.9638,27.9638,0,0,0-4.0972,7.0947A28.2286,28.2286,0,0,0,38.5,98.7593Z"/><path class="cls-11" d="M3.734,79.0991l27.1084-53.416a41.9347,41.9347,0,0,1,37.65-22.9326H99.5074a41.9366,41.9366,0,0,1,37.65,22.9326l27.1079,53.416A11.3648,11.3648,0,0,1,165.4792,84a11.375,11.375,0,0,0-1.2135-5.4009l-27.1079-53.416a41.9366,41.9366,0,0,0-37.65-22.9326H68.4923a41.9347,41.9347,0,0,0-37.65,22.9326L3.734,78.5991A11.377,11.377,0,0,0,2.5209,84,11.3686,11.3686,0,0,1,3.734,79.0991Z"/><path class="cls-11" d="M82.8762,38.4536c.33-.11.6646-.2051.999-.3037.3839-.1123.7661-.2285,1.1546-.3247.3869-.0962.78-.1709,1.1723-.251.3474-.07.6922-.15,1.0424-.2075.4779-.0786.9627-.13,1.447-.1841.2752-.0307.5478-.0752.8243-.0981.766-.0625,1.5381-.0977,2.3163-.0977A28.2018,28.2018,0,0,1,120.12,64.19l.001,16.6387H126.5v-.5h-6.3789L120.12,63.69A28.2018,28.2018,0,0,0,91.8321,36.4868c-.7782,0-1.55.0352-2.3163.0977-.2765.0229-.5491.0674-.8243.0981-.4843.0542-.9691.1055-1.447.1841-.35.0576-.695.1372-1.0424.2075-.3921.08-.7854.1548-1.1723.251-.3885.0962-.7707.2124-1.1546.3247q-.3729.11-.7427.2256c-.227.2324-.4544.4639-.6729.7051C82.5966,38.5327,82.7384,38.5,82.8762,38.4536Z"/><path class="cls-11" d="M55.6773,67.2505a28.5621,28.5621,0,0,1,2.532-2.0415,28.28,28.28,0,0,1,7.0758-9.669A28.242,28.242,0,0,1,66.5,52.729v-.5a28.242,28.242,0,0,0-1.215,2.811,28.28,28.28,0,0,0-7.0758,9.669,28.5621,28.5621,0,0,0-2.532,2.0415H13.3645l-.2537.5Z"/><path class="cls-11" d="M6.4088,88.0435,33.5172,141.46a38.952,38.952,0,0,0,34.9751,21.29H92.0787v-.5H68.4923a38.952,38.952,0,0,1-34.9751-21.29L6.4088,87.5435A8.3694,8.3694,0,0,1,5.5194,84,8.3806,8.3806,0,0,0,6.4088,88.0435Z"/><path class="cls-11" d="M76.7334,41.38a28.2938,28.2938,0,0,1,52.7657,13.0727l.0009,26.376h32.2525c-.0552-.1235-.1-.251-.1616-.3721l-.0649-.1279H129.5l-.0009-26.376A28.2938,28.2938,0,0,0,76.7334,40.88,28.3466,28.3466,0,0,0,69.5,47.4312v.5A28.3466,28.3466,0,0,1,76.7334,41.38Z"/><polygon class="cls-11" points="95.079 126.048 95.079 125.548 95.079 125.548 95.078 116.459 95.078 116.459 95.079 126.048 95.079 126.048"/><path class="cls-11" d="M73.1967,50.6089c.136-.0567.27-.1187.4065-.1729.3773-.15.761-.2837,1.1452-.4174.2246-.0782.4481-.1587.6747-.231.35-.1123.704-.2134,1.0594-.312.2737-.0757.5478-.1489.8238-.2168.3283-.08.6575-.1558.99-.2241.322-.0669.6457-.1255.97-.1812.2993-.0508.5978-.103.9-.1445.3934-.0547.7892-.0943,1.1855-.1323.2439-.023.486-.0533.7315-.07.65-.0449,1.3026-.0722,1.9579-.0722a28.2009,28.2009,0,0,1,28.2881,27.2021l.001,14.93h4.7915v-.5H112.33l-.001-14.93A28.2009,28.2009,0,0,0,84.0406,47.9341c-.6553,0-1.3078.0273-1.9579.0722-.2455.0171-.4876.0474-.7315.07-.3963.038-.7921.0776-1.1855.1323-.3018.0415-.6.0937-.9.1445-.3245.0557-.6482.1143-.97.1812-.3321.0683-.6613.144-.99.2241-.276.0679-.55.1411-.8238.2168-.3554.0986-.7091.2-1.0594.312-.2266.0723-.45.1528-.6747.231-.3842.1337-.7679.2675-1.1452.4174-.1369.0542-.27.1162-.4065.1729-.8105.3364-1.6019.7119-2.3767,1.1182-.1685.2514-.3422.499-.502.7573A28.1974,28.1974,0,0,1,73.1967,50.6089Z"/><path class="cls-11" d="M72.3007,59.9868q.1836-.0153.3674-.0283c.6615-.0464,1.3254-.0781,1.9936-.0781A28.2014,28.2014,0,0,1,102.95,87.0825l.001,14.93H109.33v-.5h-6.3784l-.001-14.93A28.2014,28.2014,0,0,0,74.6617,59.38c-.6682,0-1.3321.0317-1.9936.0781q-.184.0132-.3674.0283a28.1037,28.1037,0,0,0-8.49,2.0713c-.1753.2334-.3545.4639-.5219.7041A28.0835,28.0835,0,0,1,72.3007,59.9868Z"/><path class="cls-11" d="M66.7892,84.3647A14.9052,14.9052,0,0,1,81.6715,99.0093c.0014-.084.0127-.1655.0127-.25a14.8948,14.8948,0,0,0-29.79,0c0,.0845.0113.166.0127.25A14.9051,14.9051,0,0,1,66.7892,84.3647Z"/><path class="cls-11" d="M66.7892,111.1538a11.9082,11.9082,0,0,0,11.895-11.8945c0-.0845-.011-.166-.0127-.25a11.8845,11.8845,0,0,1-23.7642,0c-.0018.084-.0127.1655-.0127.25A11.9081,11.9081,0,0,0,66.7892,111.1538Z"/></g><g class="cls-12"><path id="FOR_LINE_WORK_LIPS" data-name="FOR LINE WORK LIPS" class="cls-13" d="M32.0928,12.0593A90.3458,90.3458,0,0,0,8.8311,37.08L131.9853,160.8061a90.2609,90.2609,0,0,0,24.9043-23.37Z"/></g><g class="cls-14"><path id="FOR_LINE_WORK_LIPS-2" data-name="FOR LINE WORK LIPS" class="cls-13" d="M32.0928,12.0593A90.3458,90.3458,0,0,0,8.8311,37.08L131.9853,160.8061a90.2609,90.2609,0,0,0,24.9043-23.37Z"/></g><g id="below"><path class="cls-15" d="M99.515,168h-31.03a44.4269,44.4269,0,0,1-39.88-24.3008L1.4971,90.2832a13.9332,13.9332,0,0,1-.0005-12.5654L28.605,24.3008A44.4269,44.4269,0,0,1,68.4849,0h31.03a44.4268,44.4268,0,0,1,39.88,24.3008l27.1084,53.417a13.9327,13.9327,0,0,1,0,12.5644l-27.1084,53.417A44.4268,44.4268,0,0,1,99.515,168ZM68.4849,8A36.4647,36.4647,0,0,0,35.7388,27.9219L8.6309,81.3379a5.9042,5.9042,0,0,0,0,5.3252l27.1074,53.415A36.4647,36.4647,0,0,0,68.4849,160h31.03a36.4647,36.4647,0,0,0,32.7461-19.9219l27.1079-53.416a5.9052,5.9052,0,0,0,0-5.3242l-27.1079-53.416A36.4647,36.4647,0,0,0,99.515,8Z"/></g><path class="cls-16" d="M132,140.5508A36.46,36.46,0,0,1,99.515,160h-31.03A36.46,36.46,0,0,1,36,140.5508v13.6145A44.62,44.62,0,0,0,68.4849,168h31.03A44.62,44.62,0,0,0,132,154.1653Z"/><path class="cls-17" d="M99.515,8a36.4647,36.4647,0,0,1,32.7461,19.9219l27.1079,53.416a5.9052,5.9052,0,0,1,0,5.3242l-27.1079,53.4161A36.4648,36.4648,0,0,1,99.515,160H68.485a36.4648,36.4648,0,0,1-32.7461-19.9218L8.6315,86.663a5.9042,5.9042,0,0,1-.0005-5.3252l27.1079-53.416A36.4647,36.4647,0,0,1,68.485,8h31.03m0-1H68.485A37.46,37.46,0,0,0,34.8472,27.4692L7.7393,80.8852a6.9089,6.9089,0,0,0,0,6.2305l27.1075,53.415A37.46,37.46,0,0,0,68.485,161h31.03a37.46,37.46,0,0,0,33.6378-20.4692l27.1079-53.416a6.9078,6.9078,0,0,0,0-6.23l-27.108-53.416A37.46,37.46,0,0,0,99.515,7Z"/><g id="highlight-2" data-name="highlight"><path class="cls-18" d="M34.5465,15.4351a44.36,44.36,0,0,0-5.9644,8.8657l-10.79,21.2619,5.9513,5.9515L35.7158,27.9219a36.34,36.34,0,0,1,4.5011-6.8164Z"/><path class="cls-19" d="M147.2853,128.1511,141.3341,122.2l-9.073,17.8784a36.1924,36.1924,0,0,1-8.7838,11.147l5.67,5.67a44.2086,44.2086,0,0,0,10.2473-13.1963Z"/></g><path class="cls-20" d="M7.9967,84a5.8844,5.8844,0,0,1,.6342-2.6621l27.1079-53.416A36.4647,36.4647,0,0,1,68.4849,8h31.03a36.4647,36.4647,0,0,1,32.7461,19.9219l27.1079,53.416A5.8856,5.8856,0,0,1,160.0031,84H168a13.8882,13.8882,0,0,0-1.4967-6.2822l-27.1084-53.417A44.4268,44.4268,0,0,0,99.515,0h-31.03a44.4269,44.4269,0,0,0-39.88,24.3008L1.4966,77.7178A13.8868,13.8868,0,0,0,0,84Z"/></g></g></svg>