<svg xmlns="http://www.w3.org/2000/svg" xmlns:xlink="http://www.w3.org/1999/xlink" viewBox="0 0 168 168"><defs><style>.cls-1{fill:none;}.cls-2{fill:url(#linear-gradient);}.cls-3,.cls-7{opacity:0.3;}.cls-4{fill:url(#radial-gradient);}.cls-5{opacity:0.5;}.cls-6{fill:url(#linear-gradient-2);}.cls-8{fill:url(#New_Gradient_Swatch_3);}.cls-9{fill:url(#New_Gradient_Swatch_3-2);}.cls-10{fill:url(#New_Gradient_Swatch_3-3);}.cls-11{fill:url(#New_Gradient_Swatch_3-4);}.cls-12{fill:url(#New_Gradient_Swatch_4);}.cls-13{fill:#fff;}.cls-14{clip-path:url(#clip-path);}.cls-15,.cls-23{opacity:0.6;}.cls-15{fill:url(#New_Gradient_Swatch_6);}.cls-16{clip-path:url(#clip-path-2);}.cls-17{clip-path:url(#clip-path-3);}.cls-18{clip-path:url(#clip-path-4);}.cls-19{fill:url(#New_Gradient_Swatch_4-5);}.cls-20{fill:url(#linear-gradient-3);}.cls-21{fill:url(#linear-gradient-4);}.cls-22{opacity:0.4;fill:url(#New_Gradient_Swatch_6-5);}.cls-23{fill:url(#linear-gradient-5);}</style><linearGradient id="linear-gradient" x1="84" y1="168" x2="84" gradientUnits="userSpaceOnUse"><stop offset="0" stop-color="#303e46"/><stop offset="1"/></linearGradient><radialGradient id="radial-gradient" cx="-1515.62" cy="1736.79" fy="1754.847781512845" r="20.27" gradientTransform="translate(3115.77 -1486.44) scale(2 0.94)" gradientUnits="userSpaceOnUse"><stop offset="0" stop-color="#fff"/><stop offset="0.68" stop-color="#00b6d0" stop-opacity="0"/></radialGradient><linearGradient id="linear-gradient-2" x1="98.2" y1="115.73" x2="98.2" y2="51.73" gradientUnits="userSpaceOnUse"><stop offset="0" stop-color="#00abe5"/><stop offset="1" stop-color="#136ab3"/></linearGradient><linearGradient id="New_Gradient_Swatch_3" x1="2.7" y1="83.75" x2="165.7" y2="83.75" gradientUnits="userSpaceOnUse"><stop offset="0" stop-color="#a53d25"/><stop offset="1" stop-color="#f9a661"/></linearGradient><linearGradient id="New_Gradient_Swatch_3-2" x1="78.7" y1="83.73" x2="89.7" y2="83.73" xlink:href="#New_Gradient_Swatch_3"/><linearGradient id="New_Gradient_Swatch_3-3" x1="106.7" y1="83.73" x2="117.7" y2="83.73" xlink:href="#New_Gradient_Swatch_3"/><linearGradient id="New_Gradient_Swatch_3-4" x1="92.7" y1="83.73" x2="103.7" y2="83.73" xlink:href="#New_Gradient_Swatch_3"/><linearGradient id="New_Gradient_Swatch_4" x1="-1115.8" y1="-482.75" x2="-1115.8" y2="-645.75" gradientTransform="translate(1200 648)" gradientUnits="userSpaceOnUse"><stop offset="0" stop-color="#71879a"/><stop offset="1" stop-color="#f5f9fa"/></linearGradient><clipPath id="clip-path"><path class="cls-1" d="M84.2,2.25a81.5,81.5,0,1,0,81.5,81.5A81.59,81.59,0,0,0,84.2,2.25Zm78.5,81.5a78,78,0,0,1-6.16,30.48H141.7V71.73a21.52,21.52,0,0,0-21.5-21.5H57.7V9.86a78.5,78.5,0,0,1,105,73.89ZM57.7,53.23h62.5a18.52,18.52,0,0,1,18.5,18.5v42.5H76.2a18.52,18.52,0,0,1-18.5-18.5ZM54.7,11V50.23H13.24A79,79,0,0,1,54.7,11ZM5.7,83.75a78,78,0,0,1,6.18-30.52H54.7v42.5a21.53,21.53,0,0,0,21.5,21.5h62.5v22.94c-.72.7-1.45,1.39-2.2,2.06H31.9A78.35,78.35,0,0,1,5.7,83.75Zm29.77,61.48h97.46a78.27,78.27,0,0,1-97.46,0Zm106.23-8.11V117.23h13.49A79,79,0,0,1,141.7,137.12Z"/></clipPath><linearGradient id="New_Gradient_Swatch_6" x1="2850.91" y1="3008.1" x2="2882.91" y2="3008.1" gradientTransform="translate(-2784.53 -2926.08)" gradientUnits="userSpaceOnUse"><stop offset="0.25" stop-color="#f5f9fa" stop-opacity="0"/><stop offset="0.5" stop-color="#fff"/><stop offset="0.75" stop-color="#b5e3f8" stop-opacity="0"/></linearGradient><clipPath id="clip-path-2"><path class="cls-1" d="M87.14,92.79a1.51,1.51,0,0,0,1.06.44,1.5,1.5,0,0,0,1.06-2.56l-6.94-6.94,6.94-6.94a1.5,1.5,0,0,0-2.12-2.12l-8,8a1.51,1.51,0,0,0,0,2.12Z"/></clipPath><clipPath id="clip-path-3"><path class="cls-1" d="M107.14,92.79a1.51,1.51,0,0,0,1.06.44,1.49,1.49,0,0,0,1.06-.44l8-8a1.49,1.49,0,0,0,0-2.12l-8-8a1.49,1.49,0,0,0-2.12,0,1.51,1.51,0,0,0,0,2.12l6.94,6.94-6.94,6.94A1.51,1.51,0,0,0,107.14,92.79Z"/></clipPath><clipPath id="clip-path-4"><path class="cls-1" d="M93.53,93.07a1.49,1.49,0,0,0,2-.67l8-16a1.5,1.5,0,1,0-2.68-1.34l-8,16A1.5,1.5,0,0,0,93.53,93.07Z"/></clipPath><linearGradient id="New_Gradient_Swatch_4-5" x1="84" y1="168" x2="84" y2="0" gradientTransform="matrix(1, 0, 0, 1, 0, 0)" xlink:href="#New_Gradient_Swatch_4"/><linearGradient id="linear-gradient-3" x1="84" y1="7" x2="84" y2="161" gradientUnits="userSpaceOnUse"><stop offset="0" stop-color="#fff" stop-opacity="0"/><stop offset="1" stop-color="#fff" stop-opacity="0.7"/></linearGradient><linearGradient id="linear-gradient-4" x1="36" y1="155.44" x2="132" y2="155.44" gradientUnits="userSpaceOnUse"><stop offset="0" stop-color="#fff" stop-opacity="0"/><stop offset="0.5" stop-color="#cfebf1" stop-opacity="0.5"/><stop offset="1" stop-color="#fff" stop-opacity="0"/></linearGradient><linearGradient id="New_Gradient_Swatch_6-5" x1="127.74" y1="151.96" x2="151.16" y2="128.53" gradientTransform="matrix(1, 0, 0, 1, 0, 0)" xlink:href="#New_Gradient_Swatch_6"/><linearGradient id="linear-gradient-5" x1="16.04" y1="40.26" x2="39.47" y2="16.84" gradientTransform="matrix(1, 0, 0, 1, 0, 0)" xlink:href="#New_Gradient_Swatch_6"/></defs><g id="Layer_2" data-name="Layer 2"><g id="Layer_1-2" data-name="Layer 1"><path id="base_bkgd" data-name="base bkgd" class="cls-2" d="M84,168a84,84,0,1,1,84-84A84.09,84.09,0,0,1,84,168Z"/><g id="border_shadow" data-name="border shadow"><path d="M84,9A75,75,0,1,1,9,84,75.08,75.08,0,0,1,84,9m0-1a76,76,0,1,0,76,76A76.08,76.08,0,0,0,84,8Z"/></g><g id="elipse" class="cls-3"><ellipse class="cls-4" cx="84.53" cy="141.81" rx="40.53" ry="19"/></g><g class="cls-5"><path d="M84.2,3.25a81.5,81.5,0,1,0,81.5,81.5A81.59,81.59,0,0,0,84.2,3.25Zm78.5,81.5a78,78,0,0,1-6.16,30.48H141.7V72.73a21.52,21.52,0,0,0-21.5-21.5H57.7V10.86a78.5,78.5,0,0,1,105,73.89ZM57.7,54.23h62.5a18.52,18.52,0,0,1,18.5,18.5v42.5H76.2a18.52,18.52,0,0,1-18.5-18.5ZM54.7,12V51.23H13.24A79,79,0,0,1,54.7,12ZM5.7,84.75a78,78,0,0,1,6.18-30.52H54.7v42.5a21.53,21.53,0,0,0,21.5,21.5h62.5v22.94c-.72.7-1.45,1.39-2.2,2.06H31.9A78.35,78.35,0,0,1,5.7,84.75Zm29.77,61.48h97.46a78.27,78.27,0,0,1-97.46,0Zm106.23-8.11V118.23h13.49A79,79,0,0,1,141.7,138.12Z"/><path d="M87.14,93.79a1.51,1.51,0,0,0,1.06.44,1.5,1.5,0,0,0,1.06-2.56l-6.94-6.94,6.94-6.94a1.5,1.5,0,0,0-2.12-2.12l-8,8a1.51,1.51,0,0,0,0,2.12Z"/><path d="M107.14,93.79a1.51,1.51,0,0,0,1.06.44,1.49,1.49,0,0,0,1.06-.44l8-8a1.49,1.49,0,0,0,0-2.12l-8-8a1.49,1.49,0,0,0-2.12,0,1.51,1.51,0,0,0,0,2.12l6.94,6.94-6.94,6.94A1.51,1.51,0,0,0,107.14,93.79Z"/><path d="M93.53,94.07a1.49,1.49,0,0,0,2-.67l8-16a1.5,1.5,0,1,0-2.68-1.34l-8,16A1.5,1.5,0,0,0,93.53,94.07Z"/><g class="cls-5"><path d="M84.2,3.25a81.5,81.5,0,1,0,81.5,81.5A81.59,81.59,0,0,0,84.2,3.25Zm78.5,81.5a78,78,0,0,1-6.16,30.48H141.7V72.73a21.52,21.52,0,0,0-21.5-21.5H57.7V10.86a78.5,78.5,0,0,1,105,73.89ZM57.7,54.23h62.5a18.52,18.52,0,0,1,18.5,18.5v42.5H76.2a18.52,18.52,0,0,1-18.5-18.5ZM54.7,12V51.23H13.24A79,79,0,0,1,54.7,12ZM5.7,84.75a78,78,0,0,1,6.18-30.52H54.7v42.5a21.53,21.53,0,0,0,21.5,21.5h62.5v22.94c-.72.7-1.45,1.39-2.2,2.06H31.9A78.35,78.35,0,0,1,5.7,84.75Zm29.77,61.48h97.46a78.27,78.27,0,0,1-97.46,0Zm106.23-8.11V118.23h13.49A79,79,0,0,1,141.7,138.12Z"/><path d="M87.14,93.79a1.51,1.51,0,0,0,1.06.44,1.5,1.5,0,0,0,1.06-2.56l-6.94-6.94,6.94-6.94a1.5,1.5,0,0,0-2.12-2.12l-8,8a1.51,1.51,0,0,0,0,2.12Z"/><path d="M107.14,93.79a1.51,1.51,0,0,0,1.06.44,1.49,1.49,0,0,0,1.06-.44l8-8a1.49,1.49,0,0,0,0-2.12l-8-8a1.49,1.49,0,0,0-2.12,0,1.51,1.51,0,0,0,0,2.12l6.94,6.94-6.94,6.94A1.51,1.51,0,0,0,107.14,93.79Z"/><path d="M93.53,94.07a1.49,1.49,0,0,0,2-.67l8-16a1.5,1.5,0,1,0-2.68-1.34l-8,16A1.5,1.5,0,0,0,93.53,94.07Z"/></g></g><path class="cls-6" d="M140.2,71.73a20,20,0,0,0-20-20h-64v44a20,20,0,0,0,20,20h64Z"/><path class="cls-7" d="M86.43,93.49a2.49,2.49,0,0,0,3.54,0A2.5,2.5,0,0,0,90,90l-6.23-6.23L90,77.49A2.5,2.5,0,0,0,86.43,74l-8,8a2.5,2.5,0,0,0,0,3.53Z"/><path class="cls-7" d="M106.43,93.49a2.49,2.49,0,0,0,3.54,0l8-8A2.5,2.5,0,0,0,118,82l-8-8a2.5,2.5,0,0,0-3.54,3.53l6.24,6.24L106.43,90A2.5,2.5,0,0,0,106.43,93.49Z"/><path class="cls-7" d="M93.09,94a2.39,2.39,0,0,0,1.11.27,2.49,2.49,0,0,0,2.24-1.39l8-16a2.51,2.51,0,0,0-1.12-3.35,2.56,2.56,0,0,0-1.12-.26A2.48,2.48,0,0,0,100,74.61l-8,16A2.49,2.49,0,0,0,93.09,94Z"/><path class="cls-7" d="M120.2,51.73h-64v44a20,20,0,0,0,20,20h64v-44A20,20,0,0,0,120.2,51.73Zm17.5,61.5H76.2a17.52,17.52,0,0,1-17.5-17.5V54.23h61.5a17.52,17.52,0,0,1,17.5,17.5Z"/><path class="cls-8" d="M84.2,2.25a81.5,81.5,0,1,0,81.5,81.5A81.59,81.59,0,0,0,84.2,2.25Zm78.5,81.5a78,78,0,0,1-6.16,30.48H141.7V71.73a21.52,21.52,0,0,0-21.5-21.5H57.7V9.86a78.5,78.5,0,0,1,105,73.89ZM57.7,53.23h62.5a18.52,18.52,0,0,1,18.5,18.5v42.5H76.2a18.52,18.52,0,0,1-18.5-18.5ZM54.7,11V50.23H13.24A79,79,0,0,1,54.7,11ZM5.7,83.75a78,78,0,0,1,6.18-30.52H54.7v42.5a21.53,21.53,0,0,0,21.5,21.5h62.5v22.94c-.72.7-1.45,1.39-2.2,2.06H31.9A78.35,78.35,0,0,1,5.7,83.75Zm29.77,61.48h97.46a78.27,78.27,0,0,1-97.46,0Zm106.23-8.11V117.23h13.49A79,79,0,0,1,141.7,137.12Z"/><path class="cls-9" d="M87.14,92.79a1.51,1.51,0,0,0,1.06.44,1.5,1.5,0,0,0,1.06-2.56l-6.94-6.94,6.94-6.94a1.5,1.5,0,0,0-2.12-2.12l-8,8a1.51,1.51,0,0,0,0,2.12Z"/><path class="cls-10" d="M107.14,92.79a1.51,1.51,0,0,0,1.06.44,1.49,1.49,0,0,0,1.06-.44l8-8a1.49,1.49,0,0,0,0-2.12l-8-8a1.49,1.49,0,0,0-2.12,0,1.51,1.51,0,0,0,0,2.12l6.94,6.94-6.94,6.94A1.51,1.51,0,0,0,107.14,92.79Z"/><path class="cls-11" d="M93.53,93.07a1.49,1.49,0,0,0,2-.67l8-16a1.5,1.5,0,1,0-2.68-1.34l-8,16A1.5,1.5,0,0,0,93.53,93.07Z"/><path class="cls-12" d="M84.2,2.25a81.5,81.5,0,1,0,81.5,81.5A81.59,81.59,0,0,0,84.2,2.25Zm78.5,81.5a78,78,0,0,1-6.16,30.48H141.7V71.73a21.52,21.52,0,0,0-21.5-21.5H57.7V9.86a78.5,78.5,0,0,1,105,73.89ZM57.7,53.23h62.5a18.52,18.52,0,0,1,18.5,18.5v42.5H76.2a18.52,18.52,0,0,1-18.5-18.5ZM54.7,11V50.23H13.24A79,79,0,0,1,54.7,11ZM5.7,83.75a78,78,0,0,1,6.18-30.52H54.7v42.5a21.53,21.53,0,0,0,21.5,21.5h62.5v22.94c-.72.7-1.45,1.39-2.2,2.06H31.9A78.35,78.35,0,0,1,5.7,83.75Zm29.77,61.48h97.46a78.27,78.27,0,0,1-97.46,0Zm106.23-8.11V117.23h13.49A79,79,0,0,1,141.7,137.12Z"/><path class="cls-12" d="M87.14,92.79a1.51,1.51,0,0,0,1.06.44,1.5,1.5,0,0,0,1.06-2.56l-6.94-6.94,6.94-6.94a1.5,1.5,0,0,0-2.12-2.12l-8,8a1.51,1.51,0,0,0,0,2.12Z"/><path class="cls-12" d="M107.14,92.79a1.51,1.51,0,0,0,1.06.44,1.49,1.49,0,0,0,1.06-.44l8-8a1.49,1.49,0,0,0,0-2.12l-8-8a1.49,1.49,0,0,0-2.12,0,1.51,1.51,0,0,0,0,2.12l6.94,6.94-6.94,6.94A1.51,1.51,0,0,0,107.14,92.79Z"/><path class="cls-12" d="M93.53,93.07a1.49,1.49,0,0,0,2-.67l8-16a1.5,1.5,0,1,0-2.68-1.34l-8,16A1.5,1.5,0,0,0,93.53,93.07Z"/><path class="cls-13" d="M141.7,113.73v.5h14.84a78,78,0,0,0,6.16-30.48V83.5a78.12,78.12,0,0,1-6.16,30.23Z"/><path class="cls-13" d="M141.7,137.12a79,79,0,0,0,13.49-19.89h-.25a79,79,0,0,1-13.24,19.39Z"/><path class="cls-13" d="M84.2,2.25A81.6,81.6,0,0,1,165.7,83.5v-.25a81.5,81.5,0,1,0-163,0c0,.08,0,.17,0,.25A81.59,81.59,0,0,1,84.2,2.25Z"/><path class="cls-13" d="M120.2,50.23a21.52,21.52,0,0,1,21.5,21.5v-.5a21.52,21.52,0,0,0-21.5-21.5H57.7v.5Z"/><path class="cls-13" d="M31.9,142.23H136.5c.75-.67,1.48-1.36,2.2-2.06v-.5c-.72.7-1.45,1.39-2.2,2.06H31.9A78.3,78.3,0,0,1,5.71,83.58s0,.11,0,.17A78.35,78.35,0,0,0,31.9,142.23Z"/><path class="cls-13" d="M36.13,145.23h-.66a78.27,78.27,0,0,0,97.46,0h-.66a78.2,78.2,0,0,1-96.14,0Z"/><path class="cls-13" d="M54.7,50.23v-.5H13.49l-.25.5Z"/><path class="cls-13" d="M76.2,114.23h62.5v-.5H76.2a18.52,18.52,0,0,1-18.5-18.5v.5A18.52,18.52,0,0,0,76.2,114.23Z"/><path class="cls-13" d="M79.14,82.67l8-8a1.49,1.49,0,0,1,2.12,0,1.41,1.41,0,0,1,.39.81,1.45,1.45,0,0,0-.39-1.31,1.49,1.49,0,0,0-2.12,0l-8,8a1.45,1.45,0,0,0-.39,1.31A1.41,1.41,0,0,1,79.14,82.67Z"/><path class="cls-13" d="M82.57,83.48l-.25.25,6.94,6.94a1.41,1.41,0,0,1,.39.81,1.45,1.45,0,0,0-.39-1.31Z"/><path class="cls-13" d="M107.14,74.67a1.49,1.49,0,0,1,2.12,0l8,8a1.41,1.41,0,0,1,.39.81,1.45,1.45,0,0,0-.39-1.31l-8-8a1.49,1.49,0,0,0-2.12,0,1.45,1.45,0,0,0-.39,1.31A1.41,1.41,0,0,1,107.14,74.67Z"/><path class="cls-13" d="M107.14,90.67l6.94-6.94-.25-.25-6.69,6.69a1.45,1.45,0,0,0-.39,1.31A1.41,1.41,0,0,1,107.14,90.67Z"/><path class="cls-13" d="M92.86,91.06l8-16a1.51,1.51,0,0,1,2-.68,1.48,1.48,0,0,1,.8,1.09,1.49,1.49,0,0,0-.8-1.59,1.51,1.51,0,0,0-2,.68l-8,16a1.48,1.48,0,0,0-.13.92A1.28,1.28,0,0,1,92.86,91.06Z"/><g class="cls-14"><rect id="glare" class="cls-15" x="66.37" y="-17.98" width="32" height="200" transform="translate(-33.87 82.27) rotate(-45)"/></g><g class="cls-16"><rect id="glare-2" data-name="glare" class="cls-15" x="66.37" y="-17.98" width="32" height="200" transform="translate(-33.87 82.27) rotate(-45)"/></g><g class="cls-17"><rect id="glare-3" data-name="glare" class="cls-15" x="66.37" y="-17.98" width="32" height="200" transform="translate(-33.87 82.27) rotate(-45)"/></g><g class="cls-18"><rect id="glare-4" data-name="glare" class="cls-15" x="66.37" y="-17.98" width="32" height="200" transform="translate(-33.87 82.27) rotate(-45)"/></g><path id="border" class="cls-19" d="M84,168a84,84,0,1,1,84-84A84.09,84.09,0,0,1,84,168ZM84,8a76,76,0,1,0,76,76A76.08,76.08,0,0,0,84,8Z"/><g id="border_highlight" data-name="border highlight"><path class="cls-20" d="M84,8A76,76,0,1,1,8,84,76.08,76.08,0,0,1,84,8m0-1a77,77,0,1,0,77,77A77.08,77.08,0,0,0,84,7Z"/></g><path id="outer_pink" data-name="outer pink" class="cls-21" d="M132,152.88v-10a75.82,75.82,0,0,1-96,0v10a83.75,83.75,0,0,0,96,0Z"/><path id="right_glare" data-name="right glare" class="cls-22" d="M153.6,131l-5.78-5.79a76.65,76.65,0,0,1-23.6,23.25l5.79,5.79A84.63,84.63,0,0,0,153.6,131Z"/><path id="left_glare" data-name="left glare" class="cls-23" d="M13.77,38l5.79,5.79a76.65,76.65,0,0,1,23.25-23.6L37,14.4A84.63,84.63,0,0,0,13.77,38Z"/></g></g></svg>