<svg xmlns="http://www.w3.org/2000/svg" xmlns:xlink="http://www.w3.org/1999/xlink" width="168" height="168" viewBox="0 0 168 168"><defs><style>.cls-1{fill:url(#linear-gradient);}.cls-2{opacity:0.5;}.cls-3{fill:#fff;}.cls-4{fill:url(#New_Gradient_Swatch_4);}.cls-19,.cls-5{opacity:0.3;}.cls-6{fill:url(#New_Gradient_Swatch_1);}.cls-7,.cls-8{opacity:0.8;}.cls-7{fill:url(#linear-gradient-2);}.cls-9{fill:url(#linear-gradient-3);}.cls-10{fill:url(#linear-gradient-4);}.cls-11{fill:url(#linear-gradient-5);}.cls-12{fill:url(#linear-gradient-6);}.cls-13{fill:url(#linear-gradient-7);}.cls-14{fill:url(#linear-gradient-8);}.cls-15{fill:url(#linear-gradient-9);}.cls-16{fill:url(#linear-gradient-10);}.cls-17{fill:url(#linear-gradient-11);}.cls-18{fill:url(#linear-gradient-12);}.cls-20{fill:url(#radial-gradient);}.cls-21{opacity:0.7;fill:url(#linear-gradient-13);}.cls-22{fill:url(#linear-gradient-14);}.cls-23{opacity:0.4;fill:url(#linear-gradient-15);}</style><linearGradient id="linear-gradient" x1="84" y1="168" x2="84" gradientUnits="userSpaceOnUse"><stop offset="0" stop-color="#333d45"/><stop offset="0.9988"/></linearGradient><linearGradient id="New_Gradient_Swatch_4" x1="94.2485" y1="134" x2="94.2485" y2="34" gradientUnits="userSpaceOnUse"><stop offset="0" stop-color="#8359df"/><stop offset="1" stop-color="#00a894"/></linearGradient><linearGradient id="New_Gradient_Swatch_1" x1="-799.0235" y1="165.5" x2="-799.0235" y2="2.5" gradientTransform="translate(883.0234)" gradientUnits="userSpaceOnUse"><stop offset="0" stop-color="#688199"/><stop offset="1" stop-color="#f7f9fa"/></linearGradient><linearGradient id="linear-gradient-2" x1="61.2856" y1="80.7144" x2="74.7144" y2="67.2856" gradientUnits="userSpaceOnUse"><stop offset="0.25" stop-color="#f7f9fa" stop-opacity="0"/><stop offset="0.5" stop-color="#fff"/><stop offset="0.75" stop-color="#bee6fa" stop-opacity="0"/></linearGradient><linearGradient id="linear-gradient-3" x1="34.5107" y1="58.7325" x2="57.9336" y2="35.3096" xlink:href="#linear-gradient-2"/><linearGradient id="linear-gradient-4" x1="46.5438" y1="70.7656" x2="69.9667" y2="47.3426" xlink:href="#linear-gradient-2"/><linearGradient id="linear-gradient-5" x1="97.2345" y1="121.4562" x2="120.6574" y2="98.0333" xlink:href="#linear-gradient-2"/><linearGradient id="linear-gradient-6" x1="106.118" y1="130.3397" x2="129.541" y2="106.9167" xlink:href="#linear-gradient-2"/><linearGradient id="linear-gradient-7" x1="71.8891" y1="96.1109" x2="73.9052" y2="94.0947" xlink:href="#linear-gradient-2"/><linearGradient id="linear-gradient-8" x1="118.8793" y1="143.1011" x2="142.3024" y2="119.6781" xlink:href="#linear-gradient-2"/><linearGradient id="linear-gradient-9" x1="16.0265" y1="40.2483" x2="39.4494" y2="16.8253" xlink:href="#linear-gradient-2"/><linearGradient id="linear-gradient-10" x1="84" y1="168" x2="84" y2="0" gradientTransform="matrix(1, 0, 0, 1, 0, 0)" xlink:href="#New_Gradient_Swatch_1"/><linearGradient id="linear-gradient-11" x1="84" y1="161" x2="84" y2="7" gradientUnits="userSpaceOnUse"><stop offset="0" stop-color="#f7f9fa"/><stop offset="1" stop-color="#f7f9fa" stop-opacity="0"/></linearGradient><linearGradient id="linear-gradient-12" x1="36" y1="155.4357" x2="132" y2="155.4357" gradientUnits="userSpaceOnUse"><stop offset="0" stop-color="#e8749f" stop-opacity="0"/><stop offset="0.5" stop-color="#f7f9fa"/><stop offset="1" stop-color="#e8749f" stop-opacity="0"/></linearGradient><radialGradient id="radial-gradient" cx="-612.4047" cy="1955.2777" fy="1973.3322451503054" r="20.2667" gradientTransform="translate(1309.3428 -1691.2667) scale(2 0.9375)" gradientUnits="userSpaceOnUse"><stop offset="0" stop-color="#fff"/><stop offset="0.6802" stop-color="#e78bad" stop-opacity="0"/></radialGradient><linearGradient id="linear-gradient-13" x1="127.7358" y1="151.9575" x2="151.1587" y2="128.5346" xlink:href="#linear-gradient-2"/><linearGradient id="linear-gradient-14" x1="16.0425" y1="40.2642" x2="39.4654" y2="16.8413" xlink:href="#linear-gradient-2"/><linearGradient id="linear-gradient-15" x1="84" y1="84" x2="84" gradientUnits="userSpaceOnUse"><stop offset="0" stop-color="#e8749f" stop-opacity="0"/><stop offset="1" stop-color="#f7f9fa"/></linearGradient></defs><g id="Layer_2" data-name="Layer 2"><g id="Layer_1-2" data-name="Layer 1"><path id="base_bkgd" data-name="base bkgd" class="cls-1" d="M84,168a84,84,0,1,1,84-84A84.0953,84.0953,0,0,1,84,168Z"/><g id="border_shadow" data-name="border shadow"><path d="M84,9A75,75,0,1,1,9,84,75.0849,75.0849,0,0,1,84,9m0-1a76,76,0,1,0,76,76A76.0861,76.0861,0,0,0,84,8Z"/></g><g class="cls-2"><path class="cls-3" d="M84,3.5A81.5,81.5,0,1,0,165.5,85,81.592,81.592,0,0,0,84,3.5Zm39.5,53.41a48.4533,48.4533,0,0,1,5.0825,9.0087c.1514.3526.2908.709.4333,1.064.1575.3926.3187.7832.4661,1.1807.1326.3564.251.7163.3745,1.0752.1424.4126.2893.8227.4207,1.24.0974.31.1809.6226.272.9341.1384.4726.281.9438.405,1.4228.0591.2276.1062.4576.1618.6861.1375.5639.2757,1.1279.3934,1.7.0217.1064.0371.2143.0581.3213a48.4181,48.4181,0,0,1,0,18.9135c-.0212.107-.0366.2149-.0583.3218-.1177.5718-.2559,1.1358-.3934,1.7-.0556.2285-.1027.4585-.1618.6861-.124.479-.2666.95-.405,1.4228-.0911.3115-.1746.6245-.272.9341-.1311.417-.2781.8271-.42,1.2393-.124.3588-.2424.72-.375,1.0766-.1474.397-.3081.7871-.4656,1.1787-.1428.356-.2822.7124-.4338,1.0659A48.5718,48.5718,0,0,1,85.5,133.4619v-9A39.5416,39.5416,0,0,0,123.5,85Zm-3,13.0053A39.49,39.49,0,0,0,44.5381,83.5h-9A48.457,48.457,0,0,1,120.5,53.1157Zm0-54.3818V48.707a51.4292,51.4292,0,0,0-80.1433,9.0005A79.37,79.37,0,0,1,96.893,7.5771,77.8676,77.8676,0,0,1,120.5,15.5337ZM84,6.5c1.7021,0,3.3867.0737,5.0622.1807A82.4482,82.4482,0,0,0,32.5322,83.5H5.5381A78.5759,78.5759,0,0,1,84,6.5ZM5.5381,86.5H32.5V93a30.6978,30.6978,0,0,1-18.2632,27.9214A77.957,77.957,0,0,1,5.5381,86.5ZM82.5,163.4619a78.536,78.536,0,0,1-66.8313-39.8931A33.7663,33.7663,0,0,0,34.7324,99.9927,51.5871,51.5871,0,0,0,82.5,136.4619Zm0-30A48.5419,48.5419,0,0,1,35.5381,86.5h9A39.5391,39.5391,0,0,0,82.5,124.4619ZM47.539,86.5391a36.54,36.54,0,0,1,34.9219,34.9218A36.54,36.54,0,0,1,47.539,86.5391Zm-.0019-3a36.496,36.496,0,1,1,37.9238,37.9238A39.5394,39.5394,0,0,0,47.5371,83.5391ZM142.5,137.2729a78.31,78.31,0,0,1-57,26.189V136.5h57Zm0-3.7729H101.3056a51.7693,51.7693,0,0,0,29.4739-27H142c.1687,0,.3327-.019.5-.0254Zm0-30.0254c-.167.0078-.3313.0254-.5.0254h-9.9336c.061-.1577.112-.3179.1714-.4761.1118-.2983.2175-.5991.3237-.9.1687-.477.3325-.9546.4866-1.435.0945-.2945.1845-.5909.2739-.8877q.2266-.7522.43-1.51.1135-.4248.22-.8515.1974-.7926.368-1.59c.0591-.2744.1184-.5488.1731-.8247.1086-.5488.205-1.1.2959-1.6528.0442-.27.0908-.5386.1308-.81.0838-.5679.1533-1.1382.2178-1.7095.03-.2636.0649-.5258.0908-.7905.0586-.6016.1006-1.2056.1382-1.811.0151-.2393.0371-.4761.0488-.7163.0408-.8418.0645-1.6866.0645-2.5347s-.0237-1.6929-.0645-2.5347c-.0117-.24-.0337-.477-.0488-.7163-.0376-.605-.08-1.2094-.1382-1.811-.0259-.2647-.0605-.5269-.0906-.79-.0647-.5717-.1342-1.142-.218-1.71-.04-.271-.0866-.54-.1308-.81-.0909-.5527-.1873-1.104-.2959-1.6528-.0547-.2759-.114-.55-.1731-.8247q-.1718-.7983-.368-1.59-.1065-.4269-.22-.851-.2028-.7589-.43-1.5113c-.0892-.2968-.1792-.5927-.2737-.8872-.1541-.48-.3179-.958-.4866-1.435-.1062-.3008-.2119-.6016-.3237-.9-.0594-.1582-.11-.3184-.1714-.4761H142A10.5119,10.5119,0,0,1,152.5,77V93a10.5081,10.5081,0,0,1-7,9.8872V90.2866a5.5,5.5,0,1,0-3,0ZM141.5,85a2.5,2.5,0,1,1,2.5,2.5A2.5026,2.5026,0,0,1,141.5,85Zm4,21.0234A13.5117,13.5117,0,0,0,155.5,93V77A13.5151,13.5151,0,0,0,142,63.5H130.78A51.6259,51.6259,0,0,0,123.5,52V17.2046a78.36,78.36,0,0,1,22,116.4941Z"/><path class="cls-3" d="M68,65.5A9.5,9.5,0,1,0,77.5,75,9.5108,9.5108,0,0,0,68,65.5Zm0,16A6.5,6.5,0,1,1,74.5,75,6.5075,6.5075,0,0,1,68,81.5Z"/><path d="M84,3.5A81.5,81.5,0,1,0,165.5,85,81.592,81.592,0,0,0,84,3.5Zm39.5,53.41a48.4533,48.4533,0,0,1,5.0825,9.0087c.1514.3526.2908.709.4333,1.064.1575.3926.3187.7832.4661,1.1807.1326.3564.251.7163.3745,1.0752.1424.4126.2893.8227.4207,1.24.0974.31.1809.6226.272.9341.1384.4726.281.9438.405,1.4228.0591.2276.1062.4576.1618.6861.1375.5639.2757,1.1279.3934,1.7.0217.1064.0371.2143.0581.3213a48.4181,48.4181,0,0,1,0,18.9135c-.0212.107-.0366.2149-.0583.3218-.1177.5718-.2559,1.1358-.3934,1.7-.0556.2285-.1027.4585-.1618.6861-.124.479-.2666.95-.405,1.4228-.0911.3115-.1746.6245-.272.9341-.1311.417-.2781.8271-.42,1.2393-.124.3588-.2424.72-.375,1.0766-.1474.397-.3081.7871-.4656,1.1787-.1428.356-.2822.7124-.4338,1.0659A48.5718,48.5718,0,0,1,85.5,133.4619v-9A39.5416,39.5416,0,0,0,123.5,85Zm-3,13.0053A39.49,39.49,0,0,0,44.5381,83.5h-9A48.457,48.457,0,0,1,120.5,53.1157Zm0-54.3818V48.707a51.4292,51.4292,0,0,0-80.1433,9.0005A79.37,79.37,0,0,1,96.893,7.5771,77.8676,77.8676,0,0,1,120.5,15.5337ZM84,6.5c1.7021,0,3.3867.0737,5.0622.1807A82.4482,82.4482,0,0,0,32.5322,83.5H5.5381A78.5759,78.5759,0,0,1,84,6.5ZM5.5381,86.5H32.5V93a30.6978,30.6978,0,0,1-18.2632,27.9214A77.957,77.957,0,0,1,5.5381,86.5ZM82.5,163.4619a78.536,78.536,0,0,1-66.8313-39.8931A33.7663,33.7663,0,0,0,34.7324,99.9927,51.5871,51.5871,0,0,0,82.5,136.4619Zm0-30A48.5419,48.5419,0,0,1,35.5381,86.5h9A39.5391,39.5391,0,0,0,82.5,124.4619ZM47.539,86.5391a36.54,36.54,0,0,1,34.9219,34.9218A36.54,36.54,0,0,1,47.539,86.5391Zm-.0019-3a36.496,36.496,0,1,1,37.9238,37.9238A39.5394,39.5394,0,0,0,47.5371,83.5391ZM142.5,137.2729a78.31,78.31,0,0,1-57,26.189V136.5h57Zm0-3.7729H101.3056a51.7693,51.7693,0,0,0,29.4739-27H142c.1687,0,.3327-.019.5-.0254Zm0-30.0254c-.167.0078-.3313.0254-.5.0254h-9.9336c.061-.1577.112-.3179.1714-.4761.1118-.2983.2175-.5991.3237-.9.1687-.477.3325-.9546.4866-1.435.0945-.2945.1845-.5909.2739-.8877q.2266-.7522.43-1.51.1135-.4248.22-.8515.1974-.7926.368-1.59c.0591-.2744.1184-.5488.1731-.8247.1086-.5488.205-1.1.2959-1.6528.0442-.27.0908-.5386.1308-.81.0838-.5679.1533-1.1382.2178-1.7095.03-.2636.0649-.5258.0908-.7905.0586-.6016.1006-1.2056.1382-1.811.0151-.2393.0371-.4761.0488-.7163.0408-.8418.0645-1.6866.0645-2.5347s-.0237-1.6929-.0645-2.5347c-.0117-.24-.0337-.477-.0488-.7163-.0376-.605-.08-1.2094-.1382-1.811-.0259-.2647-.0605-.5269-.0906-.79-.0647-.5717-.1342-1.142-.218-1.71-.04-.271-.0866-.54-.1308-.81-.0909-.5527-.1873-1.104-.2959-1.6528-.0547-.2759-.114-.55-.1731-.8247q-.1718-.7983-.368-1.59-.1065-.4269-.22-.851-.2028-.7589-.43-1.5113c-.0892-.2968-.1792-.5927-.2737-.8872-.1541-.48-.3179-.958-.4866-1.435-.1062-.3008-.2119-.6016-.3237-.9-.0594-.1582-.11-.3184-.1714-.4761H142A10.5119,10.5119,0,0,1,152.5,77V93a10.5081,10.5081,0,0,1-7,9.8872V90.2866a5.5,5.5,0,1,0-3,0ZM141.5,85a2.5,2.5,0,1,1,2.5,2.5A2.5026,2.5026,0,0,1,141.5,85Zm4,21.0234A13.5117,13.5117,0,0,0,155.5,93V77A13.5151,13.5151,0,0,0,142,63.5H130.78A51.6259,51.6259,0,0,0,123.5,52V17.2046a78.36,78.36,0,0,1,22,116.4941Z"/><path d="M68,65.5A9.5,9.5,0,1,0,77.5,75,9.5108,9.5108,0,0,0,68,65.5Zm0,16A6.5,6.5,0,1,1,74.5,75,6.5075,6.5075,0,0,1,68,81.5Z"/></g><path class="cls-4" d="M142.2485,64H130.0761a50,50,0,1,0,0,40h12.1724a12,12,0,0,0,12-12V76A12,12,0,0,0,142.2485,64Zm-58,58a38,38,0,1,1,38-38A38,38,0,0,1,84.2485,122Zm60-34a4,4,0,1,1,4-4A4,4,0,0,1,144.2485,88Z"/><path class="cls-5" d="M142.2485,64H130.0761a50.218,50.218,0,0,0-19.625-22.5874q-1.5236-.94-3.1178-1.7725t-3.2524-1.55A49.581,49.581,0,0,0,93.62,34.8774q-.91-.1728-1.8327-.3125-1.8439-.279-3.73-.4218-.9428-.0711-1.8951-.107T84.2485,34a50,50,0,0,0,0,100q.9611,0,1.9133-.0361t1.8951-.107q1.8855-.142,3.73-.4218.922-.1392,1.8327-.3125a49.581,49.581,0,0,0,10.461-3.2129q1.6581-.7171,3.2524-1.55t3.1178-1.7725A50.2159,50.2159,0,0,0,130.0761,104h12.1724a12,12,0,0,0,12-12V76A12,12,0,0,0,142.2485,64ZM50.925,49.9482A47.3963,47.3963,0,0,1,119.5,52.4932V64.5215A40.4889,40.4889,0,0,0,43.5857,81.5H36.58A47.2455,47.2455,0,0,1,50.925,49.9482ZM81.5,131.42A47.55,47.55,0,0,1,36.58,86.5h7.0064A40.6647,40.6647,0,0,0,81.5,124.4131ZM84.2485,122a38,38,0,1,1,38-38A38,38,0,0,1,84.2485,122Zm46.3387-28.7412-.0577.3174c-.11.5361-.2392,1.0654-.3852,1.666,0,0-.126.5459-.1587.6709-.0981.3789-.2085.7539-.3189,1.1289l-.1772.6113c-.0537.1905-.1074.38-.166.5674-.0967.3066-.2026.61-.3086.9141l-.2105.6113c-.0839.248-.1684.4961-.26.7432-.1143.3066-.2363.6093-.3584.9121l-.2036.5068c-.104.2607-.208.5205-.3189.7793A47.71,47.71,0,0,1,86.5,131.42v-7.0058A40.3509,40.3509,0,0,0,124.5,84V59.2256a47.0342,47.0342,0,0,1,3.1635,6.0879c.1153.2676.2232.5381.3311.8086l.1973.4912c.12.2978.24.5957.3535.9.0932.2509.1792.5039.2651.7568l.2012.583c.1069.3076.2138.6143.311.9238.06.19.1133.3789.167.5694l.1772.6113c.11.375.2208.75.3194,1.1289.0322.125.1758.7422.1758.7422.1284.5293.2573,1.0586.3676,1.5947l.0567.3135a47.4183,47.4183,0,0,1,.001,18.5215ZM140.2485,84a4,4,0,1,1,4,4A4,4,0,0,1,140.2485,84ZM151.5,92a9.514,9.514,0,0,1-5,8.3516V89.9941a6.5,6.5,0,1,0-5,0V101.5H133.489l.0152-.042c.1718-.4873.3388-.9726.4965-1.4639q.1436-.4511.2788-.9052.2309-.7662.4385-1.54.1158-.4322.2241-.8672c.1343-.539.2583-1.0791.3892-1.6855.0557-.2588.1108-.5166.1626-.7773.1108-.56.209-1.1221.3018-1.6846,0,0,.102-.6133.1333-.8252.0854-.58.1562-1.1621.2221-1.7422,0,0,.0747-.624.0923-.8076.06-.6133.103-1.23.1411-1.8447,0,0,.042-.5782.05-.73.0415-.8584.0655-1.72.0655-2.584s-.024-1.7256-.0655-2.584c-.0078-.1514-.05-.73-.05-.73-.0381-.6152-.081-1.2324-.1411-1.8467-.0171-.1767-.0918-.8037-.0918-.8037-.0664-.584-.1372-1.165-.2226-1.7451-.0313-.2119-.1333-.8242-.1333-.8242-.0928-.5635-.191-1.126-.3018-1.6856-.0518-.2607-.1069-.5185-.1763-.8417q-.1758-.813-.375-1.62-.1083-.4365-.2246-.8681-.2073-.7749-.4385-1.54c-.0908-.3027-.1826-.6045-.2793-.9062-.1572-.49-.3242-.9756-.4956-1.461L133.489,66.5H142a9.5108,9.5108,0,0,1,9.5,9.5Z"/><path class="cls-3" d="M84,2.5A81.5,81.5,0,1,0,165.5,84,81.592,81.592,0,0,0,84,2.5Zm39.5,53.41a48.4533,48.4533,0,0,1,5.0825,9.0087c.1514.3526.2908.709.4333,1.064.1575.3926.3187.7832.4661,1.1807.1326.3564.251.7163.3745,1.0752.1424.4126.2893.8227.4207,1.24.0974.31.1809.6226.272.9341.1384.4726.281.9438.405,1.4228.0591.2276.1062.4576.1618.6861.1375.5639.2757,1.1279.3934,1.7.0217.1064.0371.2143.0581.3213a48.4181,48.4181,0,0,1,0,18.9135c-.0212.107-.0366.2149-.0583.3218-.1177.5718-.2559,1.1358-.3934,1.7-.0556.2285-.1027.4585-.1618.6861-.124.479-.2666.95-.405,1.4228-.0911.3115-.1746.6245-.272.9341-.1311.417-.2781.8271-.42,1.2393-.124.3588-.2424.72-.375,1.0766-.1474.397-.3081.7871-.4656,1.1787-.1428.356-.2822.7124-.4338,1.0659A48.5718,48.5718,0,0,1,85.5,132.4619v-9A39.5416,39.5416,0,0,0,123.5,84Zm-3,13.0053A39.49,39.49,0,0,0,44.5381,82.5h-9A48.457,48.457,0,0,1,120.5,52.1157Zm0-54.3818V47.707a51.4292,51.4292,0,0,0-80.1433,9.0005A79.37,79.37,0,0,1,96.893,6.5771,77.8676,77.8676,0,0,1,120.5,14.5337ZM84,5.5c1.7021,0,3.3867.0737,5.0622.1807A82.4482,82.4482,0,0,0,32.5322,82.5H5.5381A78.5759,78.5759,0,0,1,84,5.5ZM5.5381,85.5H32.5V92a30.6978,30.6978,0,0,1-18.2632,27.9214A77.957,77.957,0,0,1,5.5381,85.5ZM82.5,162.4619a78.536,78.536,0,0,1-66.8313-39.8931A33.7663,33.7663,0,0,0,34.7324,98.9927,51.5871,51.5871,0,0,0,82.5,135.4619Zm0-30A48.5419,48.5419,0,0,1,35.5381,85.5h9A39.5391,39.5391,0,0,0,82.5,123.4619ZM47.539,85.5391a36.54,36.54,0,0,1,34.9219,34.9218A36.54,36.54,0,0,1,47.539,85.5391Zm-.0019-3a36.496,36.496,0,1,1,37.9238,37.9238A39.5394,39.5394,0,0,0,47.5371,82.5391ZM142.5,136.2729a78.31,78.31,0,0,1-57,26.189V135.5h57Zm0-3.7729H101.3056a51.7693,51.7693,0,0,0,29.4739-27H142c.1687,0,.3327-.019.5-.0254Zm0-30.0254c-.167.0078-.3313.0254-.5.0254h-9.9336c.061-.1577.112-.3179.1714-.4761.1118-.2983.2175-.5991.3237-.9.1687-.477.3325-.9546.4866-1.435.0945-.2945.1845-.5909.2739-.8877q.2266-.7522.43-1.51.1135-.4248.22-.8515.1974-.7926.368-1.59c.0591-.2744.1184-.5488.1731-.8247.1086-.5488.205-1.1.2959-1.6528.0442-.27.0908-.5386.1308-.81.0838-.5679.1533-1.1382.2178-1.7095.03-.2636.0649-.5258.0908-.7905.0586-.6016.1006-1.2056.1382-1.811.0151-.2393.0371-.4761.0488-.7163.0408-.8418.0645-1.6866.0645-2.5347s-.0237-1.6929-.0645-2.5347c-.0117-.24-.0337-.477-.0488-.7163-.0376-.605-.08-1.2094-.1382-1.811-.0259-.2647-.0605-.5269-.0906-.79-.0647-.5717-.1342-1.142-.218-1.71-.04-.271-.0866-.54-.1308-.81-.0909-.5527-.1873-1.104-.2959-1.6528-.0547-.2759-.114-.55-.1731-.8247q-.1718-.7983-.368-1.59-.1065-.4269-.22-.851-.2028-.7589-.43-1.5113c-.0892-.2968-.1792-.5927-.2737-.8872-.1541-.48-.3179-.958-.4866-1.435-.1062-.3008-.2119-.6016-.3237-.9-.0594-.1582-.11-.3184-.1714-.4761H142A10.5119,10.5119,0,0,1,152.5,76V92a10.5081,10.5081,0,0,1-7,9.8872V89.2866a5.5,5.5,0,1,0-3,0ZM141.5,84a2.5,2.5,0,1,1,2.5,2.5A2.5026,2.5026,0,0,1,141.5,84Zm4,21.0234A13.5117,13.5117,0,0,0,155.5,92V76A13.5151,13.5151,0,0,0,142,62.5H130.78A51.6259,51.6259,0,0,0,123.5,51V16.2046a78.36,78.36,0,0,1,22,116.4941Z"/><path class="cls-3" d="M68,64.5A9.5,9.5,0,1,0,77.5,74,9.5108,9.5108,0,0,0,68,64.5Zm0,16A6.5,6.5,0,1,1,74.5,74,6.5075,6.5075,0,0,1,68,80.5Z"/><path class="cls-6" d="M84,2.5A81.5,81.5,0,1,0,165.5,84,81.592,81.592,0,0,0,84,2.5Zm39.5,53.41a48.4533,48.4533,0,0,1,5.0825,9.0087c.1514.3526.2908.709.4333,1.064.1575.3926.3187.7832.4661,1.1807.1326.3564.251.7163.3745,1.0752.1424.4126.2893.8227.4207,1.24.0974.31.1809.6226.272.9341.1384.4726.281.9438.405,1.4228.0591.2276.1062.4576.1618.6861.1375.5639.2757,1.1279.3934,1.7.0217.1064.0371.2143.0581.3213a48.4181,48.4181,0,0,1,0,18.9135c-.0212.107-.0366.2149-.0583.3218-.1177.5718-.2559,1.1358-.3934,1.7-.0556.2285-.1027.4585-.1618.6861-.124.479-.2666.95-.405,1.4228-.0911.3115-.1746.6245-.272.9341-.1311.417-.2781.8271-.42,1.2393-.124.3588-.2424.72-.375,1.0766-.1474.397-.3081.7871-.4656,1.1787-.1428.356-.2822.7124-.4338,1.0659A48.5718,48.5718,0,0,1,85.5,132.4619v-9A39.5416,39.5416,0,0,0,123.5,84Zm-3,13.0053A39.49,39.49,0,0,0,44.5381,82.5h-9A48.457,48.457,0,0,1,120.5,52.1157Zm0-54.3818V47.707a51.4292,51.4292,0,0,0-80.1433,9.0005A79.37,79.37,0,0,1,96.893,6.5771,77.8676,77.8676,0,0,1,120.5,14.5337ZM84,5.5c1.7021,0,3.3867.0737,5.0622.1807A82.4482,82.4482,0,0,0,32.5322,82.5H5.5381A78.5759,78.5759,0,0,1,84,5.5ZM5.5381,85.5H32.5V92a30.6978,30.6978,0,0,1-18.2632,27.9214A77.957,77.957,0,0,1,5.5381,85.5ZM82.5,162.4619a78.536,78.536,0,0,1-66.8313-39.8931A33.7663,33.7663,0,0,0,34.7324,98.9927,51.5871,51.5871,0,0,0,82.5,135.4619Zm0-30A48.5419,48.5419,0,0,1,35.5381,85.5h9A39.5391,39.5391,0,0,0,82.5,123.4619ZM47.539,85.5391a36.54,36.54,0,0,1,34.9219,34.9218A36.54,36.54,0,0,1,47.539,85.5391Zm-.0019-3a36.496,36.496,0,1,1,37.9238,37.9238A39.5394,39.5394,0,0,0,47.5371,82.5391ZM142.5,136.2729a78.31,78.31,0,0,1-57,26.189V135.5h57Zm0-3.7729H101.3056a51.7693,51.7693,0,0,0,29.4739-27H142c.1687,0,.3327-.019.5-.0254Zm0-30.0254c-.167.0078-.3313.0254-.5.0254h-9.9336c.061-.1577.112-.3179.1714-.4761.1118-.2983.2175-.5991.3237-.9.1687-.477.3325-.9546.4866-1.435.0945-.2945.1845-.5909.2739-.8877q.2266-.7522.43-1.51.1135-.4248.22-.8515.1974-.7926.368-1.59c.0591-.2744.1184-.5488.1731-.8247.1086-.5488.205-1.1.2959-1.6528.0442-.27.0908-.5386.1308-.81.0838-.5679.1533-1.1382.2178-1.7095.03-.2636.0649-.5258.0908-.7905.0586-.6016.1006-1.2056.1382-1.811.0151-.2393.0371-.4761.0488-.7163.0408-.8418.0645-1.6866.0645-2.5347s-.0237-1.6929-.0645-2.5347c-.0117-.24-.0337-.477-.0488-.7163-.0376-.605-.08-1.2094-.1382-1.811-.0259-.2647-.0605-.5269-.0906-.79-.0647-.5717-.1342-1.142-.218-1.71-.04-.271-.0866-.54-.1308-.81-.0909-.5527-.1873-1.104-.2959-1.6528-.0547-.2759-.114-.55-.1731-.8247q-.1718-.7983-.368-1.59-.1065-.4269-.22-.851-.2028-.7589-.43-1.5113c-.0892-.2968-.1792-.5927-.2737-.8872-.1541-.48-.3179-.958-.4866-1.435-.1062-.3008-.2119-.6016-.3237-.9-.0594-.1582-.11-.3184-.1714-.4761H142A10.5119,10.5119,0,0,1,152.5,76V92a10.5081,10.5081,0,0,1-7,9.8872V89.2866a5.5,5.5,0,1,0-3,0ZM141.5,84a2.5,2.5,0,1,1,2.5,2.5A2.5026,2.5026,0,0,1,141.5,84Zm4,21.0234A13.5117,13.5117,0,0,0,155.5,92V76A13.5151,13.5151,0,0,0,142,62.5H130.78A51.6259,51.6259,0,0,0,123.5,51V16.2046a78.36,78.36,0,0,1,22,116.4941Z"/><path class="cls-6" d="M68,64.5A9.5,9.5,0,1,0,77.5,74,9.5108,9.5108,0,0,0,68,64.5Zm0,16A6.5,6.5,0,1,1,74.5,74,6.5075,6.5075,0,0,1,68,80.5Z"/><path class="cls-3" d="M84,33a51.339,51.339,0,0,1,36.5,15.207v-.5a51.403,51.403,0,0,0-79.6832,8.3155c-.1517.396-.3147.7871-.46,1.185A51.5,51.5,0,0,1,84,33Z"/><path class="cls-3" d="M82.4609,120.9609c-.0071-.1684-.0237-.3344-.0331-.5019A36.5363,36.5363,0,0,1,47.5721,86.041c-.0111,0-.0219-.0014-.0331-.0019A36.54,36.54,0,0,0,82.4609,120.9609Z"/><path class="cls-3" d="M44.5381,83A39.49,39.49,0,0,1,120.5,69.4155v-.5A39.49,39.49,0,0,0,44.5381,82.5H35.5659c-.0068.1675-.0227.332-.0278.5Z"/><path class="cls-3" d="M120.5,84.5c0-.083-.0058-.1641-.0063-.2471a36.5364,36.5364,0,0,1-35.0328,36.21A39.5391,39.5391,0,0,0,47.5691,82.541c-.0088.1665-.0254.3311-.032.4981a39.5394,39.5394,0,0,1,37.9238,37.9238A36.5393,36.5393,0,0,0,120.5,84.5Z"/><path class="cls-3" d="M82.5,132.4619A48.5368,48.5368,0,0,1,35.5657,86h-.0276A48.5419,48.5419,0,0,0,82.5,132.9619Z"/><path class="cls-3" d="M84,3a81.5887,81.5887,0,0,1,81.4936,81.25c0-.084.0064-.166.0064-.25a81.5,81.5,0,0,0-163,0c0,.084.0061.166.0063.25A81.5888,81.5888,0,0,1,84,3Z"/><path class="cls-3" d="M149.4842,84.1885c.0022-.064.0158-.1245.0158-.1885a5.5,5.5,0,0,0-11,0c0,.064.0136.1245.0158.1885a5.4926,5.4926,0,0,1,10.9684,0Z"/><path class="cls-3" d="M145.5,133.1987A78.0946,78.0946,0,0,0,162.5,84.5c0-.0938-.0045-.1865-.0048-.28A78.0931,78.0931,0,0,1,145.5,132.6987Z"/><path class="cls-3" d="M82.5,162.9619v-.5A78.5266,78.5266,0,0,1,15.8974,122.958c-.0774.0352-.1511.0762-.2287.1108A78.536,78.536,0,0,0,82.5,162.9619Z"/><path class="cls-3" d="M32.5322,83a82.4482,82.4482,0,0,1,56.53-76.8193c-.4112-.0264-.8252-.0425-1.2375-.064A82.4042,82.4042,0,0,0,32.5322,82.5H5.56c-.0041.1675-.0188.332-.0219.5Z"/><path class="cls-3" d="M146.5,84.5a2.4636,2.4636,0,0,0-.0253-.25,2.486,2.486,0,0,1-4.9495,0,2.4635,2.4635,0,0,0-.0252.25,2.5,2.5,0,0,0,5,0Z"/><path class="cls-3" d="M130.78,63H142a13.5151,13.5151,0,0,1,13.5,13.5V76A13.5151,13.5151,0,0,0,142,62.5H130.78A51.6259,51.6259,0,0,0,123.5,51v.5A51.6259,51.6259,0,0,1,130.78,63Z"/><path class="cls-3" d="M14.2368,120.4214A30.6978,30.6978,0,0,0,32.5,92.5V92a30.6978,30.6978,0,0,1-18.2632,27.9214A77.9474,77.9474,0,0,1,5.5548,86H5.5381A77.957,77.957,0,0,0,14.2368,120.4214Z"/><path class="cls-3" d="M142.5,102.4746c-.167.0078-.3313.0254-.5.0254h-9.7536l-.0086.0239c-.0594.1582-.11.3184-.1714.4761H142c.1687,0,.333-.0176.5-.0254Z"/><path class="cls-3" d="M152.5,92.5V92a10.5081,10.5081,0,0,1-7,9.8872v.5A10.5081,10.5081,0,0,0,152.5,92.5Z"/><path class="cls-3" d="M85.5,132.4619v.5a48.5718,48.5718,0,0,0,43.0825-29.38c.1516-.3535.291-.71.4338-1.0659.1575-.3916.3182-.7817.4656-1.1787.1326-.3569.251-.7178.375-1.0766.1421-.4122.2891-.8223.42-1.2393.0974-.31.1809-.6226.272-.9341.1384-.4726.281-.9438.405-1.4228.0591-.2276.1062-.4576.1618-.6861.1375-.5639.2757-1.1279.3934-1.7.0217-.1069.0371-.2148.0583-.3218A48.5394,48.5394,0,0,0,132.5,84.5c0-.084-.0058-.166-.0062-.25a48.5744,48.5744,0,0,1-.9262,9.2065c-.0212.107-.0366.2149-.0583.3218-.1177.5718-.2559,1.1358-.3934,1.7-.0556.2285-.1027.4585-.1618.6861-.124.479-.2666.95-.405,1.4228-.0911.3115-.1746.6245-.272.9341-.1311.417-.2781.8271-.42,1.2393-.124.3588-.2424.72-.375,1.0766-.1474.397-.3081.7871-.4656,1.1787-.1428.356-.2822.7124-.4338,1.0659A48.5718,48.5718,0,0,1,85.5,132.4619Z"/><path class="cls-3" d="M132.2378,66.4761c.1118.2983.2175.5991.3237.9.1687.477.3325.9546.4866,1.435.0945.2945.1845.59.2737.8872q.2267.753.43,1.5113.1135.424.22.851.1971.7918.368,1.59c.0591.2744.1184.5488.1731.8247.1086.5488.205,1.1.2959,1.6528.0442.27.0908.5386.1308.81.0838.5679.1533,1.1382.218,1.71.03.2632.0647.5254.0906.79.0586.6016.1006,1.206.1382,1.811.0151.2393.0371.4766.0488.7163.0368.7588.054,1.521.0581,2.2847.0005-.0835.0064-.1665.0064-.25,0-.8481-.0237-1.6929-.0645-2.5347-.0117-.24-.0337-.477-.0488-.7163-.0376-.605-.08-1.2094-.1382-1.811-.0259-.2647-.0605-.5269-.0906-.79-.0647-.5717-.1342-1.142-.218-1.71-.04-.271-.0866-.54-.1308-.81-.0909-.5527-.1873-1.104-.2959-1.6528-.0547-.2759-.114-.55-.1731-.8247q-.1718-.7983-.368-1.59-.1065-.4269-.22-.851-.2028-.7589-.43-1.5113c-.0892-.2968-.1792-.5927-.2737-.8872-.1541-.48-.3179-.958-.4866-1.435-.1034-.293-.2067-.5855-.3151-.876h-.18C132.1274,66.1577,132.1784,66.3179,132.2378,66.4761Z"/><path class="cls-3" d="M142.5,136.7729v-.5a78.31,78.31,0,0,1-57,26.189v.5A78.31,78.31,0,0,0,142.5,136.7729Z"/><path class="cls-3" d="M142.5,132.5H102.5982c-.4306.1675-.8565.3438-1.2926.5H142.5Z"/><path class="cls-3" d="M68,65a9.5052,9.5052,0,0,1,9.4873,9.25c.0022-.084.0127-.1655.0127-.25a9.5,9.5,0,0,0-19,0c0,.0845.0105.166.0127.25A9.5052,9.5052,0,0,1,68,65Z"/><path class="cls-3" d="M68,81a6.5075,6.5075,0,0,0,6.5-6.5c0-.0845-.01-.1665-.0127-.25a6.4918,6.4918,0,0,1-12.9746,0c-.0032.0835-.0127.1655-.0127.25A6.5075,6.5075,0,0,0,68,81Z"/><path class="cls-7" d="M68,64.5A9.5,9.5,0,1,0,77.5,74,9.5108,9.5108,0,0,0,68,64.5Zm0,16A6.5,6.5,0,1,1,74.5,74,6.5075,6.5075,0,0,1,68,80.5Z"/><g class="cls-8"><path class="cls-9" d="M39.8174,64.0391a48.788,48.788,0,0,1,23.13-23.7159l-2.2265-2.2265A51.88,51.88,0,0,0,40.3567,56.7075,79.3177,79.3177,0,0,1,53.1021,34.1064c.54-.6689,1.0987-1.32,1.659-1.9692L52.627,30.0029q-.9479,1.0927-1.8594,2.22a82.3316,82.3316,0,0,0-14.736,28.0307Z"/><path class="cls-10" d="M69.7828,47.1587A39.6865,39.6865,0,0,0,46.7294,70.9512l2.378,2.3779a36.6518,36.6518,0,0,1,23.01-23.8354Z"/><path class="cls-11" d="M97.0489,121.2705a39.6855,39.6855,0,0,0,23.7924-23.0532l-2.3349-2.335a36.6517,36.6517,0,0,1-23.8354,23.01Z"/><path class="cls-12" d="M129.9036,107.2793l-2.2273-2.2271a48.7706,48.7706,0,0,1-23.7154,23.13l2.26,2.26A51.8176,51.8176,0,0,0,129.9036,107.2793Z"/><path class="cls-13" d="M61.4424,85.6641l20.8934,20.8935A39.7013,39.7013,0,0,0,61.4424,85.6641Z"/><path class="cls-14" d="M151.7958,129.1719l-2.1793-2.18c-1.2914,1.9629-2.66,3.8706-4.1165,5.7065V122.876l-3-3V132.5H108.2784l3,3H142.5v.7729a79.0153,79.0153,0,0,1-16.4843,13.9644l2.1829,2.1831A82.1453,82.1453,0,0,0,151.7958,129.1719Z"/><path class="cls-15" d="M15.58,39.8013l2.1755,2.1758A79.0868,79.0868,0,0,1,40.9966,18.3726l-2.1684-2.1685A82.1364,82.1364,0,0,0,15.58,39.8013Z"/></g><path id="border" class="cls-16" d="M84,168a84,84,0,1,1,84-84A84.0953,84.0953,0,0,1,84,168ZM84,8a76,76,0,1,0,76,76A76.0862,76.0862,0,0,0,84,8Z"/><g id="border_highlight" data-name="border highlight"><path class="cls-17" d="M84,8A76,76,0,1,1,8,84,76.0861,76.0861,0,0,1,84,8m0-1a77,77,0,1,0,77,77A77.0872,77.0872,0,0,0,84,7Z"/></g><path id="outer_pink" data-name="outer pink" class="cls-18" d="M132,152.875V142.8713a75.82,75.82,0,0,1-96,0V152.875a83.7278,83.7278,0,0,0,96,0Z"/><g id="elipse" class="cls-19"><ellipse class="cls-20" cx="84.5333" cy="141.8061" rx="40.5333" ry="19"/></g><path id="right_glare" data-name="right glare" class="cls-21" d="M153.6021,130.978l-5.7847-5.7846A76.5785,76.5785,0,0,1,124.22,148.4419l5.7867,5.7866A84.6725,84.6725,0,0,0,153.6021,130.978Z"/><path id="left_glare" data-name="left glare" class="cls-22" d="M13.7714,37.9932,19.5582,43.78A76.5774,76.5774,0,0,1,42.8067,20.1826l-5.7848-5.7847A84.6715,84.6715,0,0,0,13.7714,37.9932Z"/><path id="top_halo" data-name="top halo" class="cls-23" d="M84,8a76.0862,76.0862,0,0,1,76,76h8A84,84,0,0,0,0,84H8A76.0862,76.0862,0,0,1,84,8Z"/></g></g></svg>