<svg xmlns="http://www.w3.org/2000/svg" xmlns:xlink="http://www.w3.org/1999/xlink" width="168" height="168" viewBox="0 0 168 168"><defs><style>.cls-1{fill:url(#linear-gradient);}.cls-2{opacity:0.5;}.cls-3{fill:url(#New_Gradient_Swatch_4);}.cls-13,.cls-4{opacity:0.3;}.cls-5{fill:url(#New_Gradient_Swatch_1);}.cls-6{fill:url(#linear-gradient-2);}.cls-7{fill:url(#linear-gradient-3);}.cls-8{fill:url(#linear-gradient-4);}.cls-9{fill:#fff;}.cls-10{fill:url(#linear-gradient-5);}.cls-11{fill:url(#linear-gradient-6);}.cls-12{fill:url(#linear-gradient-7);}.cls-14{fill:url(#radial-gradient);}.cls-15{opacity:0.7;fill:url(#linear-gradient-8);}.cls-16{fill:url(#linear-gradient-9);}.cls-17{opacity:0.4;fill:url(#linear-gradient-10);}</style><linearGradient id="linear-gradient" x1="84" y1="168" x2="84" gradientUnits="userSpaceOnUse"><stop offset="0" stop-color="#333d45"/><stop offset="0.9988"/></linearGradient><linearGradient id="New_Gradient_Swatch_4" x1="84" y1="113.0103" x2="84" y2="62.25" gradientUnits="userSpaceOnUse"><stop offset="0" stop-color="#8359df"/><stop offset="1" stop-color="#00a894"/></linearGradient><linearGradient id="New_Gradient_Swatch_1" x1="84" y1="165.75" x2="84" y2="2.75" gradientUnits="userSpaceOnUse"><stop offset="0" stop-color="#688199"/><stop offset="1" stop-color="#f7f9fa"/></linearGradient><linearGradient id="linear-gradient-2" x1="22.9989" y1="47.2207" x2="46.4219" y2="23.7977" gradientUnits="userSpaceOnUse"><stop offset="0.25" stop-color="#f7f9fa" stop-opacity="0"/><stop offset="0.5" stop-color="#fff"/><stop offset="0.75" stop-color="#bee6fa" stop-opacity="0"/></linearGradient><linearGradient id="linear-gradient-3" x1="51.439" y1="75.6608" x2="74.8619" y2="52.2379" xlink:href="#linear-gradient-2"/><linearGradient id="linear-gradient-4" x1="103.4084" y1="127.63" x2="126.8313" y2="104.2071" xlink:href="#linear-gradient-2"/><linearGradient id="linear-gradient-5" y1="168" x2="84" y2="0" xlink:href="#New_Gradient_Swatch_1"/><linearGradient id="linear-gradient-6" x1="84" y1="161" x2="84" y2="7" gradientUnits="userSpaceOnUse"><stop offset="0" stop-color="#f7f9fa"/><stop offset="1" stop-color="#f7f9fa" stop-opacity="0"/></linearGradient><linearGradient id="linear-gradient-7" x1="36" y1="155.4357" x2="132" y2="155.4357" gradientUnits="userSpaceOnUse"><stop offset="0" stop-color="#e8749f" stop-opacity="0"/><stop offset="0.5" stop-color="#f7f9fa"/><stop offset="1" stop-color="#e8749f" stop-opacity="0"/></linearGradient><radialGradient id="radial-gradient" cx="-612.4047" cy="1943.3461" fy="1961.4006533534312" r="20.2667" gradientTransform="translate(1309.3428 -1680.0808) scale(2 0.9375)" gradientUnits="userSpaceOnUse"><stop offset="0" stop-color="#fff"/><stop offset="0.6802" stop-color="#e78bad" stop-opacity="0"/></radialGradient><linearGradient id="linear-gradient-8" x1="127.7358" y1="151.9575" x2="151.1587" y2="128.5346" xlink:href="#linear-gradient-2"/><linearGradient id="linear-gradient-9" x1="16.0425" y1="40.2642" x2="39.4654" y2="16.8413" xlink:href="#linear-gradient-2"/><linearGradient id="linear-gradient-10" x1="84" y1="84" x2="84" gradientUnits="userSpaceOnUse"><stop offset="0" stop-color="#e8749f" stop-opacity="0"/><stop offset="1" stop-color="#f7f9fa"/></linearGradient></defs><g id="Layer_2" data-name="Layer 2"><g id="Layer_1-2" data-name="Layer 1"><path id="base_bkgd" data-name="base bkgd" class="cls-1" d="M84,168a84,84,0,1,1,84-84A84.0953,84.0953,0,0,1,84,168Z"/><g id="border_shadow" data-name="border shadow"><path d="M84,9A75,75,0,1,1,9,84,75.0849,75.0849,0,0,1,84,9m0-1a76,76,0,1,0,76,76A76.0862,76.0862,0,0,0,84,8Z"/></g><path class="cls-2" d="M84,3.75a81.5,81.5,0,1,0,81.5,81.5A81.592,81.592,0,0,0,84,3.75Zm77.1353,67H144.8542c-1.3455-1.5967-5.2774-3.2661-15.9093-4.7515A13.2018,13.2018,0,0,0,119.25,61.75H102.6209l-5.845-5.8447A38.2513,38.2513,0,0,1,85.5,28.6816V26.1265A61.9619,61.9619,0,0,0,105.054,9.6406,78.7278,78.7278,0,0,1,161.1353,70.75ZM109.21,112.4971a21.1361,21.1361,0,0,1-18.7359-10.0616l-.1162-.1894-.0342-.03a7.4989,7.4989,0,0,0-12.58-.0986l-.1685.2363a21.1611,21.1611,0,0,1-18.7842,10.1436,20.0074,20.0074,0,0,1-4.0558-.5645A38.437,38.437,0,0,1,53.5,102.25V64.75h47.8788l1.8448,1.8447A38.2508,38.2508,0,0,1,114.5,93.8184v17.7461A20.0051,20.0051,0,0,1,109.21,112.4971Zm5.29,2.207V140.75H92a38.5625,38.5625,0,0,1-36.2554-25.5571,22.9971,22.9971,0,0,0,2.94.3022c.2861.01.57.0156.855.0156A24.1237,24.1237,0,0,0,79.7,104.6084l.457-.7012A4.4742,4.4742,0,0,1,84,101.75a4.5216,4.5216,0,0,1,3.8838,2.2256l.1616.2363a24.1773,24.1773,0,0,0,21.2705,11.2832A22.9286,22.9286,0,0,0,114.5,114.7041ZM35.9683,95.7227C28.416,94.4453,26.2466,93.2236,25.66,92.75c.5752-.4629,2.667-1.6426,9.84-2.8906V90.91A24.9394,24.9394,0,0,0,35.9683,95.7227ZM25.5,72.6265c.2681-.3028,1.9985-1.7574,11.2715-3.2525A13.1459,13.1459,0,0,0,35.5,75V86.8164a42.1987,42.1987,0,0,0-10,2.6016ZM38.9412,95.2383c-.0227-.1128-.0406-.2256-.0616-.3384-.0962-.5137-.1715-1.0342-.2307-1.5586-.0185-.166-.039-.331-.0537-.4975-.0571-.6382-.0952-1.2823-.0952-1.9336V75A10.2613,10.2613,0,0,1,48.75,64.75H50.5v37.5a41.5048,41.5048,0,0,0,.884,8.5234A21.8032,21.8032,0,0,1,38.9412,95.2383ZM105.608,64.75H119.25A10.2613,10.2613,0,0,1,129.5,75V90.9092c0,.6518-.038,1.2959-.0952,1.935-.0145.1651-.0352.33-.0535.4942-.0594.5268-.1349,1.0493-.2317,1.5649-.02.11-.038.2212-.06.3316a21.8445,21.8445,0,0,1-11.56,15.1264V93.8184A41.2176,41.2176,0,0,0,105.608,64.75ZM132.5,90.9092v-1.05c7.1733,1.248,9.2651,2.4277,9.84,2.8906-.5869.4736-2.7558,1.6953-10.3086,2.9727A24.942,24.942,0,0,0,132.5,90.9092Zm0-4.0928V75a13.1473,13.1473,0,0,0-1.2714-5.626c9.2728,1.4951,11.0033,2.95,11.2714,3.2525V89.418A42.1987,42.1987,0,0,0,132.5,86.8164Zm-50-62.4951a58.7559,58.7559,0,0,1-26.1782,6.0869,58.2833,58.2833,0,0,1-23.262-4.8125A78.1272,78.1272,0,0,1,82.5,6.7881Zm3-17.5332a78.3171,78.3171,0,0,1,16.364,2.0371A58.9957,58.9957,0,0,1,85.5,22.7236ZM30.6,27.7827a61.2892,61.2892,0,0,0,25.721,5.6255A61.79,61.79,0,0,0,82.5,27.6279v1.0537A41.2307,41.2307,0,0,0,94.6548,58.0264L98.3786,61.75H48.75a13.2018,13.2018,0,0,0-9.6949,4.2485c-7.0927.9908-11.2062,2.0635-13.5551,3.1421v-.1631A21.4638,21.4638,0,0,0,13.9382,49.9106,78.9329,78.9329,0,0,1,30.6,27.7827ZM12.6328,52.6162A18.4676,18.4676,0,0,1,22.5,68.9775v64.9712a78.2392,78.2392,0,0,1-9.8672-81.3325ZM25.5,137.5229V96.0869c2.0909.958,5.5845,1.9146,11.3376,2.8159A24.7241,24.7241,0,0,0,52.303,114.3452,41.5707,41.5707,0,0,0,92,143.75H114.5v13.832A78.3981,78.3981,0,0,1,25.5,137.5229Zm92,6.2271h18.7733A78.7626,78.7626,0,0,1,117.5,156.2251Zm21.9635-3H117.5V113.67a24.8241,24.8241,0,0,0,13.6627-14.7681C143.7655,96.9282,145.5,94.6885,145.5,92.75v-19h16.15a78.3469,78.3469,0,0,1-22.1868,67Z"/><path class="cls-3" d="M128.2117,66.41a11.7191,11.7191,0,0,0-8.9617-4.16H48.75a11.72,11.72,0,0,0-8.9617,4.16C29.9873,67.7451,24,69.5244,24,71.48V91.75c0-1.7612,4.8694-3.3794,13-4.6592V89.91c0,12.2324,9.5122,22.6513,21.7373,23.0859a22.5413,22.5413,0,0,0,20.12-10.8638c.0056-.0044.0149.001.02-.0063a6.0015,6.0015,0,0,1,10.3.09c.0035.0054.0132,0,.0176.0039a22.5429,22.5429,0,0,0,20.0679,10.7759C121.4878,112.561,131,102.1421,131,89.9092V87.0908c8.1306,1.28,13,2.898,13,4.6592V71.48C144,69.5244,138.0129,67.7451,128.2117,66.41Z"/><path class="cls-4" d="M37,89.91c0,12.2324,9.5122,22.6513,21.7373,23.0859a22.5413,22.5413,0,0,0,20.12-10.8638c.0056-.0044.0149.001.02-.0063a6.0015,6.0015,0,0,1,10.3.09c.0035.0054.0132,0,.0176.0039a22.5429,22.5429,0,0,0,20.0679,10.7759C121.4878,112.561,131,102.1421,131,89.9092V87.0908c8.1306,1.28,13,2.898,13,4.6592V71.48c0-1.9551-5.9871-3.7344-15.7883-5.0693a11.7191,11.7191,0,0,0-8.9617-4.16H48.75a11.72,11.72,0,0,0-8.9617,4.16C29.9873,67.7451,24,69.5244,24,71.48V91.75c0-1.7612,4.8694-3.3794,13-4.6592ZM141.5,72.1055V86.9346a50.104,50.104,0,0,0-8-1.96V74a13.9927,13.9927,0,0,0-.688-4.3428C138.8008,70.73,140.8652,71.709,141.5,72.1055ZM34.5,74V84.9746a50.104,50.104,0,0,0-8,1.96V72.1064c.6392-.3994,2.7056-1.3789,8.688-2.4492A13.9927,13.9927,0,0,0,34.5,74Zm84.75-9.25A9.26,9.26,0,0,1,128.5,74V89.9092c0,.5556-.03,1.1592-.0913,1.8467l-.0508.47c-.0566.5029-.1289,1.0019-.2217,1.4951l-.0566.3145A20.9107,20.9107,0,0,1,118.5,107.67V92.8184A42.2146,42.2146,0,0,0,107.9048,64.75Zm-64.75,0h46.4648l1.5518,1.5518A37.2574,37.2574,0,0,1,113.5,92.8184v16.999a18.7758,18.7758,0,0,1-4.3257.6806c-.2383.0079-.4775.0127-.7148.0127a20.2211,20.2211,0,0,1-17.1328-9.5976l-.1162-.1895-.1226-.167A8.5853,8.5853,0,0,0,84,96.75a8.4986,8.4986,0,0,0-7.0713,3.7871l-.209.2979a20.2569,20.2569,0,0,1-17.2319,9.6738q-.3325,0-.6616-.0108a19.1624,19.1624,0,0,1-3.271-.4033A37.5368,37.5368,0,0,1,54.5,101.25ZM39.5,74a9.26,9.26,0,0,1,9.25-9.25h.75v36.5a42.6341,42.6341,0,0,0,.5366,6.7334A20.7378,20.7378,0,0,1,39.9214,94.04l-.0586-.3242c-.0923-.49-.1641-.9873-.22-1.4853l-.0513-.4756c-.0615-.6865-.0913-1.29-.0913-1.8447Z"/><path class="cls-5" d="M84,2.75a81.5,81.5,0,1,0,81.5,81.5A81.592,81.592,0,0,0,84,2.75Zm77.1353,67H144.8542c-1.3455-1.5967-5.2774-3.2661-15.9093-4.7515A13.2018,13.2018,0,0,0,119.25,60.75H102.6209l-5.845-5.8447A38.2513,38.2513,0,0,1,85.5,27.6816V25.1265A61.9619,61.9619,0,0,0,105.054,8.6406,78.7278,78.7278,0,0,1,161.1353,69.75ZM109.21,111.4971a21.1361,21.1361,0,0,1-18.7359-10.0616l-.1162-.1894-.0342-.03a7.4989,7.4989,0,0,0-12.58-.0986l-.1685.2363a21.1611,21.1611,0,0,1-18.7842,10.1436,20.0074,20.0074,0,0,1-4.0558-.5645A38.437,38.437,0,0,1,53.5,101.25V63.75h47.8788l1.8448,1.8447A38.2508,38.2508,0,0,1,114.5,92.8184v17.7461A20.0051,20.0051,0,0,1,109.21,111.4971Zm5.29,2.207V139.75H92a38.5625,38.5625,0,0,1-36.2554-25.5571,22.9971,22.9971,0,0,0,2.94.3022c.2861.01.57.0156.855.0156A24.1237,24.1237,0,0,0,79.7,103.6084l.457-.7012A4.4742,4.4742,0,0,1,84,100.75a4.5216,4.5216,0,0,1,3.8838,2.2256l.1616.2363a24.1773,24.1773,0,0,0,21.2705,11.2832A22.9286,22.9286,0,0,0,114.5,113.7041ZM35.9683,94.7227C28.416,93.4453,26.2466,92.2236,25.66,91.75c.5752-.4629,2.667-1.6426,9.84-2.8906V89.91A24.9394,24.9394,0,0,0,35.9683,94.7227ZM25.5,71.6265c.2681-.3028,1.9985-1.7574,11.2715-3.2525A13.1459,13.1459,0,0,0,35.5,74V85.8164a42.1987,42.1987,0,0,0-10,2.6016ZM38.9412,94.2383c-.0227-.1128-.0406-.2256-.0616-.3384-.0962-.5137-.1715-1.0342-.2307-1.5586-.0185-.166-.039-.331-.0537-.4975-.0571-.6382-.0952-1.2823-.0952-1.9336V74A10.2613,10.2613,0,0,1,48.75,63.75H50.5v37.5a41.5048,41.5048,0,0,0,.884,8.5234A21.8032,21.8032,0,0,1,38.9412,94.2383ZM105.608,63.75H119.25A10.2613,10.2613,0,0,1,129.5,74V89.9092c0,.6518-.038,1.2959-.0952,1.935-.0145.1651-.0352.33-.0535.4942-.0594.5268-.1349,1.0493-.2317,1.5649-.02.11-.038.2212-.06.3316a21.8445,21.8445,0,0,1-11.56,15.1264V92.8184A41.2176,41.2176,0,0,0,105.608,63.75ZM132.5,89.9092v-1.05c7.1733,1.248,9.2651,2.4277,9.84,2.8906-.5869.4736-2.7558,1.6953-10.3086,2.9727A24.942,24.942,0,0,0,132.5,89.9092Zm0-4.0928V74a13.1473,13.1473,0,0,0-1.2714-5.626c9.2728,1.4951,11.0033,2.95,11.2714,3.2525V88.418A42.1987,42.1987,0,0,0,132.5,85.8164Zm-50-62.4951a58.7559,58.7559,0,0,1-26.1782,6.0869,58.2833,58.2833,0,0,1-23.262-4.8125A78.1272,78.1272,0,0,1,82.5,5.7881Zm3-17.5332a78.3171,78.3171,0,0,1,16.364,2.0371A58.9957,58.9957,0,0,1,85.5,21.7236ZM30.6,26.7827a61.2892,61.2892,0,0,0,25.721,5.6255A61.79,61.79,0,0,0,82.5,26.6279v1.0537A41.2307,41.2307,0,0,0,94.6548,57.0264L98.3786,60.75H48.75a13.2018,13.2018,0,0,0-9.6949,4.2485c-7.0927.9908-11.2062,2.0635-13.5551,3.1421v-.1631A21.4638,21.4638,0,0,0,13.9382,48.9106,78.9329,78.9329,0,0,1,30.6,26.7827ZM12.6328,51.6162A18.4676,18.4676,0,0,1,22.5,67.9775v64.9712a78.2392,78.2392,0,0,1-9.8672-81.3325ZM25.5,136.5229V95.0869c2.0909.958,5.5845,1.9146,11.3376,2.8159A24.7241,24.7241,0,0,0,52.303,113.3452,41.5707,41.5707,0,0,0,92,142.75H114.5v13.832A78.3981,78.3981,0,0,1,25.5,136.5229Zm92,6.2271h18.7733A78.7626,78.7626,0,0,1,117.5,155.2251Zm21.9635-3H117.5V112.67a24.8241,24.8241,0,0,0,13.6627-14.7681C143.7655,95.9282,145.5,93.6885,145.5,91.75v-19h16.15a78.3469,78.3469,0,0,1-22.1868,67Z"/><path class="cls-6" d="M15.6775,39.8992l2.1793,2.1794A78.9708,78.9708,0,0,1,30.6,26.7827a61.2676,61.2676,0,0,0,24.3968,5.59l-3.1524-3.1523a58.2477,58.2477,0,0,1-18.7854-4.625A78.9788,78.9788,0,0,1,41.1545,18.53l-2.174-2.1739A82.1363,82.1363,0,0,0,15.6775,39.8992Z"/><path class="cls-7" d="M83.374,60.75H48.75a13.1615,13.1615,0,0,0-8.8231,3.3987l2.1173,2.1172A10.1961,10.1961,0,0,1,48.75,63.75H50.5V74.7217l3,3V63.75H86.374Z"/><path class="cls-8" d="M151.8936,129.27l-2.1706-2.1706a79.0836,79.0836,0,0,1-10.26,12.6511H117.5V112.67a24.53,24.53,0,0,0,9.9685-7.8266l-2.1471-2.147a21.6227,21.6227,0,0,1-7.8214,6.6645V94.8755l-3.0234-3.0234c.0078.322.0234.6428.0234.9663v17.7461a20.0051,20.0051,0,0,1-5.29.9326,21.1361,21.1361,0,0,1-18.7359-10.0616l-.1162-.1894-.0342-.03a7.4989,7.4989,0,0,0-12.58-.0986l-.1685.2363c-.0557.0916-.1183.1773-.175.2678l2.1711,2.1712c.0417-.0625.0876-.1211.1289-.1841l.457-.7012A4.4742,4.4742,0,0,1,84,100.75a4.5216,4.5216,0,0,1,3.8838,2.2256l.1616.2363a24.1773,24.1773,0,0,0,21.2705,11.2832,22.93,22.93,0,0,0,5.1836-.791v25.0171l4.0288,4.0288h17.7445a79.0205,79.0205,0,0,1-10.0934,7.6511l2.1714,2.1714A82.135,82.135,0,0,0,151.8936,129.27Z"/><path class="cls-9" d="M25.66,91.75c.5869.4736,2.7563,1.6953,10.3086,2.9727-.0337-.1709-.0584-.3438-.0884-.5157-6.398-1.0879-8.8972-2.1318-9.8521-2.707A3.4406,3.4406,0,0,0,25.66,91.75Z"/><path class="cls-9" d="M114.5,110.0645a20.0051,20.0051,0,0,1-5.29.9326,21.1361,21.1361,0,0,1-18.7359-10.0616l-.1162-.1894-.0342-.03a7.4989,7.4989,0,0,0-12.58-.0986l-.1685.2363a21.1611,21.1611,0,0,1-18.7842,10.1436,20.0045,20.0045,0,0,1-4.0556-.5645A38.4325,38.4325,0,0,1,53.5,100.75v.5a38.4325,38.4325,0,0,0,1.2349,9.6826,20.0045,20.0045,0,0,0,4.0556.5645,21.1611,21.1611,0,0,0,18.7842-10.1436l.1685-.2363a7.4989,7.4989,0,0,1,12.58.0986l.0342.03.1162.1894A21.1361,21.1361,0,0,0,109.21,111.4971a20.0051,20.0051,0,0,0,5.29-.9326Z"/><path class="cls-9" d="M38.5952,91.8438c.0147.1665.0352.3315.0537.4975.0591.5244.1345,1.0449.2307,1.5586.021.1128.0389.2256.0616.3384A21.8032,21.8032,0,0,0,51.384,109.7734c-.0378-.1811-.0647-.3662-.1-.5478A21.8045,21.8045,0,0,1,38.9412,93.7383c-.0227-.1128-.0406-.2256-.0616-.3384-.0962-.5137-.1716-1.0342-.2307-1.5586-.0185-.166-.039-.331-.0537-.4975-.0571-.6382-.0952-1.2823-.0952-1.9336v.5C38.5,90.5615,38.5381,91.2056,38.5952,91.8438Z"/><path class="cls-9" d="M84,162.75A78.0671,78.0671,0,0,0,114.5,156.582v-.5A78.3981,78.3981,0,0,1,25.5,136.0229v.5A78.3144,78.3144,0,0,0,84,162.75Z"/><path class="cls-9" d="M114.5,139.25H92a38.5548,38.5548,0,0,1-36.0549-25.03c-.0664-.0107-.1343-.0161-.2-.0273A38.5625,38.5625,0,0,0,92,139.75H114.5Z"/><path class="cls-9" d="M35.5,85.8164v-.5a42.1987,42.1987,0,0,0-10,2.6016v.5A42.1987,42.1987,0,0,1,35.5,85.8164Z"/><path class="cls-9" d="M35.5,74a13.1459,13.1459,0,0,1,1.2715-5.626c-.0772.0127-.1438.0249-.22.0371A13.0743,13.0743,0,0,0,35.5,73.5Z"/><path class="cls-9" d="M84,2.75A81.5889,81.5889,0,0,1,165.4937,84c0-.084.0063-.166.0063-.25a81.5,81.5,0,0,0-163,0c0,.084.0061.166.0063.25A81.589,81.589,0,0,1,84,2.75Z"/><path class="cls-9" d="M117.5,139.25v.5H139.463A78.2558,78.2558,0,0,0,162.5,84.25c0-.0962-.0051-.1909-.0054-.2871A78.2539,78.2539,0,0,1,139.463,139.25Z"/><path class="cls-9" d="M117.5,155.2251A78.76,78.76,0,0,0,136.2727,142.75h-.5793A78.7332,78.7332,0,0,1,117.5,154.7251Z"/><path class="cls-9" d="M96.7759,54.9053l5.8449,5.8447H119.25a13.2018,13.2018,0,0,1,9.6949,4.2485c10.6319,1.4854,14.5639,3.1548,15.9093,4.7515h16.2811c-.0315-.168-.0706-.3325-.1032-.5H144.8542c-1.3454-1.5967-5.2774-3.2661-15.9093-4.7515A13.2018,13.2018,0,0,0,119.25,60.25H102.6208l-5.8449-5.8447A38.2513,38.2513,0,0,1,85.5,27.1816v.5A38.2513,38.2513,0,0,0,96.7759,54.9053Z"/><path class="cls-9" d="M56.3213,29.4082A58.7556,58.7556,0,0,0,82.5,23.3213v-.5a58.7556,58.7556,0,0,1-26.1782,6.0869A58.26,58.26,0,0,1,33.4683,24.26c-.1348.1137-.2749.2207-.409.3354A58.283,58.283,0,0,0,56.3213,29.4082Z"/><path class="cls-9" d="M25.5,67.9775v.1631c2.3489-1.0786,6.4624-2.1513,13.5552-3.1421A13.2016,13.2016,0,0,1,48.75,60.75H98.3787l-.5-.5H48.75a13.2016,13.2016,0,0,0-9.6948,4.2485c-7.0928.9908-11.2063,2.0635-13.5552,3.1421v-.1631A21.4584,21.4584,0,0,0,14.1436,48.5269c-.0665.1293-.14.2543-.2054.3837A21.4638,21.4638,0,0,1,25.5,67.9775Z"/><path class="cls-9" d="M22.5,132.9487v-.5A78.0938,78.0938,0,0,1,5.5042,83.9443c0,.1026-.0042.2036-.0042.3057A78.0946,78.0946,0,0,0,22.5,132.9487Z"/><path class="cls-9" d="M101.8635,7.8252c-.12-.0283-.2436-.0479-.3642-.0752a58.9342,58.9342,0,0,1-16,13.4736v.5A58.9971,58.9971,0,0,0,101.8635,7.8252Z"/><path class="cls-9" d="M132.0317,94.7227c7.5528-1.2774,9.7217-2.4991,10.3086-2.9727a3.4479,3.4479,0,0,0-.368-.25c-.9548.5752-3.4537,1.6191-9.8522,2.707C132.09,94.3789,132.0654,94.5518,132.0317,94.7227Z"/><path class="cls-9" d="M142.5,87.918a42.1987,42.1987,0,0,0-10-2.6016v.5a42.1987,42.1987,0,0,1,10,2.6016Z"/><path class="cls-9" d="M117.5,92.3184A41.1987,41.1987,0,0,0,106.0759,63.75h-.468A41.2169,41.2169,0,0,1,117.5,92.8184Z"/><path class="cls-9" d="M117.5,109.3613a21.845,21.845,0,0,0,11.56-15.1264c.0221-.11.04-.2212.06-.3316.0967-.5156.1723-1.0381.2317-1.5649.0183-.1646.039-.3291.0535-.4942.0572-.6391.0952-1.2832.0952-1.935v-.5c0,.6518-.038,1.2959-.0952,1.935-.0145.1651-.0352.33-.0535.4942-.0594.5268-.135,1.0493-.2317,1.5649-.02.11-.0381.2212-.06.3316a21.845,21.845,0,0,1-11.56,15.1264Z"/><path class="cls-9" d="M132.5,74v-.5a13.0777,13.0777,0,0,0-1.0516-5.0889c-.0761-.0122-.1427-.0244-.22-.0371A13.1459,13.1459,0,0,1,132.5,74Z"/><path id="border" class="cls-10" d="M84,168a84,84,0,1,1,84-84A84.0953,84.0953,0,0,1,84,168ZM84,8a76,76,0,1,0,76,76A76.0862,76.0862,0,0,0,84,8Z"/><g id="border_highlight" data-name="border highlight"><path class="cls-11" d="M84,8A76,76,0,1,1,8,84,76.0862,76.0862,0,0,1,84,8m0-1a77,77,0,1,0,77,77A77.0872,77.0872,0,0,0,84,7Z"/></g><path id="outer_pink" data-name="outer pink" class="cls-12" d="M132,152.875V142.8713a75.82,75.82,0,0,1-96,0V152.875a83.7278,83.7278,0,0,0,96,0Z"/><g id="elipse" class="cls-13"><ellipse class="cls-14" cx="84.5333" cy="141.8061" rx="40.5333" ry="19"/></g><path id="right_glare" data-name="right glare" class="cls-15" d="M153.6021,130.978l-5.7847-5.7846A76.5785,76.5785,0,0,1,124.22,148.4419l5.7867,5.7866A84.6725,84.6725,0,0,0,153.6021,130.978Z"/><path id="left_glare" data-name="left glare" class="cls-16" d="M13.7714,37.9932,19.5582,43.78A76.5774,76.5774,0,0,1,42.8067,20.1826l-5.7848-5.7847A84.6715,84.6715,0,0,0,13.7714,37.9932Z"/><path id="top_halo" data-name="top halo" class="cls-17" d="M84,8a76.0862,76.0862,0,0,1,76,76h8A84,84,0,0,0,0,84H8A76.0862,76.0862,0,0,1,84,8Z"/></g></g></svg>