<svg xmlns="http://www.w3.org/2000/svg" xmlns:xlink="http://www.w3.org/1999/xlink" viewBox="0 0 168 168"><defs><style>.cls-1{fill:url(#linear-gradient);}.cls-2{opacity:0.5;}.cls-3{fill:#fff;}.cls-4{fill:url(#linear-gradient-2);}.cls-20,.cls-5{opacity:0.3;}.cls-22,.cls-24,.cls-5,.cls-8{isolation:isolate;}.cls-6{fill:url(#linear-gradient-3);}.cls-7{fill:url(#linear-gradient-4);}.cls-8,.cls-9{opacity:0.8;}.cls-8{fill:url(#linear-gradient-5);}.cls-10{fill:url(#linear-gradient-6);}.cls-11{fill:url(#linear-gradient-7);}.cls-12{fill:url(#linear-gradient-8);}.cls-13{fill:url(#linear-gradient-9);}.cls-14{fill:url(#linear-gradient-10);}.cls-15{fill:url(#linear-gradient-11);}.cls-16{fill:url(#linear-gradient-12);}.cls-17{fill:url(#linear-gradient-13);}.cls-18{fill:url(#linear-gradient-14);}.cls-19{fill:url(#linear-gradient-15);}.cls-21{fill:url(#radial-gradient);}.cls-22{opacity:0.7;fill:url(#linear-gradient-16);}.cls-23{fill:url(#linear-gradient-17);}.cls-24{opacity:0.4;fill:url(#linear-gradient-18);}</style><linearGradient id="linear-gradient" x1="-480" y1="1551.37" x2="-480" y2="1719.37" gradientTransform="matrix(1, 0, 0, -1, 564, 1719.37)" gradientUnits="userSpaceOnUse"><stop offset="0" stop-color="#333d45"/><stop offset="1"/></linearGradient><linearGradient id="linear-gradient-2" x1="-469.76" y1="1585.35" x2="-469.76" y2="1685.38" gradientTransform="matrix(1, 0, 0, -1, 564, 1719.37)" gradientUnits="userSpaceOnUse"><stop offset="0" stop-color="#0bb7c8"/><stop offset="1" stop-color="#94fc82"/></linearGradient><linearGradient id="linear-gradient-3" x1="-1363.02" y1="1553.87" x2="-1363.02" y2="1716.87" gradientTransform="matrix(1, 0, 0, -1, 1447.02, 1719.37)" gradientUnits="userSpaceOnUse"><stop offset="0" stop-color="#688199"/><stop offset="1" stop-color="#f7f9fa"/></linearGradient><linearGradient id="linear-gradient-4" x1="-1379.02" y1="1553.87" x2="-1379.02" y2="1716.87" xlink:href="#linear-gradient-3"/><linearGradient id="linear-gradient-5" x1="-502.72" y1="1638.65" x2="-489.29" y2="1652.08" gradientTransform="matrix(1, 0, 0, -1, 564, 1719.37)" gradientUnits="userSpaceOnUse"><stop offset="0.25" stop-color="#f7f9fa" stop-opacity="0"/><stop offset="0.5" stop-color="#fff"/><stop offset="0.75" stop-color="#bee6fa" stop-opacity="0"/></linearGradient><linearGradient id="linear-gradient-6" x1="-529.49" y1="1660.63" x2="-506.07" y2="1684.06" xlink:href="#linear-gradient-5"/><linearGradient id="linear-gradient-7" x1="-517.46" y1="1648.6" x2="-494.03" y2="1672.02" xlink:href="#linear-gradient-5"/><linearGradient id="linear-gradient-8" x1="-466.77" y1="1597.91" x2="-443.34" y2="1621.33" xlink:href="#linear-gradient-5"/><linearGradient id="linear-gradient-9" x1="-457.88" y1="1589.03" x2="-434.46" y2="1612.45" xlink:href="#linear-gradient-5"/><linearGradient id="linear-gradient-10" x1="-492.11" y1="1623.26" x2="-490.09" y2="1625.27" xlink:href="#linear-gradient-5"/><linearGradient id="linear-gradient-11" x1="-445.12" y1="1576.27" x2="-421.7" y2="1599.69" xlink:href="#linear-gradient-5"/><linearGradient id="linear-gradient-12" x1="-547.97" y1="1679.12" x2="-524.55" y2="1702.54" xlink:href="#linear-gradient-5"/><linearGradient id="linear-gradient-13" x1="-480" y1="1551.37" x2="-480" y2="1719.37" gradientTransform="matrix(1, 0, 0, -1, 564, 1719.37)" xlink:href="#linear-gradient-3"/><linearGradient id="linear-gradient-14" x1="-480" y1="1558.37" x2="-480" y2="1712.37" gradientTransform="matrix(1, 0, 0, -1, 564, 1719.37)" gradientUnits="userSpaceOnUse"><stop offset="0" stop-color="#f7f9fa"/><stop offset="1" stop-color="#f7f9fa" stop-opacity="0"/></linearGradient><linearGradient id="linear-gradient-15" x1="-528" y1="1563.93" x2="-432" y2="1563.93" gradientTransform="matrix(1, 0, 0, -1, 564, 1719.37)" gradientUnits="userSpaceOnUse"><stop offset="0" stop-color="#e8749f" stop-opacity="0"/><stop offset="0.5" stop-color="#f7f9fa"/><stop offset="1" stop-color="#e8749f" stop-opacity="0"/></linearGradient><radialGradient id="radial-gradient" cx="-7631.26" cy="-170.79" fy="-152.73536759870254" r="20.27" gradientTransform="matrix(-2, 0, 0, 0.94, -15177.98, 301.92)" gradientUnits="userSpaceOnUse"><stop offset="0" stop-color="#fff"/><stop offset="0.68" stop-color="#e78bad" stop-opacity="0"/></radialGradient><linearGradient id="linear-gradient-16" x1="-436.26" y1="1567.41" x2="-412.84" y2="1590.83" xlink:href="#linear-gradient-5"/><linearGradient id="linear-gradient-17" x1="-547.96" y1="1679.1" x2="-524.53" y2="1702.53" xlink:href="#linear-gradient-5"/><linearGradient id="linear-gradient-18" x1="-480" y1="1635.37" x2="-480" y2="1719.37" gradientTransform="matrix(1, 0, 0, -1, 564, 1719.37)" gradientUnits="userSpaceOnUse"><stop offset="0" stop-color="#e8749f" stop-opacity="0"/><stop offset="1" stop-color="#f7f9fa"/></linearGradient></defs><g id="Layer_2" data-name="Layer 2"><g id="Layer_1-2" data-name="Layer 1"><g id="Layer_2-2" data-name="Layer 2"><g id="Layer_1-2-2" data-name="Layer 1-2"><path id="base_bkgd" data-name="base bkgd" class="cls-1" d="M84,168a84,84,0,1,1,84-84A84,84,0,0,1,84,168Z"/><g id="border_shadow" data-name="border shadow"><path d="M84,9A75,75,0,1,1,9,84,75,75,0,0,1,84,9m0-1a76,76,0,1,0,76,76A76,76,0,0,0,84,8Z"/></g><g class="cls-2"><path class="cls-3" d="M84,3.5A81.5,81.5,0,1,0,165.5,85,81.5,81.5,0,0,0,84,3.5Zm39.5,53.41a48.38,48.38,0,0,1,5.08,9c.15.35.29.71.44,1.06s.31.79.46,1.18l.38,1.08c.14.41.29.82.42,1.24l.27.93c.14.48.28,1,.4,1.43.06.22.11.45.17.68.13.57.27,1.13.39,1.7l.06.32a48.58,48.58,0,0,1,0,18.92l-.06.32c-.12.57-.26,1.13-.39,1.7-.06.23-.11.46-.17.68-.12.48-.26,1-.4,1.43l-.27.93c-.13.42-.28.83-.42,1.24l-.38,1.08c-.15.39-.31.78-.46,1.18s-.29.71-.44,1.06A48.55,48.55,0,0,1,85.5,133.46v-9A39.55,39.55,0,0,0,123.5,85Zm-3,13a39.49,39.49,0,0,0-76,13.58h-9a48.45,48.45,0,0,1,85-30.38Zm0-54.39V48.71a51.41,51.41,0,0,0-80.14,9A79.34,79.34,0,0,1,96.89,7.58a77.92,77.92,0,0,1,23.61,8ZM84,6.5c1.7,0,3.39.07,5.06.18A82.46,82.46,0,0,0,32.53,83.5h-27A78.57,78.57,0,0,1,84,6.5ZM5.54,86.5h27V93a30.71,30.71,0,0,1-18.26,27.92A77.88,77.88,0,0,1,5.54,86.5Zm77,77a78.54,78.54,0,0,1-66.83-39.89A33.77,33.77,0,0,0,34.73,100,51.59,51.59,0,0,0,82.5,136.46Zm0-30a48.54,48.54,0,0,1-47-47h9a39.54,39.54,0,0,0,38,38Zm-35-46.92a36.53,36.53,0,0,1,34.92,34.92A36.53,36.53,0,0,1,47.54,86.54Zm0-3a36.49,36.49,0,1,1,37.92,37.92A39.53,39.53,0,0,0,47.54,83.54Zm95,53.73a78.29,78.29,0,0,1-57,26.19v-27h57Zm0-3.77H101.31a51.76,51.76,0,0,0,29.47-27H142c.17,0,.33,0,.5,0Zm0-30c-.17,0-.33,0-.5,0h-9.93l.17-.48c.11-.29.22-.6.32-.9.17-.47.33-1,.49-1.43l.27-.89c.15-.5.3-1,.43-1.51.08-.28.15-.57.22-.85.13-.53.26-1.06.37-1.59.06-.27.12-.55.17-.82.11-.55.21-1.1.3-1.66,0-.27.09-.54.13-.81.08-.57.15-1.14.22-1.71l.09-.79c.06-.6.1-1.2.14-1.81,0-.24,0-.47.05-.72,0-.84.06-1.68.06-2.53s0-1.69-.06-2.53c0-.24,0-.48-.05-.72,0-.61-.08-1.21-.14-1.81l-.09-.79c-.07-.57-.14-1.14-.22-1.71,0-.27-.09-.54-.13-.81-.09-.55-.19-1.11-.3-1.65,0-.28-.11-.55-.17-.83-.11-.53-.24-1.06-.37-1.59-.07-.28-.14-.57-.22-.85-.13-.51-.28-1-.43-1.51l-.27-.89c-.16-.48-.32-1-.49-1.43-.1-.3-.21-.61-.32-.9l-.17-.48H142A10.51,10.51,0,0,1,152.5,77V93a10.52,10.52,0,0,1-7,9.89V90.29a5.5,5.5,0,1,0-3,0ZM141.5,85a2.5,2.5,0,1,1,2.5,2.5A2.5,2.5,0,0,1,141.5,85Zm4,21a13.5,13.5,0,0,0,10-13V77A13.52,13.52,0,0,0,142,63.5H130.78A51.87,51.87,0,0,0,123.5,52V17.2a78.36,78.36,0,0,1,22,116.5Z"/><path class="cls-3" d="M68,65.5A9.5,9.5,0,1,0,77.5,75h0A9.52,9.52,0,0,0,68,65.5Zm0,16A6.5,6.5,0,1,1,74.5,75,6.5,6.5,0,0,1,68,81.5Z"/><path d="M84,3.5A81.5,81.5,0,1,0,165.5,85,81.5,81.5,0,0,0,84,3.5Zm39.5,53.41a48.38,48.38,0,0,1,5.08,9c.15.35.29.71.44,1.06s.31.79.46,1.18l.38,1.08c.14.41.29.82.42,1.24l.27.93c.14.48.28,1,.4,1.43.06.22.11.45.17.68.13.57.27,1.13.39,1.7l.06.32a48.58,48.58,0,0,1,0,18.92l-.06.32c-.12.57-.26,1.13-.39,1.7-.06.23-.11.46-.17.68-.12.48-.26,1-.4,1.43l-.27.93c-.13.42-.28.83-.42,1.24l-.38,1.08c-.15.39-.31.78-.46,1.18s-.29.71-.44,1.06A48.55,48.55,0,0,1,85.5,133.46v-9A39.55,39.55,0,0,0,123.5,85Zm-3,13a39.49,39.49,0,0,0-76,13.58h-9a48.45,48.45,0,0,1,85-30.38Zm0-54.39V48.71a51.41,51.41,0,0,0-80.14,9A79.34,79.34,0,0,1,96.89,7.58a77.92,77.92,0,0,1,23.61,8ZM84,6.5c1.7,0,3.39.07,5.06.18A82.46,82.46,0,0,0,32.53,83.5h-27A78.57,78.57,0,0,1,84,6.5ZM5.54,86.5h27V93a30.71,30.71,0,0,1-18.26,27.92A77.88,77.88,0,0,1,5.54,86.5Zm77,77a78.54,78.54,0,0,1-66.83-39.89A33.77,33.77,0,0,0,34.73,100,51.59,51.59,0,0,0,82.5,136.46Zm0-30a48.54,48.54,0,0,1-47-47h9a39.54,39.54,0,0,0,38,38Zm-35-46.92a36.53,36.53,0,0,1,34.92,34.92A36.53,36.53,0,0,1,47.54,86.54Zm0-3a36.49,36.49,0,1,1,37.92,37.92A39.53,39.53,0,0,0,47.54,83.54Zm95,53.73a78.29,78.29,0,0,1-57,26.19v-27h57Zm0-3.77H101.31a51.76,51.76,0,0,0,29.47-27H142c.17,0,.33,0,.5,0Zm0-30c-.17,0-.33,0-.5,0h-9.93l.17-.48c.11-.29.22-.6.32-.9.17-.47.33-1,.49-1.43l.27-.89c.15-.5.3-1,.43-1.51.08-.28.15-.57.22-.85.13-.53.26-1.06.37-1.59.06-.27.12-.55.17-.82.11-.55.21-1.1.3-1.66,0-.27.09-.54.13-.81.08-.57.15-1.14.22-1.71l.09-.79c.06-.6.1-1.2.14-1.81,0-.24,0-.47.05-.72,0-.84.06-1.68.06-2.53s0-1.69-.06-2.53c0-.24,0-.48-.05-.72,0-.61-.08-1.21-.14-1.81l-.09-.79c-.07-.57-.14-1.14-.22-1.71,0-.27-.09-.54-.13-.81-.09-.55-.19-1.11-.3-1.65,0-.28-.11-.55-.17-.83-.11-.53-.24-1.06-.37-1.59-.07-.28-.14-.57-.22-.85-.13-.51-.28-1-.43-1.51l-.27-.89c-.16-.48-.32-1-.49-1.43-.1-.3-.21-.61-.32-.9l-.17-.48H142A10.51,10.51,0,0,1,152.5,77V93a10.52,10.52,0,0,1-7,9.89V90.29a5.5,5.5,0,1,0-3,0ZM141.5,85a2.5,2.5,0,1,1,2.5,2.5A2.5,2.5,0,0,1,141.5,85Zm4,21a13.5,13.5,0,0,0,10-13V77A13.52,13.52,0,0,0,142,63.5H130.78A51.87,51.87,0,0,0,123.5,52V17.2a78.36,78.36,0,0,1,22,116.5Z"/><path d="M68,65.5A9.5,9.5,0,1,0,77.5,75h0A9.52,9.52,0,0,0,68,65.5Zm0,16A6.5,6.5,0,1,1,74.5,75,6.5,6.5,0,0,1,68,81.5Z"/></g><path class="cls-4" d="M142.25,64H130.08a50,50,0,1,0,0,40h12.17a12,12,0,0,0,12-12V76A12,12,0,0,0,142.25,64Zm-58,58a38,38,0,1,1,38-38,38,38,0,0,1-38,38Zm60-34a4,4,0,1,1,4-4A4,4,0,0,1,144.25,88Z"/><path class="cls-5" d="M142.25,64H130.08a50.23,50.23,0,0,0-19.63-22.59q-1.52-.93-3.12-1.77c-1.06-.55-2.14-1.07-3.25-1.55a49.81,49.81,0,0,0-10.46-3.21c-.61-.12-1.22-.22-1.83-.32-1.23-.18-2.48-.32-3.73-.42-.63,0-1.26-.08-1.9-.1s-1.27,0-1.91,0a50,50,0,0,0,0,100c.64,0,1.28,0,1.91,0s1.27-.06,1.9-.1c1.25-.1,2.5-.24,3.73-.42.61-.1,1.22-.2,1.83-.32a49.81,49.81,0,0,0,10.46-3.21c1.11-.48,2.19-1,3.25-1.55s2.11-1.15,3.12-1.77A50.23,50.23,0,0,0,130.08,104h12.17a12,12,0,0,0,12-12V76A12,12,0,0,0,142.25,64ZM50.92,50a47.4,47.4,0,0,1,67,.87c.53.55,1,1.1,1.55,1.67v12a40.49,40.49,0,0,0-75.91,17h-7A47.26,47.26,0,0,1,50.92,50ZM81.5,131.42A47.55,47.55,0,0,1,36.58,86.5h7A40.65,40.65,0,0,0,81.5,124.41ZM84.25,122a38,38,0,1,1,38-38A38,38,0,0,1,84.25,122Zm46.34-28.74-.06.32c-.11.53-.24,1.06-.39,1.66,0,0-.12.55-.15.67-.1.38-.21.76-.32,1.13l-.18.61c-.05.19-.11.38-.17.57s-.2.61-.31.91l-.21.62c-.08.24-.16.49-.26.74s-.23.61-.35.91l-.21.51c-.1.26-.21.52-.32.78A47.7,47.7,0,0,1,86.5,131.42v-7A40.34,40.34,0,0,0,124.5,84V59.23a46.73,46.73,0,0,1,3.16,6.08q.18.41.33.81l.2.49.36.9c.09.25.17.51.26.76l.2.58c.11.31.22.62.31.93s.12.38.17.57l.18.61c.11.37.22.75.32,1.13,0,.12.17.74.17.74.13.53.26,1.06.37,1.59l.06.32a47.7,47.7,0,0,1,0,18.52ZM140.25,84a4,4,0,1,1,4,4A4,4,0,0,1,140.25,84Zm11.25,8a9.51,9.51,0,0,1-5,8.35V90a6.5,6.5,0,1,0-5,0V101.5h-8v0c.18-.49.34-1,.5-1.47.1-.3.19-.6.28-.9.15-.51.3-1,.44-1.54.08-.29.15-.58.22-.87.14-.54.26-1.08.39-1.68.06-.26.11-.52.16-.78.11-.56.21-1.12.31-1.69,0,0,.1-.61.13-.82.08-.58.16-1.16.22-1.74,0,0,.08-.63.09-.81.06-.61.11-1.23.14-1.85,0,0,.05-.57.05-.73,0-.85.07-1.72.07-2.58s0-1.73-.07-2.58c0-.15-.05-.73-.05-.73,0-.62-.08-1.24-.14-1.85,0-.18-.09-.8-.09-.8-.06-.59-.14-1.17-.22-1.75,0-.21-.13-.82-.13-.82-.1-.57-.2-1.13-.31-1.69-.05-.26-.1-.52-.17-.84-.12-.54-.24-1.08-.38-1.62-.07-.29-.14-.58-.22-.87-.14-.52-.29-1-.44-1.54-.09-.3-.18-.6-.28-.9-.16-.49-.32-1-.5-1.47v0H142a9.52,9.52,0,0,1,9.5,9.5Z"/><path class="cls-3" d="M84,2.5A81.5,81.5,0,1,0,165.5,84,81.5,81.5,0,0,0,84,2.5Zm39.5,53.41a48.38,48.38,0,0,1,5.08,9c.15.35.29.71.44,1.06s.31.79.46,1.18l.38,1.08c.14.41.29.82.42,1.24l.27.93c.14.48.28,1,.4,1.43.06.22.11.45.17.68.13.57.27,1.13.39,1.7l.06.32a48.58,48.58,0,0,1,0,18.92l-.06.32c-.12.57-.26,1.13-.39,1.7-.06.23-.11.46-.17.68-.12.48-.26,1-.4,1.43l-.27.93c-.13.42-.28.83-.42,1.24l-.38,1.08c-.15.39-.31.78-.46,1.18s-.29.71-.44,1.06A48.55,48.55,0,0,1,85.5,132.46v-9A39.55,39.55,0,0,0,123.5,84Zm-3,13a39.49,39.49,0,0,0-76,13.58h-9a48.45,48.45,0,0,1,85-30.38Zm0-54.39V47.71a51.41,51.41,0,0,0-80.14,9A79.34,79.34,0,0,1,96.89,6.58a77.92,77.92,0,0,1,23.61,8ZM84,5.5c1.7,0,3.39.07,5.06.18A82.46,82.46,0,0,0,32.53,82.5h-27A78.57,78.57,0,0,1,84,5.5ZM5.54,85.5h27V92a30.71,30.71,0,0,1-18.26,27.92A77.88,77.88,0,0,1,5.54,85.5Zm77,77a78.54,78.54,0,0,1-66.83-39.89A33.77,33.77,0,0,0,34.73,99,51.59,51.59,0,0,0,82.5,135.46Zm0-30a48.54,48.54,0,0,1-47-47h9a39.54,39.54,0,0,0,38,38Zm-35-46.92a36.53,36.53,0,0,1,34.92,34.92A36.53,36.53,0,0,1,47.54,85.54Zm0-3a36.49,36.49,0,1,1,37.92,37.92A39.53,39.53,0,0,0,47.54,82.54Zm95,53.73a78.29,78.29,0,0,1-57,26.19v-27h57Zm0-3.77H101.31a51.76,51.76,0,0,0,29.47-27H142c.17,0,.33,0,.5,0Zm0-30c-.17,0-.33,0-.5,0h-9.93l.17-.48c.11-.29.22-.6.32-.9.17-.47.33-1,.49-1.43l.27-.89c.15-.5.3-1,.43-1.51.08-.28.15-.57.22-.85.13-.53.26-1.06.37-1.59.06-.27.12-.55.17-.82.11-.55.21-1.1.3-1.66,0-.27.09-.54.13-.81.08-.57.15-1.14.22-1.71l.09-.79c.06-.6.1-1.2.14-1.81,0-.24,0-.47.05-.72,0-.84.06-1.68.06-2.53s0-1.69-.06-2.53c0-.24,0-.48-.05-.72,0-.61-.08-1.21-.14-1.81l-.09-.79c-.07-.57-.14-1.14-.22-1.71,0-.27-.09-.54-.13-.81-.09-.55-.19-1.11-.3-1.65,0-.28-.11-.55-.17-.83-.11-.53-.24-1.06-.37-1.59-.07-.28-.14-.57-.22-.85-.13-.51-.28-1-.43-1.51l-.27-.89c-.16-.48-.32-1-.49-1.43-.1-.3-.21-.61-.32-.9l-.17-.48H142A10.51,10.51,0,0,1,152.5,76V92a10.52,10.52,0,0,1-7,9.89V89.29a5.5,5.5,0,1,0-3,0ZM141.5,84a2.5,2.5,0,1,1,2.5,2.5A2.5,2.5,0,0,1,141.5,84Zm4,21a13.5,13.5,0,0,0,10-13V76A13.52,13.52,0,0,0,142,62.5H130.78A51.87,51.87,0,0,0,123.5,51V16.2a78.36,78.36,0,0,1,22,116.5Z"/><path class="cls-3" d="M68,64.5A9.5,9.5,0,1,0,77.5,74h0A9.52,9.52,0,0,0,68,64.5Zm0,16A6.5,6.5,0,1,1,74.5,74,6.5,6.5,0,0,1,68,80.5Z"/><path class="cls-6" d="M84,2.5A81.5,81.5,0,1,0,165.5,84,81.5,81.5,0,0,0,84,2.5Zm39.5,53.41a48.38,48.38,0,0,1,5.08,9c.15.35.29.71.44,1.06s.31.79.46,1.18l.38,1.08c.14.41.29.82.42,1.24l.27.93c.14.48.28,1,.4,1.43.06.22.11.45.17.68.13.57.27,1.13.39,1.7l.06.32a48.58,48.58,0,0,1,0,18.92l-.06.32c-.12.57-.26,1.13-.39,1.7-.06.23-.11.46-.17.68-.12.48-.26,1-.4,1.43l-.27.93c-.13.42-.28.83-.42,1.24l-.38,1.08c-.15.39-.31.78-.46,1.18s-.29.71-.44,1.06A48.55,48.55,0,0,1,85.5,132.46v-9A39.55,39.55,0,0,0,123.5,84Zm-3,13a39.49,39.49,0,0,0-76,13.58h-9a48.45,48.45,0,0,1,85-30.38Zm0-54.39V47.71a51.41,51.41,0,0,0-80.14,9A79.34,79.34,0,0,1,96.89,6.58a77.92,77.92,0,0,1,23.61,8ZM84,5.5c1.7,0,3.39.07,5.06.18A82.46,82.46,0,0,0,32.53,82.5h-27A78.57,78.57,0,0,1,84,5.5ZM5.54,85.5h27V92a30.71,30.71,0,0,1-18.26,27.92A77.88,77.88,0,0,1,5.54,85.5Zm77,77a78.54,78.54,0,0,1-66.83-39.89A33.77,33.77,0,0,0,34.73,99,51.59,51.59,0,0,0,82.5,135.46Zm0-30a48.54,48.54,0,0,1-47-47h9a39.54,39.54,0,0,0,38,38Zm-35-46.92a36.53,36.53,0,0,1,34.92,34.92A36.53,36.53,0,0,1,47.54,85.54Zm0-3a36.49,36.49,0,1,1,37.92,37.92A39.53,39.53,0,0,0,47.54,82.54Zm95,53.73a78.29,78.29,0,0,1-57,26.19v-27h57Zm0-3.77H101.31a51.76,51.76,0,0,0,29.47-27H142c.17,0,.33,0,.5,0Zm0-30c-.17,0-.33,0-.5,0h-9.93l.17-.48c.11-.29.22-.6.32-.9.17-.47.33-1,.49-1.43l.27-.89c.15-.5.3-1,.43-1.51.08-.28.15-.57.22-.85.13-.53.26-1.06.37-1.59.06-.27.12-.55.17-.82.11-.55.21-1.1.3-1.66,0-.27.09-.54.13-.81.08-.57.15-1.14.22-1.71l.09-.79c.06-.6.1-1.2.14-1.81,0-.24,0-.47.05-.72,0-.84.06-1.68.06-2.53s0-1.69-.06-2.53c0-.24,0-.48-.05-.72,0-.61-.08-1.21-.14-1.81l-.09-.79c-.07-.57-.14-1.14-.22-1.71,0-.27-.09-.54-.13-.81-.09-.55-.19-1.11-.3-1.65,0-.28-.11-.55-.17-.83-.11-.53-.24-1.06-.37-1.59-.07-.28-.14-.57-.22-.85-.13-.51-.28-1-.43-1.51l-.27-.89c-.16-.48-.32-1-.49-1.43-.1-.3-.21-.61-.32-.9l-.17-.48H142A10.51,10.51,0,0,1,152.5,76V92a10.52,10.52,0,0,1-7,9.89V89.29a5.5,5.5,0,1,0-3,0ZM141.5,84a2.5,2.5,0,1,1,2.5,2.5A2.5,2.5,0,0,1,141.5,84Zm4,21a13.5,13.5,0,0,0,10-13V76A13.52,13.52,0,0,0,142,62.5H130.78A51.87,51.87,0,0,0,123.5,51V16.2a78.36,78.36,0,0,1,22,116.5Z"/><path class="cls-7" d="M68,64.5A9.5,9.5,0,1,0,77.5,74h0A9.52,9.52,0,0,0,68,64.5Zm0,16A6.5,6.5,0,1,1,74.5,74,6.5,6.5,0,0,1,68,80.5Z"/><path class="cls-3" d="M84,33a51.33,51.33,0,0,1,36.5,15.21v-.5A51.39,51.39,0,0,0,40.82,56c-.15.4-.32.79-.46,1.19A51.49,51.49,0,0,1,84,33Z"/><path class="cls-3" d="M82.46,121l0-.5A36.54,36.54,0,0,1,47.57,86h0A36.53,36.53,0,0,0,82.46,121Z"/><path class="cls-3" d="M44.54,83a39.49,39.49,0,0,1,76-13.58v-.5a39.49,39.49,0,0,0-76,13.58h-9c0,.17,0,.33,0,.5Z"/><path class="cls-3" d="M120.5,84.5c0-.08,0-.16,0-.25a36.53,36.53,0,0,1-35,36.21A39.53,39.53,0,0,0,47.57,82.54c0,.17,0,.33,0,.5A39.53,39.53,0,0,1,85.46,121,36.53,36.53,0,0,0,120.5,84.5Z"/><path class="cls-3" d="M82.5,132.46A48.53,48.53,0,0,1,35.57,86h0a48.54,48.54,0,0,0,47,47Z"/><path class="cls-3" d="M84,3a81.58,81.58,0,0,1,81.49,81.25c0-.08,0-.17,0-.25a81.5,81.5,0,0,0-163,0c0,.08,0,.17,0,.25A81.58,81.58,0,0,1,84,3Z"/><path class="cls-3" d="M149.48,84.19a1.37,1.37,0,0,0,0-.19,5.5,5.5,0,0,0-11,0,1.37,1.37,0,0,0,0,.19,5.49,5.49,0,0,1,11,0Z"/><path class="cls-3" d="M145.5,133.2a78.11,78.11,0,0,0,17-48.7v-.28a78.13,78.13,0,0,1-17,48.48Z"/><path class="cls-3" d="M82.5,163v-.5A78.5,78.5,0,0,1,15.9,123l-.23.11A78.54,78.54,0,0,0,82.5,163Z"/><path class="cls-3" d="M32.53,83A82.46,82.46,0,0,1,89.06,6.18c-.41,0-.82,0-1.24-.06A82.4,82.4,0,0,0,32.53,82.5h-27c0,.17,0,.33,0,.5Z"/><path class="cls-3" d="M146.5,84.5a1.07,1.07,0,0,0,0-.25,2.48,2.48,0,0,1-4.94,0,1.07,1.07,0,0,0,0,.25,2.5,2.5,0,0,0,5,0Z"/><path class="cls-3" d="M130.78,63H142a13.52,13.52,0,0,1,13.5,13.5V76A13.52,13.52,0,0,0,142,62.5H130.78A51.87,51.87,0,0,0,123.5,51v.5A51.87,51.87,0,0,1,130.78,63Z"/><path class="cls-3" d="M14.24,120.42A30.71,30.71,0,0,0,32.5,92.5V92a30.71,30.71,0,0,1-18.26,27.92A78,78,0,0,1,5.55,86h0A77.88,77.88,0,0,0,14.24,120.42Z"/><path class="cls-3" d="M142.5,102.47c-.17,0-.33,0-.5,0h-9.75v0l-.17.48H142c.17,0,.33,0,.5,0Z"/><path class="cls-3" d="M152.5,92.5V92a10.52,10.52,0,0,1-7,9.89v.5A10.52,10.52,0,0,0,152.5,92.5Z"/><path class="cls-3" d="M85.5,132.46v.5a48.55,48.55,0,0,0,43.08-29.38c.15-.35.29-.71.44-1.06s.31-.79.46-1.18l.38-1.08c.14-.41.29-.82.42-1.24l.27-.93c.14-.48.28-1,.4-1.43.06-.22.11-.45.17-.68.13-.57.27-1.13.39-1.7l.06-.32a48.47,48.47,0,0,0,.93-9.46c0-.08,0-.17,0-.25a48.34,48.34,0,0,1-.92,9.21l-.06.32c-.12.57-.26,1.13-.39,1.7-.06.23-.11.46-.17.68-.12.48-.26,1-.4,1.43l-.27.93c-.13.42-.28.83-.42,1.24l-.38,1.08c-.15.39-.31.78-.46,1.18s-.29.71-.44,1.06A48.55,48.55,0,0,1,85.5,132.46Z"/><path class="cls-3" d="M132.24,66.48c.11.29.22.6.32.9.17.47.33,1,.49,1.43l.27.89c.15.5.3,1,.43,1.51.08.28.15.57.22.85.13.53.26,1.06.37,1.59.06.27.12.55.17.83.11.54.21,1.1.3,1.65,0,.27.09.54.13.81.08.57.15,1.14.22,1.71l.09.79c.06.6.1,1.2.14,1.81,0,.24,0,.48.05.72,0,.75.05,1.52.05,2.28,0-.08,0-.17,0-.25,0-.85,0-1.69-.06-2.53,0-.24,0-.48-.05-.72,0-.61-.08-1.21-.14-1.81l-.09-.79c-.07-.57-.14-1.14-.22-1.71,0-.27-.09-.54-.13-.81-.09-.55-.19-1.11-.3-1.65,0-.28-.11-.55-.17-.83-.11-.53-.24-1.06-.37-1.59-.07-.28-.14-.57-.22-.85-.13-.51-.28-1-.43-1.51l-.27-.89c-.16-.48-.32-1-.49-1.43-.1-.3-.21-.59-.31-.88h-.18Z"/><path class="cls-3" d="M142.5,136.77v-.5a78.29,78.29,0,0,1-57,26.19v.5A78.29,78.29,0,0,0,142.5,136.77Z"/><path class="cls-3" d="M142.5,132.5H102.6l-1.29.5H142.5Z"/><path class="cls-3" d="M68,65a9.52,9.52,0,0,1,9.49,9.25c0-.08,0-.17,0-.25a9.5,9.5,0,0,0-19,0c0,.08,0,.17,0,.25A9.52,9.52,0,0,1,68,65Z"/><path class="cls-3" d="M68,81a6.5,6.5,0,0,0,6.5-6.5c0-.08,0-.17,0-.25a6.49,6.49,0,0,1-13,0c0,.08,0,.17,0,.25A6.5,6.5,0,0,0,68,81Z"/><path class="cls-8" d="M68,64.5A9.5,9.5,0,1,0,77.5,74h0A9.52,9.52,0,0,0,68,64.5Zm0,16A6.5,6.5,0,1,1,74.5,74,6.5,6.5,0,0,1,68,80.5Z"/><g class="cls-9"><path class="cls-10" d="M39.82,64A48.83,48.83,0,0,1,63,40.32L60.72,38.1A51.83,51.83,0,0,0,40.36,56.71,79.31,79.31,0,0,1,53.1,34.11c.54-.67,1.1-1.32,1.66-2L52.63,30q-.95,1.09-1.86,2.22A82.27,82.27,0,0,0,36,60.25Z"/><path class="cls-11" d="M69.78,47.16A39.7,39.7,0,0,0,46.73,71l2.38,2.38a36.64,36.64,0,0,1,23-23.84Z"/><path class="cls-12" d="M97.05,121.27a39.7,39.7,0,0,0,23.79-23l-2.33-2.34a36.64,36.64,0,0,1-23.84,23Z"/><path class="cls-13" d="M129.9,107.28l-2.22-2.23A48.79,48.79,0,0,1,104,128.18l2.26,2.26A51.77,51.77,0,0,0,129.9,107.28Z"/><path class="cls-14" d="M61.44,85.66l20.9,20.9A39.7,39.7,0,0,0,61.44,85.66Z"/><path class="cls-15" d="M151.8,129.17,149.62,127c-1.29,2-2.66,3.87-4.12,5.71v-9.82l-3-3V132.5H108.28l3,3H142.5v.77a79.22,79.22,0,0,1-16.48,14l2.18,2.18A82.32,82.32,0,0,0,151.8,129.17Z"/><path class="cls-16" d="M15.58,39.8,17.76,42A79,79,0,0,1,41,18.37L38.83,16.2A82.32,82.32,0,0,0,15.58,39.8Z"/></g><path id="border" class="cls-17" d="M84,168a84,84,0,1,1,84-84A84,84,0,0,1,84,168ZM84,8a76,76,0,1,0,76,76A76,76,0,0,0,84,8Z"/><g id="border_highlight" data-name="border highlight"><path class="cls-18" d="M84,8A76,76,0,1,1,8,84,76,76,0,0,1,84,8m0-1a77,77,0,1,0,77,77A77,77,0,0,0,84,7Z"/></g><path id="outer_pink" data-name="outer pink" class="cls-19" d="M132,152.88v-10a75.82,75.82,0,0,1-96,0v10A83.75,83.75,0,0,0,132,152.88Z"/><g id="elipse" class="cls-20"><ellipse class="cls-21" cx="84.54" cy="141.81" rx="40.53" ry="19"/></g><path id="right_glare" data-name="right glare" class="cls-22" d="M153.6,131l-5.78-5.79a76.54,76.54,0,0,1-23.6,23.25l5.79,5.79A84.63,84.63,0,0,0,153.6,131Z"/><path id="left_glare" data-name="left glare" class="cls-23" d="M13.77,38l5.79,5.79a76.54,76.54,0,0,1,23.25-23.6L37,14.4A84.63,84.63,0,0,0,13.77,38Z"/><path id="top_halo" data-name="top halo" class="cls-24" d="M84,8a76.09,76.09,0,0,1,76,76h8A84,84,0,0,0,0,84H8A76.09,76.09,0,0,1,84,8Z"/></g></g></g></g></svg>