<svg xmlns="http://www.w3.org/2000/svg" xmlns:xlink="http://www.w3.org/1999/xlink" width="168" height="168" viewBox="0 0 168 168"><defs><style>.cls-1{fill:none;}.cls-2{fill:url(#linear-gradient);}.cls-3,.cls-6{opacity:0.3;}.cls-4{opacity:0.5;}.cls-5{opacity:0.8;fill:url(#New_Gradient_Swatch_2);}.cls-7{fill:url(#New_Gradient_Swatch_1);}.cls-8{fill:#fff;}.cls-9{clip-path:url(#clip-path);}.cls-10{fill:url(#linear-gradient-2);}.cls-11{fill:url(#linear-gradient-3);}.cls-12{fill:url(#radial-gradient);}.cls-13{fill:url(#linear-gradient-4);}.cls-14{fill:url(#linear-gradient-5);}.cls-15{opacity:0.7;fill:url(#linear-gradient-6);}.cls-16{fill:url(#linear-gradient-7);}.cls-17{opacity:0.4;fill:url(#linear-gradient-8);}</style><linearGradient id="linear-gradient" x1="84" y1="164" x2="84" y2="4" gradientUnits="userSpaceOnUse"><stop offset="0" stop-color="#333d45"/><stop offset="0.9988"/></linearGradient><linearGradient id="New_Gradient_Swatch_2" x1="82.5429" y1="139.5201" x2="82.5429" y2="25.0293" gradientUnits="userSpaceOnUse"><stop offset="0" stop-color="#ff602c"/><stop offset="1" stop-color="#e80a89"/></linearGradient><linearGradient id="New_Gradient_Swatch_1" x1="82.8603" y1="166.477" x2="82.8603" y2="3.477" gradientUnits="userSpaceOnUse"><stop offset="0" stop-color="#688199"/><stop offset="1" stop-color="#f7f9fa"/></linearGradient><clipPath id="clip-path"><path class="cls-1" d="M163.1264,79.8257,136.018,26.41A41.9348,41.9348,0,0,0,98.3681,3.477H67.353A41.9366,41.9366,0,0,0,29.7026,26.41L2.5947,79.8257a11.4168,11.4168,0,0,0,0,10.3017l27.1079,53.417A41.806,41.806,0,0,0,62.18,166.15c.6679.083,1.3364.1558,2.0061.2065.1781.0132.3574.02.5359.0308.8765.0552,1.7537.09,2.6309.09H98.3681c.8772,0,1.7543-.0346,2.6306-.09.1787-.0107.3582-.0176.5364-.0308.6694-.0507,1.3378-.1235,2.0054-.2065a42.8064,42.8064,0,0,0,5.7216-1.084l.002.0127.2079-.064a41.7015,41.7015,0,0,0,24.0726-17.269q.3561-.5318.6961-1.0752c.1835-.2964.3676-.5918.5444-.8936.4314-.7314.8479-1.4726,1.2334-2.2324l22.7446-44.8183h-.0005l4.3638-8.5987A11.4206,11.4206,0,0,0,163.1264,79.8257ZM119.3393,39.6479a9.5818,9.5818,0,0,0-2.8814-2.8808,9.5822,9.5822,0,0,0,2.8814-2.8809,9.5818,9.5818,0,0,0,2.8813,2.8809A9.5815,9.5815,0,0,0,119.3393,39.6479Zm-80.5542,30.15a11.8666,11.8666,0,0,0-4.5361-4.5361,11.8666,11.8666,0,0,0,4.5361-4.5361,11.8659,11.8659,0,0,0,4.5361,4.5361A11.8659,11.8659,0,0,0,38.7851,69.7983ZM32.3774,142.187l-4.5493-8.9644a54.45,54.45,0,0,0,6.4209-5.476l8.092-8.0923,21.3317.1885-.0517,5.8237c-.0161,1.8169,1.8229,3.1846,5.565,4.1816l-.05,6.8369c-.0132,1.5064,1.4843,2.49,3.5058,3.1329A29.284,29.284,0,0,0,54.0461,161.206,38.7,38.7,0,0,1,32.3774,142.187ZM82.9125,26.66c3.3115,1.8857,16.18,13.63,16.148,17.205-.0154,1.7539-.14,17.2666-.272,33.7364a1.496,1.496,0,0,0-.0283.26,2.0161,2.0161,0,0,0,.0245.2251c-.0621,7.7666-.1257,15.7149-.18,22.5122A54.55,54.55,0,0,0,83.2153,98.39H81.8705a54.5682,54.5682,0,0,0-14.976,2.0938c.1684-21.3887.4227-53.5728.4521-56.8994.01-1.1885,1.8828-4.43,7.126-9.65A65.3544,65.3544,0,0,1,82.9125,26.66Zm61.1181,94.4677-4.9357,9.7256a51.4079,51.4079,0,0,1-6.137-5.2275l-7.2856-7.2862A53.17,53.17,0,0,1,153.3969,102.67Zm-12.279,23.8711c-.2246.3643-.46.7193-.696,1.0747a39.2873,39.2873,0,0,1-19.3384,15.0679,53.7283,53.7283,0,0,1-.395-6.4814,53.1156,53.1156,0,0,1,12.366-34.0621l7.1486,7.149a54.4422,54.4422,0,0,0,6.8868,5.8091l-4.38,8.6313c-.3562.7017-.741,1.3818-1.1349,2.0547Q131.984,144.6226,131.7516,144.9985ZM45.5678,116.4272a51.1729,51.1729,0,0,1,18.2938-11.791c-.0416,5.2949-.0758,9.6148-.096,12.2071l-18.451-.1626Zm74.8665.9165-18.962-.1674c.0186-2.32.0542-6.7832.0992-12.4053a51.1992,51.1992,0,0,1,17.9465,11.6562ZM98.4725,117.15l-31.7071-.28c.0218-2.7617.059-7.4888.1044-13.2637A51.5226,51.5226,0,0,1,81.8705,101.39h1.3448a51.4879,51.4879,0,0,1,15.3645,2.336C98.5309,109.8276,98.4921,114.689,98.4725,117.15Zm-31.8,2.7192,31.7137.28-.05,5.6733c-.3642.4234-1.6922.9952-3.9248,1.4883a1.5082,1.5082,0,0,0-.2163-.0234,1.4258,1.4258,0,0,0-.7967.2285,58.5139,58.5139,0,0,1-10.943.832A57.6861,57.6861,0,0,1,71.5187,127.33a1.4885,1.4885,0,0,0-.8132-.249,1.3134,1.3134,0,0,0-.2446.0131c-2.1892-.5317-3.4848-1.1245-3.8384-1.55Zm5.5088,10.6294a64.7923,64.7923,0,0,0,10.248.85q.3428.003.6841.003a63.9678,63.9678,0,0,0,9.5581-.667l-.0425,5.874c-.873.5771-4.4692,1.48-10.2588,1.46-5.768-.0508-9.3681-1.0489-10.2314-1.6416Zm23.4448,6.42.05-6.831c3.7734-.9307,5.6427-2.2676,5.6593-4.0879l.051-5.8237,18.6563.165a56.1149,56.1149,0,0,0-11.6751,32.2954A29.2605,29.2605,0,0,0,92.8537,139.74C94.3124,139.2158,95.6137,138.376,95.6264,136.9184Zm5.9707-35.354c.0405-5.07.0867-10.8344.1338-16.72,3.5036,6.6734,9.4648,16.64,14.3411,24.6084A53.8182,53.8182,0,0,0,101.5971,101.5644Zm-37.71-.1337a53.8132,53.8132,0,0,0-15.2683,8.331c5.1434-8.0483,11.6562-18.47,15.4023-25.3379C63.9738,90.3887,63.9277,96.2549,63.8869,101.4307ZM67.353,163.477c-.8832,0-1.76-.0332-2.6316-.09a39.7074,39.7074,0,0,1-7.7962-1.3252,26.5043,26.5043,0,0,1,51.8706,0A39.7076,39.7076,0,0,1,101,163.3872c-.8715.0566-1.7484.09-2.6316.09ZM160.4516,88.77l-5.3467,10.5357a56.1221,56.1221,0,0,0-31.42,16.7661c-10.5-16.855-21.3371-35.2544-21.9-38.065.1329-16.61.2593-32.3481.2749-34.1147.05-5.7481-16.5977-20.34-19.148-20.3633h-.0049c-2.4443,0-18.5107,14.2842-18.561,20.0293-.02,2.2319-.1406,17.4531-.2689,33.689a1.4738,1.4738,0,0,0-.0289.2641c-.3243,2.5772-12.5479,22.4375-23.8853,39.8155a1.4873,1.4873,0,0,0-.1884.4511l-7.8472,7.8477a51.4805,51.4805,0,0,1-5.6731,4.8911L5.27,88.77a8.4127,8.4127,0,0,1,0-7.5869l27.1079-53.416a38.8551,38.8551,0,0,1,4.9077-7.3985V54.977a8.7957,8.7957,0,0,1-8.7857,8.7852H26.7616a1.5,1.5,0,0,0,0,3h1.7378a8.7959,8.7959,0,0,1,8.7857,8.7861v1.7559a1.5,1.5,0,0,0,3,0V75.5483a8.7959,8.7959,0,0,1,8.7856-8.7861h1.3672a1.5,1.5,0,0,0,0-3H49.0707a8.7957,8.7957,0,0,1-8.7856-8.7852V17.1655A39.2077,39.2077,0,0,1,67.353,6.477H98.3681a39.5165,39.5165,0,0,1,19.4712,5.0967V28.7671a6.5075,6.5075,0,0,1-6.5,6.5h-1a1.5,1.5,0,0,0,0,3h1a6.5075,6.5075,0,0,1,6.5,6.5v1a1.5,1.5,0,1,0,3,0v-1a6.5075,6.5075,0,0,1,6.5-6.5h1a1.5,1.5,0,0,0,0-3h-1a6.5075,6.5075,0,0,1-6.5-6.5V13.44a38.657,38.657,0,0,1,12.5039,14.3272l27.1084,53.416A8.4127,8.4127,0,0,1,160.4516,88.77Z"/></clipPath><linearGradient id="linear-gradient-2" x1="70.2321" y1="99.0529" x2="94.6593" y2="74.6258" gradientUnits="userSpaceOnUse"><stop offset="0.25" stop-color="#f7f9fa" stop-opacity="0"/><stop offset="0.5" stop-color="#fff"/><stop offset="0.75" stop-color="#bee6fa" stop-opacity="0"/></linearGradient><linearGradient id="linear-gradient-3" x1="84" y1="168" x2="84" y2="0" xlink:href="#New_Gradient_Swatch_1"/><radialGradient id="radial-gradient" cx="-115.1771" cy="2015.3936" fy="2033.4482217630766" r="20.2667" gradientTransform="translate(359.2856 -1745.4315) scale(2.3947 0.9375)" gradientUnits="userSpaceOnUse"><stop offset="0" stop-color="#fff"/><stop offset="0.6802" stop-color="#e78bad" stop-opacity="0"/></radialGradient><linearGradient id="linear-gradient-4" x1="36" y1="154.2754" x2="132" y2="154.2754" gradientUnits="userSpaceOnUse"><stop offset="0" stop-color="#e8749f" stop-opacity="0"/><stop offset="0.5" stop-color="#f7f9fa"/><stop offset="1" stop-color="#e8749f" stop-opacity="0"/></linearGradient><linearGradient id="linear-gradient-5" x1="84" y1="161" x2="84" y2="7" gradientUnits="userSpaceOnUse"><stop offset="0" stop-color="#f7f9fa"/><stop offset="1" stop-color="#f7f9fa" stop-opacity="0"/></linearGradient><linearGradient id="linear-gradient-6" x1="123.5526" y1="151.3005" x2="146.9938" y2="127.8594" xlink:href="#linear-gradient-2"/><linearGradient id="linear-gradient-7" x1="17.4472" y1="45.1952" x2="40.8884" y2="21.754" xlink:href="#linear-gradient-2"/><linearGradient id="linear-gradient-8" x1="84" y1="84" x2="84" gradientUnits="userSpaceOnUse"><stop offset="0" stop-color="#e8749f" stop-opacity="0"/><stop offset="1" stop-color="#f7f9fa"/></linearGradient></defs><g id="Layer_2" data-name="Layer 2"><g id="Layer_1-2" data-name="Layer 1"><path class="cls-2" d="M68.4849,164a40.4456,40.4456,0,0,1-36.313-22.1113L5.064,88.4727a9.9189,9.9189,0,0,1,0-8.9454l27.1079-53.416A40.4456,40.4456,0,0,1,68.4849,4h31.03a40.4455,40.4455,0,0,1,36.313,22.1113l27.1084,53.417a9.9184,9.9184,0,0,1,0,8.9444l-27.1079,53.416A40.4455,40.4455,0,0,1,99.5151,164Z"/><g class="cls-3"><path d="M99.515,9a35.4692,35.4692,0,0,1,31.8543,19.3745l27.1079,53.416a4.9,4.9,0,0,1,0,4.419l-27.1079,53.416A35.47,35.47,0,0,1,99.515,159h-31.03a35.4693,35.4693,0,0,1-31.8543-19.3745L9.5232,86.21a4.9,4.9,0,0,1,0-4.42l27.1079-53.416A35.4693,35.4693,0,0,1,68.4849,9h31.03m0-1h-31.03A36.4649,36.4649,0,0,0,35.7388,27.9219L8.6309,81.3379a5.9042,5.9042,0,0,0,0,5.3252l27.1074,53.415A36.4649,36.4649,0,0,0,68.4849,160h31.03a36.4647,36.4647,0,0,0,32.7461-19.9219l27.1079-53.416a5.9052,5.9052,0,0,0,0-5.3242l-27.1079-53.416A36.4647,36.4647,0,0,0,99.515,8Z"/></g><g class="cls-4"><path d="M71.2187,46.55a1.49,1.49,0,0,0,2.1123.0273,68.3279,68.3279,0,0,1,9.6181-4.6025c1.7149.4961,9.1773,3.9267,10.0791,4.7637a1.5,1.5,0,0,0,2.1353-2.1075c-1.2422-1.2636-10.709-5.6757-12.2026-5.6875-1.11-.01-10.3667,4.1524-11.7144,5.4766A1.5107,1.5107,0,0,0,71.2187,46.55Z"/><path d="M163.1264,80.8257,136.018,27.41A41.9348,41.9348,0,0,0,98.3681,4.477H67.353A41.9366,41.9366,0,0,0,29.7026,27.41L2.5947,80.8257a11.4168,11.4168,0,0,0,0,10.3017l27.1079,53.417A41.806,41.806,0,0,0,62.18,167.15c.6679.083,1.3364.1558,2.0061.2065.1781.0132.3574.02.5359.0308.8765.0552,1.7537.09,2.6309.09H98.3681c.8772,0,1.7543-.0346,2.6306-.09.1787-.0107.3582-.0176.5364-.0308.6694-.0507,1.3378-.1235,2.0054-.2065a42.8064,42.8064,0,0,0,5.7216-1.084l.002.0127.2079-.064a41.7015,41.7015,0,0,0,24.0726-17.269q.3561-.5318.6961-1.0752c.1835-.2964.3676-.5918.5444-.8936.4314-.7314.8479-1.4726,1.2334-2.2324l22.7446-44.8183h-.0005l4.3638-8.5987A11.4206,11.4206,0,0,0,163.1264,80.8257ZM119.3393,40.6479a9.5818,9.5818,0,0,0-2.8814-2.8808,9.5822,9.5822,0,0,0,2.8814-2.8809,9.5818,9.5818,0,0,0,2.8813,2.8809A9.5815,9.5815,0,0,0,119.3393,40.6479Zm-80.5542,30.15a11.8666,11.8666,0,0,0-4.5361-4.5361,11.8666,11.8666,0,0,0,4.5361-4.5361,11.8659,11.8659,0,0,0,4.5361,4.5361A11.8659,11.8659,0,0,0,38.7851,70.7983ZM32.3774,143.187l-4.5493-8.9644a54.45,54.45,0,0,0,6.4209-5.476l8.092-8.0923,21.3317.1885-.0517,5.8237c-.0161,1.8169,1.8229,3.1846,5.565,4.1816l-.05,6.8369c-.0132,1.5064,1.4843,2.49,3.5058,3.1329A29.284,29.284,0,0,0,54.0461,162.206,38.7,38.7,0,0,1,32.3774,143.187ZM82.9125,27.66c3.3115,1.8857,16.18,13.63,16.148,17.205-.0154,1.7539-.14,17.2666-.272,33.7364a1.496,1.496,0,0,0-.0283.26,2.0161,2.0161,0,0,0,.0245.2251c-.0621,7.7666-.1257,15.7149-.18,22.5122A54.55,54.55,0,0,0,83.2153,99.39H81.8705a54.5682,54.5682,0,0,0-14.976,2.0938c.1684-21.3887.4227-53.5728.4521-56.8994.01-1.1885,1.8828-4.43,7.126-9.65A65.3544,65.3544,0,0,1,82.9125,27.66Zm61.1181,94.4677-4.9357,9.7256a51.4079,51.4079,0,0,1-6.137-5.2275l-7.2856-7.2862A53.17,53.17,0,0,1,153.3969,103.67Zm-12.279,23.8711c-.2246.3643-.46.7193-.696,1.0747a39.2873,39.2873,0,0,1-19.3384,15.0679,53.7283,53.7283,0,0,1-.395-6.4814,53.1156,53.1156,0,0,1,12.366-34.0621l7.1486,7.149a54.4422,54.4422,0,0,0,6.8868,5.8091l-4.38,8.6313c-.3562.7017-.741,1.3818-1.1349,2.0547Q131.984,145.6226,131.7516,145.9985ZM45.5678,117.4272a51.1729,51.1729,0,0,1,18.2938-11.791c-.0416,5.2949-.0758,9.6148-.096,12.2071l-18.451-.1626Zm74.8665.9165-18.962-.1674c.0186-2.32.0542-6.7832.0992-12.4053a51.1992,51.1992,0,0,1,17.9465,11.6562ZM98.4725,118.15l-31.7071-.28c.0218-2.7617.059-7.4888.1044-13.2637A51.5226,51.5226,0,0,1,81.8705,102.39h1.3448a51.4879,51.4879,0,0,1,15.3645,2.336C98.5309,110.8276,98.4921,115.689,98.4725,118.15Zm-31.8,2.7192,31.7137.28-.05,5.6733c-.3642.4234-1.6922.9952-3.9248,1.4883a1.5082,1.5082,0,0,0-.2163-.0234,1.4258,1.4258,0,0,0-.7967.2285,58.5139,58.5139,0,0,1-10.943.832A57.6861,57.6861,0,0,1,71.5187,128.33a1.4885,1.4885,0,0,0-.8132-.249,1.3134,1.3134,0,0,0-.2446.0131c-2.1892-.5317-3.4848-1.1245-3.8384-1.55Zm5.5088,10.6294a64.7923,64.7923,0,0,0,10.248.85q.3428.003.6841.003a63.9678,63.9678,0,0,0,9.5581-.667l-.0425,5.874c-.873.5771-4.4692,1.48-10.2588,1.46-5.768-.0508-9.3681-1.0489-10.2314-1.6416Zm23.4448,6.42.05-6.831c3.7734-.9307,5.6427-2.2676,5.6593-4.0879l.051-5.8237,18.6563.165a56.1149,56.1149,0,0,0-11.6751,32.2954A29.2605,29.2605,0,0,0,92.8537,140.74C94.3124,140.2158,95.6137,139.376,95.6264,137.9184Zm5.9707-35.354c.0405-5.07.0867-10.8344.1338-16.72,3.5036,6.6734,9.4648,16.64,14.3411,24.6084A53.8182,53.8182,0,0,0,101.5971,102.5644Zm-37.71-.1337a53.8132,53.8132,0,0,0-15.2683,8.331c5.1434-8.0483,11.6562-18.47,15.4023-25.3379C63.9738,91.3887,63.9277,97.2549,63.8869,102.4307ZM67.353,164.477c-.8832,0-1.76-.0332-2.6316-.09a39.7074,39.7074,0,0,1-7.7962-1.3252,26.5043,26.5043,0,0,1,51.8706,0A39.7076,39.7076,0,0,1,101,164.3872c-.8715.0566-1.7484.09-2.6316.09ZM160.4516,89.77l-5.3467,10.5357a56.1221,56.1221,0,0,0-31.42,16.7661c-10.5-16.855-21.3371-35.2544-21.9-38.065.1329-16.61.2593-32.3481.2749-34.1147.05-5.7481-16.5977-20.34-19.148-20.3633h-.0049c-2.4443,0-18.5107,14.2842-18.561,20.0293-.02,2.2319-.1406,17.4531-.2689,33.689a1.4738,1.4738,0,0,0-.0289.2641c-.3243,2.5772-12.5479,22.4375-23.8853,39.8155a1.4873,1.4873,0,0,0-.1884.4511l-7.8472,7.8477a51.4805,51.4805,0,0,1-5.6731,4.8911L5.27,89.77a8.4127,8.4127,0,0,1,0-7.5869l27.1079-53.416a38.8551,38.8551,0,0,1,4.9077-7.3985V55.977a8.7957,8.7957,0,0,1-8.7857,8.7852H26.7616a1.5,1.5,0,0,0,0,3h1.7378a8.7959,8.7959,0,0,1,8.7857,8.7861v1.7559a1.5,1.5,0,0,0,3,0V76.5483a8.7959,8.7959,0,0,1,8.7856-8.7861h1.3672a1.5,1.5,0,0,0,0-3H49.0707a8.7957,8.7957,0,0,1-8.7856-8.7852V18.1655A39.2077,39.2077,0,0,1,67.353,7.477H98.3681a39.5165,39.5165,0,0,1,19.4712,5.0967V29.7671a6.5075,6.5075,0,0,1-6.5,6.5h-1a1.5,1.5,0,0,0,0,3h1a6.5075,6.5075,0,0,1,6.5,6.5v1a1.5,1.5,0,1,0,3,0v-1a6.5075,6.5075,0,0,1,6.5-6.5h1a1.5,1.5,0,0,0,0-3h-1a6.5075,6.5075,0,0,1-6.5-6.5V14.44a38.657,38.657,0,0,1,12.5039,14.3272l27.1084,53.416A8.4127,8.4127,0,0,1,160.4516,89.77Z"/><path d="M134.9345,84.477h-2.5v-2.5a1.5,1.5,0,0,0-3,0v2.5h-2.5a1.5,1.5,0,1,0,0,3h2.5v2.5a1.5,1.5,0,0,0,3,0v-2.5h2.5a1.5,1.5,0,0,0,0-3Z"/><path d="M71.2187,46.55a1.49,1.49,0,0,0,2.1123.0273,68.3279,68.3279,0,0,1,9.6181-4.6025c1.7149.4961,9.1773,3.9267,10.0791,4.7637a1.5,1.5,0,0,0,2.1353-2.1075c-1.2422-1.2636-10.709-5.6757-12.2026-5.6875-1.11-.01-10.3667,4.1524-11.7144,5.4766A1.5107,1.5107,0,0,0,71.2187,46.55Z"/><path d="M163.1264,80.8257,136.018,27.41A41.9348,41.9348,0,0,0,98.3681,4.477H67.353A41.9366,41.9366,0,0,0,29.7026,27.41L2.5947,80.8257a11.4168,11.4168,0,0,0,0,10.3017l27.1079,53.417A41.806,41.806,0,0,0,62.18,167.15c.6679.083,1.3364.1558,2.0061.2065.1781.0132.3574.02.5359.0308.8765.0552,1.7537.09,2.6309.09H98.3681c.8772,0,1.7543-.0346,2.6306-.09.1787-.0107.3582-.0176.5364-.0308.6694-.0507,1.3378-.1235,2.0054-.2065a42.8064,42.8064,0,0,0,5.7216-1.084l.002.0127.2079-.064a41.7015,41.7015,0,0,0,24.0726-17.269q.3561-.5318.6961-1.0752c.1835-.2964.3676-.5918.5444-.8936.4314-.7314.8479-1.4726,1.2334-2.2324l22.7446-44.8183h-.0005l4.3638-8.5987A11.4206,11.4206,0,0,0,163.1264,80.8257ZM119.3393,40.6479a9.5818,9.5818,0,0,0-2.8814-2.8808,9.5822,9.5822,0,0,0,2.8814-2.8809,9.5818,9.5818,0,0,0,2.8813,2.8809A9.5815,9.5815,0,0,0,119.3393,40.6479Zm-80.5542,30.15a11.8666,11.8666,0,0,0-4.5361-4.5361,11.8666,11.8666,0,0,0,4.5361-4.5361,11.8659,11.8659,0,0,0,4.5361,4.5361A11.8659,11.8659,0,0,0,38.7851,70.7983ZM32.3774,143.187l-4.5493-8.9644a54.45,54.45,0,0,0,6.4209-5.476l8.092-8.0923,21.3317.1885-.0517,5.8237c-.0161,1.8169,1.8229,3.1846,5.565,4.1816l-.05,6.8369c-.0132,1.5064,1.4843,2.49,3.5058,3.1329A29.284,29.284,0,0,0,54.0461,162.206,38.7,38.7,0,0,1,32.3774,143.187ZM82.9125,27.66c3.3115,1.8857,16.18,13.63,16.148,17.205-.0154,1.7539-.14,17.2666-.272,33.7364a1.496,1.496,0,0,0-.0283.26,2.0161,2.0161,0,0,0,.0245.2251c-.0621,7.7666-.1257,15.7149-.18,22.5122A54.55,54.55,0,0,0,83.2153,99.39H81.8705a54.5682,54.5682,0,0,0-14.976,2.0938c.1684-21.3887.4227-53.5728.4521-56.8994.01-1.1885,1.8828-4.43,7.126-9.65A65.3544,65.3544,0,0,1,82.9125,27.66Zm61.1181,94.4677-4.9357,9.7256a51.4079,51.4079,0,0,1-6.137-5.2275l-7.2856-7.2862A53.17,53.17,0,0,1,153.3969,103.67Zm-12.279,23.8711c-.2246.3643-.46.7193-.696,1.0747a39.2873,39.2873,0,0,1-19.3384,15.0679,53.7283,53.7283,0,0,1-.395-6.4814,53.1156,53.1156,0,0,1,12.366-34.0621l7.1486,7.149a54.4422,54.4422,0,0,0,6.8868,5.8091l-4.38,8.6313c-.3562.7017-.741,1.3818-1.1349,2.0547Q131.984,145.6226,131.7516,145.9985ZM45.5678,117.4272a51.1729,51.1729,0,0,1,18.2938-11.791c-.0416,5.2949-.0758,9.6148-.096,12.2071l-18.451-.1626Zm74.8665.9165-18.962-.1674c.0186-2.32.0542-6.7832.0992-12.4053a51.1992,51.1992,0,0,1,17.9465,11.6562ZM98.4725,118.15l-31.7071-.28c.0218-2.7617.059-7.4888.1044-13.2637A51.5226,51.5226,0,0,1,81.8705,102.39h1.3448a51.4879,51.4879,0,0,1,15.3645,2.336C98.5309,110.8276,98.4921,115.689,98.4725,118.15Zm-31.8,2.7192,31.7137.28-.05,5.6733c-.3642.4234-1.6922.9952-3.9248,1.4883a1.5082,1.5082,0,0,0-.2163-.0234,1.4258,1.4258,0,0,0-.7967.2285,58.5139,58.5139,0,0,1-10.943.832A57.6861,57.6861,0,0,1,71.5187,128.33a1.4885,1.4885,0,0,0-.8132-.249,1.3134,1.3134,0,0,0-.2446.0131c-2.1892-.5317-3.4848-1.1245-3.8384-1.55Zm5.5088,10.6294a64.7923,64.7923,0,0,0,10.248.85q.3428.003.6841.003a63.9678,63.9678,0,0,0,9.5581-.667l-.0425,5.874c-.873.5771-4.4692,1.48-10.2588,1.46-5.768-.0508-9.3681-1.0489-10.2314-1.6416Zm23.4448,6.42.05-6.831c3.7734-.9307,5.6427-2.2676,5.6593-4.0879l.051-5.8237,18.6563.165a56.1149,56.1149,0,0,0-11.6751,32.2954A29.2605,29.2605,0,0,0,92.8537,140.74C94.3124,140.2158,95.6137,139.376,95.6264,137.9184Zm5.9707-35.354c.0405-5.07.0867-10.8344.1338-16.72,3.5036,6.6734,9.4648,16.64,14.3411,24.6084A53.8182,53.8182,0,0,0,101.5971,102.5644Zm-37.71-.1337a53.8132,53.8132,0,0,0-15.2683,8.331c5.1434-8.0483,11.6562-18.47,15.4023-25.3379C63.9738,91.3887,63.9277,97.2549,63.8869,102.4307ZM67.353,164.477c-.8832,0-1.76-.0332-2.6316-.09a39.7074,39.7074,0,0,1-7.7962-1.3252,26.5043,26.5043,0,0,1,51.8706,0A39.7076,39.7076,0,0,1,101,164.3872c-.8715.0566-1.7484.09-2.6316.09ZM160.4516,89.77l-5.3467,10.5357a56.1221,56.1221,0,0,0-31.42,16.7661c-10.5-16.855-21.3371-35.2544-21.9-38.065.1329-16.61.2593-32.3481.2749-34.1147.05-5.7481-16.5977-20.34-19.148-20.3633h-.0049c-2.4443,0-18.5107,14.2842-18.561,20.0293-.02,2.2319-.1406,17.4531-.2689,33.689a1.4738,1.4738,0,0,0-.0289.2641c-.3243,2.5772-12.5479,22.4375-23.8853,39.8155a1.4873,1.4873,0,0,0-.1884.4511l-7.8472,7.8477a51.4805,51.4805,0,0,1-5.6731,4.8911L5.27,89.77a8.4127,8.4127,0,0,1,0-7.5869l27.1079-53.416a38.8551,38.8551,0,0,1,4.9077-7.3985V55.977a8.7957,8.7957,0,0,1-8.7857,8.7852H26.7616a1.5,1.5,0,0,0,0,3h1.7378a8.7959,8.7959,0,0,1,8.7857,8.7861v1.7559a1.5,1.5,0,0,0,3,0V76.5483a8.7959,8.7959,0,0,1,8.7856-8.7861h1.3672a1.5,1.5,0,0,0,0-3H49.0707a8.7957,8.7957,0,0,1-8.7856-8.7852V18.1655A39.2077,39.2077,0,0,1,67.353,7.477H98.3681a39.5165,39.5165,0,0,1,19.4712,5.0967V29.7671a6.5075,6.5075,0,0,1-6.5,6.5h-1a1.5,1.5,0,0,0,0,3h1a6.5075,6.5075,0,0,1,6.5,6.5v1a1.5,1.5,0,1,0,3,0v-1a6.5075,6.5075,0,0,1,6.5-6.5h1a1.5,1.5,0,0,0,0-3h-1a6.5075,6.5075,0,0,1-6.5-6.5V14.44a38.657,38.657,0,0,1,12.5039,14.3272l27.1084,53.416A8.4127,8.4127,0,0,1,160.4516,89.77Z"/><path d="M134.9345,84.477h-2.5v-2.5a1.5,1.5,0,0,0-3,0v2.5h-2.5a1.5,1.5,0,1,0,0,3h2.5v2.5a1.5,1.5,0,0,0,3,0v-2.5h2.5a1.5,1.5,0,0,0,0-3Z"/></g><path class="cls-5" d="M99.9606,118.6636l23.7051.209s-22.8564-36.5171-23.3806-40.831c.133-16.6275.26-32.3951.2752-34.1636.0447-5.0532-16.302-18.8369-17.66-18.8487S65.8908,38.5445,65.8464,43.5713c-.02,2.2461-.1421,17.6465-.2713,33.9971l-.029-.0005c-.0322,3.6465-24.126,40.5786-24.126,40.5786l23.8335.21-.0091,1.1562-.0688.001-.0284,3.2134-.0261,2.9521c-.01,1.167,2.1449,2.2329,5.5736,2.9971L70.654,134.7l-.0177,1.9976c-.0132,1.5,5.2344,2.7632,11.721,2.82s11.7558-1.1128,11.769-2.6128l.0176-1.9975.0409-6.0186c3.4559-.7031,5.64-1.7334,5.65-2.9028l.026-2.9522.0363-4.1118.061-.001Z"/><path class="cls-6" d="M100.285,78.0415c.1331-16.6274.26-32.395.2754-34.1636.0447-5.0532-16.3021-18.8369-17.66-18.8486S65.8907,38.5444,65.8464,43.5713c-.02,2.2461-.1421,17.6465-.2713,33.997l-.029,0C65.514,81.2143,41.42,118.1465,41.42,118.1465l23.8335.21c-.0059.7442-.0092,1.1524-.0092,1.1563l-.0689.001-.0283,3.2133-.0261,2.9522c-.01,1.167,2.145,2.2329,5.5736,2.997L70.6539,134.7l-.0176,1.9975c-.0131,1.5005,5.2344,2.7632,11.721,2.82s11.7558-1.1128,11.769-2.6128l.0176-1.9976.0409-6.0185c3.4559-.7032,5.64-1.7334,5.65-2.9029l.026-2.9521.0364-4.1118.061-.001.002-.2578,23.705.2089S100.8094,82.3555,100.285,78.0415Zm-37.5117,37.793-15.0083-.1328A49.8275,49.8275,0,0,1,62.85,106.105Zm.1191-15.1114a54.5515,54.5515,0,0,0-10.7133,5.3018C55.8256,100.2563,59.9012,93.67,62.99,88.3Zm28.7413,35.208a29.455,29.455,0,0,1-9.0787,1.087h-.1757a29.0329,29.0329,0,0,1-9.2359-1.2549l.03-4.0928a68.3141,68.3141,0,0,0,9.2481.6777l.6923.003a67.6516,67.6516,0,0,0,8.55-.5137Zm5.7075-10.6064a12.2762,12.2762,0,0,1-2.9756.9717c-.061-.0059-.127-.0088-.2017-.0088a2.4159,2.4159,0,0,0-1.1118.2754,56.7606,56.7606,0,0,1-10.05.7871l-.5376-.002a56.8,56.8,0,0,1-10.5806-.9648,2.3914,2.3914,0,0,0-1.12-.3008l-.0815-.0039s-.1084.002-.1475.0039a12.2,12.2,0,0,1-2.9082-1.0166l.0371-4.1875,29.7139.2617Zm.1391-9.1836-29.707-.2627.0908-11.5234A50.5441,50.5441,0,0,1,81.8705,102.39h1.3447a50.5509,50.5509,0,0,1,14.3589,2.0752Zm.3086-38.6269a2.4548,2.4548,0,0,0-.0288.3388,2.2418,2.2418,0,0,0,.0239.2949l-.1689,21.1338a55.6053,55.6053,0,0,0-14.4-1.8916H81.8705a55.6409,55.6409,0,0,0-13.9658,1.7823c.1684-21.3672.413-52.32.4418-55.5791.0054-.6026,1.2427-3.3858,6.8316-8.95a72.2972,72.2972,0,0,1,7.7583-6.793c4.0952,2.707,15.1479,13.3242,15.124,16.0058C98.0453,45.6069,97.9208,61.0727,97.7889,77.5142ZM102.7,88.74C105.599,93.9819,109.38,100.355,112.75,105.92a54.4827,54.4827,0,0,0-10.148-5.0527Zm-.14,17.502a49.9176,49.9176,0,0,1,15.42,10.081l-15.5-.1377Z"/><path class="cls-6" d="M94.0938,47.1831a2.4779,2.4779,0,0,1-1.7759-.7412,68.3563,68.3563,0,0,0-9.3594-4.4151,72.8546,72.8546,0,0,0-8.976,4.31,2.4189,2.4189,0,0,1-1.6895.667h0a2.5041,2.5041,0,0,1-1.7475-4.2959c1.3706-1.3467,10.8823-5.7637,12.4116-5.7637,1.7314.0137,11.5029,4.545,12.92,5.9864a2.5005,2.5005,0,0,1-1.7832,4.2529Z"/><path d="M71.2187,45.55a1.49,1.49,0,0,0,2.1123.0273,68.3279,68.3279,0,0,1,9.6181-4.6025c1.7149.4961,9.1773,3.9267,10.0791,4.7637a1.5,1.5,0,0,0,2.1353-2.1075c-1.2422-1.2636-10.709-5.6757-12.2026-5.6875-1.11-.01-10.3667,4.1524-11.7144,5.4766A1.5107,1.5107,0,0,0,71.2187,45.55Z"/><path d="M163.1264,79.8257,136.018,26.41A41.9348,41.9348,0,0,0,98.3681,3.477H67.353A41.9366,41.9366,0,0,0,29.7026,26.41L2.5947,79.8257a11.4168,11.4168,0,0,0,0,10.3017l27.1079,53.417A41.806,41.806,0,0,0,62.18,166.15c.6679.083,1.3364.1558,2.0061.2065.1781.0132.3574.02.5359.0308.8765.0552,1.7537.09,2.6309.09H98.3681c.8772,0,1.7543-.0346,2.6306-.09.1787-.0107.3582-.0176.5364-.0308.6694-.0507,1.3378-.1235,2.0054-.2065a42.8064,42.8064,0,0,0,5.7216-1.084l.002.0127.2079-.064a41.7015,41.7015,0,0,0,24.0726-17.269q.3561-.5318.6961-1.0752c.1835-.2964.3676-.5918.5444-.8936.4314-.7314.8479-1.4726,1.2334-2.2324l22.7446-44.8183h-.0005l4.3638-8.5987A11.4206,11.4206,0,0,0,163.1264,79.8257ZM119.3393,39.6479a9.5818,9.5818,0,0,0-2.8814-2.8808,9.5822,9.5822,0,0,0,2.8814-2.8809,9.5818,9.5818,0,0,0,2.8813,2.8809A9.5815,9.5815,0,0,0,119.3393,39.6479Zm-80.5542,30.15a11.8666,11.8666,0,0,0-4.5361-4.5361,11.8666,11.8666,0,0,0,4.5361-4.5361,11.8659,11.8659,0,0,0,4.5361,4.5361A11.8659,11.8659,0,0,0,38.7851,69.7983ZM32.3774,142.187l-4.5493-8.9644a54.45,54.45,0,0,0,6.4209-5.476l8.092-8.0923,21.3317.1885-.0517,5.8237c-.0161,1.8169,1.8229,3.1846,5.565,4.1816l-.05,6.8369c-.0132,1.5064,1.4843,2.49,3.5058,3.1329A29.284,29.284,0,0,0,54.0461,161.206,38.7,38.7,0,0,1,32.3774,142.187ZM82.9125,26.66c3.3115,1.8857,16.18,13.63,16.148,17.205-.0154,1.7539-.14,17.2666-.272,33.7364a1.496,1.496,0,0,0-.0283.26,2.0161,2.0161,0,0,0,.0245.2251c-.0621,7.7666-.1257,15.7149-.18,22.5122A54.55,54.55,0,0,0,83.2153,98.39H81.8705a54.5682,54.5682,0,0,0-14.976,2.0938c.1684-21.3887.4227-53.5728.4521-56.8994.01-1.1885,1.8828-4.43,7.126-9.65A65.3544,65.3544,0,0,1,82.9125,26.66Zm61.1181,94.4677-4.9357,9.7256a51.4079,51.4079,0,0,1-6.137-5.2275l-7.2856-7.2862A53.17,53.17,0,0,1,153.3969,102.67Zm-12.279,23.8711c-.2246.3643-.46.7193-.696,1.0747a39.2873,39.2873,0,0,1-19.3384,15.0679,53.7283,53.7283,0,0,1-.395-6.4814,53.1156,53.1156,0,0,1,12.366-34.0621l7.1486,7.149a54.4422,54.4422,0,0,0,6.8868,5.8091l-4.38,8.6313c-.3562.7017-.741,1.3818-1.1349,2.0547Q131.984,144.6226,131.7516,144.9985ZM45.5678,116.4272a51.1729,51.1729,0,0,1,18.2938-11.791c-.0416,5.2949-.0758,9.6148-.096,12.2071l-18.451-.1626Zm74.8665.9165-18.962-.1674c.0186-2.32.0542-6.7832.0992-12.4053a51.1992,51.1992,0,0,1,17.9465,11.6562ZM98.4725,117.15l-31.7071-.28c.0218-2.7617.059-7.4888.1044-13.2637A51.5226,51.5226,0,0,1,81.8705,101.39h1.3448a51.4879,51.4879,0,0,1,15.3645,2.336C98.5309,109.8276,98.4921,114.689,98.4725,117.15Zm-31.8,2.7192,31.7137.28-.05,5.6733c-.3642.4234-1.6922.9952-3.9248,1.4883a1.5082,1.5082,0,0,0-.2163-.0234,1.4258,1.4258,0,0,0-.7967.2285,58.5139,58.5139,0,0,1-10.943.832A57.6861,57.6861,0,0,1,71.5187,127.33a1.4885,1.4885,0,0,0-.8132-.249,1.3134,1.3134,0,0,0-.2446.0131c-2.1892-.5317-3.4848-1.1245-3.8384-1.55Zm5.5088,10.6294a64.7923,64.7923,0,0,0,10.248.85q.3428.003.6841.003a63.9678,63.9678,0,0,0,9.5581-.667l-.0425,5.874c-.873.5771-4.4692,1.48-10.2588,1.46-5.768-.0508-9.3681-1.0489-10.2314-1.6416Zm23.4448,6.42.05-6.831c3.7734-.9307,5.6427-2.2676,5.6593-4.0879l.051-5.8237,18.6563.165a56.1149,56.1149,0,0,0-11.6751,32.2954A29.2605,29.2605,0,0,0,92.8537,139.74C94.3124,139.2158,95.6137,138.376,95.6264,136.9184Zm5.9707-35.354c.0405-5.07.0867-10.8344.1338-16.72,3.5036,6.6734,9.4648,16.64,14.3411,24.6084A53.8182,53.8182,0,0,0,101.5971,101.5644Zm-37.71-.1337a53.8132,53.8132,0,0,0-15.2683,8.331c5.1434-8.0483,11.6562-18.47,15.4023-25.3379C63.9738,90.3887,63.9277,96.2549,63.8869,101.4307ZM67.353,163.477c-.8832,0-1.76-.0332-2.6316-.09a39.7074,39.7074,0,0,1-7.7962-1.3252,26.5043,26.5043,0,0,1,51.8706,0A39.7076,39.7076,0,0,1,101,163.3872c-.8715.0566-1.7484.09-2.6316.09ZM160.4516,88.77l-5.3467,10.5357a56.1221,56.1221,0,0,0-31.42,16.7661c-10.5-16.855-21.3371-35.2544-21.9-38.065.1329-16.61.2593-32.3481.2749-34.1147.05-5.7481-16.5977-20.34-19.148-20.3633h-.0049c-2.4443,0-18.5107,14.2842-18.561,20.0293-.02,2.2319-.1406,17.4531-.2689,33.689a1.4738,1.4738,0,0,0-.0289.2641c-.3243,2.5772-12.5479,22.4375-23.8853,39.8155a1.4873,1.4873,0,0,0-.1884.4511l-7.8472,7.8477a51.4805,51.4805,0,0,1-5.6731,4.8911L5.27,88.77a8.4127,8.4127,0,0,1,0-7.5869l27.1079-53.416a38.8551,38.8551,0,0,1,4.9077-7.3985V54.977a8.7957,8.7957,0,0,1-8.7857,8.7852H26.7616a1.5,1.5,0,0,0,0,3h1.7378a8.7959,8.7959,0,0,1,8.7857,8.7861v1.7559a1.5,1.5,0,0,0,3,0V75.5483a8.7959,8.7959,0,0,1,8.7856-8.7861h1.3672a1.5,1.5,0,0,0,0-3H49.0707a8.7957,8.7957,0,0,1-8.7856-8.7852V17.1655A39.2077,39.2077,0,0,1,67.353,6.477H98.3681a39.5165,39.5165,0,0,1,19.4712,5.0967V28.7671a6.5075,6.5075,0,0,1-6.5,6.5h-1a1.5,1.5,0,0,0,0,3h1a6.5075,6.5075,0,0,1,6.5,6.5v1a1.5,1.5,0,1,0,3,0v-1a6.5075,6.5075,0,0,1,6.5-6.5h1a1.5,1.5,0,0,0,0-3h-1a6.5075,6.5075,0,0,1-6.5-6.5V13.44a38.657,38.657,0,0,1,12.5039,14.3272l27.1084,53.416A8.4127,8.4127,0,0,1,160.4516,88.77Z"/><path d="M134.9345,83.477h-2.5v-2.5a1.5,1.5,0,0,0-3,0v2.5h-2.5a1.5,1.5,0,1,0,0,3h2.5v2.5a1.5,1.5,0,0,0,3,0v-2.5h2.5a1.5,1.5,0,0,0,0-3Z"/><path class="cls-7" d="M71.2187,45.55a1.49,1.49,0,0,0,2.1123.0273,68.3279,68.3279,0,0,1,9.6181-4.6025c1.7149.4961,9.1773,3.9267,10.0791,4.7637a1.5,1.5,0,0,0,2.1353-2.1075c-1.2422-1.2636-10.709-5.6757-12.2026-5.6875-1.11-.01-10.3667,4.1524-11.7144,5.4766A1.5107,1.5107,0,0,0,71.2187,45.55Z"/><path class="cls-7" d="M163.1264,79.8257,136.018,26.41A41.9348,41.9348,0,0,0,98.3681,3.477H67.353A41.9366,41.9366,0,0,0,29.7026,26.41L2.5947,79.8257a11.4168,11.4168,0,0,0,0,10.3017l27.1079,53.417A41.806,41.806,0,0,0,62.18,166.15c.6679.083,1.3364.1558,2.0061.2065.1781.0132.3574.02.5359.0308.8765.0552,1.7537.09,2.6309.09H98.3681c.8772,0,1.7543-.0346,2.6306-.09.1787-.0107.3582-.0176.5364-.0308.6694-.0507,1.3378-.1235,2.0054-.2065a42.8064,42.8064,0,0,0,5.7216-1.084l.002.0127.2079-.064a41.7015,41.7015,0,0,0,24.0726-17.269q.3561-.5318.6961-1.0752c.1835-.2964.3676-.5918.5444-.8936.4314-.7314.8479-1.4726,1.2334-2.2324l22.7446-44.8183h-.0005l4.3638-8.5987A11.4206,11.4206,0,0,0,163.1264,79.8257ZM119.3393,39.6479a9.5818,9.5818,0,0,0-2.8814-2.8808,9.5822,9.5822,0,0,0,2.8814-2.8809,9.5818,9.5818,0,0,0,2.8813,2.8809A9.5815,9.5815,0,0,0,119.3393,39.6479Zm-80.5542,30.15a11.8666,11.8666,0,0,0-4.5361-4.5361,11.8666,11.8666,0,0,0,4.5361-4.5361,11.8659,11.8659,0,0,0,4.5361,4.5361A11.8659,11.8659,0,0,0,38.7851,69.7983ZM32.3774,142.187l-4.5493-8.9644a54.45,54.45,0,0,0,6.4209-5.476l8.092-8.0923,21.3317.1885-.0517,5.8237c-.0161,1.8169,1.8229,3.1846,5.565,4.1816l-.05,6.8369c-.0132,1.5064,1.4843,2.49,3.5058,3.1329A29.284,29.284,0,0,0,54.0461,161.206,38.7,38.7,0,0,1,32.3774,142.187ZM82.9125,26.66c3.3115,1.8857,16.18,13.63,16.148,17.205-.0154,1.7539-.14,17.2666-.272,33.7364a1.496,1.496,0,0,0-.0283.26,2.0161,2.0161,0,0,0,.0245.2251c-.0621,7.7666-.1257,15.7149-.18,22.5122A54.55,54.55,0,0,0,83.2153,98.39H81.8705a54.5682,54.5682,0,0,0-14.976,2.0938c.1684-21.3887.4227-53.5728.4521-56.8994.01-1.1885,1.8828-4.43,7.126-9.65A65.3544,65.3544,0,0,1,82.9125,26.66Zm61.1181,94.4677-4.9357,9.7256a51.4079,51.4079,0,0,1-6.137-5.2275l-7.2856-7.2862A53.17,53.17,0,0,1,153.3969,102.67Zm-12.279,23.8711c-.2246.3643-.46.7193-.696,1.0747a39.2873,39.2873,0,0,1-19.3384,15.0679,53.7283,53.7283,0,0,1-.395-6.4814,53.1156,53.1156,0,0,1,12.366-34.0621l7.1486,7.149a54.4422,54.4422,0,0,0,6.8868,5.8091l-4.38,8.6313c-.3562.7017-.741,1.3818-1.1349,2.0547Q131.984,144.6226,131.7516,144.9985ZM45.5678,116.4272a51.1729,51.1729,0,0,1,18.2938-11.791c-.0416,5.2949-.0758,9.6148-.096,12.2071l-18.451-.1626Zm74.8665.9165-18.962-.1674c.0186-2.32.0542-6.7832.0992-12.4053a51.1992,51.1992,0,0,1,17.9465,11.6562ZM98.4725,117.15l-31.7071-.28c.0218-2.7617.059-7.4888.1044-13.2637A51.5226,51.5226,0,0,1,81.8705,101.39h1.3448a51.4879,51.4879,0,0,1,15.3645,2.336C98.5309,109.8276,98.4921,114.689,98.4725,117.15Zm-31.8,2.7192,31.7137.28-.05,5.6733c-.3642.4234-1.6922.9952-3.9248,1.4883a1.5082,1.5082,0,0,0-.2163-.0234,1.4258,1.4258,0,0,0-.7967.2285,58.5139,58.5139,0,0,1-10.943.832A57.6861,57.6861,0,0,1,71.5187,127.33a1.4885,1.4885,0,0,0-.8132-.249,1.3134,1.3134,0,0,0-.2446.0131c-2.1892-.5317-3.4848-1.1245-3.8384-1.55Zm5.5088,10.6294a64.7923,64.7923,0,0,0,10.248.85q.3428.003.6841.003a63.9678,63.9678,0,0,0,9.5581-.667l-.0425,5.874c-.873.5771-4.4692,1.48-10.2588,1.46-5.768-.0508-9.3681-1.0489-10.2314-1.6416Zm23.4448,6.42.05-6.831c3.7734-.9307,5.6427-2.2676,5.6593-4.0879l.051-5.8237,18.6563.165a56.1149,56.1149,0,0,0-11.6751,32.2954A29.2605,29.2605,0,0,0,92.8537,139.74C94.3124,139.2158,95.6137,138.376,95.6264,136.9184Zm5.9707-35.354c.0405-5.07.0867-10.8344.1338-16.72,3.5036,6.6734,9.4648,16.64,14.3411,24.6084A53.8182,53.8182,0,0,0,101.5971,101.5644Zm-37.71-.1337a53.8132,53.8132,0,0,0-15.2683,8.331c5.1434-8.0483,11.6562-18.47,15.4023-25.3379C63.9738,90.3887,63.9277,96.2549,63.8869,101.4307ZM67.353,163.477c-.8832,0-1.76-.0332-2.6316-.09a39.7074,39.7074,0,0,1-7.7962-1.3252,26.5043,26.5043,0,0,1,51.8706,0A39.7076,39.7076,0,0,1,101,163.3872c-.8715.0566-1.7484.09-2.6316.09ZM160.4516,88.77l-5.3467,10.5357a56.1221,56.1221,0,0,0-31.42,16.7661c-10.5-16.855-21.3371-35.2544-21.9-38.065.1329-16.61.2593-32.3481.2749-34.1147.05-5.7481-16.5977-20.34-19.148-20.3633h-.0049c-2.4443,0-18.5107,14.2842-18.561,20.0293-.02,2.2319-.1406,17.4531-.2689,33.689a1.4738,1.4738,0,0,0-.0289.2641c-.3243,2.5772-12.5479,22.4375-23.8853,39.8155a1.4873,1.4873,0,0,0-.1884.4511l-7.8472,7.8477a51.4805,51.4805,0,0,1-5.6731,4.8911L5.27,88.77a8.4127,8.4127,0,0,1,0-7.5869l27.1079-53.416a38.8551,38.8551,0,0,1,4.9077-7.3985V54.977a8.7957,8.7957,0,0,1-8.7857,8.7852H26.7616a1.5,1.5,0,0,0,0,3h1.7378a8.7959,8.7959,0,0,1,8.7857,8.7861v1.7559a1.5,1.5,0,0,0,3,0V75.5483a8.7959,8.7959,0,0,1,8.7856-8.7861h1.3672a1.5,1.5,0,0,0,0-3H49.0707a8.7957,8.7957,0,0,1-8.7856-8.7852V17.1655A39.2077,39.2077,0,0,1,67.353,6.477H98.3681a39.5165,39.5165,0,0,1,19.4712,5.0967V28.7671a6.5075,6.5075,0,0,1-6.5,6.5h-1a1.5,1.5,0,0,0,0,3h1a6.5075,6.5075,0,0,1,6.5,6.5v1a1.5,1.5,0,1,0,3,0v-1a6.5075,6.5075,0,0,1,6.5-6.5h1a1.5,1.5,0,0,0,0-3h-1a6.5075,6.5075,0,0,1-6.5-6.5V13.44a38.657,38.657,0,0,1,12.5039,14.3272l27.1084,53.416A8.4127,8.4127,0,0,1,160.4516,88.77Z"/><path class="cls-7" d="M134.9345,83.477h-2.5v-2.5a1.5,1.5,0,0,0-3,0v2.5h-2.5a1.5,1.5,0,1,0,0,3h2.5v2.5a1.5,1.5,0,0,0,3,0v-2.5h2.5a1.5,1.5,0,0,0,0-3Z"/><path class="cls-8" d="M71.2464,43.42c1.3477-1.3242,10.6045-5.4863,11.7144-5.4766,1.4937.0118,10.96,4.4239,12.2026,5.6875a1.4616,1.4616,0,0,1,.3816.8028,1.4725,1.4725,0,0,0-.3816-1.3028c-1.2421-1.2636-10.7089-5.6757-12.2026-5.6875-1.11-.01-10.3667,4.1524-11.7144,5.4766a1.4942,1.4942,0,0,0-.405,1.33A1.4855,1.4855,0,0,1,71.2464,43.42Z"/><path class="cls-8" d="M81.8705,98.39h1.3447a54.55,54.55,0,0,1,15.3894,2.208c.0544-6.7973.1179-14.7456.18-22.5122l-.0038-.0342c-.061,7.6182-.1232,15.3848-.1764,22.0464A54.55,54.55,0,0,0,83.2152,97.89H81.8705a54.56,54.56,0,0,0-14.9721,2.0928l-.004.501A54.57,54.57,0,0,1,81.8705,98.39Z"/><path class="cls-8" d="M5.2694,88.77l21.1853,41.7466a51.4713,51.4713,0,0,0,5.6731-4.8911l7.8474-7.8477a1.4868,1.4868,0,0,1,.1882-.4511c11.3374-17.378,23.5611-37.2383,23.8853-39.8155a1.4647,1.4647,0,0,1,.029-.2641c.1282-16.2359.2491-31.4571.2688-33.689.05-5.7451,16.1167-20.0293,18.5611-20.0293h.0049c2.5432.0234,19.1019,14.5322,19.1441,20.313l.0038-.45c.05-5.7481-16.5976-20.34-19.1479-20.3633h-.0049c-2.4444,0-18.5108,14.2842-18.5611,20.0293-.02,2.2319-.1406,17.4531-.2688,33.689a1.4647,1.4647,0,0,0-.029.2641c-.3242,2.5772-12.5479,22.4375-23.8853,39.8155a1.4868,1.4868,0,0,0-.1882.4511l-7.8474,7.8477a51.4713,51.4713,0,0,1-5.6731,4.8911L5.2694,88.27A8.3685,8.3685,0,0,1,4.38,84.7266,8.38,8.38,0,0,0,5.2694,88.77Z"/><path class="cls-8" d="M98.4725,117.15c.02-2.4609.0584-7.3223.1072-13.4238l-.0039-.001c-.047,5.8623-.0842,10.5327-.1033,12.9248l-31.7031-.28c-.0013.1651-.0027.3467-.0039.5Z"/><path class="cls-8" d="M98.7884,77.6011c.1321-16.47.2566-31.9825.272-33.7364,0-.0127-.0036-.0283-.0039-.041-.0264,3.1446-.1438,17.7857-.2681,33.2774a1.5058,1.5058,0,0,0-.0283.26,1.9733,1.9733,0,0,0,.0247.2251l-.0005.0537C98.7865,77.6269,98.7862,77.6138,98.7884,77.6011Z"/><path class="cls-8" d="M70.4608,127.0937a1.3143,1.3143,0,0,1,.2446-.0131,1.4886,1.4886,0,0,1,.8133.249,57.6857,57.6857,0,0,0,10.9372,1.0185,58.5151,58.5151,0,0,0,10.9431-.832,1.4258,1.4258,0,0,1,.7967-.2285,1.5082,1.5082,0,0,1,.2163.0234c2.2326-.4931,3.56-1.0649,3.9248-1.4883l.05-5.6733h-.0044l-.0454,5.1733c-.3643.4234-1.6922.9952-3.9248,1.4883a1.5082,1.5082,0,0,0-.2163-.0234,1.4258,1.4258,0,0,0-.7967.2285,58.5151,58.5151,0,0,1-10.9431.832A57.6857,57.6857,0,0,1,71.5187,126.83a1.4886,1.4886,0,0,0-.8133-.249,1.3143,1.3143,0,0,0-.2446.0131c-2.1824-.53-3.4756-1.1206-3.834-1.5463l-.0044.496C66.9762,125.9692,68.2716,126.562,70.4608,127.0937Z"/><path class="cls-8" d="M69.14,136.2139l.0464-6.3658-.0037-.0009-.0461,6.3378C69.1361,136.1953,69.14,136.2041,69.14,136.2139Z"/><path class="cls-8" d="M98.368,162.977H67.3529c-.8831,0-1.76-.0332-2.6316-.09a39.6672,39.6672,0,0,1-7.677-1.2959c-.0359.1587-.0859.311-.1191.4707a39.7064,39.7064,0,0,0,7.7961,1.3252c.8716.0566,1.7485.09,2.6316.09H98.368c.8833,0,1.76-.0332,2.6316-.09a39.7074,39.7074,0,0,0,7.7962-1.3252c-.0332-.16-.0832-.312-.1192-.4707A39.6646,39.6646,0,0,1,101,162.8872C100.1283,162.9438,99.2513,162.977,98.368,162.977Z"/><path class="cls-8" d="M2.5946,79.8257,29.7025,26.41A41.9367,41.9367,0,0,1,67.3529,3.477H98.368a41.9348,41.9348,0,0,1,37.65,22.9327l27.1084,53.416a11.3688,11.3688,0,0,1,1.2132,4.9009,11.3756,11.3756,0,0,0-1.2132-5.4009L136.0179,25.91A41.9348,41.9348,0,0,0,98.368,2.977H67.3529A41.9367,41.9367,0,0,0,29.7025,25.91L2.5946,79.3257a11.3746,11.3746,0,0,0-1.2134,5.4009A11.3676,11.3676,0,0,1,2.5946,79.8257Z"/><path class="cls-8" d="M155.1048,98.8057a56.1228,56.1228,0,0,0-31.42,16.7661c-10.4845-16.83-21.3039-35.1983-21.8958-38.05q-.0018.2424-.0039.4853c.5625,2.8106,11.4,21.21,21.9,38.065a56.1228,56.1228,0,0,1,31.42-16.7661L160.4515,88.77a8.3791,8.3791,0,0,0,.8894-4.0434,8.3657,8.3657,0,0,1-.8894,3.5434Z"/><path class="cls-8" d="M82.3705,138.0181c5.7895.0195,9.3857-.8829,10.2588-1.46l.0424-5.874-.0035,0-.0389,5.3735c-.8731.5771-4.4693,1.48-10.2588,1.46-5.7613-.0508-9.3592-1.0464-10.2278-1.64l-.0037.4981C73.0023,136.9692,76.6024,137.9673,82.3705,138.0181Z"/><path class="cls-8" d="M132.9579,125.6255a51.4069,51.4069,0,0,0,6.1369,5.2275l4.9358-9.7256,9.3662-18.457c-.0964.02-.1914.0459-.2876.0669l-9.0786,17.89-4.9358,9.7256a51.4069,51.4069,0,0,1-6.1369-5.2275l-7.0391-7.04c-.0812.0855-.1658.1675-.2466.2534Z"/><path class="cls-8" d="M116.0719,109.4531c-.1819-.2973-.3682-.6025-.553-.9053a53.7467,53.7467,0,0,0-13.9178-7.4819l-.0041.4985A53.8152,53.8152,0,0,1,116.0719,109.4531Z"/><path class="cls-8" d="M120.4342,117.3437l-.5043-.5044-18.4535-.163c-.0014.1674-.0029.35-.0041.5Z"/><path class="cls-8" d="M127.3392,35.2671h1a1.4973,1.4973,0,0,1,1.4749,1.25,1.478,1.478,0,0,0-1.4749-1.75h-1a6.5075,6.5075,0,0,1-6.5-6.5v.5A6.5075,6.5075,0,0,0,127.3392,35.2671Z"/><path class="cls-8" d="M49.0707,63.7622h1.3672a1.4972,1.4972,0,0,1,1.4748,1.25,1.4775,1.4775,0,0,0-1.4748-1.75H49.0707A8.7957,8.7957,0,0,1,40.285,54.477v.5A8.7957,8.7957,0,0,0,49.0707,63.7622Z"/><path class="cls-8" d="M119.3392,39.6479a9.5818,9.5818,0,0,1,2.8814-2.8808c-.12-.0772-.23-.1675-.3467-.25a9.58,9.58,0,0,0-2.5347,2.6308,9.5756,9.5756,0,0,0-2.5344-2.6308c-.1165.0825-.2267.1728-.3469.25A9.5815,9.5815,0,0,1,119.3392,39.6479Z"/><path class="cls-8" d="M117.8392,28.2671a6.5075,6.5075,0,0,1-6.5,6.5h-1a1.477,1.477,0,0,0-1.4747,1.75,1.4971,1.4971,0,0,1,1.4747-1.25h1a6.5075,6.5075,0,0,0,6.5-6.5Z"/><path class="cls-8" d="M38.785,69.2983a11.8544,11.8544,0,0,0-4.1545-4.2861c-.13.08-.2484.1753-.3816.25a11.8652,11.8652,0,0,1,4.5361,4.5361,11.8661,11.8661,0,0,1,4.5362-4.5361c-.1331-.0747-.2516-.17-.3814-.25A11.8552,11.8552,0,0,0,38.785,69.2983Z"/><path class="cls-8" d="M37.285,54.477a8.7957,8.7957,0,0,1-8.7856,8.7852H26.7616a1.477,1.477,0,0,0-1.4747,1.75,1.4971,1.4971,0,0,1,1.4747-1.25h1.7378A8.7957,8.7957,0,0,0,37.285,54.977Z"/><path class="cls-8" d="M63.8868,101.4307c.0408-5.1758.0869-11.042.1341-17.0069l-.0039.0073c-.0457,5.7891-.09,11.4707-.13,16.5a53.7718,53.7718,0,0,0-14.66,7.8774c-.2034.3193-.4085.6411-.6082.9536A53.8172,53.8172,0,0,1,63.8868,101.4307Z"/><path class="cls-8" d="M63.6682,119.8428l-.0472,5.3237c0,.0117.0041.022.0041.0337l.0476-5.3574Z"/><path class="cls-8" d="M63.7655,116.8433c.02-2.5923.0544-6.9122.0962-12.2071l-.004.0015c-.04,5.062-.0726,9.1973-.0922,11.7056l-17.9424-.1583c-.0837.0826-.1721.1592-.2554.2422l-.2531.2535Z"/><path class="cls-8" d="M119.6739,120.3374a56.1133,56.1133,0,0,0-11.3064,31.7988A29.2429,29.2429,0,0,0,93.47,139.49c-.2.0894-.4055.1739-.616.25a29.26,29.26,0,0,1,15.5139,12.8965,56.1149,56.1149,0,0,1,11.6751-32.2954Z"/><path class="cls-8" d="M131.0555,146.0732c.2356-.3554.4715-.71.6961-1.0747q.233-.3758.4568-.7568c.3938-.6729.7785-1.353,1.1347-2.0547l4.38-8.6313c-.0623-.0445-.1221-.0923-.1842-.1373l-4.1962,8.2686c-.3562.7017-.7409,1.3818-1.1347,2.0547q-.2246.3808-.4568.7568c-.2246.3643-.46.7193-.6961,1.0747a39.2866,39.2866,0,0,1-19.3383,15.0679,53.7336,53.7336,0,0,1-.3886-6.2725c-.0006.0972-.0065.1939-.0065.2911a53.708,53.708,0,0,0,.3951,6.4814A39.2866,39.2866,0,0,0,131.0555,146.0732Z"/><path class="cls-8" d="M32.3773,142.187A38.7,38.7,0,0,0,54.046,161.206a29.2845,29.2845,0,0,1,18.596-21.3881c-.2293-.0728-.45-.1519-.6639-.2334A29.2733,29.2733,0,0,0,54.046,160.706a38.7,38.7,0,0,1-21.6687-19.019l-4.366-8.6035c-.0617.0459-.1213.0942-.1833.1391Z"/><path class="cls-8" d="M132.4344,83.477h2.5a1.4973,1.4973,0,0,1,1.4749,1.25,1.478,1.478,0,0,0-1.4749-1.75h-2.5Z"/><path class="cls-8" d="M130.9344,79.477a1.5,1.5,0,0,1,1.5,1.5v-.5a1.5,1.5,0,0,0-3,0v.5A1.5,1.5,0,0,1,130.9344,79.477Z"/><path class="cls-8" d="M126.9344,83.477h2.5v-.5h-2.5a1.477,1.477,0,0,0-1.4747,1.75A1.4971,1.4971,0,0,1,126.9344,83.477Z"/><g class="cls-9"><path id="FOR_LINE_WORK_LIPS" data-name="FOR LINE WORK LIPS" class="cls-10" d="M32.0928,12.0593A90.3458,90.3458,0,0,0,8.8311,37.08L131.9853,160.8061a90.2609,90.2609,0,0,0,24.9043-23.37Z"/></g><path class="cls-11" d="M99.515,168h-31.03a44.4269,44.4269,0,0,1-39.88-24.3008L1.4971,90.2832a13.9332,13.9332,0,0,1-.0005-12.5654L28.605,24.3008A44.4269,44.4269,0,0,1,68.4849,0h31.03a44.4268,44.4268,0,0,1,39.88,24.3008l27.1084,53.417a13.9327,13.9327,0,0,1,0,12.5644l-27.1084,53.417A44.4268,44.4268,0,0,1,99.515,168ZM68.4849,8A36.4647,36.4647,0,0,0,35.7388,27.9219L8.6309,81.3379a5.9042,5.9042,0,0,0,0,5.3252l27.1074,53.415A36.4647,36.4647,0,0,0,68.4849,160h31.03a36.4647,36.4647,0,0,0,32.7461-19.9219l27.1079-53.416a5.9052,5.9052,0,0,0,0-5.3242l-27.1079-53.416A36.4647,36.4647,0,0,0,99.515,8Z"/><g class="cls-3"><ellipse class="cls-12" cx="83.4667" cy="144" rx="48.5333" ry="19"/></g><path class="cls-13" d="M132,140.5508A36.46,36.46,0,0,1,99.515,160h-31.03A36.46,36.46,0,0,1,36,140.5508v13.6145A44.62,44.62,0,0,0,68.4849,168h31.03A44.62,44.62,0,0,0,132,154.1653Z"/><path class="cls-14" d="M99.515,8a36.4647,36.4647,0,0,1,32.7461,19.9219l27.1079,53.416a5.9052,5.9052,0,0,1,0,5.3242l-27.1079,53.416A36.4647,36.4647,0,0,1,99.515,160h-31.03a36.4649,36.4649,0,0,1-32.7461-19.9219L8.6314,86.6631a5.9042,5.9042,0,0,1,0-5.3252l27.1079-53.416A36.4649,36.4649,0,0,1,68.4849,8h31.03m0-1h-31.03A37.46,37.46,0,0,0,34.8471,27.4692L7.7392,80.8853a6.9087,6.9087,0,0,0,0,6.23l27.1075,53.4151A37.46,37.46,0,0,0,68.4849,161h31.03a37.46,37.46,0,0,0,33.6378-20.4692l27.1079-53.4161a6.907,6.907,0,0,0,0-6.2294l-27.108-53.4161A37.46,37.46,0,0,0,99.515,7Z"/><path class="cls-15" d="M147.2853,128.1511,141.3341,122.2l-9.073,17.8784a36.1924,36.1924,0,0,1-8.7838,11.147l5.67,5.67a44.2086,44.2086,0,0,0,10.2473-13.1963Z"/><path class="cls-16" d="M34.57,15.4351a44.3645,44.3645,0,0,0-5.9645,8.8657l-10.79,21.2619,5.9513,5.9515L35.7388,27.9219A36.34,36.34,0,0,1,40.24,21.1055Z"/><path class="cls-17" d="M7.9967,84a5.8844,5.8844,0,0,1,.6342-2.6621l27.1079-53.416A36.4647,36.4647,0,0,1,68.4849,8h31.03a36.4647,36.4647,0,0,1,32.7461,19.9219l27.1079,53.416A5.8856,5.8856,0,0,1,160.0031,84H168a13.8882,13.8882,0,0,0-1.4967-6.2822l-27.1084-53.417A44.4268,44.4268,0,0,0,99.515,0h-31.03a44.4269,44.4269,0,0,0-39.88,24.3008L1.4966,77.7178A13.8868,13.8868,0,0,0,0,84Z"/></g></g></svg>