<svg xmlns="http://www.w3.org/2000/svg" xmlns:xlink="http://www.w3.org/1999/xlink" viewBox="0 0 168 168"><defs><style>.cls-1{fill:url(#linear-gradient);}.cls-2{opacity:0.5;}.cls-17,.cls-19,.cls-2,.cls-4{isolation:isolate;}.cls-3{fill:url(#linear-gradient-2);}.cls-15,.cls-4{opacity:0.3;}.cls-5{fill:url(#linear-gradient-3);}.cls-6{fill:url(#linear-gradient-4);}.cls-7{fill:url(#linear-gradient-5);}.cls-8{fill:url(#linear-gradient-6);}.cls-9{fill:url(#linear-gradient-7);}.cls-10{fill:url(#linear-gradient-8);}.cls-11{fill:#fff;}.cls-12{fill:url(#linear-gradient-9);}.cls-13{fill:url(#linear-gradient-10);}.cls-14{fill:url(#linear-gradient-11);}.cls-16{fill:url(#radial-gradient);}.cls-17{opacity:0.7;fill:url(#linear-gradient-12);}.cls-18{fill:url(#linear-gradient-13);}.cls-19{opacity:0.4;fill:url(#linear-gradient-14);}</style><linearGradient id="linear-gradient" x1="-480" y1="1555.37" x2="-480" y2="1715.37" gradientTransform="matrix(1, 0, 0, -1, 564, 1719.37)" gradientUnits="userSpaceOnUse"><stop offset="0" stop-color="#333d45"/><stop offset="1"/></linearGradient><linearGradient id="linear-gradient-2" x1="-480" y1="1611.41" x2="-480" y2="1681.41" gradientTransform="matrix(1, 0, 0, -1, 564, 1719.37)" gradientUnits="userSpaceOnUse"><stop offset="0" stop-color="#0bb7c8"/><stop offset="1" stop-color="#94fc82"/></linearGradient><linearGradient id="linear-gradient-3" x1="-480" y1="1553.87" x2="-480" y2="1716.93" gradientTransform="matrix(1, 0, 0, -1, 564, 1719.37)" gradientUnits="userSpaceOnUse"><stop offset="0" stop-color="#688199"/><stop offset="1" stop-color="#f7f9fa"/></linearGradient><linearGradient id="linear-gradient-4" x1="-524.68" y1="1655.82" x2="-501.25" y2="1679.25" gradientTransform="matrix(1, 0, 0, -1, 564, 1719.37)" gradientUnits="userSpaceOnUse"><stop offset="0.25" stop-color="#f7f9fa" stop-opacity="0"/><stop offset="0.5" stop-color="#fff"/><stop offset="0.75" stop-color="#bee6fa" stop-opacity="0"/></linearGradient><linearGradient id="linear-gradient-5" x1="-463.51" y1="1594.66" x2="-440.09" y2="1618.08" xlink:href="#linear-gradient-4"/><linearGradient id="linear-gradient-6" x1="-547.97" y1="1679.12" x2="-524.55" y2="1702.54" xlink:href="#linear-gradient-4"/><linearGradient id="linear-gradient-7" x1="-503.51" y1="1634.65" x2="-490.99" y2="1647.17" xlink:href="#linear-gradient-4"/><linearGradient id="linear-gradient-8" x1="-508.51" y1="1639.66" x2="-485.09" y2="1663.08" xlink:href="#linear-gradient-4"/><linearGradient id="linear-gradient-9" x1="-480" y1="1551.37" x2="-480" y2="1719.37" xlink:href="#linear-gradient-3"/><linearGradient id="linear-gradient-10" x1="-480" y1="1558.37" x2="-480" y2="1712.37" gradientTransform="matrix(1, 0, 0, -1, 564, 1719.37)" gradientUnits="userSpaceOnUse"><stop offset="0" stop-color="#f7f9fa"/><stop offset="1" stop-color="#f7f9fa" stop-opacity="0"/></linearGradient><linearGradient id="linear-gradient-11" x1="-528" y1="1563.93" x2="-432" y2="1563.93" gradientTransform="matrix(1, 0, 0, -1, 564, 1719.37)" gradientUnits="userSpaceOnUse"><stop offset="0" stop-color="#e8749f" stop-opacity="0"/><stop offset="0.5" stop-color="#f7f9fa"/><stop offset="1" stop-color="#e8749f" stop-opacity="0"/></linearGradient><radialGradient id="radial-gradient" cx="-7737.93" cy="-182.52" fy="-164.4685659255721" r="20.27" gradientTransform="matrix(-2, 0, 0, 0.94, -15391.32, 312.92)" gradientUnits="userSpaceOnUse"><stop offset="0" stop-color="#fff"/><stop offset="0.68" stop-color="#e78bad" stop-opacity="0"/></radialGradient><linearGradient id="linear-gradient-12" x1="-436.26" y1="1567.41" x2="-412.84" y2="1590.83" xlink:href="#linear-gradient-4"/><linearGradient id="linear-gradient-13" x1="-547.96" y1="1679.1" x2="-524.53" y2="1702.53" xlink:href="#linear-gradient-4"/><linearGradient id="linear-gradient-14" x1="-480" y1="1635.37" x2="-480" y2="1719.37" gradientTransform="matrix(1, 0, 0, -1, 564, 1719.37)" gradientUnits="userSpaceOnUse"><stop offset="0" stop-color="#e8749f" stop-opacity="0"/><stop offset="1" stop-color="#f7f9fa"/></linearGradient></defs><g id="Layer_2" data-name="Layer 2"><g id="Layer_1-2" data-name="Layer 1"><g id="Layer_2-2" data-name="Layer 2"><g id="Layer_1-2-2" data-name="Layer 1-2"><circle class="cls-1" cx="84" cy="84" r="80"/><path class="cls-2" d="M165.5,85A81.5,81.5,0,1,0,36.36,151.07l0,0L38,152.25a81.19,81.19,0,0,0,25.61,11.66l.26.06c1.13.29,2.27.55,3.42.79l.6.13q3.72.75,7.52,1.15l.91.08c1,.1,1.93.17,2.9.23l1,.05c1.25.06,2.51.1,3.77.1s2.47,0,3.7-.09l.81,0c1.1-.06,2.2-.15,3.29-.25l1.28-.14c.76-.08,1.52-.18,2.28-.29s1.62-.24,2.42-.38l1.32-.24a80.76,80.76,0,0,0,22.24-7.66l.17-.09c1.94-1,3.83-2.1,5.68-3.25l1.43-.92c.46-.3.92-.6,1.38-.92.78-.53,1.55-1.08,2.31-1.64l.77-.58c.92-.69,1.82-1.4,2.71-2.12a.27.27,0,0,1,.08-.07A81.91,81.91,0,0,0,150.56,132l1.16-1.64,0,0A81,81,0,0,0,165.5,85Zm-16.79,44.37a116.72,116.72,0,0,0-31.21-5.73V110.5H130A11.51,11.51,0,0,0,141.5,99V73a5.43,5.43,0,0,0-.61-2.5H142A11.51,11.51,0,0,0,153.5,59V48.57A78.26,78.26,0,0,1,148.71,129.37ZM136.8,143l-.09.08c-.89.81-1.79,1.59-2.72,2.36l-.28.23c-.8.65-1.6,1.28-2.42,1.9l-.5.38c-.77.57-1.56,1.13-2.35,1.67l-1.17.79c-.53.35-1.07.69-1.61,1-.71.45-1.43.89-2.16,1.31l-.7.41c-1.73,1-3.5,1.9-5.3,2.76V126.64a114.4,114.4,0,0,1,29.4,5.28A79.49,79.49,0,0,1,136.8,143ZM102,161.41q-1.77.41-3.57.75l-1.28.23-1.82.29c-.87.12-1.74.24-2.62.33l-1.19.13c-1,.1-2.11.18-3.17.24l-.71,0c-1.19.05-2.39.09-3.59.09s-2.41,0-3.61-.09l-1,0c-1-.06-2-.14-3-.23l-.59-.06c-1.21-.12-2.41-.28-3.61-.46l-.51-.08c-1.08-.17-2.14-.36-3.21-.57l-.5-.11q-3.7-.76-7.29-1.88l-.07,0a78.2,78.2,0,0,1-19.26-9.08A114.79,114.79,0,0,1,112,126.5c.84,0,1.67,0,2.5,0V157.3a77.58,77.58,0,0,1-12.24,4l-.31.08ZM29.5,78.5h5.28A4.53,4.53,0,0,0,34.5,80V93.86a8.66,8.66,0,0,0,8.64,8.64H63.4l-2.91,5H38A8.52,8.52,0,0,1,29.5,99Zm45.7,3.76-9.34,16A2.5,2.5,0,0,1,63.7,99.5H43.14a5.65,5.65,0,0,1-5.64-5.64V80A1.5,1.5,0,0,1,39,78.5H73a2.5,2.5,0,0,1,2.5,2.5,2.53,2.53,0,0,1-.34,1.26Zm2.1,2.35.49-.84A5.5,5.5,0,0,0,73,75.5H29.5V73a2.47,2.47,0,0,1,.81-1.83l0,0a2.57,2.57,0,0,1,1-.56l.09,0A2.33,2.33,0,0,1,32,70.5H136a2.47,2.47,0,0,1,1.67.65l.13.09A2.48,2.48,0,0,1,138.5,73V99a8.52,8.52,0,0,1-8.5,8.5H117.5v-5h7.36a8.66,8.66,0,0,0,8.64-8.64V80a4.51,4.51,0,0,0-4.5-4.5H95a5.5,5.5,0,0,0-4.75,8.27l9.34,16a5.5,5.5,0,0,0,4.75,2.73h10.2v5H101.66a8.55,8.55,0,0,1-7.29-4.13L85.29,88.23a1.51,1.51,0,0,0-2.06-.52,1.61,1.61,0,0,0-.52.52l-9.08,15.14a8.55,8.55,0,0,1-7.29,4.13H64ZM34.94,67.5l32.3-25.59a6.51,6.51,0,0,1,4-1.41h3.21a.5.5,0,0,1,.5.5v2a.5.5,0,0,1-.5.5H72.05A5.5,5.5,0,0,0,68.32,45L43.9,67.5Zm89.13,0L99.65,45a5.5,5.5,0,0,0-3.73-1.46H93.48A.5.5,0,0,1,93,43V41a.5.5,0,0,1,.5-.5H96.7a6.5,6.5,0,0,1,4,1.41L133,67.5Zm-16.77,11a28.41,28.41,0,0,1,7.2,18.93V99.5H104.3a2.5,2.5,0,0,1-2.16-1.24l-9.33-16a2.5,2.5,0,0,1,.89-3.42A2.56,2.56,0,0,1,95,78.5Zm3.88,0H129a1.5,1.5,0,0,1,1.5,1.5V93.86a5.65,5.65,0,0,1-5.64,5.64H117.5V97.43A31.37,31.37,0,0,0,111.18,78.5Zm-44.84,32a11.57,11.57,0,0,0,9.86-5.58l7.8-13,7.8,13a11.57,11.57,0,0,0,9.86,5.58H114.5v13c-.83,0-1.66,0-2.5,0a117.77,117.77,0,0,0-71.53,24.31L62.21,110.5ZM150.5,43.36V59a8.52,8.52,0,0,1-8.5,8.5h-4.13L102.6,39.55a9.57,9.57,0,0,0-5.9-2H93.48A3.5,3.5,0,0,0,90,41v2a3.5,3.5,0,0,0,3.5,3.5h2.44a2.51,2.51,0,0,1,1.69.66l22,20.34h-19l-6.77-6.77A28.3,28.3,0,0,1,85.5,40.57v-34A78.48,78.48,0,0,1,150.5,43.36ZM82.5,6.54v34a31.32,31.32,0,0,0,9.23,22.28l4.65,4.65h-48l22-20.34a2.53,2.53,0,0,1,1.69-.66h2.44A3.5,3.5,0,0,0,78,43V41a3.5,3.5,0,0,0-3.5-3.5H71.28a9.54,9.54,0,0,0-5.9,2l-36.59,29c-.14.1-.27.21-.4.32h0A5.5,5.5,0,0,0,26.5,73v2.5H6.1A78.57,78.57,0,0,1,82.5,6.54ZM5.5,85c0-2.19.11-4.35.29-6.5H26.5V99A11.51,11.51,0,0,0,38,110.5H58.74L37,147.83A78.42,78.42,0,0,1,5.5,85Z"/><path d="M84,9A75,75,0,1,1,9,84,75,75,0,0,1,84,9m0-1a76,76,0,1,0,76,76A76,76,0,0,0,84,8Z"/><path class="cls-3" d="M138.14,68.59l-36.48-28.9a8,8,0,0,0-5-1.73H93.48a2,2,0,0,0-2,2v2a2,2,0,0,0,2,2h2.44A4,4,0,0,1,98.63,45L123.48,68h-79L69.34,45A4,4,0,0,1,72.06,44h2.43a2,2,0,0,0,2-2V40a2,2,0,0,0-2-2H71.28a8,8,0,0,0-5,1.73l-36.54,29-.07.06-.38.3h0A4,4,0,0,0,28,72V98a10,10,0,0,0,10,10H66.34a10,10,0,0,0,8.57-4.86L84,88l9.09,15.14a10,10,0,0,0,8.57,4.86H130a10,10,0,0,0,10-10V72A4,4,0,0,0,138.14,68.59ZM76.49,82,67.16,98a4,4,0,0,1-3.46,2H43.14A7.15,7.15,0,0,1,36,92.81V79a3,3,0,0,1,3-3H73a4,4,0,0,1,4,4A3.94,3.94,0,0,1,76.49,82ZM132,92.81a7.15,7.15,0,0,1-7.14,7.15H104.3a4,4,0,0,1-3.46-2L91.51,82A4,4,0,0,1,93,76.5,4.06,4.06,0,0,1,95,76h34a3,3,0,0,1,3,3Z"/><path class="cls-4" d="M138.14,68.59l-36.48-28.9a8,8,0,0,0-5-1.73H93.48a2,2,0,0,0-2,2v2a2,2,0,0,0,2,2h2.44A4,4,0,0,1,98.63,45L123.48,68h-79L69.34,45A4,4,0,0,1,72.06,44h2.43a2,2,0,0,0,2-2V40a2,2,0,0,0-2-2H71.28a7.94,7.94,0,0,0-2,.25c-.21,0-.42.12-.63.19a8,8,0,0,0-2.34,1.29l-36.54,29-.07.06-.38.3h0a5.32,5.32,0,0,0-.55.61,4.57,4.57,0,0,0-.42.71A3.89,3.89,0,0,0,28,72V98a10,10,0,0,0,10,10H66.34a10,10,0,0,0,8.57-4.86L84,88l9.09,15.14a10,10,0,0,0,8.57,4.86H130a10,10,0,0,0,10-10V72A4,4,0,0,0,138.14,68.59ZM100.33,43.22a6.5,6.5,0,0,0-4.41-1.72H94v-1H96.7a5.48,5.48,0,0,1,3.41,1.19L130.16,65.5h-5.7ZM67.86,41.69a5.51,5.51,0,0,1,3.42-1.19H74v1H72.05a6.47,6.47,0,0,0-4.4,1.72L43.51,65.5h-5.7Zm-8,63.81H38A7.5,7.5,0,0,1,30.5,98V78.5h3a4.19,4.19,0,0,0,0,.5V92.86a9.66,9.66,0,0,0,9.64,9.64H61.66ZM43.14,100A7.15,7.15,0,0,1,36,92.81V79a3,3,0,0,1,3-3H73a4,4,0,0,1,4,4,3.94,3.94,0,0,1-.55,2L67.16,98a4,4,0,0,1-3.46,2Zm94.36-2a7.5,7.5,0,0,1-7.5,7.5H118.5v-3h6.36a9.66,9.66,0,0,0,9.64-9.64V79a5.5,5.5,0,0,0-5.5-5.5H95a6.5,6.5,0,0,0-5.61,9.78l9.33,16a6.53,6.53,0,0,0,5.62,3.22h9.2v3H101.66a7.55,7.55,0,0,1-6.43-3.64L86.14,86.72a2.48,2.48,0,0,0-3.42-.86,2.42,2.42,0,0,0-.86.85l-9.09,15.15a7.55,7.55,0,0,1-6.43,3.64H65.7l13-22.22A6.51,6.51,0,0,0,73,73.5H30.5V72a1.45,1.45,0,0,1,.4-1l0,0L31,70.9a1.5,1.5,0,0,1,.68-.36,1.06,1.06,0,0,1,.31,0H136a1.44,1.44,0,0,1,1,.4.66.66,0,0,0,.17.12,1.54,1.54,0,0,1,.36,1Zm-33.2,2a4,4,0,0,1-3.46-2L91.51,82A4,4,0,0,1,93,76.5,4.06,4.06,0,0,1,95,76h34a3,3,0,0,1,3,3V92.81a7.15,7.15,0,0,1-7.14,7.15Z"/><path class="cls-5" d="M165.5,84A81.5,81.5,0,1,0,36.36,150.07l0,0L38,151.25a81.19,81.19,0,0,0,25.61,11.66l.26.06c1.13.29,2.27.55,3.42.79l.6.13q3.72.75,7.52,1.15l.91.08c1,.1,1.93.17,2.9.23l1,.05c1.25.06,2.51.1,3.77.1s2.47,0,3.7-.09l.81,0c1.1-.06,2.2-.15,3.29-.25l1.28-.14c.76-.08,1.52-.18,2.28-.29s1.62-.24,2.42-.38l1.32-.24a80.76,80.76,0,0,0,22.24-7.66l.17-.09c1.94-1,3.83-2.1,5.68-3.25l1.43-.92c.46-.3.92-.6,1.38-.92.78-.53,1.55-1.08,2.31-1.64l.77-.58c.92-.69,1.82-1.4,2.71-2.12a.27.27,0,0,1,.08-.07A81.91,81.91,0,0,0,150.56,131l1.16-1.64,0,0A81,81,0,0,0,165.5,84Zm-16.79,44.37a116.72,116.72,0,0,0-31.21-5.73V109.5H130A11.51,11.51,0,0,0,141.5,98V72a5.43,5.43,0,0,0-.61-2.5H142A11.51,11.51,0,0,0,153.5,58V47.57A78.26,78.26,0,0,1,148.71,128.37ZM136.8,142l-.09.08c-.89.81-1.79,1.59-2.72,2.36l-.28.23c-.8.65-1.6,1.28-2.42,1.9l-.5.38c-.77.57-1.56,1.13-2.35,1.67l-1.17.79c-.53.35-1.07.69-1.61,1-.71.45-1.43.89-2.16,1.31l-.7.41c-1.73,1-3.5,1.9-5.3,2.76V125.64a114.4,114.4,0,0,1,29.4,5.28A79.49,79.49,0,0,1,136.8,142ZM102,160.41q-1.77.41-3.57.75l-1.28.23-1.82.29c-.87.12-1.74.24-2.62.33l-1.19.13c-1,.1-2.11.18-3.17.24l-.71,0c-1.19.05-2.39.09-3.59.09s-2.41,0-3.61-.09l-1,0c-1-.06-2-.14-3-.23l-.59-.06c-1.21-.12-2.41-.28-3.61-.46l-.51-.08c-1.08-.17-2.14-.36-3.21-.57l-.5-.11q-3.7-.76-7.29-1.88l-.07,0a78.2,78.2,0,0,1-19.26-9.08A114.79,114.79,0,0,1,112,125.5c.84,0,1.67,0,2.5,0V156.3a77.58,77.58,0,0,1-12.24,4l-.31.08ZM29.5,77.5h5.28A4.53,4.53,0,0,0,34.5,79V92.86a8.66,8.66,0,0,0,8.64,8.64H63.4l-2.91,5H38A8.52,8.52,0,0,1,29.5,98Zm45.7,3.76-9.34,16A2.5,2.5,0,0,1,63.7,98.5H43.14a5.65,5.65,0,0,1-5.64-5.64V79A1.5,1.5,0,0,1,39,77.5H73a2.5,2.5,0,0,1,2.5,2.5,2.53,2.53,0,0,1-.34,1.26Zm2.1,2.35.49-.84A5.5,5.5,0,0,0,73,74.5H29.5V72a2.47,2.47,0,0,1,.81-1.83l0,0a2.57,2.57,0,0,1,1-.56l.09,0A2.33,2.33,0,0,1,32,69.5H136a2.47,2.47,0,0,1,1.67.65l.13.09A2.48,2.48,0,0,1,138.5,72V98a8.52,8.52,0,0,1-8.5,8.5H117.5v-5h7.36a8.66,8.66,0,0,0,8.64-8.64V79a4.51,4.51,0,0,0-4.5-4.5H95a5.5,5.5,0,0,0-4.75,8.27l9.34,16a5.5,5.5,0,0,0,4.75,2.73h10.2v5H101.66a8.55,8.55,0,0,1-7.29-4.13L85.29,87.23a1.51,1.51,0,0,0-2.06-.52,1.61,1.61,0,0,0-.52.52l-9.08,15.14a8.55,8.55,0,0,1-7.29,4.13H64ZM34.94,66.5l32.3-25.59a6.51,6.51,0,0,1,4-1.41h3.21a.5.5,0,0,1,.5.5v2a.5.5,0,0,1-.5.5H72.05A5.5,5.5,0,0,0,68.32,44L43.9,66.5Zm89.13,0L99.65,44a5.5,5.5,0,0,0-3.73-1.46H93.48A.5.5,0,0,1,93,42V40a.5.5,0,0,1,.5-.5H96.7a6.5,6.5,0,0,1,4,1.41L133,66.5Zm-16.77,11a28.41,28.41,0,0,1,7.2,18.93V98.5H104.3a2.5,2.5,0,0,1-2.16-1.24l-9.33-16a2.5,2.5,0,0,1,.89-3.42A2.56,2.56,0,0,1,95,77.5Zm3.88,0H129a1.5,1.5,0,0,1,1.5,1.5V92.86a5.65,5.65,0,0,1-5.64,5.64H117.5V96.43A31.37,31.37,0,0,0,111.18,77.5Zm-44.84,32a11.57,11.57,0,0,0,9.86-5.58l7.8-13,7.8,13a11.57,11.57,0,0,0,9.86,5.58H114.5v13c-.83,0-1.66,0-2.5,0a117.77,117.77,0,0,0-71.53,24.31L62.21,109.5ZM150.5,42.36V58a8.52,8.52,0,0,1-8.5,8.5h-4.13L102.6,38.55a9.57,9.57,0,0,0-5.9-2H93.48A3.5,3.5,0,0,0,90,40v2a3.5,3.5,0,0,0,3.5,3.5h2.44a2.51,2.51,0,0,1,1.69.66l22,20.34h-19l-6.77-6.77A28.3,28.3,0,0,1,85.5,39.57v-34A78.48,78.48,0,0,1,150.5,42.36ZM82.5,5.54v34a31.32,31.32,0,0,0,9.23,22.28l4.65,4.65h-48l22-20.34a2.53,2.53,0,0,1,1.69-.66h2.44A3.5,3.5,0,0,0,78,42V40a3.5,3.5,0,0,0-3.5-3.5H71.28a9.54,9.54,0,0,0-5.9,2l-36.59,29c-.14.1-.27.21-.4.32h0A5.5,5.5,0,0,0,26.5,72v2.5H6.1A78.57,78.57,0,0,1,82.5,5.54ZM5.5,84c0-2.19.11-4.35.29-6.5H26.5V98A11.51,11.51,0,0,0,38,109.5H58.74L37,146.83A78.42,78.42,0,0,1,5.5,84Z"/><polygon class="cls-6" points="39.03 63.26 65.17 42.55 63.03 40.41 36.9 61.12 39.03 63.26"/><path class="cls-7" d="M149.62,127c-.3.46-.6.92-.91,1.37a116.72,116.72,0,0,0-31.21-5.73V109.5H130a10.72,10.72,0,0,0,1.95-.18l-2.83-2.82H117.5v-5h6.62l-3-3H117.5V96.43c0-.54,0-1.08-.07-1.62l-3.37-3.38a28.86,28.86,0,0,1,.44,5V98.5H104.3a2.5,2.5,0,0,1-2.16-1.24l-9.33-16a2.5,2.5,0,0,1,.89-3.42A2.56,2.56,0,0,1,95,77.5h5.16l-3-3H95a5.5,5.5,0,0,0-4.75,8.27l9.34,16a5.5,5.5,0,0,0,4.75,2.73h10.2v5H101.66a8.55,8.55,0,0,1-7.29-4.13L85.29,87.23a1.51,1.51,0,0,0-2.06-.52,1.61,1.61,0,0,0-.52.52L75.32,99.55l2.19,2.18L84,90.92l7.8,13a11.57,11.57,0,0,0,9.86,5.58H114.5v13c-.83,0-1.66,0-2.5,0a117.25,117.25,0,0,0-13,.75l2.73,2.73c3.4-.31,6.82-.48,10.25-.48.84,0,1.67,0,2.5,0v13.17l3,3V125.64a114.4,114.4,0,0,1,29.4,5.28A79.49,79.49,0,0,1,136.8,142l-.09.08c-.89.81-1.79,1.59-2.72,2.36l-.28.23c-.8.65-1.6,1.28-2.42,1.9l-.5.38c-.77.57-1.56,1.13-2.35,1.67l-1.17.79c-.41.27-.82.54-1.24.8l2.17,2.17.42-.27c.46-.3.92-.6,1.38-.92.78-.53,1.55-1.08,2.31-1.64l.77-.58c.92-.69,1.82-1.4,2.71-2.12a.27.27,0,0,1,.08-.07A82.22,82.22,0,0,0,150.56,131l1.16-1.64,0,0,.12-.18Z"/><path class="cls-8" d="M15.58,39.8,17.75,42A79.15,79.15,0,0,1,41,18.39L38.83,16.2A82.32,82.32,0,0,0,15.58,39.8Z"/><path class="cls-9" d="M77.79,82.77A5.5,5.5,0,0,0,73,74.5H50.28l3,3H73a2.5,2.5,0,0,1,2.5,2.5,2.53,2.53,0,0,1-.34,1.26L68.51,92.73l2.19,2.2,6.6-11.32Z"/><polygon class="cls-10" points="89.12 66.5 48.33 66.5 69.54 46.92 67.42 44.79 43.91 66.5 42.28 66.5 45.28 69.5 92.12 69.5 89.12 66.5"/><path class="cls-11" d="M133.5,79.5V79a4.51,4.51,0,0,0-4.5-4.5H95A5.49,5.49,0,0,0,89.47,80v.27A5.5,5.5,0,0,1,95,75h34A4.51,4.51,0,0,1,133.5,79.5Z"/><path class="cls-11" d="M141.5,72.5V72a5.28,5.28,0,0,0-.39-2h-.22A5.43,5.43,0,0,1,141.5,72.5Z"/><path class="cls-11" d="M34.5,79.5a4.53,4.53,0,0,1,.28-1.5h-.14a4.23,4.23,0,0,0-.14,1Z"/><path class="cls-11" d="M38,107H60.49l2.91-5h-.29l-2.62,4.5H38A8.52,8.52,0,0,1,29.5,98v.5A8.52,8.52,0,0,0,38,107Z"/><path class="cls-11" d="M77.81,77.26A5.45,5.45,0,0,0,73,74.5H29.5V75H73a5.5,5.5,0,0,1,5.49,5.26A5.52,5.52,0,0,0,77.81,77.26Z"/><path class="cls-11" d="M65.86,97.76l9.34-16a2.48,2.48,0,0,0,.31-1.51,2.53,2.53,0,0,1-.31,1l-9.34,16A2.5,2.5,0,0,1,63.7,98.5H43.14a5.65,5.65,0,0,1-5.64-5.64v.5A5.65,5.65,0,0,0,43.14,99H63.7A2.5,2.5,0,0,0,65.86,97.76Z"/><path class="cls-11" d="M136.8,142l-.09.08c-.89.81-1.79,1.59-2.72,2.36l-.28.23c-.8.65-1.6,1.28-2.42,1.9l-.5.38c-.77.57-1.56,1.13-2.35,1.67l-1.17.79c-.53.35-1.07.69-1.61,1-.71.45-1.43.89-2.16,1.31l-.7.41c-1.73,1-3.5,1.9-5.3,2.76v.5c1.8-.85,3.56-1.77,5.3-2.76l.7-.41c.73-.42,1.45-.86,2.16-1.31.54-.34,1.08-.68,1.61-1l1.17-.79c.79-.54,1.58-1.1,2.35-1.67l.5-.38c.82-.62,1.62-1.25,2.42-1.9L134,145c.93-.77,1.83-1.55,2.72-2.36l.09-.08a79.49,79.49,0,0,0,10.1-11.12l-.32-.1A78.86,78.86,0,0,1,136.8,142Z"/><path class="cls-11" d="M84,3a81.58,81.58,0,0,1,81.49,81.29c0-.1,0-.19,0-.29a81.5,81.5,0,0,0-163,0v.31A81.6,81.6,0,0,1,84,3Z"/><path class="cls-11" d="M114.5,122.55c-.83,0-1.66,0-2.5,0a117.76,117.76,0,0,0-71,23.94l-.51.87A117.77,117.77,0,0,1,112,123c.84,0,1.67,0,2.5,0Z"/><path class="cls-11" d="M117.5,122.64v.5a116.72,116.72,0,0,1,31.21,5.73A78,78,0,0,0,162.5,84.5v-.28a78.05,78.05,0,0,1-13.79,44.15A116.72,116.72,0,0,0,117.5,122.64Z"/><path class="cls-11" d="M60.64,159.45l.07,0c2.38.75,4.81,1.37,7.29,1.89l.5.1c1.07.21,2.13.4,3.21.57l.51.08c1.2.19,2.4.34,3.61.46l.59.06c1,.09,2,.17,3,.23l1,0c1.2.05,2.4.09,3.61.09s2.4,0,3.59-.09l.71,0c1.06-.06,2.12-.14,3.17-.24l1.19-.13c.88-.09,1.75-.21,2.62-.33q.91-.13,1.83-.3l1.28-.23c1.19-.22,2.38-.47,3.56-.75l.31-.07a79.7,79.7,0,0,0,12.24-4v-.5a77.58,77.58,0,0,1-12.24,4l-.31.08q-1.77.41-3.57.75l-1.28.23-1.82.29c-.87.12-1.74.24-2.62.33l-1.19.13c-1,.1-2.11.18-3.17.24l-.71,0c-1.19.05-2.39.09-3.59.09s-2.41,0-3.61-.09l-1,0c-1-.06-2-.14-3-.23l-.59-.06c-1.21-.12-2.41-.28-3.61-.46l-.51-.08c-1.08-.17-2.14-.36-3.21-.57l-.5-.1q-3.7-.78-7.29-1.89l-.07,0a78.1,78.1,0,0,1-18.89-8.85l-.37.27A78.2,78.2,0,0,0,60.64,159.45Z"/><path class="cls-11" d="M43.9,67,68.32,44.46A5.5,5.5,0,0,1,72.05,43h2.44a.5.5,0,0,0,.5-.5V42a.5.5,0,0,1-.5.5H72.05A5.5,5.5,0,0,0,68.32,44L43.9,66.5H35.57l-.63.5Z"/><path class="cls-11" d="M114.5,106.5H101.66a8.55,8.55,0,0,1-7.29-4.13L85.29,87.23a1.51,1.51,0,0,0-2.06-.52,1.61,1.61,0,0,0-.52.52l-9.08,15.14a8.55,8.55,0,0,1-7.29,4.13H64.25L64,107h2.38a8.55,8.55,0,0,0,7.29-4.13l9.08-15.14a1.51,1.51,0,0,1,2.06-.52,1.61,1.61,0,0,1,.52.52l9.08,15.14a8.55,8.55,0,0,0,7.29,4.13H114.5Z"/><path class="cls-11" d="M93.85,60.23,100.62,67h19l-.54-.5H100.62l-6.77-6.77A28.3,28.3,0,0,1,85.5,39.57v.5A28.3,28.3,0,0,0,93.85,60.23Z"/><path class="cls-11" d="M117.5,96.43a31.37,31.37,0,0,0-6-18.43h-.34a31.37,31.37,0,0,1,6.32,18.93Z"/><path class="cls-11" d="M37,147.33,58.74,110h-.29L37,146.83A78.43,78.43,0,0,1,5.5,84.31v.19A78.42,78.42,0,0,0,37,147.33Z"/><path class="cls-11" d="M26.5,75v-.5H6.17c0,.17,0,.33-.07.5Z"/><path class="cls-11" d="M114.5,98.5H104.3a2.5,2.5,0,0,1-2.16-1.24l-9.33-16a2.4,2.4,0,0,1-.32-1,2.43,2.43,0,0,0,.32,1.51l9.33,16A2.5,2.5,0,0,0,104.3,99h10.2Z"/><polygon class="cls-11" points="48.33 67 96.38 67 95.88 66.5 48.87 66.5 48.33 67"/><path class="cls-11" d="M130,107a8.52,8.52,0,0,0,8.5-8.5V98a8.52,8.52,0,0,1-8.5,8.5H117.5v.5Z"/><path class="cls-11" d="M117.5,99h7.36a5.65,5.65,0,0,0,5.64-5.64v-.5a5.65,5.65,0,0,1-5.64,5.64H117.5Z"/><path class="cls-11" d="M124.07,67h9l-.64-.5h-8.33L99.65,44a5.5,5.5,0,0,0-3.73-1.46H93.48A.5.5,0,0,1,93,42v.5a.5.5,0,0,0,.5.5h2.44a5.5,5.5,0,0,1,3.73,1.46Z"/><path class="cls-11" d="M150.5,58a8.52,8.52,0,0,1-8.5,8.5h-4.13L102.6,38.55a9.57,9.57,0,0,0-5.9-2H93.48A3.5,3.5,0,0,0,90,40v.5a3.5,3.5,0,0,1,3.5-3.5H96.7a9.57,9.57,0,0,1,5.9,2l35.27,28H142a8.52,8.52,0,0,0,8.5-8.5Z"/><path class="cls-11" d="M28.38,68.37h0c.13-.11.26-.22.4-.32l36.59-29a9.54,9.54,0,0,1,5.9-2h3.21A3.5,3.5,0,0,1,78,40.5V40a3.5,3.5,0,0,0-3.5-3.5H71.28a9.54,9.54,0,0,0-5.9,2l-36.59,29c-.14.1-.27.21-.4.32h0A5.5,5.5,0,0,0,26.5,72v.5A5.5,5.5,0,0,1,28.38,68.37Z"/><path class="cls-12" d="M84,168a84,84,0,1,1,84-84A84,84,0,0,1,84,168ZM84,8a76,76,0,1,0,76,76A76,76,0,0,0,84,8Z"/><path class="cls-13" d="M84,8A76,76,0,1,1,8,84,76,76,0,0,1,84,8m0-1a77,77,0,1,0,77,77A77,77,0,0,0,84,7Z"/><path class="cls-14" d="M132,152.88v-10a75.82,75.82,0,0,1-96,0v10A83.75,83.75,0,0,0,132,152.88Z"/><g class="cls-15"><ellipse class="cls-16" cx="84.54" cy="141.81" rx="40.53" ry="19"/></g><path class="cls-17" d="M153.6,131l-5.78-5.79a76.54,76.54,0,0,1-23.6,23.25l5.79,5.79A84.63,84.63,0,0,0,153.6,131Z"/><path class="cls-18" d="M13.77,38l5.79,5.79a76.54,76.54,0,0,1,23.25-23.6L37,14.4A84.63,84.63,0,0,0,13.77,38Z"/><path class="cls-19" d="M84,8a76.09,76.09,0,0,1,76,76h8A84,84,0,0,0,0,84H8A76.09,76.09,0,0,1,84,8Z"/></g></g></g></g></svg>