<svg xmlns="http://www.w3.org/2000/svg" xmlns:xlink="http://www.w3.org/1999/xlink" width="168" height="168" viewBox="0 0 168 168"><defs><style>.cls-1{fill:none;}.cls-2{fill:url(#linear-gradient);}.cls-3{opacity:0.3;}.cls-4{fill:url(#radial-gradient);}.cls-5{fill:#161b1f;}.cls-5,.cls-7{opacity:0.5;}.cls-6,.cls-7{fill-opacity:0.8;fill-rule:evenodd;}.cls-6{fill:url(#New_Gradient_Swatch_2);}.cls-8{fill:url(#New_Gradient_Swatch_1);}.cls-9{fill:#fff;}.cls-10{clip-path:url(#clip-path);}.cls-11{fill:url(#linear-gradient-2);}.cls-12{fill:url(#linear-gradient-3);}.cls-13{fill:url(#linear-gradient-4);}.cls-14{fill:url(#linear-gradient-5);}.cls-15{fill:url(#linear-gradient-6);}.cls-16{opacity:0.7;fill:url(#linear-gradient-7);}.cls-17{opacity:0.4;fill:url(#linear-gradient-8);}</style><linearGradient id="linear-gradient" x1="84" y1="164" x2="84" y2="4" gradientUnits="userSpaceOnUse"><stop offset="0" stop-color="#333d45"/><stop offset="0.9988"/></linearGradient><radialGradient id="radial-gradient" cx="-119.0087" cy="2027.0009" fy="2045.0554549389374" r="20.2667" gradientTransform="translate(368.4613 -1756.3133) scale(2.3947 0.9375)" gradientUnits="userSpaceOnUse"><stop offset="0" stop-color="#fff"/><stop offset="0.6802" stop-color="#e78bad" stop-opacity="0"/></radialGradient><linearGradient id="New_Gradient_Swatch_2" x1="81.998" y1="132.1214" x2="81.998" y2="28.5697" gradientUnits="userSpaceOnUse"><stop offset="0" stop-color="#ff602c"/><stop offset="1" stop-color="#e80a89"/></linearGradient><linearGradient id="New_Gradient_Swatch_1" x1="83.9999" y1="165.6214" x2="83.9999" y2="2.6214" gradientUnits="userSpaceOnUse"><stop offset="0" stop-color="#688199"/><stop offset="1" stop-color="#f7f9fa"/></linearGradient><clipPath id="clip-path"><path class="cls-1" d="M164.2662,78.97l-27.1089-53.416a41.9358,41.9358,0,0,0-37.65-22.9327H68.4923a41.9367,41.9367,0,0,0-37.65,22.9327L3.7335,78.97A11.4242,11.4242,0,0,0,3.734,89.2728l27.1079,53.416a41.9366,41.9366,0,0,0,37.65,22.9326H99.5074a41.9357,41.9357,0,0,0,37.65-22.9326l27.1089-53.416A11.4252,11.4252,0,0,0,164.2662,78.97Zm-130.75,62.3613L6.4093,87.9154a8.4132,8.4132,0,0,1,0-7.5879l27.1079-53.416A38.6469,38.6469,0,0,1,48.5,11.0118V35.1507a42.1709,42.1709,0,0,0,6.8969,23.211,38.9932,38.9932,0,0,0,11.3766,75.2558l5.7265,0v29.0034H68.4923A38.9524,38.9524,0,0,1,33.5167,141.3314Zm33.4278-10.71a35.9984,35.9984,0,0,1-9.7568-69.7373,43.1336,43.1336,0,0,0,3.7514,4.2979,39.5993,39.5993,0,0,1,6.9456,9.3506,20.1722,20.1722,0,1,0,3.3663.0127A42.5082,42.5082,0,0,0,63.06,63.0609a40.1793,40.1793,0,0,1-2.8084-3.1265c.8226-.2173,1.6508-.4091,2.4856-.5669.1174-.0224.2356-.0424.3534-.0634q.9753-.1744,1.9589-.2954c.105-.0127.2091-.0279.3143-.04a36.0788,36.0788,0,0,1,4.5552-.2261c.115.0015.2291.0059.3439.0083.716.0166,1.4324.05,2.1483.1094.0268.002.0535.0034.08.0059a36.1566,36.1566,0,0,1,4.7737.729l1.1757.2617a35.8213,35.8213,0,0,1,24.3772,21.3l-.02.0127.4155,1.1318a35.873,35.873,0,0,1,1.94,8.0576c.01.084.019.168.0283.252.0994.874.1714,1.75.2048,2.625v37.3857ZM72.5,111.6107a17.2128,17.2128,0,1,1-3.2141-34.1494A39.3792,39.3792,0,0,1,72.5,93.0921Zm.1487-33.8467A17.2031,17.2031,0,0,1,75.5,110.7777V93.0921A42.44,42.44,0,0,0,72.6483,77.764Zm32.6829,1.6582A38.791,38.791,0,0,0,79.8359,57.1278a17.2021,17.2021,0,1,1,25.4953,22.2944Zm2.8688,11.23c-.0162-.1567-.0343-.3135-.0525-.47a39.0131,39.0131,0,0,0-1.71-7.8228A20.21,20.21,0,1,0,76.7741,56.4183a39.2851,39.2851,0,0,0-4.116-.5473c-.14-.0118-.2791-.021-.4187-.0308q-.7585-.0536-1.5246-.0781c-.2388-.0078-.4774-.0142-.7162-.0176-.1862-.0025-.37-.0137-.5571-.0137-.244,0-.4847.0142-.7276.0186-.2777.0049-.5553.01-.8327.021-.4308.0171-.8586.0444-1.2857.0757-.2537.0185-.5075.0346-.7607.0581-.4768.0439-.95.101-1.4214.1621-.2.0258-.4013.0473-.6012.0766-.575.084-1.1447.1826-1.7113.2915-.098.0186-.1968.0327-.2946.0528-.6842.1362-1.3631.2876-2.034.4594A35.9616,35.9616,0,0,1,130.5,64.5746V101.96H108.3868l-.0009-8.7812C108.3536,92.328,108.285,91.4872,108.2,90.6517Zm26.2825,50.68a38.9521,38.9521,0,0,1-34.9751,21.29H75.5V133.6185l32.8872.0029-.0006-28.6611h44.5545Zm27.1084-53.416L154.4632,101.96H133.5l-.0009-37.4424A38.9617,38.9617,0,0,0,57.08,55.4134,39.2244,39.2244,0,0,1,51.5,35.1507V9.4339A39.6318,39.6318,0,0,1,68.4923,5.6214H99.5074a38.952,38.952,0,0,1,34.9751,21.29l27.1084,53.416h0A8.4135,8.4135,0,0,1,161.5909,87.9154Z"/></clipPath><linearGradient id="linear-gradient-2" x1="70.2321" y1="99.0529" x2="94.6593" y2="74.6258" gradientUnits="userSpaceOnUse"><stop offset="0.25" stop-color="#f7f9fa" stop-opacity="0"/><stop offset="0.5" stop-color="#fff"/><stop offset="0.75" stop-color="#bee6fa" stop-opacity="0"/></linearGradient><linearGradient id="linear-gradient-3" x1="84" y1="168" x2="84" y2="0" xlink:href="#New_Gradient_Swatch_1"/><linearGradient id="linear-gradient-4" x1="36" y1="154.2754" x2="132" y2="154.2754" gradientUnits="userSpaceOnUse"><stop offset="0" stop-color="#e8749f" stop-opacity="0"/><stop offset="0.5" stop-color="#f7f9fa"/><stop offset="1" stop-color="#e8749f" stop-opacity="0"/></linearGradient><linearGradient id="linear-gradient-5" x1="84" y1="160.9999" x2="84" y2="6.9999" gradientUnits="userSpaceOnUse"><stop offset="0" stop-color="#f7f9fa"/><stop offset="1" stop-color="#f7f9fa" stop-opacity="0"/></linearGradient><linearGradient id="linear-gradient-6" x1="17.4242" y1="45.1952" x2="40.8654" y2="21.754" xlink:href="#linear-gradient-2"/><linearGradient id="linear-gradient-7" x1="123.5526" y1="151.3005" x2="146.9938" y2="127.8594" xlink:href="#linear-gradient-2"/><linearGradient id="linear-gradient-8" x1="84" y1="84" x2="84" gradientUnits="userSpaceOnUse"><stop offset="0" stop-color="#e8749f" stop-opacity="0"/><stop offset="1" stop-color="#f7f9fa"/></linearGradient></defs><g id="Layer_2" data-name="Layer 2"><g id="Layer_1-2" data-name="Layer 1"><path class="cls-2" d="M68.4849,164a40.4456,40.4456,0,0,1-36.313-22.1113L5.064,88.4727a9.9189,9.9189,0,0,1,0-8.9454l27.1079-53.416A40.4456,40.4456,0,0,1,68.4849,4h31.03a40.4455,40.4455,0,0,1,36.313,22.1113l27.1084,53.417a9.9184,9.9184,0,0,1,0,8.9444l-27.1079,53.416A40.4455,40.4455,0,0,1,99.5151,164Z"/><g class="cls-3"><ellipse class="cls-4" cx="83.4667" cy="144" rx="48.5333" ry="19"/></g><g id="above" class="cls-3"><path d="M99.5151,9a35.4692,35.4692,0,0,1,31.8543,19.3745L158.4772,81.79a4.9,4.9,0,0,1,0,4.419l-27.1079,53.416A35.4692,35.4692,0,0,1,99.5151,159h-31.03a35.47,35.47,0,0,1-31.8544-19.3745L9.5232,86.21a4.9012,4.9012,0,0,1-.0006-4.42l27.1079-53.416A35.47,35.47,0,0,1,68.4849,9h31.03m0-1h-31.03A36.4647,36.4647,0,0,0,35.7388,27.9218L8.6309,81.3378a5.9042,5.9042,0,0,0,0,5.3252l27.1074,53.415A36.4647,36.4647,0,0,0,68.4849,160h31.03a36.4649,36.4649,0,0,0,32.7461-19.9219L159.369,86.662a5.9052,5.9052,0,0,0,0-5.3242l-27.1078-53.416A36.4649,36.4649,0,0,0,99.5151,8Z"/></g><path class="cls-5" d="M164.2662,79.97l-27.1089-53.416a41.9358,41.9358,0,0,0-37.65-22.9327H68.4923a41.9367,41.9367,0,0,0-37.65,22.9327L3.7335,79.97A11.4242,11.4242,0,0,0,3.734,90.2728l27.1079,53.416a41.9366,41.9366,0,0,0,37.65,22.9326H99.5074a41.9357,41.9357,0,0,0,37.65-22.9326l27.1089-53.416A11.4252,11.4252,0,0,0,164.2662,79.97Zm-130.75,62.3613L6.4093,88.9154a8.4132,8.4132,0,0,1,0-7.5879l27.1079-53.416A38.6469,38.6469,0,0,1,48.5,12.0118V36.1507a42.1709,42.1709,0,0,0,6.8969,23.211,38.9932,38.9932,0,0,0,11.3766,75.2558l5.7265,0v29.0034H68.4923A38.9524,38.9524,0,0,1,33.5167,142.3314Zm33.4278-10.71a35.9984,35.9984,0,0,1-9.7568-69.7373,43.1336,43.1336,0,0,0,3.7514,4.2979,39.5993,39.5993,0,0,1,6.9456,9.3506,20.1722,20.1722,0,1,0,3.3663.0127A42.5082,42.5082,0,0,0,63.06,64.0609a40.1793,40.1793,0,0,1-2.8084-3.1265c.8226-.2173,1.6508-.4091,2.4856-.5669.1174-.0224.2356-.0424.3534-.0634q.9753-.1744,1.9589-.2954c.105-.0127.2091-.0279.3143-.04a36.0788,36.0788,0,0,1,4.5552-.2261c.115.0015.2291.0059.3439.0083.716.0166,1.4324.05,2.1483.1094.0268.002.0535.0034.08.0059a36.1566,36.1566,0,0,1,4.7737.729l1.1757.2617a35.8213,35.8213,0,0,1,24.3772,21.3l-.02.0127.4155,1.1318a35.873,35.873,0,0,1,1.94,8.0576c.01.084.019.168.0283.252.0994.874.1714,1.75.2048,2.625v37.3857ZM72.5,112.6107a17.2128,17.2128,0,1,1-3.2141-34.1494A39.3792,39.3792,0,0,1,72.5,94.0921Zm.1487-33.8467A17.2031,17.2031,0,0,1,75.5,111.7777V94.0921A42.44,42.44,0,0,0,72.6483,78.764Zm32.6829,1.6582A38.791,38.791,0,0,0,79.8359,58.1278a17.2021,17.2021,0,1,1,25.4953,22.2944Zm2.8688,11.23c-.0162-.1567-.0343-.3135-.0525-.47a39.0131,39.0131,0,0,0-1.71-7.8228A20.21,20.21,0,1,0,76.7741,57.4183a39.2851,39.2851,0,0,0-4.116-.5473c-.14-.0118-.2791-.021-.4187-.0308q-.7585-.0536-1.5246-.0781c-.2388-.0078-.4774-.0142-.7162-.0176-.1862-.0025-.37-.0137-.5571-.0137-.244,0-.4847.0142-.7276.0186-.2777.0049-.5553.01-.8327.021-.4308.0171-.8586.0444-1.2857.0757-.2537.0185-.5075.0346-.7607.0581-.4768.0439-.95.101-1.4214.1621-.2.0258-.4013.0473-.6012.0766-.575.084-1.1447.1826-1.7113.2915-.098.0186-.1968.0327-.2946.0528-.6842.1362-1.3631.2876-2.034.4594A35.9616,35.9616,0,0,1,130.5,65.5746V102.96H108.3868l-.0009-8.7812C108.3536,93.328,108.285,92.4872,108.2,91.6517Zm26.2825,50.68a38.9521,38.9521,0,0,1-34.9751,21.29H75.5V134.6185l32.8872.0029-.0006-28.6611h44.5545Zm27.1084-53.416L154.4632,102.96H133.5l-.0009-37.4424A38.9617,38.9617,0,0,0,57.08,56.4134,39.2244,39.2244,0,0,1,51.5,36.1507V10.4339A39.6318,39.6318,0,0,1,68.4923,6.6214H99.5074a38.952,38.952,0,0,1,34.9751,21.29l27.1084,53.416h0A8.4135,8.4135,0,0,1,161.5909,88.9154Z"/><path class="cls-6" d="M106.8869,103.46H132V64.5746A37.4586,37.4586,0,0,0,57.7571,59.1l.0061-.002a37.4545,37.4545,0,0,0-25.767,35.5781,37.8336,37.8336,0,0,0,34.8906,37.4453h40Zm-37.4454,9.9385A18.7227,18.7227,0,1,1,88.1642,94.6761,18.7226,18.7226,0,0,1,69.4415,113.3988Zm35.18-31.6152.0009.0024A37.5377,37.5377,0,0,0,77.5851,58.13l.0054.001a18.7118,18.7118,0,1,1,27.031,23.6529Z"/><path class="cls-7" d="M106.8869,103.46H132V64.5746A37.4586,37.4586,0,0,0,57.7571,59.1l.0061-.002a37.4545,37.4545,0,0,0-25.767,35.5781,37.8336,37.8336,0,0,0,34.8906,37.4453h40ZM94.5543,31.07A34.802,34.802,0,0,1,129.5,64.5746V100.96H109.3868l-.0014-7.8193c-.03-.7813-.09-1.6045-.1909-2.5908l-.0533-.4815a40.2526,40.2526,0,0,0-1.5346-7.3369A21.21,21.21,0,1,0,76.2511,55.3089c-1.148-.1933-2.3262-.34-3.5093-.4336l-.4331-.0332c-.5185-.0351-1.04-.0634-1.561-.0791-.2442-.0087-1.1924-.0322-1.3062-.0322-.16,0-.3193.0049-.478.0108l-.2671.0078c-.2847.0049-.5693.01-.8555.0215-.4423.0175-.88.0459-1.3188.0781,0,0-.5762.041-.7773.06-.49.0439-.9756.1035-1.4576.166,0,0-.4785.0586-.62.0791-.5894.0859-1.1733.1865-1.7627.3,0,0-.57.1084-.707.1367A34.9181,34.9181,0,0,1,94.5543,31.07Zm9.8325,98.5517-37.3652.003A34.9981,34.9981,0,0,1,56.85,62.08a43.9777,43.9777,0,0,0,3.3819,3.8095,38.7175,38.7175,0,0,1,6.0463,7.82,21.1908,21.1908,0,1,0,5.6246-.1025,43.47,43.47,0,0,0-8.1358-11.2529c-.5766-.5762-1.1479-1.1875-1.709-1.8272.2915-.0635.58-.123.8672-.1767l.3418-.0616c.6318-.1132,1.2676-.2089,1.8926-.2861l.3174-.04A35.252,35.252,0,0,1,69.43,59.74l.4722.0029.3369.0078c.6968.0167,1.394.0489,2.1675.1114a35.4943,35.4943,0,0,1,4.6416.71l1.146.2539a34.9176,34.9176,0,0,1,23.4687,20.1524l.6123,1.668a34.9426,34.9426,0,0,1,1.8858,7.8281l.0278.249c.1025.9063.168,1.74.1982,2.5127ZM69.4415,75.9535A18.7227,18.7227,0,1,1,50.7189,94.6761,18.7226,18.7226,0,0,1,69.4415,75.9535ZM77.5851,58.13l.0054.001a18.7118,18.7118,0,1,1,27.031,23.6529l.0009.0024A37.5377,37.5377,0,0,0,77.5851,58.13Z"/><path class="cls-8" d="M164.2662,78.97l-27.1089-53.416a41.9358,41.9358,0,0,0-37.65-22.9327H68.4923a41.9367,41.9367,0,0,0-37.65,22.9327L3.7335,78.97A11.4242,11.4242,0,0,0,3.734,89.2728l27.1079,53.416a41.9366,41.9366,0,0,0,37.65,22.9326H99.5074a41.9357,41.9357,0,0,0,37.65-22.9326l27.1089-53.416A11.4252,11.4252,0,0,0,164.2662,78.97Zm-130.75,62.3613L6.4093,87.9154a8.4132,8.4132,0,0,1,0-7.5879l27.1079-53.416A38.6469,38.6469,0,0,1,48.5,11.0118V35.1507a42.1709,42.1709,0,0,0,6.8969,23.211,38.9932,38.9932,0,0,0,11.3766,75.2558l5.7265,0v29.0034H68.4923A38.9524,38.9524,0,0,1,33.5167,141.3314Zm33.4278-10.71a35.9984,35.9984,0,0,1-9.7568-69.7373,43.1336,43.1336,0,0,0,3.7514,4.2979,39.5993,39.5993,0,0,1,6.9456,9.3506,20.1722,20.1722,0,1,0,3.3663.0127A42.5082,42.5082,0,0,0,63.06,63.0609a40.1793,40.1793,0,0,1-2.8084-3.1265c.8226-.2173,1.6508-.4091,2.4856-.5669.1174-.0224.2356-.0424.3534-.0634q.9753-.1744,1.9589-.2954c.105-.0127.2091-.0279.3143-.04a36.0788,36.0788,0,0,1,4.5552-.2261c.115.0015.2291.0059.3439.0083.716.0166,1.4324.05,2.1483.1094.0268.002.0535.0034.08.0059a36.1566,36.1566,0,0,1,4.7737.729l1.1757.2617a35.8213,35.8213,0,0,1,24.3772,21.3l-.02.0127.4155,1.1318a35.873,35.873,0,0,1,1.94,8.0576c.01.084.019.168.0283.252.0994.874.1714,1.75.2048,2.625v37.3857ZM72.5,111.6107a17.2128,17.2128,0,1,1-3.2141-34.1494A39.3792,39.3792,0,0,1,72.5,93.0921Zm.1487-33.8467A17.2031,17.2031,0,0,1,75.5,110.7777V93.0921A42.44,42.44,0,0,0,72.6483,77.764Zm32.6829,1.6582A38.791,38.791,0,0,0,79.8359,57.1278a17.2021,17.2021,0,1,1,25.4953,22.2944Zm2.8688,11.23c-.0162-.1567-.0343-.3135-.0525-.47a39.0131,39.0131,0,0,0-1.71-7.8228A20.21,20.21,0,1,0,76.7741,56.4183a39.2851,39.2851,0,0,0-4.116-.5473c-.14-.0118-.2791-.021-.4187-.0308q-.7585-.0536-1.5246-.0781c-.2388-.0078-.4774-.0142-.7162-.0176-.1862-.0025-.37-.0137-.5571-.0137-.244,0-.4847.0142-.7276.0186-.2777.0049-.5553.01-.8327.021-.4308.0171-.8586.0444-1.2857.0757-.2537.0185-.5075.0346-.7607.0581-.4768.0439-.95.101-1.4214.1621-.2.0258-.4013.0473-.6012.0766-.575.084-1.1447.1826-1.7113.2915-.098.0186-.1968.0327-.2946.0528-.6842.1362-1.3631.2876-2.034.4594A35.9616,35.9616,0,0,1,130.5,64.5746V101.96H108.3868l-.0009-8.7812C108.3536,92.328,108.285,91.4872,108.2,90.6517Zm26.2825,50.68a38.9521,38.9521,0,0,1-34.9751,21.29H75.5V133.6185l32.8872.0029-.0006-28.6611h44.5545Zm27.1084-53.416L154.4632,101.96H133.5l-.0009-37.4424A38.9617,38.9617,0,0,0,57.08,55.4134,39.2244,39.2244,0,0,1,51.5,35.1507V9.4339A39.6318,39.6318,0,0,1,68.4923,5.6214H99.5074a38.952,38.952,0,0,1,34.9751,21.29l27.1084,53.416h0A8.4135,8.4135,0,0,1,161.5909,87.9154Z"/><path class="cls-9" d="M75.5,93.0921v-.5A42.434,42.434,0,0,0,72.8453,77.81c-.0664-.0132-.13-.0337-.197-.0464A42.44,42.44,0,0,1,75.5,93.0921Z"/><rect class="cls-9" x="108.3865" y="104.9603" height="28.1611"/><path class="cls-9" d="M30.4962,94.1761c0,.0742.005.148.0054.2222A39.001,39.001,0,0,1,55.3965,58.3617c-.0858-.1309-.1581-.2691-.2423-.4A38.9964,38.9964,0,0,0,30.4962,94.1761Z"/><path class="cls-9" d="M75.5,110.7777A17.2353,17.2353,0,0,0,86.6642,94.6761c0-.0786-.0095-.1552-.01-.2339A17.2329,17.2329,0,0,1,75.5,110.2777Z"/><path class="cls-9" d="M3.7335,78.97l27.1084-53.416a41.9367,41.9367,0,0,1,37.65-22.9327H99.5074a41.9358,41.9358,0,0,1,37.65,22.9327L164.2662,78.97a11.3685,11.3685,0,0,1,1.2127,4.9013,11.3816,11.3816,0,0,0-1.2127-5.4013l-27.1089-53.416a41.9358,41.9358,0,0,0-37.65-22.9327H68.4923a41.9367,41.9367,0,0,0-37.65,22.9327L3.7335,78.47a11.38,11.38,0,0,0-1.2126,5.4013A11.37,11.37,0,0,1,3.7335,78.97Z"/><path class="cls-9" d="M57.08,55.4134a38.9617,38.9617,0,0,1,76.4192,9.1045L133.5,101.96h20.9636l7.1277-14.0449a8.38,8.38,0,0,0,.8893-4.044,8.37,8.37,0,0,1-.8893,3.544L154.4632,101.46H133.5l-.0009-37.4424A38.9617,38.9617,0,0,0,57.08,54.9134,39.2244,39.2244,0,0,1,51.5,34.6507v.5A39.2244,39.2244,0,0,0,57.08,55.4134Z"/><path class="cls-9" d="M99.5074,162.1214H75.5v.5H99.5074a38.9521,38.9521,0,0,0,34.9751-21.29L152.9407,104.96h-.2537l-18.2045,35.8711A38.9521,38.9521,0,0,1,99.5074,162.1214Z"/><path class="cls-9" d="M105.3868,130.1214H66.9445A36.307,36.307,0,0,1,33.5017,94.4c-.0007.0922-.0055.1835-.0055.2758a36.3069,36.3069,0,0,0,33.4483,35.9453h38.4423Z"/><path class="cls-9" d="M105.3312,79.4222A17.1257,17.1257,0,0,0,111.777,66.015c0-.0889-.012-.1748-.0134-.2637a17.1179,17.1179,0,0,1-6.4324,13.1709A38.7868,38.7868,0,0,0,80.1074,56.71c-.09.14-.1853.2749-.2715.4175A38.791,38.791,0,0,1,105.3312,79.4222Z"/><path class="cls-9" d="M61.8063,56.4872c.0978-.02.1966-.0342.2946-.0528.5666-.1089,1.1363-.2075,1.7113-.2915.2-.0293.4008-.0508.6012-.0766.4717-.0611.9446-.1182,1.4214-.1621.2532-.0235.507-.04.7607-.0581.4271-.0313.8549-.0586,1.2857-.0757.2774-.0113.555-.0161.8327-.021.2429-.0044.4836-.0186.7276-.0186.1869,0,.3709.0112.5571.0137.2388.0034.4774.01.7162.0176q.7665.0241,1.5246.0781c.14.01.2791.019.4187.0308a39.2851,39.2851,0,0,1,4.116.5473A20.2045,20.2045,0,0,1,114.7676,65.83c.0017-.1054.0094-.21.0094-.3154a20.21,20.21,0,0,0-38.0029-9.5967,39.2851,39.2851,0,0,0-4.116-.5473c-.14-.0118-.2791-.021-.4187-.0308q-.7585-.0536-1.5246-.0781c-.2388-.0078-.4774-.0142-.7162-.0176-.1862-.0025-.37-.0137-.5571-.0137-.244,0-.4847.0142-.7276.0186-.2777.0049-.5553.01-.8327.021-.4308.0171-.8586.0444-1.2857.0757-.2537.0185-.5075.0346-.7607.0581-.4768.0439-.95.101-1.4214.1621-.2.0258-.4013.0473-.6012.0766-.575.084-1.1447.1826-1.7113.2915-.098.0186-.1968.0327-.2946.0528-.6336.1259-1.2612.269-1.8834.4253-.0492.1787-.104.3545-.1506.5341C60.4432,56.7748,61.1221,56.6234,61.8063,56.4872Z"/><path class="cls-9" d="M6.4093,87.9154l27.1074,53.416a38.9524,38.9524,0,0,0,34.9756,21.29H72.5v-.5H68.4923a38.9524,38.9524,0,0,1-34.9756-21.29L6.4093,87.4154a8.3706,8.3706,0,0,1-.89-3.544A8.3816,8.3816,0,0,0,6.4093,87.9154Z"/><path class="cls-9" d="M71.251,74.0453A42.5082,42.5082,0,0,0,63.06,62.5609c-.8674-.8672-1.6772-1.7764-2.4517-2.708-.1183.03-.2386.05-.3567.0815A40.1793,40.1793,0,0,0,63.06,63.0609,42.5082,42.5082,0,0,1,71.251,74.5453a20.2369,20.2369,0,0,1,18.4009,19.874c.0009-.082.0123-.1611.0123-.2432A20.2427,20.2427,0,0,0,71.251,74.0453Z"/><path class="cls-9" d="M108.3859,92.6791c-.0323-.8511-.1009-1.6919-.1859-2.5274-.0162-.1567-.0343-.3135-.0525-.47a39.0267,39.0267,0,0,0-1.5877-7.417c-.0416.03-.08.064-.1223.0942a39.0131,39.0131,0,0,1,1.71,7.8228c.0182.1562.0363.313.0525.47.085.8355.1536,1.6763.1859,2.5274l.0009,8.7812H130.5v-.5H108.3868Z"/><path class="cls-9" d="M49.2189,94.1761c0,.0826.0114.1621.0124.2442A20.23,20.23,0,0,1,67.8847,74.5326c-.0846-.1582-.1847-.3086-.2715-.4658A20.2287,20.2287,0,0,0,49.2189,94.1761Z"/><path class="cls-9" d="M69.4415,111.8988a17.2025,17.2025,0,0,0,3.0581-.2881v-.5A17.1388,17.1388,0,0,1,52.2315,94.4256c-.0012.084-.0126.1661-.0126.2505A17.2418,17.2418,0,0,0,69.4415,111.8988Z"/><g class="cls-10"><path id="FOR_LINE_WORK_LIPS" data-name="FOR LINE WORK LIPS" class="cls-11" d="M32.0928,12.0593A90.3458,90.3458,0,0,0,8.8311,37.08L131.9853,160.8061a90.2609,90.2609,0,0,0,24.9043-23.37Z"/></g><g id="below"><path class="cls-12" d="M99.515,168h-31.03a44.4269,44.4269,0,0,1-39.88-24.3008L1.4971,90.2832a13.9332,13.9332,0,0,1-.0005-12.5654L28.605,24.3008A44.4269,44.4269,0,0,1,68.4849,0h31.03a44.4268,44.4268,0,0,1,39.88,24.3008l27.1084,53.417a13.9327,13.9327,0,0,1,0,12.5644l-27.1084,53.417A44.4268,44.4268,0,0,1,99.515,168ZM68.4849,8A36.4647,36.4647,0,0,0,35.7388,27.9219L8.6309,81.3379a5.9042,5.9042,0,0,0,0,5.3252l27.1074,53.415A36.4647,36.4647,0,0,0,68.4849,160h31.03a36.4647,36.4647,0,0,0,32.7461-19.9219l27.1079-53.416a5.9052,5.9052,0,0,0,0-5.3242l-27.1079-53.416A36.4647,36.4647,0,0,0,99.515,8Z"/></g><path class="cls-13" d="M132,140.5508A36.46,36.46,0,0,1,99.515,160h-31.03A36.46,36.46,0,0,1,36,140.5508v13.6145A44.62,44.62,0,0,0,68.4849,168h31.03A44.62,44.62,0,0,0,132,154.1653Z"/><path class="cls-14" d="M99.5151,8a36.4649,36.4649,0,0,1,32.7461,19.9219l27.1078,53.416a5.9052,5.9052,0,0,1,0,5.3242l-27.1078,53.416A36.4649,36.4649,0,0,1,99.5151,160h-31.03A36.4647,36.4647,0,0,1,35.7388,140.078L8.6314,86.663a5.9042,5.9042,0,0,1,0-5.3252l27.1079-53.416A36.4647,36.4647,0,0,1,68.4849,8h31.03m0-1h-31.03A37.46,37.46,0,0,0,34.8471,27.4691L7.7392,80.8852a6.9084,6.9084,0,0,0,0,6.23l27.1074,53.4151A37.46,37.46,0,0,0,68.4849,161h31.03a37.46,37.46,0,0,0,33.6378-20.4692l27.1078-53.4161a6.9076,6.9076,0,0,0,0-6.2294L133.1529,27.4691A37.46,37.46,0,0,0,99.5151,7Z"/><g id="highlight"><path class="cls-15" d="M34.5465,15.4351a44.36,44.36,0,0,0-5.9644,8.8657l-10.79,21.2619,5.9513,5.9515L35.7158,27.9219a36.34,36.34,0,0,1,4.5011-6.8164Z"/><path class="cls-16" d="M147.2853,128.1511,141.3341,122.2l-9.073,17.8784a36.1924,36.1924,0,0,1-8.7838,11.147l5.67,5.67a44.2086,44.2086,0,0,0,10.2473-13.1963Z"/></g><path class="cls-17" d="M7.9967,84a5.8844,5.8844,0,0,1,.6342-2.6621l27.1079-53.416A36.4647,36.4647,0,0,1,68.4849,8h31.03a36.4647,36.4647,0,0,1,32.7461,19.9219l27.1079,53.416A5.8856,5.8856,0,0,1,160.0031,84H168a13.8882,13.8882,0,0,0-1.4967-6.2822l-27.1084-53.417A44.4268,44.4268,0,0,0,99.515,0h-31.03a44.4269,44.4269,0,0,0-39.88,24.3008L1.4966,77.7178A13.8868,13.8868,0,0,0,0,84Z"/></g></g></svg>