<svg xmlns="http://www.w3.org/2000/svg" xmlns:xlink="http://www.w3.org/1999/xlink" viewBox="0 0 168 168"><defs><style>.cls-1{fill:url(#linear-gradient);}.cls-2{opacity:0.5;}.cls-15,.cls-17,.cls-2,.cls-4{isolation:isolate;}.cls-3{fill:url(#linear-gradient-2);}.cls-13,.cls-4{opacity:0.3;}.cls-5{fill:url(#linear-gradient-3);}.cls-6{fill:url(#linear-gradient-4);}.cls-7{fill:url(#linear-gradient-5);}.cls-8{fill:url(#linear-gradient-6);}.cls-9{fill:#fff;}.cls-10{fill:url(#linear-gradient-7);}.cls-11{fill:url(#linear-gradient-8);}.cls-12{fill:url(#linear-gradient-9);}.cls-14{fill:url(#radial-gradient);}.cls-15{opacity:0.7;fill:url(#linear-gradient-10);}.cls-16{fill:url(#linear-gradient-11);}.cls-17{opacity:0.4;fill:url(#linear-gradient-12);}</style><linearGradient id="linear-gradient" x1="-480" y1="1551.37" x2="-480" y2="1719.37" gradientTransform="matrix(1, 0, 0, -1, 564, 1719.37)" gradientUnits="userSpaceOnUse"><stop offset="0" stop-color="#333d45"/><stop offset="1"/></linearGradient><linearGradient id="linear-gradient-2" x1="-480" y1="1612.38" x2="-480" y2="1652.6" gradientTransform="matrix(1, 0, 0, -1, 564, 1719.37)" gradientUnits="userSpaceOnUse"><stop offset="0" stop-color="#0bb7c8"/><stop offset="1" stop-color="#94fc82"/></linearGradient><linearGradient id="linear-gradient-3" x1="-480" y1="1553.62" x2="-480" y2="1716.62" gradientTransform="matrix(1, 0, 0, -1, 564, 1719.37)" gradientUnits="userSpaceOnUse"><stop offset="0" stop-color="#688199"/><stop offset="1" stop-color="#f7f9fa"/></linearGradient><linearGradient id="linear-gradient-4" x1="-541" y1="1672.15" x2="-517.58" y2="1695.57" gradientTransform="matrix(1, 0, 0, -1, 564, 1719.37)" gradientUnits="userSpaceOnUse"><stop offset="0.25" stop-color="#f7f9fa" stop-opacity="0"/><stop offset="0.5" stop-color="#fff"/><stop offset="0.75" stop-color="#bee6fa" stop-opacity="0"/></linearGradient><linearGradient id="linear-gradient-5" x1="-512.56" y1="1643.71" x2="-489.14" y2="1667.13" xlink:href="#linear-gradient-4"/><linearGradient id="linear-gradient-6" x1="-460.59" y1="1591.74" x2="-437.17" y2="1615.16" xlink:href="#linear-gradient-4"/><linearGradient id="linear-gradient-7" x1="-480" y1="1551.37" x2="-480" y2="1719.37" xlink:href="#linear-gradient-3"/><linearGradient id="linear-gradient-8" x1="-480" y1="1558.37" x2="-480" y2="1712.37" gradientTransform="matrix(1, 0, 0, -1, 564, 1719.37)" gradientUnits="userSpaceOnUse"><stop offset="0" stop-color="#f7f9fa"/><stop offset="1" stop-color="#f7f9fa" stop-opacity="0"/></linearGradient><linearGradient id="linear-gradient-9" x1="-528" y1="1563.93" x2="-432" y2="1563.93" gradientTransform="matrix(1, 0, 0, -1, 564, 1719.37)" gradientUnits="userSpaceOnUse"><stop offset="0" stop-color="#e8749f" stop-opacity="0"/><stop offset="0.5" stop-color="#f7f9fa"/><stop offset="1" stop-color="#e8749f" stop-opacity="0"/></linearGradient><radialGradient id="radial-gradient" cx="-7527.77" cy="-158.86" fy="-140.80385613908953" r="20.27" gradientTransform="matrix(-2, 0, 0, 0.94, -14971, 290.74)" gradientUnits="userSpaceOnUse"><stop offset="0" stop-color="#fff"/><stop offset="0.68" stop-color="#e78bad" stop-opacity="0"/></radialGradient><linearGradient id="linear-gradient-10" x1="-436.26" y1="1567.41" x2="-412.84" y2="1590.83" xlink:href="#linear-gradient-4"/><linearGradient id="linear-gradient-11" x1="-547.96" y1="1679.1" x2="-524.53" y2="1702.53" xlink:href="#linear-gradient-4"/><linearGradient id="linear-gradient-12" x1="-480" y1="1635.37" x2="-480" y2="1719.37" gradientTransform="matrix(1, 0, 0, -1, 564, 1719.37)" gradientUnits="userSpaceOnUse"><stop offset="0" stop-color="#e8749f" stop-opacity="0"/><stop offset="1" stop-color="#f7f9fa"/></linearGradient></defs><g id="Layer_2" data-name="Layer 2"><g id="Layer_1-2" data-name="Layer 1"><g id="Layer_2-2" data-name="Layer 2"><g id="Layer_1-2-2" data-name="Layer 1-2"><path id="base_bkgd" data-name="base bkgd" class="cls-1" d="M84,168a84,84,0,1,1,84-84A84,84,0,0,1,84,168Z"/><g id="border_shadow" data-name="border shadow"><path d="M84,9A75,75,0,1,1,9,84,75,75,0,0,1,84,9m0-1a76,76,0,1,0,76,76A76,76,0,0,0,84,8Z"/></g><path class="cls-2" d="M84,3.75a81.5,81.5,0,1,0,81.5,81.5A81.5,81.5,0,0,0,84,3.75Zm77.14,67H144.85c-1.34-1.6-5.27-3.27-15.91-4.75a13.16,13.16,0,0,0-9.69-4.25H102.62l-5.84-5.84A38.24,38.24,0,0,1,85.5,28.68V26.13A62,62,0,0,0,105.05,9.64,78.74,78.74,0,0,1,161.14,70.75ZM109.21,112.5a21.14,21.14,0,0,1-18.74-10.06l-.11-.19,0,0A7.48,7.48,0,0,0,80,99.93a7.39,7.39,0,0,0-2.23,2.19l-.16.23A21.19,21.19,0,0,1,58.79,112.5a19.67,19.67,0,0,1-4-.57,38.07,38.07,0,0,1-1.24-9.68V64.75h47.88l1.84,1.84A38.24,38.24,0,0,1,114.5,93.82v17.74A19.8,19.8,0,0,1,109.21,112.5Zm5.29,2.2v26.05H92a38.56,38.56,0,0,1-36.26-25.56,22.56,22.56,0,0,0,2.94.31h.86a24.12,24.12,0,0,0,20.16-10.9l.46-.7A4.45,4.45,0,0,1,84,101.75,4.5,4.5,0,0,1,87.88,104l.17.23a24.18,24.18,0,0,0,21.27,11.29A22.72,22.72,0,0,0,114.5,114.7ZM36,95.72c-7.55-1.27-9.72-2.5-10.31-3,.58-.46,2.67-1.64,9.84-2.89v1A25,25,0,0,0,36,95.72ZM25.5,72.63c.27-.31,2-1.76,11.27-3.26A13.2,13.2,0,0,0,35.5,75V86.82a41.61,41.61,0,0,0-10,2.6ZM38.94,95.24l-.06-.34c-.1-.51-.17-1-.23-1.56,0-.16,0-.33,0-.5-.06-.63-.1-1.28-.1-1.93V75A10.26,10.26,0,0,1,48.75,64.75H50.5v37.5a42,42,0,0,0,.88,8.52A21.82,21.82,0,0,1,38.94,95.24Zm66.67-30.49h13.64A10.26,10.26,0,0,1,129.5,75V90.91c0,.65,0,1.3-.1,1.93,0,.17,0,.33-.05.5-.06.53-.13,1-.23,1.56l-.06.33a21.85,21.85,0,0,1-11.56,15.13V93.82A41.23,41.23,0,0,0,105.61,64.75ZM132.5,90.91v-1c7.17,1.25,9.27,2.43,9.84,2.89-.59.47-2.76,1.7-10.31,3A25,25,0,0,0,132.5,90.91Zm0-4.09V75a13.2,13.2,0,0,0-1.27-5.63c9.27,1.5,11,2.95,11.27,3.26V89.42A41.61,41.61,0,0,0,132.5,86.82Zm-50-62.5a58.7,58.7,0,0,1-26.18,6.09A58.34,58.34,0,0,1,33.06,25.6,78.1,78.1,0,0,1,82.5,6.79Zm3-17.53a77.68,77.68,0,0,1,16.36,2A58.84,58.84,0,0,1,85.5,22.72Zm-54.9,21a61.22,61.22,0,0,0,25.72,5.63A61.81,61.81,0,0,0,82.5,27.63v1.05A41.28,41.28,0,0,0,94.65,58l3.73,3.72H48.75A13.16,13.16,0,0,0,39.06,66C32,67,27.85,68.06,25.5,69.14V69A21.47,21.47,0,0,0,13.94,49.91,79,79,0,0,1,30.6,27.78Zm-18,24.84A18.44,18.44,0,0,1,22.5,69v65A78.23,78.23,0,0,1,12.63,52.62Zm12.87,84.9V96.09c2.09,1,5.58,1.91,11.34,2.81A24.73,24.73,0,0,0,52.3,114.35,41.57,41.57,0,0,0,92,143.75h22.5v13.83A78.4,78.4,0,0,1,25.5,137.52Zm92,6.23h18.77a78.69,78.69,0,0,1-18.77,12.48Zm22-3h-22V113.67A24.81,24.81,0,0,0,131.16,98.9c12.61-2,14.34-4.21,14.34-6.15v-19h16.15a78.34,78.34,0,0,1-22.19,67Z"/><path class="cls-3" d="M128.21,66.41a11.73,11.73,0,0,0-9-4.16H48.75a11.73,11.73,0,0,0-9,4.16C30,67.75,24,69.52,24,71.48V91.75c0-1.76,4.87-3.38,13-4.66v2.82c0,12.23,9.51,22.65,21.74,23.09a22.55,22.55,0,0,0,20.12-10.87h0a6,6,0,0,1,10.3.09h0A22.55,22.55,0,0,0,109.26,113c12.23-.44,21.74-10.86,21.74-23.09V87.09c8.13,1.28,13,2.9,13,4.66V71.48C144,69.52,138,67.75,128.21,66.41Z"/><path class="cls-4" d="M37,89.91c0,12.23,9.51,22.65,21.74,23.09a22.55,22.55,0,0,0,20.12-10.87h0a6,6,0,0,1,10.3.09h0A22.55,22.55,0,0,0,109.26,113c12.23-.44,21.74-10.86,21.74-23.09V87.09c8.13,1.28,13,2.9,13,4.66V71.48c0-2-6-3.73-15.79-5.07a11.73,11.73,0,0,0-9-4.16H48.75a11.73,11.73,0,0,0-9,4.16C30,67.75,24,69.52,24,71.48V91.75c0-1.76,4.87-3.38,13-4.66Zm104.5-17.8V86.93a51,51,0,0,0-8-2V74a13.92,13.92,0,0,0-.69-4.34C138.8,70.73,140.87,71.71,141.5,72.11ZM34.5,74V85a51,51,0,0,0-8,2V72.11c.64-.4,2.71-1.38,8.69-2.45A13.92,13.92,0,0,0,34.5,74Zm84.75-9.25A9.26,9.26,0,0,1,128.5,74V89.91c0,.55,0,1.16-.09,1.85l0,.47c-.06.5-.13,1-.22,1.49l-.06.32a20.94,20.94,0,0,1-9.58,13.63V92.82a42.23,42.23,0,0,0-10.6-28.07Zm-64.75,0H101l1.56,1.55a37.28,37.28,0,0,1,11,26.52v17a19.16,19.16,0,0,1-4.33.68h-.71a20.19,20.19,0,0,1-17.13-9.6l-.12-.19-.12-.16A8.57,8.57,0,0,0,84,96.75a8.48,8.48,0,0,0-7.07,3.79l-.21.29a20.28,20.28,0,0,1-17.23,9.68h-.66a18.87,18.87,0,0,1-3.27-.41,37.06,37.06,0,0,1-1.06-8.84ZM39.5,74a9.26,9.26,0,0,1,9.25-9.25h.75v36.5A42,42,0,0,0,50,108,20.72,20.72,0,0,1,39.92,94l-.06-.32c-.09-.49-.16-1-.22-1.49l0-.48c-.06-.68-.09-1.29-.09-1.84Z"/><path class="cls-5" d="M84,2.75a81.5,81.5,0,1,0,81.5,81.5A81.5,81.5,0,0,0,84,2.75Zm77.14,67H144.85c-1.34-1.6-5.27-3.27-15.91-4.75a13.16,13.16,0,0,0-9.69-4.25H102.62l-5.84-5.84A38.24,38.24,0,0,1,85.5,27.68V25.13A62,62,0,0,0,105.05,8.64,78.74,78.74,0,0,1,161.14,69.75ZM109.21,111.5a21.14,21.14,0,0,1-18.74-10.06l-.11-.19,0,0A7.48,7.48,0,0,0,80,98.93a7.39,7.39,0,0,0-2.23,2.19l-.16.23A21.19,21.19,0,0,1,58.79,111.5a19.67,19.67,0,0,1-4-.57,38.07,38.07,0,0,1-1.24-9.68V63.75h47.88l1.84,1.84A38.24,38.24,0,0,1,114.5,92.82v17.74A19.8,19.8,0,0,1,109.21,111.5Zm5.29,2.2v26.05H92a38.56,38.56,0,0,1-36.26-25.56,22.56,22.56,0,0,0,2.94.31h.86a24.12,24.12,0,0,0,20.16-10.9l.46-.7A4.45,4.45,0,0,1,84,100.75,4.5,4.5,0,0,1,87.88,103l.17.23a24.18,24.18,0,0,0,21.27,11.29A22.72,22.72,0,0,0,114.5,113.7ZM36,94.72c-7.55-1.27-9.72-2.5-10.31-3,.58-.46,2.67-1.64,9.84-2.89v1A25,25,0,0,0,36,94.72ZM25.5,71.63c.27-.31,2-1.76,11.27-3.26A13.2,13.2,0,0,0,35.5,74V85.82a41.61,41.61,0,0,0-10,2.6ZM38.94,94.24l-.06-.34c-.1-.51-.17-1-.23-1.56,0-.16,0-.33,0-.5-.06-.63-.1-1.28-.1-1.93V74A10.26,10.26,0,0,1,48.75,63.75H50.5v37.5a42,42,0,0,0,.88,8.52A21.82,21.82,0,0,1,38.94,94.24Zm66.67-30.49h13.64A10.26,10.26,0,0,1,129.5,74V89.91c0,.65,0,1.3-.1,1.93,0,.17,0,.33-.05.5-.06.53-.13,1-.23,1.56l-.06.33a21.85,21.85,0,0,1-11.56,15.13V92.82A41.23,41.23,0,0,0,105.61,63.75ZM132.5,89.91v-1c7.17,1.25,9.27,2.43,9.84,2.89-.59.47-2.76,1.7-10.31,3A25,25,0,0,0,132.5,89.91Zm0-4.09V74a13.2,13.2,0,0,0-1.27-5.63c9.27,1.5,11,2.95,11.27,3.26V88.42A41.61,41.61,0,0,0,132.5,85.82Zm-50-62.5a58.7,58.7,0,0,1-26.18,6.09A58.34,58.34,0,0,1,33.06,24.6,78.1,78.1,0,0,1,82.5,5.79Zm3-17.53a77.68,77.68,0,0,1,16.36,2A58.84,58.84,0,0,1,85.5,21.72Zm-54.9,21a61.22,61.22,0,0,0,25.72,5.63A61.81,61.81,0,0,0,82.5,26.63v1.05A41.28,41.28,0,0,0,94.65,57l3.73,3.72H48.75A13.16,13.16,0,0,0,39.06,65C32,66,27.85,67.06,25.5,68.14V68A21.47,21.47,0,0,0,13.94,48.91,79,79,0,0,1,30.6,26.78Zm-18,24.84A18.44,18.44,0,0,1,22.5,68v65A78.23,78.23,0,0,1,12.63,51.62Zm12.87,84.9V95.09c2.09,1,5.58,1.91,11.34,2.81A24.73,24.73,0,0,0,52.3,113.35,41.57,41.57,0,0,0,92,142.75h22.5v13.83A78.4,78.4,0,0,1,25.5,136.52Zm92,6.23h18.77a78.69,78.69,0,0,1-18.77,12.48Zm22-3h-22V112.67A24.81,24.81,0,0,0,131.16,97.9c12.61-2,14.34-4.21,14.34-6.15v-19h16.15a78.34,78.34,0,0,1-22.19,67Z"/><path class="cls-6" d="M15.68,39.9l2.18,2.18A78.5,78.5,0,0,1,30.6,26.78,61.24,61.24,0,0,0,55,32.37l-3.16-3.15A58.36,58.36,0,0,1,33.06,24.6a79.38,79.38,0,0,1,8.09-6.07L39,16.36A82,82,0,0,0,15.68,39.9Z"/><path class="cls-7" d="M83.37,60.75H48.75a13.14,13.14,0,0,0-8.82,3.4L42,66.27a10.17,10.17,0,0,1,6.71-2.52H50.5v11l3,3v-14H86.37Z"/><path class="cls-8" d="M151.89,129.27l-2.17-2.17a78.42,78.42,0,0,1-10.26,12.65h-22V112.67a24.52,24.52,0,0,0,10-7.83l-2.15-2.14a21.68,21.68,0,0,1-7.82,6.66V94.88l-3-3c0,.32,0,.64,0,1v17.74a19.8,19.8,0,0,1-5.29.94,21.14,21.14,0,0,1-18.74-10.06l-.11-.19,0,0A7.48,7.48,0,0,0,80,98.93a7.39,7.39,0,0,0-2.23,2.19l-.16.23c-.06.1-.12.18-.18.27l2.17,2.17.13-.18.46-.7A4.45,4.45,0,0,1,84,100.75,4.5,4.5,0,0,1,87.88,103l.17.23a24.18,24.18,0,0,0,21.27,11.29,22.72,22.72,0,0,0,5.18-.8v25l4,4h17.74a79,79,0,0,1-10.09,7.65l2.17,2.17A82,82,0,0,0,151.89,129.27Z"/><path class="cls-9" d="M25.66,91.75c.59.47,2.76,1.7,10.31,3,0-.17-.06-.34-.09-.51C29.48,93.12,27,92.08,26,91.5Z"/><path class="cls-9" d="M114.5,110.06a19.8,19.8,0,0,1-5.29.94,21.14,21.14,0,0,1-18.74-10.06l-.11-.19,0,0A7.48,7.48,0,0,0,80,98.43a7.39,7.39,0,0,0-2.23,2.19l-.16.23A21.19,21.19,0,0,1,58.79,111a19.67,19.67,0,0,1-4-.57,38.07,38.07,0,0,1-1.24-9.68v.5a38.52,38.52,0,0,0,1.23,9.68,19.86,19.86,0,0,0,4.06.57,21.16,21.16,0,0,0,18.78-10.15l.17-.23A7.5,7.5,0,0,1,88.13,99a7.39,7.39,0,0,1,2.19,2.23l0,0,.11.19a21.14,21.14,0,0,0,18.74,10.06,19.8,19.8,0,0,0,5.29-.94Z"/><path class="cls-9" d="M38.6,91.84c0,.17,0,.34,0,.5.06.53.13,1,.23,1.56l.06.34a21.82,21.82,0,0,0,12.44,15.53c0-.18-.06-.36-.1-.54A21.83,21.83,0,0,1,38.94,93.74l-.06-.34c-.1-.51-.17-1-.23-1.56,0-.16,0-.33,0-.5-.06-.63-.1-1.28-.1-1.93v.5C38.5,90.56,38.54,91.21,38.6,91.84Z"/><path class="cls-9" d="M84,162.75a78.12,78.12,0,0,0,30.5-6.17v-.5A78.4,78.4,0,0,1,25.5,136v.5A78.29,78.29,0,0,0,84,162.75Z"/><path class="cls-9" d="M114.5,139.25H92a38.54,38.54,0,0,1-36-25l-.2,0A38.54,38.54,0,0,0,92,139.75h22.5Z"/><path class="cls-9" d="M35.5,85.82v-.5a41.61,41.61,0,0,0-10,2.6v.5A41.61,41.61,0,0,1,35.5,85.82Z"/><path class="cls-9" d="M35.5,74a13.2,13.2,0,0,1,1.27-5.63l-.22,0a13.1,13.1,0,0,0-1,5.09Z"/><path class="cls-9" d="M84,2.75A81.58,81.58,0,0,1,165.49,84c0-.08,0-.17,0-.25a81.5,81.5,0,0,0-163,0c0,.08,0,.17,0,.25A81.58,81.58,0,0,1,84,2.75Z"/><path class="cls-9" d="M117.5,139.25v.5h22a78.27,78.27,0,0,0,23-55.5c0-.1,0-.19,0-.29a78.23,78.23,0,0,1-23,55.29Z"/><path class="cls-9" d="M117.5,155.23a78.69,78.69,0,0,0,18.77-12.48h-.58a78.59,78.59,0,0,1-18.19,12Z"/><path class="cls-9" d="M96.78,54.91l5.84,5.84h16.63A13.16,13.16,0,0,1,128.94,65c10.64,1.48,14.57,3.15,15.91,4.75h16.29c0-.17-.08-.33-.11-.5H144.85c-1.34-1.6-5.27-3.27-15.91-4.75a13.16,13.16,0,0,0-9.69-4.25H102.62l-5.84-5.84A38.24,38.24,0,0,1,85.5,27.18v.5A38.24,38.24,0,0,0,96.78,54.91Z"/><path class="cls-9" d="M56.32,29.41A58.7,58.7,0,0,0,82.5,23.32v-.5a58.7,58.7,0,0,1-26.18,6.09,58.42,58.42,0,0,1-22.85-4.65c-.14.11-.28.22-.41.34A58.34,58.34,0,0,0,56.32,29.41Z"/><path class="cls-9" d="M25.5,68v.16C27.85,67.06,32,66,39.06,65a13.16,13.16,0,0,1,9.69-4.25H98.38l-.5-.5H48.75a13.16,13.16,0,0,0-9.69,4.25c-7.1,1-11.21,2.06-13.56,3.14v-.16a21.44,21.44,0,0,0-11.36-19c-.06.13-.14.25-.2.38A21.47,21.47,0,0,1,25.5,68Z"/><path class="cls-9" d="M22.5,133v-.5a78.08,78.08,0,0,1-17-48.51v.31A78.11,78.11,0,0,0,22.5,133Z"/><path class="cls-9" d="M101.86,7.83l-.36-.08a59,59,0,0,1-16,13.47v.5A59,59,0,0,0,101.86,7.83Z"/><path class="cls-9" d="M132,94.72c7.55-1.27,9.72-2.5,10.31-3L142,91.5c-.95.58-3.45,1.62-9.85,2.71C132.09,94.38,132.07,94.55,132,94.72Z"/><path class="cls-9" d="M142.5,87.92a41.61,41.61,0,0,0-10-2.6v.5a41.61,41.61,0,0,1,10,2.6Z"/><path class="cls-9" d="M117.5,92.32a41.24,41.24,0,0,0-11.42-28.57h-.47A41.23,41.23,0,0,1,117.5,92.82Z"/><path class="cls-9" d="M117.5,109.36a21.85,21.85,0,0,0,11.56-15.13l.06-.33c.1-.51.17-1,.23-1.56l.06-.5c.05-.63.09-1.28.09-1.93v-.5c0,.65,0,1.3-.09,1.93l-.06.5c-.06.53-.13,1-.23,1.56l-.06.33a21.85,21.85,0,0,1-11.56,15.13Z"/><path class="cls-9" d="M132.5,74v-.5a13.1,13.1,0,0,0-1.05-5.09l-.22,0A13.2,13.2,0,0,1,132.5,74Z"/><path id="border" class="cls-10" d="M84,168a84,84,0,1,1,84-84A84,84,0,0,1,84,168ZM84,8a76,76,0,1,0,76,76A76,76,0,0,0,84,8Z"/><g id="border_highlight" data-name="border highlight"><path class="cls-11" d="M84,8A76,76,0,1,1,8,84,76,76,0,0,1,84,8m0-1a77,77,0,1,0,77,77A77,77,0,0,0,84,7Z"/></g><path id="outer_pink" data-name="outer pink" class="cls-12" d="M132,152.88v-10a75.82,75.82,0,0,1-96,0v10A83.75,83.75,0,0,0,132,152.88Z"/><g id="elipse" class="cls-13"><ellipse class="cls-14" cx="84.54" cy="141.81" rx="40.53" ry="19"/></g><path id="right_glare" data-name="right glare" class="cls-15" d="M153.6,131l-5.78-5.79a76.54,76.54,0,0,1-23.6,23.25l5.79,5.79A84.63,84.63,0,0,0,153.6,131Z"/><path id="left_glare" data-name="left glare" class="cls-16" d="M13.77,38l5.79,5.79a76.54,76.54,0,0,1,23.25-23.6L37,14.4A84.63,84.63,0,0,0,13.77,38Z"/><path id="top_halo" data-name="top halo" class="cls-17" d="M84,8a76.09,76.09,0,0,1,76,76h8A84,84,0,0,0,0,84H8A76.09,76.09,0,0,1,84,8Z"/></g></g></g></g></svg>