<svg xmlns="http://www.w3.org/2000/svg" xmlns:xlink="http://www.w3.org/1999/xlink" width="168" height="168" viewBox="0 0 168 168"><defs><style>.cls-1{fill:url(#linear-gradient);}.cls-2{opacity:0.5;}.cls-3{fill:url(#New_Gradient_Swatch_4);}.cls-4{opacity:0.3;}.cls-5{fill:url(#New_Gradient_Swatch_1);}.cls-6{fill:#fff;}.cls-10,.cls-11,.cls-7,.cls-8,.cls-9{opacity:0.8;}.cls-7{fill:url(#linear-gradient-2);}.cls-8{fill:url(#linear-gradient-3);}.cls-9{fill:url(#linear-gradient-4);}.cls-10{fill:url(#linear-gradient-5);}.cls-11{fill:url(#linear-gradient-6);}.cls-12{fill:url(#linear-gradient-7);}.cls-13{fill:url(#linear-gradient-8);}.cls-14{fill:url(#linear-gradient-9);}.cls-15{fill:url(#radial-gradient);}.cls-16{opacity:0.7;fill:url(#linear-gradient-10);}.cls-17{fill:url(#linear-gradient-11);}.cls-18{opacity:0.4;fill:url(#linear-gradient-12);}</style><linearGradient id="linear-gradient" x1="84" y1="168" x2="84" gradientUnits="userSpaceOnUse"><stop offset="0" stop-color="#333d45"/><stop offset="0.9988"/></linearGradient><linearGradient id="New_Gradient_Swatch_4" x1="84" y1="118.0507" x2="84" y2="49.9493" gradientUnits="userSpaceOnUse"><stop offset="0" stop-color="#8359df"/><stop offset="1" stop-color="#00a894"/></linearGradient><linearGradient id="New_Gradient_Swatch_1" x1="84" y1="165.5" x2="84" y2="2.5" gradientUnits="userSpaceOnUse"><stop offset="0" stop-color="#688199"/><stop offset="1" stop-color="#f7f9fa"/></linearGradient><linearGradient id="linear-gradient-2" x1="71.8892" y1="96.1108" x2="95.312" y2="72.688" gradientUnits="userSpaceOnUse"><stop offset="0.25" stop-color="#f7f9fa" stop-opacity="0"/><stop offset="0.5" stop-color="#fff"/><stop offset="0.75" stop-color="#bee6fa" stop-opacity="0"/></linearGradient><linearGradient id="linear-gradient-3" x1="48.2234" y1="72.4451" x2="71.6464" y2="49.0221" xlink:href="#linear-gradient-2"/><linearGradient id="linear-gradient-4" x1="17.4994" y1="41.7212" x2="40.9224" y2="18.2982" xlink:href="#linear-gradient-2"/><linearGradient id="linear-gradient-5" x1="95.2892" y1="119.511" x2="118.7121" y2="96.0881" xlink:href="#linear-gradient-2"/><linearGradient id="linear-gradient-6" x1="120.2788" y1="144.5005" x2="143.7017" y2="121.0777" xlink:href="#linear-gradient-2"/><linearGradient id="linear-gradient-7" y1="168" x2="84" y2="0" xlink:href="#New_Gradient_Swatch_1"/><linearGradient id="linear-gradient-8" x1="84" y1="161" x2="84" y2="7" gradientUnits="userSpaceOnUse"><stop offset="0" stop-color="#f7f9fa"/><stop offset="1" stop-color="#f7f9fa" stop-opacity="0"/></linearGradient><linearGradient id="linear-gradient-9" x1="36" y1="155.4357" x2="132" y2="155.4357" gradientUnits="userSpaceOnUse"><stop offset="0" stop-color="#e8749f" stop-opacity="0"/><stop offset="0.5" stop-color="#f7f9fa"/><stop offset="1" stop-color="#e8749f" stop-opacity="0"/></linearGradient><radialGradient id="radial-gradient" cx="-612.4047" cy="1931.3461" fy="1949.4006533534312" r="20.2667" gradientTransform="translate(1309.3428 -1668.8308) scale(2 0.9375)" gradientUnits="userSpaceOnUse"><stop offset="0" stop-color="#fff"/><stop offset="0.6802" stop-color="#e78bad" stop-opacity="0"/></radialGradient><linearGradient id="linear-gradient-10" x1="127.7358" y1="151.9575" x2="151.1587" y2="128.5346" xlink:href="#linear-gradient-2"/><linearGradient id="linear-gradient-11" x1="16.0425" y1="40.2642" x2="39.4654" y2="16.8413" xlink:href="#linear-gradient-2"/><linearGradient id="linear-gradient-12" x1="84" y1="84" x2="84" gradientUnits="userSpaceOnUse"><stop offset="0" stop-color="#e8749f" stop-opacity="0"/><stop offset="1" stop-color="#f7f9fa"/></linearGradient></defs><g id="Layer_2" data-name="Layer 2"><g id="Layer_1-2" data-name="Layer 1"><path id="background" class="cls-1" d="M84,168a84,84,0,1,1,84-84A84.0953,84.0953,0,0,1,84,168Z"/><g id="outer_shadow" data-name="outer shadow"><path d="M84,9A75,75,0,1,1,9,84,75.0849,75.0849,0,0,1,84,9m0-1a76,76,0,1,0,76,76A76.0862,76.0862,0,0,0,84,8Z"/></g><path id="line_blur" data-name="line blur" class="cls-2" d="M84,3.5A81.5,81.5,0,1,0,165.5,85,81.592,81.592,0,0,0,84,3.5Zm77.3145,68H156a21.5051,21.5051,0,0,0-19.2974,12.0811l-21.0009-21A44.77,44.77,0,0,0,101.27,52.8857,37.55,37.55,0,0,0,64,19.5H40.8022a78.4257,78.4257,0,0,1,120.5123,52ZM134.5,145.0361q-1.5058,1.2685-3.073,2.4639H104a34.5532,34.5532,0,0,1-33.6575-26.9492H84a44.54,44.54,0,0,0,31.7017-13.1319l19.4055-19.4047A21.4179,21.4179,0,0,0,134.5,93ZM98.5,57V75.2129A17.4952,17.4952,0,0,0,66.5,85v28c0,.2476.0139.4917.0188.7383a41.838,41.838,0,0,1-12.0994-8.44L34.1216,85,54.4194,64.7021A41.9078,41.9078,0,0,1,98.438,55.0034C98.4758,55.6646,98.5,56.33,98.5,57Zm0,28A14.5,14.5,0,1,1,84,70.5,14.5167,14.5167,0,0,1,98.5,85Zm-29,28V94.7871A17.4952,17.4952,0,0,0,101.5,85V57c0-.2476-.0139-.4917-.0188-.7383a41.838,41.838,0,0,1,12.0994,8.44L133.8784,85l-20.2978,20.2979a41.9078,41.9078,0,0,1-44.0186,9.6987C69.5242,114.3354,69.5,113.67,69.5,113ZM36.573,22.5H64A34.5542,34.5542,0,0,1,98.0945,51.7129,44.8814,44.8814,0,0,0,52.2983,62.5811L31.4084,83.47A14.5063,14.5063,0,0,1,17.5,69V43.3608A79.1021,79.1021,0,0,1,36.573,22.5ZM14.5,48.5654V69A17.5075,17.5075,0,0,0,31.3452,86.4668l20.9531,20.9521a44.77,44.77,0,0,0,14.4322,9.6954c.0161.1464.0378.291.0556.4365H12.5952A78.2328,78.2328,0,0,1,14.5,48.5654Zm-.4534,71.9854H67.2639A37.5644,37.5644,0,0,0,104,150.5h23.1978A78.3864,78.3864,0,0,1,14.0466,120.5508ZM137.5,142.3716V93A18.5206,18.5206,0,0,1,156,74.5h5.7773A78.0992,78.0992,0,0,1,137.5,142.3716Z"/><path id="art" class="cls-3" d="M114.6412,62.6411a43.3339,43.3339,0,0,0-61.2824,0L32,84l21.3588,21.3589a43.3339,43.3339,0,0,0,61.2824,0L136,84ZM84,100a16,16,0,1,1,16-16A16,16,0,0,1,84,100Z"/><g id="art_shadow" data-name="art shadow" class="cls-4"><path d="M114.6413,62.6411a43.334,43.334,0,0,0-61.2825,0L32,84l21.3588,21.3589a43.334,43.334,0,0,0,61.2825,0L136,84ZM65.5,111.1338a40.8156,40.8156,0,0,1-10.3735-7.543L35.5358,84,55.1267,64.4092a40.9065,40.9065,0,0,1,42.3457-9.6885c.0176.4238.0278.8506.0278,1.2793V71.3623A18.4926,18.4926,0,0,0,65.5,84ZM84,68A16,16,0,1,1,68,84,16,16,0,0,1,84,68Zm28.8737,35.5908a40.9065,40.9065,0,0,1-42.3457,9.6885c-.0175-.4238-.0278-.8506-.0278-1.2793V96.6377A18.4926,18.4926,0,0,0,102.5,84V56.8662a40.8156,40.8156,0,0,1,10.3735,7.543L132.4646,84Z"/></g><path id="lines" class="cls-5" d="M84,2.5A81.5,81.5,0,1,0,165.5,84,81.592,81.592,0,0,0,84,2.5Zm77.3145,68H156a21.5051,21.5051,0,0,0-19.2974,12.0811l-21.0009-21A44.77,44.77,0,0,0,101.27,51.8857,37.55,37.55,0,0,0,64,18.5H40.8022a78.4257,78.4257,0,0,1,120.5123,52ZM134.5,144.0361q-1.5058,1.2685-3.073,2.4639H104a34.5532,34.5532,0,0,1-33.6575-26.9492H84a44.54,44.54,0,0,0,31.7017-13.1319l19.4055-19.4047A21.4179,21.4179,0,0,0,134.5,92ZM98.5,56V74.2129A17.4952,17.4952,0,0,0,66.5,84v28c0,.2476.0139.4917.0188.7383a41.838,41.838,0,0,1-12.0994-8.44L34.1216,84,54.4194,63.7021A41.9078,41.9078,0,0,1,98.438,54.0034C98.4758,54.6646,98.5,55.33,98.5,56Zm0,28A14.5,14.5,0,1,1,84,69.5,14.5167,14.5167,0,0,1,98.5,84Zm-29,28V93.7871A17.4952,17.4952,0,0,0,101.5,84V56c0-.2476-.0139-.4917-.0188-.7383a41.838,41.838,0,0,1,12.0994,8.44L133.8784,84l-20.2978,20.2979a41.9078,41.9078,0,0,1-44.0186,9.6987C69.5242,113.3354,69.5,112.67,69.5,112ZM36.573,21.5H64A34.5542,34.5542,0,0,1,98.0945,50.7129,44.8814,44.8814,0,0,0,52.2983,61.5811L31.4084,82.47A14.5063,14.5063,0,0,1,17.5,68V42.3608A79.1021,79.1021,0,0,1,36.573,21.5ZM14.5,47.5654V68A17.5075,17.5075,0,0,0,31.3452,85.4668l20.9531,20.9521a44.77,44.77,0,0,0,14.4322,9.6954c.0161.1464.0378.291.0556.4365H12.5952A78.2328,78.2328,0,0,1,14.5,47.5654Zm-.4534,71.9854H67.2639A37.5644,37.5644,0,0,0,104,149.5h23.1978A78.3864,78.3864,0,0,1,14.0466,119.5508ZM137.5,141.3716V92A18.5206,18.5206,0,0,1,156,73.5h5.7773A78.0992,78.0992,0,0,1,137.5,141.3716Z"/><g id="line_highlight" data-name="line highlight"><path class="cls-6" d="M134.5,92.5a21.4179,21.4179,0,0,1,.6072-4.9858l-.1339.1337A21.1109,21.1109,0,0,0,134.5,92Z"/><path class="cls-6" d="M14.3126,120.0508h-.266A78.3864,78.3864,0,0,0,127.1978,150h-.7854a78.3533,78.3533,0,0,1-112.1-29.9492Z"/><path class="cls-6" d="M113.5806,104.7979,133.8784,84.5l-.25-.25-20.0478,20.0479a41.9078,41.9078,0,0,1-44.0186,9.6987c-.0378-.6612-.062-1.3262-.062-1.9966v.5c0,.67.0242,1.3354.062,1.9966a41.9078,41.9078,0,0,0,44.0186-9.6987Z"/><path class="cls-6" d="M84,3a81.5889,81.5889,0,0,1,81.4937,81.25c0-.084.0063-.166.0063-.25a81.5,81.5,0,0,0-163,0c0,.084.0061.166.0063.25A81.5889,81.5889,0,0,1,84,3Z"/><path class="cls-6" d="M64,19A37.55,37.55,0,0,1,101.27,52.3857a44.77,44.77,0,0,1,14.4322,9.6954l21.0009,21A21.5051,21.5051,0,0,1,156,71h5.3145c-.0293-.168-.0684-.3325-.0987-.5H156a21.5051,21.5051,0,0,0-19.2974,12.0811l-21.0009-21A44.77,44.77,0,0,0,101.27,51.8857,37.55,37.55,0,0,0,64,18.5H41.5876c-.2607.168-.5267.3291-.7854.5Z"/><path class="cls-6" d="M137.5,141.3716v.5A78.2819,78.2819,0,0,0,162.5,84.5c0-.1-.0049-.1982-.0054-.2979A78.2808,78.2808,0,0,1,137.5,141.3716Z"/><path class="cls-6" d="M101.5,56.5V56c0-.0776-.0039-.1548-.0059-.2319l-.0129-.0064C101.4861,56.0083,101.5,56.2524,101.5,56.5Z"/><path class="cls-6" d="M31.4084,82.97l20.89-20.8891A44.8814,44.8814,0,0,1,98.0945,51.2129c-.0275-.1777-.064-.3521-.094-.5288a44.87,44.87,0,0,0-45.7022,10.897L31.4084,82.47A14.5063,14.5063,0,0,1,17.5,68v.5A14.5063,14.5063,0,0,0,31.4084,82.97Z"/><path class="cls-6" d="M134.5,144.5361v-.5q-1.5058,1.2685-3.073,2.4639H104a34.5477,34.5477,0,0,1-33.5339-26.4492h-.1236A34.5532,34.5532,0,0,0,104,147h27.427Q132.9956,145.8069,134.5,144.5361Z"/><path class="cls-6" d="M12.5952,117.0508H66.7861c-.0178-.1455-.04-.29-.0556-.4365-.0479-.02-.0945-.0435-.1424-.0635H12.5952A78.008,78.008,0,0,1,5.5037,84.2651c0,.0787-.0037.1563-.0037.2349A78.01,78.01,0,0,0,12.5952,117.0508Z"/><path class="cls-6" d="M54.4194,104.7979a41.838,41.838,0,0,0,12.0994,8.44c-.0034-.169-.0084-.3374-.0129-.5064a41.8366,41.8366,0,0,1-12.0865-8.434L34.3716,84.25l-.25.25Z"/><path class="cls-6" d="M84,98.5A14.51,14.51,0,0,1,69.5127,84.25c-.0015.084-.0127.1655-.0127.25a14.5,14.5,0,0,0,29,0c0-.0845-.0112-.166-.0127-.25A14.51,14.51,0,0,1,84,98.5Z"/><path class="cls-6" d="M84,67a17.4956,17.4956,0,0,1,14.5,7.7129v-.5A17.4952,17.4952,0,0,0,66.5,84v.5A17.52,17.52,0,0,1,84,67Z"/></g><path class="cls-7" d="M101.5,84V78.876l-11.2-11.2A17.4938,17.4938,0,0,0,66.5,84v6.7217l7.8835,7.8835A17.4816,17.4816,0,0,0,101.5,84ZM84,98.5A14.5,14.5,0,1,1,98.5,84,14.5167,14.5167,0,0,1,84,98.5Z"/><path class="cls-8" d="M46.95,71.1716l7.4694-7.4695A41.5417,41.5417,0,0,1,75.041,52.417l-2.49-2.4907A44.561,44.561,0,0,0,52.2983,61.5811l-7.47,7.4692Z"/><path class="cls-9" d="M15.58,39.8015l2.1745,2.1743A79.0949,79.0949,0,0,1,36.573,21.5h7.551l-3-3h-.3218c.0647-.043.1319-.0825.1967-.1252l-2.1707-2.1707A82.1346,82.1346,0,0,0,15.58,39.8015Z"/><path class="cls-10" d="M120.2512,97.6272l-6.6706,6.6707a41.5263,41.5263,0,0,1-21.9518,11.5527l2.5367,2.5366a44.5312,44.5312,0,0,0,21.5362-11.9683l6.6709-6.67Z"/><path class="cls-11" d="M151.7958,129.1719l-2.1793-2.1795A79.2191,79.2191,0,0,1,137.5,141.3716V114.876l-3-3v32.16q-1.5058,1.2685-3.073,2.4639h-9.1487l3,3h1.9195c-.3863.2556-.7819.4976-1.1729.7466l2.1737,2.1736A82.1357,82.1357,0,0,0,151.7958,129.1719Z"/><g id="outer_border" data-name="outer border"><path class="cls-12" d="M84,168a84,84,0,1,1,84-84A84.0953,84.0953,0,0,1,84,168ZM84,8a76,76,0,1,0,76,76A76.0862,76.0862,0,0,0,84,8Z"/></g><g id="outer_highlight" data-name="outer highlight"><path class="cls-13" d="M84,8A76,76,0,1,1,8,84,76.0862,76.0862,0,0,1,84,8m0-1a77,77,0,1,0,77,77A77.0872,77.0872,0,0,0,84,7Z"/></g><path id="outer_pink_hue" data-name="outer pink hue" class="cls-14" d="M132,152.875V142.8713a75.82,75.82,0,0,1-96,0V152.875a83.7278,83.7278,0,0,0,96,0Z"/><g id="bkgd_highlight" data-name="bkgd highlight" class="cls-4"><ellipse class="cls-15" cx="84.5333" cy="141.8061" rx="40.5333" ry="19"/></g><path id="outer_rt_glare" data-name="outer rt glare" class="cls-16" d="M153.6021,130.978l-5.7847-5.7846A76.5785,76.5785,0,0,1,124.22,148.4419l5.7867,5.7866A84.6725,84.6725,0,0,0,153.6021,130.978Z"/><path id="outer_lt_glare" data-name="outer lt glare" class="cls-17" d="M13.7714,37.9932,19.5582,43.78A76.5774,76.5774,0,0,1,42.8067,20.1826l-5.7848-5.7847A84.6715,84.6715,0,0,0,13.7714,37.9932Z"/><path id="outer_halo" data-name="outer halo" class="cls-18" d="M84,8a76.0862,76.0862,0,0,1,76,76h8A84,84,0,0,0,0,84H8A76.0862,76.0862,0,0,1,84,8Z"/></g></g></svg>