<svg xmlns="http://www.w3.org/2000/svg" xmlns:xlink="http://www.w3.org/1999/xlink" width="168" height="168" viewBox="0 0 168 168"><defs><style>.cls-1{fill:none;}.cls-2{fill:url(#linear-gradient);}.cls-3{fill:#161b1f;}.cls-3,.cls-7{opacity:0.5;}.cls-4{opacity:0.3;}.cls-5{fill:url(#radial-gradient);}.cls-6{opacity:0.8;fill:url(#New_Gradient_Swatch_2);}.cls-8{fill:url(#New_Gradient_Swatch_1);}.cls-9{fill:#fff;}.cls-10{clip-path:url(#clip-path);}.cls-11{fill:url(#linear-gradient-2);}.cls-12{fill:url(#linear-gradient-3);}.cls-13{fill:url(#linear-gradient-4);}.cls-14{fill:url(#linear-gradient-5);}.cls-15{fill:url(#linear-gradient-6);}.cls-16{opacity:0.7;fill:url(#linear-gradient-7);}.cls-17{opacity:0.4;fill:url(#linear-gradient-8);}</style><linearGradient id="linear-gradient" x1="84" y1="164" x2="84" y2="4" gradientUnits="userSpaceOnUse"><stop offset="0" stop-color="#333d45"/><stop offset="0.9988"/></linearGradient><radialGradient id="radial-gradient" cx="-119.0088" cy="1991.9854" fy="2010.0399535339097" r="20.2667" gradientTransform="translate(368.4614 -1723.4863) scale(2.3947 0.9375)" gradientUnits="userSpaceOnUse"><stop offset="0" stop-color="#fff"/><stop offset="0.6802" stop-color="#e78bad" stop-opacity="0"/></radialGradient><linearGradient id="New_Gradient_Swatch_2" x1="86.8649" y1="138.8315" x2="86.8649" y2="34.8315" gradientUnits="userSpaceOnUse"><stop offset="0" stop-color="#ff602c"/><stop offset="1" stop-color="#e80a89"/></linearGradient><linearGradient id="New_Gradient_Swatch_1" x1="84" y1="165.2065" x2="84" y2="2.2065" gradientUnits="userSpaceOnUse"><stop offset="0" stop-color="#688199"/><stop offset="1" stop-color="#f7f9fa"/></linearGradient><clipPath id="clip-path"><path class="cls-1" d="M164.2666,78.5552l-27.1084-53.416a41.9372,41.9372,0,0,0-37.65-22.9327H68.4927a41.9367,41.9367,0,0,0-37.65,22.9327L3.7334,78.5552a11.4273,11.4273,0,0,0,.0005,10.3027l27.1084,53.416a41.6513,41.6513,0,0,0,21.889,19.9239l.2444.0966a42.2763,42.2763,0,0,0,4.8312,1.5518c.4008.1035.8025.2031,1.2068.2949.3784.085.7567.1685,1.1385.2437.7437.1474,1.4911.28,2.2447.3881.197.0279.396.0474.5938.0723q1.0533.1362,2.1176.2183c.2507.0195.5014.0381.7531.0532.8734.0532,1.75.09,2.6313.09H99.5078c.9067,0,1.8076-.0361,2.7049-.0922.3165-.02.63-.0513.9446-.0782.5706-.0483,1.1391-.1045,1.7048-.1753q.578-.0717,1.1511-.1591c.4717-.0718.94-.1553,1.4078-.2432.4319-.08.8642-.1572,1.292-.251.3192-.07.6338-.1548.9508-.2319,1.2-.291,2.3827-.6265,3.5436-1.0171.0339-.0117.0686-.021.1025-.0327.6706-.2276,1.33-.4785,1.9862-.7388.0865-.0347.1733-.0674.26-.1025a41.65,41.65,0,0,0,21.6026-19.8106l27.1084-53.416A11.4289,11.4289,0,0,0,164.2666,78.5552ZM6.4087,79.9126l27.1084-53.416A38.8216,38.8216,0,0,1,63.5,5.53V37.6948c0,1.2163-.0375,2.4278-.0931,3.6367H46.2427A4.472,4.472,0,0,0,43.0605,42.65l-9,9a4.5,4.5,0,0,0,0,6.3633l9.0005,9.001a4.4731,4.4731,0,0,0,3.1817,1.3173H57.2612a78.9109,78.9109,0,0,1-7.0407,13H48a4.505,4.505,0,0,0-4.5,4.5v4.1768c-1.0874,1.2212-2.0519,2.2529-2.9922,3.1943l-20.7,20.7L6.4092,87.5005A8.4163,8.4163,0,0,1,6.4087,79.9126ZM95.5,41.3315h-13v-3.5a1.5017,1.5017,0,0,1,1.5-1.5H94a1.5017,1.5017,0,0,1,1.5,1.5Zm3,3H126a1.5017,1.5017,0,0,1,1.5,1.5v18a1.5016,1.5016,0,0,1-1.5,1.5H61.6638a80.9641,80.9641,0,0,0,4.56-21H98.5Zm-3,93h-13v-29h13Zm-16-32H48a1.5016,1.5016,0,0,1-1.5-1.5v-18a1.5017,1.5017,0,0,1,1.5-1.5h79.7578a1.5108,1.5108,0,0,1,1.0606.4395l9,9a1.5013,1.5013,0,0,1,0,2.1211l-9,9a1.5107,1.5107,0,0,1-1.0606.4394H79.5Zm-25.6913-24a81.7277,81.7277,0,0,0,6.7011-13H79.5v13Zm41.6913,0h-13v-13h13Zm-37.0373-16h-12.22a1.4928,1.4928,0,0,1-1.0611-.4394l-9-9a1.5008,1.5008,0,0,1,0-2.1211l9-8.999a1.4914,1.4914,0,0,1,1.0615-.4405H63.2112A77.962,77.962,0,0,1,58.4627,65.3315ZM21.236,116.7168,42.6294,95.3237q.4317-.4322.8706-.8886v9.3964a4.5049,4.5049,0,0,0,4.5,4.5H79.5v29.4854a93.1354,93.1354,0,0,0-38.8039,12.9692,38.7387,38.7387,0,0,1-7.179-9.87Zm47.2567,45.49c-.8218,0-1.6369-.0346-2.4487-.0835-.202-.0126-.4042-.0244-.6056-.04-.7673-.0576-1.53-.1343-2.2863-.2353-.2166-.0289-.4312-.0669-.6469-.1-.5476-.0825-1.0913-.1777-1.6322-.2817-.3072-.06-.6151-.1172-.92-.1841q-.9321-.2028-1.8484-.4507c-.4234-.1147-.8428-.2412-1.2616-.37-.2366-.0718-.4716-.1479-.7064-.2241a39.1355,39.1355,0,0,1-13.1416-7.3457,90.5761,90.5761,0,0,1,85.5894-3.459,38.9926,38.9926,0,0,1-14.99,10.2l-.0228.0093c-.54.2046-1.0876.3921-1.6372.5727q-.3138.1033-.63.2c-.4892.1524-.98.2993-1.4758.4326-.34.09-.684.169-1.027.2505q-.9267.2227-1.8662.4009c-.5128.0962-1.0262.19-1.5448.2666-.3146.0469-.6315.084-.9478.1235q-.8152.1-1.6385.1685c-.272.0225-.5436.0469-.8166.0635-.8218.0508-1.6473.0849-2.4793.0849Zm93.0981-74.706-27.1084,53.416a38.8766,38.8766,0,0,1-3.9137,6.1611A92.1086,92.1086,0,0,0,98.5,137.811V108.3315h29.2578a4.53,4.53,0,0,0,3.1817-1.3183l9-9a4.5038,4.5038,0,0,0,0-6.3633l-9-9a4.53,4.53,0,0,0-3.1817-1.3184H98.5v-13H126a4.5049,4.5049,0,0,0,4.5-4.5v-18a4.505,4.505,0,0,0-4.5-4.5H98.5v-3.5a4.505,4.505,0,0,0-4.5-4.5H84a4.505,4.505,0,0,0-4.5,4.5v3.5H66.4111c.0535-1.2089.0889-2.4209.0889-3.6367V5.2747c.6622-.0325,1.3239-.0682,1.9927-.0682H99.5078a38.95,38.95,0,0,1,34.9746,21.29l27.1084,53.416A8.4148,8.4148,0,0,1,161.5908,87.5005Z"/></clipPath><linearGradient id="linear-gradient-2" x1="70.2321" y1="99.0529" x2="94.6593" y2="74.6258" gradientUnits="userSpaceOnUse"><stop offset="0.25" stop-color="#f7f9fa" stop-opacity="0"/><stop offset="0.5" stop-color="#fff"/><stop offset="0.75" stop-color="#bee6fa" stop-opacity="0"/></linearGradient><linearGradient id="linear-gradient-3" x1="84" y1="168" x2="84" y2="0" xlink:href="#New_Gradient_Swatch_1"/><linearGradient id="linear-gradient-4" x1="36" y1="154.2754" x2="132" y2="154.2754" gradientUnits="userSpaceOnUse"><stop offset="0" stop-color="#e8749f" stop-opacity="0"/><stop offset="0.5" stop-color="#f7f9fa"/><stop offset="1" stop-color="#e8749f" stop-opacity="0"/></linearGradient><linearGradient id="linear-gradient-5" x1="84.0001" y1="161" x2="84.0001" y2="7" gradientUnits="userSpaceOnUse"><stop offset="0" stop-color="#f7f9fa"/><stop offset="1" stop-color="#f7f9fa" stop-opacity="0"/></linearGradient><linearGradient id="linear-gradient-6" x1="17.4242" y1="45.1952" x2="40.8654" y2="21.754" xlink:href="#linear-gradient-2"/><linearGradient id="linear-gradient-7" x1="123.5526" y1="151.3005" x2="146.9938" y2="127.8594" xlink:href="#linear-gradient-2"/><linearGradient id="linear-gradient-8" x1="84" y1="84" x2="84" gradientUnits="userSpaceOnUse"><stop offset="0" stop-color="#e8749f" stop-opacity="0"/><stop offset="1" stop-color="#f7f9fa"/></linearGradient></defs><g id="Layer_2" data-name="Layer 2"><g id="Layer_1-2" data-name="Layer 1"><path class="cls-2" d="M68.4849,164a40.4456,40.4456,0,0,1-36.313-22.1113L5.064,88.4727a9.9189,9.9189,0,0,1,0-8.9454l27.1079-53.416A40.4456,40.4456,0,0,1,68.4849,4h31.03a40.4455,40.4455,0,0,1,36.313,22.1113l27.1084,53.417a9.9184,9.9184,0,0,1,0,8.9444l-27.1079,53.416A40.4455,40.4455,0,0,1,99.5151,164Z"/><path class="cls-3" d="M164.2666,80.18l-27.1084-53.416a41.9372,41.9372,0,0,0-37.65-22.9327H68.4927a41.9367,41.9367,0,0,0-37.65,22.9327L3.7334,80.18a11.4273,11.4273,0,0,0,.0005,10.3027l27.1084,53.416a41.6513,41.6513,0,0,0,21.889,19.9239l.2444.0966a42.2763,42.2763,0,0,0,4.8312,1.5518c.4008.1035.8025.2031,1.2068.2949.3784.085.7567.1685,1.1385.2437.7437.1474,1.4911.28,2.2447.3881.197.0279.396.0474.5938.0723q1.0533.1362,2.1176.2183c.2507.0195.5014.0381.7531.0532.8734.0532,1.75.09,2.6313.09H99.5078c.9067,0,1.8076-.0361,2.7049-.0922.3165-.02.63-.0513.9446-.0782.5706-.0483,1.1391-.1045,1.7048-.1753q.578-.0717,1.1511-.1591c.4717-.0718.94-.1553,1.4078-.2432.4319-.08.8642-.1572,1.292-.251.3192-.07.6338-.1548.9508-.2319,1.2-.291,2.3827-.6265,3.5436-1.0171.0339-.0117.0686-.021.1025-.0327.6706-.2276,1.33-.4785,1.9862-.7388.0865-.0347.1733-.0674.26-.1025a41.65,41.65,0,0,0,21.6026-19.8106l27.1084-53.416A11.4289,11.4289,0,0,0,164.2666,80.18ZM6.4087,81.5376l27.1084-53.416A38.8216,38.8216,0,0,1,63.5,7.1545V39.32c0,1.2163-.0375,2.4278-.0931,3.6367H46.2427a4.472,4.472,0,0,0-3.1822,1.3184l-9,9a4.5,4.5,0,0,0,0,6.3633l9.0005,9.001a4.4731,4.4731,0,0,0,3.1817,1.3173H57.2612a78.9109,78.9109,0,0,1-7.0407,13H48a4.505,4.505,0,0,0-4.5,4.5v4.1768c-1.0874,1.2212-2.0519,2.2529-2.9922,3.1943l-20.7,20.7L6.4092,89.1255A8.4163,8.4163,0,0,1,6.4087,81.5376ZM95.5,42.9565h-13v-3.5a1.5017,1.5017,0,0,1,1.5-1.5H94a1.5017,1.5017,0,0,1,1.5,1.5Zm3,3H126a1.5017,1.5017,0,0,1,1.5,1.5v18a1.5016,1.5016,0,0,1-1.5,1.5H61.6638a80.9641,80.9641,0,0,0,4.56-21H98.5Zm-3,93h-13v-29h13Zm-16-32H48a1.5016,1.5016,0,0,1-1.5-1.5v-18a1.5017,1.5017,0,0,1,1.5-1.5h79.7578a1.5108,1.5108,0,0,1,1.0606.4395l9,9a1.5013,1.5013,0,0,1,0,2.1211l-9,9a1.5107,1.5107,0,0,1-1.0606.4394H79.5Zm-25.6913-24a81.7277,81.7277,0,0,0,6.7011-13H79.5v13Zm41.6913,0h-13v-13h13Zm-37.0373-16h-12.22a1.4928,1.4928,0,0,1-1.0611-.4394l-9-9a1.5008,1.5008,0,0,1,0-2.1211l9-8.999a1.4914,1.4914,0,0,1,1.0615-.4405H63.2112A77.962,77.962,0,0,1,58.4627,66.9565ZM21.236,118.3418,42.6294,96.9487q.4317-.4322.8706-.8886v9.3964a4.5049,4.5049,0,0,0,4.5,4.5H79.5v29.4854a93.1354,93.1354,0,0,0-38.8039,12.9692,38.7387,38.7387,0,0,1-7.179-9.87Zm47.2567,45.49c-.8218,0-1.6369-.0346-2.4487-.0835-.202-.0126-.4042-.0244-.6056-.04-.7673-.0576-1.53-.1343-2.2863-.2353-.2166-.0289-.4312-.0669-.6469-.1-.5476-.0825-1.0913-.1777-1.6322-.2817-.3072-.06-.6151-.1172-.92-.1841q-.9321-.2028-1.8484-.4507c-.4234-.1147-.8428-.2412-1.2616-.37-.2366-.0718-.4716-.1479-.7064-.2241a39.1355,39.1355,0,0,1-13.1416-7.3457,90.5761,90.5761,0,0,1,85.5894-3.459,38.9926,38.9926,0,0,1-14.99,10.2l-.0228.0093c-.54.2046-1.0876.3921-1.6372.5727q-.3138.1033-.63.2c-.4892.1524-.98.2993-1.4758.4326-.34.09-.684.169-1.027.2505q-.9267.2227-1.8662.4009c-.5128.0962-1.0262.19-1.5448.2666-.3146.0469-.6315.084-.9478.1235q-.8152.1-1.6385.1685c-.272.0225-.5436.0469-.8166.0635-.8218.0508-1.6473.0849-2.4793.0849Zm93.0981-74.706-27.1084,53.416a38.8766,38.8766,0,0,1-3.9137,6.1611A92.1086,92.1086,0,0,0,98.5,139.436V109.9565h29.2578a4.53,4.53,0,0,0,3.1817-1.3183l9-9a4.5038,4.5038,0,0,0,0-6.3633l-9-9a4.53,4.53,0,0,0-3.1817-1.3184H98.5v-13H126a4.5049,4.5049,0,0,0,4.5-4.5v-18a4.505,4.505,0,0,0-4.5-4.5H98.5v-3.5a4.505,4.505,0,0,0-4.5-4.5H84a4.505,4.505,0,0,0-4.5,4.5v3.5H66.4111c.0535-1.2089.0889-2.4209.0889-3.6367V6.9c.6622-.0325,1.3239-.0682,1.9927-.0682H99.5078a38.95,38.95,0,0,1,34.9746,21.29l27.1084,53.416A8.4148,8.4148,0,0,1,161.5908,89.1255Z"/><g class="cls-4"><ellipse class="cls-5" cx="83.4667" cy="144" rx="48.5333" ry="19"/></g><g class="cls-4"><path d="M99.515,9a35.47,35.47,0,0,1,31.8544,19.3745l27.1078,53.416a4.9,4.9,0,0,1,0,4.419l-27.1079,53.416A35.47,35.47,0,0,1,99.515,159H68.485a35.47,35.47,0,0,1-31.8544-19.3745L9.5233,86.21a4.9007,4.9007,0,0,1-.0006-4.42l27.1079-53.416A35.47,35.47,0,0,1,68.485,9h31.03m0-1H68.485A36.4647,36.4647,0,0,0,35.7389,27.9219L8.631,81.3379a5.9042,5.9042,0,0,0,.0005,5.3252l27.1074,53.415A36.4647,36.4647,0,0,0,68.485,160h31.03a36.4647,36.4647,0,0,0,32.7461-19.9219l27.1079-53.416a5.9052,5.9052,0,0,0,0-5.3242l-27.1079-53.416A36.4647,36.4647,0,0,0,99.515,8Z"/></g><path class="cls-6" d="M138.7436,92.71l-9-9a2.9988,2.9988,0,0,0-2.1213-.8789H96.8649v-16h29a3,3,0,0,0,3-3v-18a3,3,0,0,0-3-3h-29v-5a3,3,0,0,0-3-3h-10a3,3,0,0,0-3,3v5H46.1075a2.999,2.999,0,0,0-2.1212.8789l-9,9a2.9994,2.9994,0,0,0,0,4.2422l9,9a2.9985,2.9985,0,0,0,2.1212.8789H80.8649v16h-33a3,3,0,0,0-3,3v18a3,3,0,0,0,3,3h33v32h16v-32h30.7574a2.9984,2.9984,0,0,0,2.1213-.8789l9-9A2.9994,2.9994,0,0,0,138.7436,92.71Z"/><path class="cls-7" d="M129.7436,105.9526l9-9a2.9994,2.9994,0,0,0,0-4.2422l-9-9a2.9988,2.9988,0,0,0-2.1213-.8789H96.8649v-16h29a3,3,0,0,0,3-3v-18a3,3,0,0,0-3-3h-29v-5a3,3,0,0,0-3-3h-10a3,3,0,0,0-3,3v5H46.1075a2.999,2.999,0,0,0-2.1212.8789l-9,9a2.9994,2.9994,0,0,0,0,4.2422l9,9a2.9985,2.9985,0,0,0,2.1212.8789H80.8649v16h-33a3,3,0,0,0-3,3v18a3,3,0,0,0,3,3h33v32h16v-32h30.7574A2.9984,2.9984,0,0,0,129.7436,105.9526ZM83.5,37.8315a.5007.5007,0,0,1,.5-.5H94a.501.501,0,0,1,.5.5v2.5h-11Zm-25.7319,26.5H46.2427a.4917.4917,0,0,1-.354-.1464l-9-9a.5011.5011,0,0,1,0-.7071l8.9995-8.999a.4915.4915,0,0,1,.3545-.1475h15.873A77.0381,77.0381,0,0,1,57.7681,64.3315Zm5.3076,0a82.0944,82.0944,0,0,0,4.0654-19H126a.501.501,0,0,1,.5.5v18a.501.501,0,0,1-.5.5Zm31.4243,5v11h-11v-11Zm0,67h-11v-27h11Zm-46.5-32a.5006.5006,0,0,1-.5-.5v-18a.5007.5007,0,0,1,.5-.5h79.7578a.51.51,0,0,1,.3535.1465l9,9a.5016.5016,0,0,1,0,.7071l-9,9a.51.51,0,0,1-.3535.1464Z"/><path class="cls-8" d="M164.2666,78.5552l-27.1084-53.416a41.9372,41.9372,0,0,0-37.65-22.9327H68.4927a41.9367,41.9367,0,0,0-37.65,22.9327L3.7334,78.5552a11.4273,11.4273,0,0,0,.0005,10.3027l27.1084,53.416a41.6513,41.6513,0,0,0,21.889,19.9239l.2444.0966a42.2763,42.2763,0,0,0,4.8312,1.5518c.4008.1035.8025.2031,1.2068.2949.3784.085.7567.1685,1.1385.2437.7437.1474,1.4911.28,2.2447.3881.197.0279.396.0474.5938.0723q1.0533.1362,2.1176.2183c.2507.0195.5014.0381.7531.0532.8734.0532,1.75.09,2.6313.09H99.5078c.9067,0,1.8076-.0361,2.7049-.0922.3165-.02.63-.0513.9446-.0782.5706-.0483,1.1391-.1045,1.7048-.1753q.578-.0717,1.1511-.1591c.4717-.0718.94-.1553,1.4078-.2432.4319-.08.8642-.1572,1.292-.251.3192-.07.6338-.1548.9508-.2319,1.2-.291,2.3827-.6265,3.5436-1.0171.0339-.0117.0686-.021.1025-.0327.6706-.2276,1.33-.4785,1.9862-.7388.0865-.0347.1733-.0674.26-.1025a41.65,41.65,0,0,0,21.6026-19.8106l27.1084-53.416A11.4289,11.4289,0,0,0,164.2666,78.5552ZM6.4087,79.9126l27.1084-53.416A38.8216,38.8216,0,0,1,63.5,5.53V37.6948c0,1.2163-.0375,2.4278-.0931,3.6367H46.2427A4.472,4.472,0,0,0,43.0605,42.65l-9,9a4.5,4.5,0,0,0,0,6.3633l9.0005,9.001a4.4731,4.4731,0,0,0,3.1817,1.3173H57.2612a78.9109,78.9109,0,0,1-7.0407,13H48a4.505,4.505,0,0,0-4.5,4.5v4.1768c-1.0874,1.2212-2.0519,2.2529-2.9922,3.1943l-20.7,20.7L6.4092,87.5005A8.4163,8.4163,0,0,1,6.4087,79.9126ZM95.5,41.3315h-13v-3.5a1.5017,1.5017,0,0,1,1.5-1.5H94a1.5017,1.5017,0,0,1,1.5,1.5Zm3,3H126a1.5017,1.5017,0,0,1,1.5,1.5v18a1.5016,1.5016,0,0,1-1.5,1.5H61.6638a80.9641,80.9641,0,0,0,4.56-21H98.5Zm-3,93h-13v-29h13Zm-16-32H48a1.5016,1.5016,0,0,1-1.5-1.5v-18a1.5017,1.5017,0,0,1,1.5-1.5h79.7578a1.5108,1.5108,0,0,1,1.0606.4395l9,9a1.5013,1.5013,0,0,1,0,2.1211l-9,9a1.5107,1.5107,0,0,1-1.0606.4394H79.5Zm-25.6913-24a81.7277,81.7277,0,0,0,6.7011-13H79.5v13Zm41.6913,0h-13v-13h13Zm-37.0373-16h-12.22a1.4928,1.4928,0,0,1-1.0611-.4394l-9-9a1.5008,1.5008,0,0,1,0-2.1211l9-8.999a1.4914,1.4914,0,0,1,1.0615-.4405H63.2112A77.962,77.962,0,0,1,58.4627,65.3315ZM21.236,116.7168,42.6294,95.3237q.4317-.4322.8706-.8886v9.3964a4.5049,4.5049,0,0,0,4.5,4.5H79.5v29.4854a93.1354,93.1354,0,0,0-38.8039,12.9692,38.7387,38.7387,0,0,1-7.179-9.87Zm47.2567,45.49c-.8218,0-1.6369-.0346-2.4487-.0835-.202-.0126-.4042-.0244-.6056-.04-.7673-.0576-1.53-.1343-2.2863-.2353-.2166-.0289-.4312-.0669-.6469-.1-.5476-.0825-1.0913-.1777-1.6322-.2817-.3072-.06-.6151-.1172-.92-.1841q-.9321-.2028-1.8484-.4507c-.4234-.1147-.8428-.2412-1.2616-.37-.2366-.0718-.4716-.1479-.7064-.2241a39.1355,39.1355,0,0,1-13.1416-7.3457,90.5761,90.5761,0,0,1,85.5894-3.459,38.9926,38.9926,0,0,1-14.99,10.2l-.0228.0093c-.54.2046-1.0876.3921-1.6372.5727q-.3138.1033-.63.2c-.4892.1524-.98.2993-1.4758.4326-.34.09-.684.169-1.027.2505q-.9267.2227-1.8662.4009c-.5128.0962-1.0262.19-1.5448.2666-.3146.0469-.6315.084-.9478.1235q-.8152.1-1.6385.1685c-.272.0225-.5436.0469-.8166.0635-.8218.0508-1.6473.0849-2.4793.0849Zm93.0981-74.706-27.1084,53.416a38.8766,38.8766,0,0,1-3.9137,6.1611A92.1086,92.1086,0,0,0,98.5,137.811V108.3315h29.2578a4.53,4.53,0,0,0,3.1817-1.3183l9-9a4.5038,4.5038,0,0,0,0-6.3633l-9-9a4.53,4.53,0,0,0-3.1817-1.3184H98.5v-13H126a4.5049,4.5049,0,0,0,4.5-4.5v-18a4.505,4.505,0,0,0-4.5-4.5H98.5v-3.5a4.505,4.505,0,0,0-4.5-4.5H84a4.505,4.505,0,0,0-4.5,4.5v3.5H66.4111c.0535-1.2089.0889-2.4209.0889-3.6367V5.2747c.6622-.0325,1.3239-.0682,1.9927-.0682H99.5078a38.95,38.95,0,0,1,34.9746,21.29l27.1084,53.416A8.4148,8.4148,0,0,1,161.5908,87.5005Z"/><rect class="cls-9" x="82.5" y="80.8315" width="13" height="0.5"/><rect class="cls-9" x="82.5" y="136.8315" width="13" height="0.5"/><path class="cls-9" d="M79.5,81.3315v-.5H54.1105c-.1033.1656-.1972.3355-.3018.5Z"/><path class="cls-9" d="M3.7334,78.5552l27.1089-53.416a41.9367,41.9367,0,0,1,37.65-22.9327H99.5078a41.9372,41.9372,0,0,1,37.65,22.9327l27.1084,53.416a11.3723,11.3723,0,0,1,1.2123,4.9013,11.3847,11.3847,0,0,0-1.2123-5.4013l-27.1084-53.416a41.9372,41.9372,0,0,0-37.65-22.9327H68.4927a41.9367,41.9367,0,0,0-37.65,22.9327L3.7334,78.0552a11.3847,11.3847,0,0,0-1.2123,5.4013A11.3751,11.3751,0,0,1,3.7334,78.5552Z"/><path class="cls-9" d="M46.2427,64.8315a1.4928,1.4928,0,0,1-1.0611-.4394l-9-9a1.4864,1.4864,0,0,1-.4146-.8106,1.5148,1.5148,0,0,0-.0243.25,1.49,1.49,0,0,0,.4389,1.0606l9,9a1.4928,1.4928,0,0,0,1.0611.4394h12.22a77.962,77.962,0,0,0,4.7485-21H63.16a77.9594,77.9594,0,0,1-4.6977,20.5Z"/><path class="cls-9" d="M139.94,91.15l-9-9a4.53,4.53,0,0,0-3.1817-1.3184H98.5v.5h29.2578A4.53,4.53,0,0,1,130.94,82.65l9,9a4.4637,4.4637,0,0,1,1.2922,2.9316A4.47,4.47,0,0,0,139.94,91.15Z"/><path class="cls-9" d="M134.4824,140.4165a38.8766,38.8766,0,0,1-3.9137,6.1611A92.1086,92.1086,0,0,0,98.5,137.311v.5a92.1086,92.1086,0,0,1,32.0687,9.2666,38.8766,38.8766,0,0,0,3.9137-6.1611l27.1084-53.416a8.3836,8.3836,0,0,0,.8894-4.044,8.3727,8.3727,0,0,1-.8894,3.544Z"/><path class="cls-9" d="M113.5936,159.1333l-.0228.0093c-.54.2046-1.0876.3921-1.6372.5727q-.3138.1033-.63.2c-.4892.1524-.98.2993-1.4758.4326-.34.09-.684.169-1.027.2505q-.9267.2227-1.8662.4009c-.5128.0962-1.0262.19-1.5448.2666-.3146.0469-.6315.084-.9478.1235q-.8152.1-1.6385.1685c-.272.0225-.5436.0469-.8166.0635-.8218.0508-1.6473.0849-2.4793.0849H68.4927c-.8218,0-1.6369-.0346-2.4487-.0835-.202-.0126-.4042-.0244-.6056-.04-.7673-.0576-1.53-.1343-2.2863-.2353-.2166-.0289-.4312-.0669-.6469-.1-.5476-.0825-1.0913-.1777-1.6322-.2817-.3072-.06-.6151-.1172-.92-.1841q-.9321-.2028-1.8484-.4507c-.4234-.1147-.8428-.2412-1.2616-.37-.2366-.0718-.4716-.1479-.7064-.2241a39.1265,39.1265,0,0,1-12.7782-7.0527c-.12.0708-.2433.1357-.3634.207a39.1355,39.1355,0,0,0,13.1416,7.3457c.2348.0762.47.1523.7064.2241.4188.1284.8382.2549,1.2616.37q.9168.2462,1.8484.4507c.3053.0669.6132.124.92.1841.5409.104,1.0846.1992,1.6322.2817.2157.0328.43.0708.6469.1.7562.101,1.519.1777,2.2863.2353.2014.0156.4036.0274.6056.04.8118.0489,1.6269.0835,2.4487.0835H99.5078c.832,0,1.6575-.0341,2.4793-.0849.273-.0166.5446-.041.8166-.0635q.8237-.0673,1.6385-.1685c.3163-.04.6332-.0766.9478-.1235.5186-.0762,1.032-.17,1.5448-.2666q.94-.1779,1.8662-.4009c.343-.0815.6872-.16,1.027-.2505.4958-.1333.9866-.28,1.4758-.4326q.3159-.0974.63-.2c.55-.1806,1.097-.3681,1.6372-.5727l.0228-.0093a38.9926,38.9926,0,0,0,14.99-10.2c-.11-.0537-.2218-.103-.3322-.1562A38.9884,38.9884,0,0,1,113.5936,159.1333Z"/><path class="cls-9" d="M127.7578,105.3315a1.5107,1.5107,0,0,0,1.0606-.4394l9-9a1.4739,1.4739,0,0,0,.39-1.3106,1.4606,1.4606,0,0,1-.39.8106l-9,9a1.5107,1.5107,0,0,1-1.0606.4394H48a1.5016,1.5016,0,0,1-1.5-1.5v.5a1.5016,1.5016,0,0,0,1.5,1.5h79.7578Z"/><path class="cls-9" d="M79.5,41.3315v-.5H66.4233c-.0066.1665-.0048.334-.0122.5Z"/><path class="cls-9" d="M33.5171,140.9165a38.7387,38.7387,0,0,0,7.179,9.87A93.1354,93.1354,0,0,1,79.5,137.8169v-.5a93.1354,93.1354,0,0,0-38.8039,12.9692,38.7387,38.7387,0,0,1-7.179-9.87L21.4044,116.5483l-.1684.1685Z"/><path class="cls-9" d="M6.4092,87.5005l13.3987,26.4023,20.7-20.7c.94-.9414,1.9048-1.9731,2.9922-3.1943v-.5c-1.0874,1.2212-2.0519,2.2529-2.9922,3.1943l-20.7,20.7L6.4092,87.0005a8.3716,8.3716,0,0,1-.8894-3.544A8.3824,8.3824,0,0,0,6.4092,87.5005Z"/><path class="cls-9" d="M48,81.3315h2.2205a78.9109,78.9109,0,0,0,7.0407-13h-.2268a78.9123,78.9123,0,0,1-6.8139,12.5H48a4.505,4.505,0,0,0-4.5,4.5v.5A4.505,4.505,0,0,1,48,81.3315Z"/><path class="cls-9" d="M63.5,37.6948v-.5c0,1.2163-.0375,2.4278-.0931,3.6367H46.2427A4.472,4.472,0,0,0,43.0605,42.15l-9,9a4.468,4.468,0,0,0-1.3178,3.1816c0,.085.02.1661.0244.25A4.4537,4.4537,0,0,1,34.0605,51.65l9-9a4.472,4.472,0,0,1,3.1822-1.3184H63.4069C63.4625,40.1226,63.5,38.9111,63.5,37.6948Z"/><path class="cls-9" d="M126,40.8315H98.5v.5H126a4.505,4.505,0,0,1,4.5,4.5v-.5A4.505,4.505,0,0,0,126,40.8315Z"/><path class="cls-9" d="M84,33.3315H94a4.505,4.505,0,0,1,4.5,4.5v-.5a4.505,4.505,0,0,0-4.5-4.5H84a4.505,4.505,0,0,0-4.5,4.5v.5A4.505,4.505,0,0,1,84,33.3315Z"/><rect class="cls-9" x="82.5" y="40.8315" width="13" height="0.5"/><path class="cls-9" d="M79.5,65.3315H126a1.5016,1.5016,0,0,0,1.5-1.5v-.5a1.5016,1.5016,0,0,1-1.5,1.5H61.8353c-.0589.1661-.1115.334-.1715.5Z"/><g class="cls-10"><path id="FOR_LINE_WORK_LIPS" data-name="FOR LINE WORK LIPS" class="cls-11" d="M32.0928,12.0593A90.3458,90.3458,0,0,0,8.8311,37.08L131.9853,160.8061a90.2609,90.2609,0,0,0,24.9043-23.37Z"/></g><path class="cls-12" d="M99.515,168h-31.03a44.4269,44.4269,0,0,1-39.88-24.3008L1.4971,90.2832a13.9332,13.9332,0,0,1-.0005-12.5654L28.605,24.3008A44.4269,44.4269,0,0,1,68.4849,0h31.03a44.4268,44.4268,0,0,1,39.88,24.3008l27.1084,53.417a13.9327,13.9327,0,0,1,0,12.5644l-27.1084,53.417A44.4268,44.4268,0,0,1,99.515,168ZM68.4849,8A36.4647,36.4647,0,0,0,35.7388,27.9219L8.6309,81.3379a5.9042,5.9042,0,0,0,0,5.3252l27.1074,53.415A36.4647,36.4647,0,0,0,68.4849,160h31.03a36.4647,36.4647,0,0,0,32.7461-19.9219l27.1079-53.416a5.9052,5.9052,0,0,0,0-5.3242l-27.1079-53.416A36.4647,36.4647,0,0,0,99.515,8Z"/><path class="cls-13" d="M132,140.5508A36.46,36.46,0,0,1,99.515,160h-31.03A36.46,36.46,0,0,1,36,140.5508v13.6145A44.62,44.62,0,0,0,68.4849,168h31.03A44.62,44.62,0,0,0,132,154.1653Z"/><path class="cls-14" d="M99.515,8a36.4647,36.4647,0,0,1,32.7461,19.9219l27.1079,53.416a5.9052,5.9052,0,0,1,0,5.3242l-27.1079,53.416A36.4647,36.4647,0,0,1,99.515,160H68.485a36.4647,36.4647,0,0,1-32.7461-19.9219L8.6315,86.6631a5.9042,5.9042,0,0,1-.0005-5.3252l27.1079-53.416A36.4647,36.4647,0,0,1,68.485,8h31.03m0-1H68.485A37.46,37.46,0,0,0,34.8472,27.4692L7.7393,80.8853a6.9087,6.9087,0,0,0,0,6.23l27.1075,53.4151A37.46,37.46,0,0,0,68.485,161h31.03a37.46,37.46,0,0,0,33.6378-20.4692l27.1079-53.4161a6.9076,6.9076,0,0,0,0-6.2294l-27.108-53.4161A37.46,37.46,0,0,0,99.515,7Z"/><path class="cls-15" d="M34.5465,15.4351a44.36,44.36,0,0,0-5.9644,8.8657l-10.79,21.2619,5.9513,5.9515L35.7158,27.9219a36.34,36.34,0,0,1,4.5011-6.8164Z"/><path class="cls-16" d="M147.2853,128.1511,141.3341,122.2l-9.073,17.8784a36.1924,36.1924,0,0,1-8.7838,11.147l5.67,5.67a44.2086,44.2086,0,0,0,10.2473-13.1963Z"/><path class="cls-17" d="M7.9967,84a5.8844,5.8844,0,0,1,.6342-2.6621l27.1079-53.416A36.4647,36.4647,0,0,1,68.4849,8h31.03a36.4647,36.4647,0,0,1,32.7461,19.9219l27.1079,53.416A5.8856,5.8856,0,0,1,160.0031,84H168a13.8882,13.8882,0,0,0-1.4967-6.2822l-27.1084-53.417A44.4268,44.4268,0,0,0,99.515,0h-31.03a44.4269,44.4269,0,0,0-39.88,24.3008L1.4966,77.7178A13.8868,13.8868,0,0,0,0,84Z"/></g></g></svg>