<svg xmlns="http://www.w3.org/2000/svg" xmlns:xlink="http://www.w3.org/1999/xlink" viewBox="0 0 168 168"><defs><style>.cls-1{fill:none;}.cls-2{fill:url(#linear-gradient);}.cls-3{opacity:0.5;}.cls-15,.cls-17,.cls-3,.cls-5{isolation:isolate;}.cls-4{fill:url(#linear-gradient-2);}.cls-13,.cls-5{opacity:0.3;}.cls-6{fill:url(#linear-gradient-3);}.cls-7{fill:#fff;}.cls-8{clip-path:url(#clip-path);}.cls-9{fill:url(#linear-gradient-4);}.cls-10{fill:url(#linear-gradient-5);}.cls-11{fill:url(#linear-gradient-6);}.cls-12{fill:url(#linear-gradient-7);}.cls-14{fill:url(#radial-gradient);}.cls-15{opacity:0.7;fill:url(#linear-gradient-8);}.cls-16{fill:url(#linear-gradient-9);}.cls-17{opacity:0.4;fill:url(#linear-gradient-10);}</style><linearGradient id="linear-gradient" x1="-480" y1="2033.45" x2="-480" y2="2201.45" gradientTransform="matrix(1, 0, 0, -1, 564, 2201.45)" gradientUnits="userSpaceOnUse"><stop offset="0" stop-color="#333d45"/><stop offset="1"/></linearGradient><linearGradient id="linear-gradient-2" x1="-480.35" y1="2059.24" x2="-480.35" y2="2093.24" gradientTransform="matrix(1, 0, 0, -1, 564, 2201.45)" gradientUnits="userSpaceOnUse"><stop offset="0" stop-color="#0bb7c8"/><stop offset="1" stop-color="#94fc82"/></linearGradient><linearGradient id="linear-gradient-3" x1="-480.35" y1="2034.17" x2="-480.35" y2="2197.17" gradientTransform="matrix(1, 0, 0, -1, 564, 2201.45)" gradientUnits="userSpaceOnUse"><stop offset="0" stop-color="#688199"/><stop offset="1" stop-color="#f7f9fa"/></linearGradient><clipPath id="clip-path"><path class="cls-1" d="M83.65,4.28a81.5,81.5,0,1,0,81.5,81.5h0A81.59,81.59,0,0,0,83.65,4.28Zm70.5,47v.49a54.58,54.58,0,0,1-37,51.6V62.19h-.09a33.55,33.55,0,0,0-9.72-22.1l-1.06,1.06,1.06-1.06a33.32,33.32,0,0,0-23.69-9.81h-20A18.63,18.63,0,0,1,45.91,17a78.41,78.41,0,0,1,106.5,31c.61,1.1,1.19,2.22,1.74,3.35ZM67,128.84l-.15-3.56h33.54l-.14,3.56a1.51,1.51,0,0,1-1.5,1.44H68.53A1.5,1.5,0,0,1,67,128.84Zm-.75-18a1.51,1.51,0,0,1,1.44-1.56H99.53a1.5,1.5,0,0,1,1.5,1.5v.06l-.15,3.44H66.43ZM78.15,80.28h-4.5a4.5,4.5,0,1,1,4.5-4.5Zm8,26h-5v-23h5Zm12.65-5.75-.72,5.75H89.15v-23h4.5a7.5,7.5,0,1,0-7.5-7.5h0v4.5h-5v-4.5a7.5,7.5,0,1,0-7.5,7.5h4.5v23H69.23l-.72-5.75a21.54,21.54,0,0,0-3.25-9L58,80.27a30.5,30.5,0,0,1,47.22-38.06h0a30.68,30.68,0,0,1,4.09,38.06l-7.26,11.3a21.54,21.54,0,0,0-3.25,9ZM89.15,80.28v-4.5a4.5,4.5,0,1,1,4.5,4.5Zm11.61,37-.21,5H66.76l-.21-5Zm-6.53,16-1.71,3.41a6.45,6.45,0,0,1-5.81,3.59H80.6a6.48,6.48,0,0,1-5.82-3.59l-1.7-3.41Zm-9.08,10h1.56a9.45,9.45,0,0,0,8.5-5.25l2.37-4.75h1.2a4.48,4.48,0,0,0,4.49-4.31l.75-18a4.51,4.51,0,0,0-.31-1.85,56.83,56.83,0,0,0,10.44-1.7v50.69a77.92,77.92,0,0,1-29,6.13Zm16-37,.67-5.34a18.53,18.53,0,0,1,2.79-7.71l7.26-11.3a31.69,31.69,0,0,0,2.32-4.29v26.71a54.23,54.23,0,0,1-13,1.93ZM43.23,18.51A21.36,21.36,0,0,0,63.65,33.28h6.13A33.52,33.52,0,0,0,53.19,77.7a32.11,32.11,0,0,0,2.29,4.19l7.26,11.3a18.67,18.67,0,0,1,2.79,7.71l.67,5.38H51.85a41.21,41.21,0,0,0-29.34,12.16l-6.72,6.72A78.39,78.39,0,0,1,43.23,18.51ZM17.39,127.79l7.24-7.23a38.21,38.21,0,0,1,27.22-11.28H63.54a4.4,4.4,0,0,0-.25,1.69L64,129a4.48,4.48,0,0,0,4.49,4.31h1.2L72.1,138a9.45,9.45,0,0,0,8.5,5.25h1.55v21A78.49,78.49,0,0,1,17.39,127.79Zm99.76,29V106.55a57.65,57.65,0,0,0,39.72-49A78.43,78.43,0,0,1,117.15,156.76Z"/></clipPath><linearGradient id="linear-gradient-4" x1="-492.11" y1="2105.34" x2="-468.69" y2="2128.76" gradientTransform="matrix(1, 0, 0, -1, 564, 2201.45)" gradientUnits="userSpaceOnUse"><stop offset="0.25" stop-color="#f7f9fa" stop-opacity="0"/><stop offset="0.5" stop-color="#fff"/><stop offset="0.75" stop-color="#bee6fa" stop-opacity="0"/></linearGradient><linearGradient id="linear-gradient-5" x1="-480" y1="2033.45" x2="-480" y2="2201.45" xlink:href="#linear-gradient-3"/><linearGradient id="linear-gradient-6" x1="-480" y1="2040.02" x2="-480" y2="2194.02" gradientTransform="matrix(1, 0, 0, -1, 564, 2201.45)" gradientUnits="userSpaceOnUse"><stop offset="0" stop-color="#f7f9fa"/><stop offset="1" stop-color="#f7f9fa" stop-opacity="0"/></linearGradient><linearGradient id="linear-gradient-7" x1="-528" y1="2046.02" x2="-432" y2="2046.02" gradientTransform="matrix(1, 0, 0, -1, 564, 2201.45)" gradientUnits="userSpaceOnUse"><stop offset="0" stop-color="#e8749f" stop-opacity="0"/><stop offset="0.5" stop-color="#f7f9fa"/><stop offset="1" stop-color="#e8749f" stop-opacity="0"/></linearGradient><radialGradient id="radial-gradient" cx="-7777.62" cy="257.53" fy="275.58060525576076" r="20.27" gradientTransform="matrix(-2, 0, 0, 0.94, -15470.7, -99.2)" gradientUnits="userSpaceOnUse"><stop offset="0" stop-color="#fff"/><stop offset="0.68" stop-color="#e78bad" stop-opacity="0"/></radialGradient><linearGradient id="linear-gradient-8" x1="-436.26" y1="2049.07" x2="-412.84" y2="2072.49" xlink:href="#linear-gradient-4"/><linearGradient id="linear-gradient-9" x1="-547.96" y1="2160.76" x2="-524.53" y2="2184.18" xlink:href="#linear-gradient-4"/><linearGradient id="linear-gradient-10" x1="-480" y1="2117.02" x2="-480" y2="2201.02" gradientTransform="matrix(1, 0, 0, -1, 564, 2201.45)" gradientUnits="userSpaceOnUse"><stop offset="0" stop-color="#e8749f" stop-opacity="0"/><stop offset="1" stop-color="#f7f9fa"/></linearGradient></defs><g id="Layer_2" data-name="Layer 2"><g id="Layer_1-2" data-name="Layer 1"><g id="Layer_2-2" data-name="Layer 2"><g id="Layer_1-2-2" data-name="Layer 1-2"><path id="base_bkgd" data-name="base bkgd" class="cls-2" d="M84,168a84,84,0,1,1,84-84A84,84,0,0,1,84,168Z"/><g id="border_shadow" data-name="border shadow"><path d="M84,9A75,75,0,1,1,9,84,75,75,0,0,1,84,9m0-1a76,76,0,1,0,76,76A76,76,0,0,0,84,8Z"/></g><path class="cls-3" d="M83.65,5.28a81.6,81.6,0,0,0-81.5,81.5c0,44.94,36.56,80.79,81.5,80.79s81.5-35.85,81.5-80.79A81.59,81.59,0,0,0,83.65,5.28Zm70.5,47v.49a54.58,54.58,0,0,1-37,51.6V63.19h-.09a33.55,33.55,0,0,0-9.72-22.1l-1.06,1.06,1.06-1.06a33.32,33.32,0,0,0-23.69-9.81h-20A18.63,18.63,0,0,1,45.91,18a78.41,78.41,0,0,1,106.5,31c.61,1.1,1.19,2.22,1.74,3.35ZM67,129.84l-.15-3.56h33.54l-.14,3.56a1.51,1.51,0,0,1-1.5,1.44H68.53A1.5,1.5,0,0,1,67,129.84Zm-.75-18a1.51,1.51,0,0,1,1.44-1.56H99.53a1.5,1.5,0,0,1,1.5,1.5v.06l-.15,3.44H66.43ZM78.15,81.28h-4.5a4.5,4.5,0,1,1,4.5-4.5Zm8,26h-5v-23h5Zm12.65-5.75-.72,5.75H89.15v-23h4.5a7.5,7.5,0,1,0-7.5-7.5v4.5h-5v-4.5a7.5,7.5,0,1,0-7.5,7.5h4.5v23H69.23l-.72-5.75a21.54,21.54,0,0,0-3.25-9L58,81.27a30.5,30.5,0,0,1,47.22-38.06h0a30.68,30.68,0,0,1,4.09,38.06l-7.26,11.3a21.54,21.54,0,0,0-3.25,9ZM89.15,81.28v-4.5a4.5,4.5,0,1,1,4.5,4.5Zm11.61,37-.21,5H66.76l-.21-5Zm-6.53,16-1.71,3.41a6.45,6.45,0,0,1-5.81,3.59H80.6a6.48,6.48,0,0,1-5.82-3.59l-1.7-3.41Zm-9.08,10h1.56a9.45,9.45,0,0,0,8.5-5.25l2.37-4.75h1.2a4.48,4.48,0,0,0,4.49-4.31l.75-18a4.51,4.51,0,0,0-.31-1.85,56.83,56.83,0,0,0,10.44-1.7v50.69a77.92,77.92,0,0,1-29,6.13Zm16-37,.67-5.34a18.53,18.53,0,0,1,2.79-7.71l7.26-11.3a31.69,31.69,0,0,0,2.32-4.29v26.71a54.23,54.23,0,0,1-13,1.93ZM43.23,19.51A21.36,21.36,0,0,0,63.65,34.28h6.13A33.52,33.52,0,0,0,53.19,78.7a32.11,32.11,0,0,0,2.29,4.19l7.26,11.3a18.67,18.67,0,0,1,2.79,7.71l.67,5.38H51.85a41.21,41.21,0,0,0-29.34,12.16l-6.72,6.72A78.39,78.39,0,0,1,43.23,19.51ZM17.39,128.79l7.24-7.23a38.21,38.21,0,0,1,27.22-11.28H63.54a4.4,4.4,0,0,0-.25,1.69L64,130a4.48,4.48,0,0,0,4.49,4.31h1.2L72.1,139a9.45,9.45,0,0,0,8.5,5.25h1.55v21A78.49,78.49,0,0,1,17.39,128.79Zm99.76,29V107.55a57.65,57.65,0,0,0,39.72-49A78.43,78.43,0,0,1,117.15,157.76Z"/><path class="cls-4" d="M99.53,108.21H67.78a3,3,0,0,0-3,3v.12l.75,18a3,3,0,0,0,3,2.88h2.12l2.79,5.57a8,8,0,0,0,7.16,4.43h6.11a8,8,0,0,0,7.16-4.43l2.78-5.57h2.13a3,3,0,0,0,3-2.88l.75-18a3,3,0,0,0-2.87-3.12Z"/><path class="cls-5" d="M93.87,137.78l2.78-5.57h2.13a3,3,0,0,0,3-2.88l.75-18a3,3,0,0,0-2.87-3.12H67.78a3,3,0,0,0-3,3v.12l.75,18a3,3,0,0,0,3,2.88h2.12l2.79,5.57a8,8,0,0,0,7.16,4.43h6.11A8,8,0,0,0,93.87,137.78ZM67.28,111.23a.5.5,0,0,1,.14-.37.46.46,0,0,1,.36-.15H99.53a.5.5,0,0,1,.5.5v0l-.11,2.48H67.39Zm.31,7.48H99.71l-.12,3H67.72Zm.94,11a.5.5,0,0,1-.5-.48l-.1-2.52H99.38l-.1,2.52a.5.5,0,0,1-.5.48Zm12.07,10a5.5,5.5,0,0,1-4.92-3l-1-2H92.61l-1,2a5.5,5.5,0,0,1-4.92,3Z"/><path class="cls-6" d="M83.65,4.28a81.5,81.5,0,1,0,81.5,81.5h0A81.59,81.59,0,0,0,83.65,4.28Zm70.5,47v.49a54.58,54.58,0,0,1-37,51.6V62.19h-.09a33.55,33.55,0,0,0-9.72-22.1l-1.06,1.06,1.06-1.06a33.32,33.32,0,0,0-23.69-9.81h-20A18.63,18.63,0,0,1,45.91,17a78.41,78.41,0,0,1,106.5,31c.61,1.1,1.19,2.22,1.74,3.35ZM67,128.84l-.15-3.56h33.54l-.14,3.56a1.51,1.51,0,0,1-1.5,1.44H68.53A1.5,1.5,0,0,1,67,128.84Zm-.75-18a1.51,1.51,0,0,1,1.44-1.56H99.53a1.5,1.5,0,0,1,1.5,1.5v.06l-.15,3.44H66.43ZM78.15,80.28h-4.5a4.5,4.5,0,1,1,4.5-4.5Zm8,26h-5v-23h5Zm12.65-5.75-.72,5.75H89.15v-23h4.5a7.5,7.5,0,1,0-7.5-7.5h0v4.5h-5v-4.5a7.5,7.5,0,1,0-7.5,7.5h4.5v23H69.23l-.72-5.75a21.54,21.54,0,0,0-3.25-9L58,80.27a30.5,30.5,0,0,1,47.22-38.06h0a30.68,30.68,0,0,1,4.09,38.06l-7.26,11.3a21.54,21.54,0,0,0-3.25,9ZM89.15,80.28v-4.5a4.5,4.5,0,1,1,4.5,4.5Zm11.61,37-.21,5H66.76l-.21-5Zm-6.53,16-1.71,3.41a6.45,6.45,0,0,1-5.81,3.59H80.6a6.48,6.48,0,0,1-5.82-3.59l-1.7-3.41Zm-9.08,10h1.56a9.45,9.45,0,0,0,8.5-5.25l2.37-4.75h1.2a4.48,4.48,0,0,0,4.49-4.31l.75-18a4.51,4.51,0,0,0-.31-1.85,56.83,56.83,0,0,0,10.44-1.7v50.69a77.92,77.92,0,0,1-29,6.13Zm16-37,.67-5.34a18.53,18.53,0,0,1,2.79-7.71l7.26-11.3a31.69,31.69,0,0,0,2.32-4.29v26.71a54.23,54.23,0,0,1-13,1.93ZM43.23,18.51A21.36,21.36,0,0,0,63.65,33.28h6.13A33.52,33.52,0,0,0,53.19,77.7a32.11,32.11,0,0,0,2.29,4.19l7.26,11.3a18.67,18.67,0,0,1,2.79,7.71l.67,5.38H51.85a41.21,41.21,0,0,0-29.34,12.16l-6.72,6.72A78.39,78.39,0,0,1,43.23,18.51ZM17.39,127.79l7.24-7.23a38.21,38.21,0,0,1,27.22-11.28H63.54a4.4,4.4,0,0,0-.25,1.69L64,129a4.48,4.48,0,0,0,4.49,4.31h1.2L72.1,138a9.45,9.45,0,0,0,8.5,5.25h1.55v21A78.49,78.49,0,0,1,17.39,127.79Zm99.76,29V106.55a57.65,57.65,0,0,0,39.72-49A78.43,78.43,0,0,1,117.15,156.76Z"/><path class="cls-7" d="M73.65,68.28a7.5,7.5,0,0,1,7.5,7.5v-.5a7.5,7.5,0,0,0-15,0,2.11,2.11,0,0,0,0,.25A7.49,7.49,0,0,1,73.65,68.28Z"/><path class="cls-7" d="M93.65,67.78a7.51,7.51,0,0,0-7.5,7.5v.5a7.5,7.5,0,0,1,15-.25c0-.08,0-.17,0-.25A7.5,7.5,0,0,0,93.65,67.78Z"/><rect class="cls-7" x="81.15" y="79.78" width="5" height="0.5"/><path class="cls-7" d="M93.65,80.28a4.5,4.5,0,0,0,4.5-4.5c0-.09,0-.17,0-.25a4.5,4.5,0,0,1-4.48,4.25h-4.5v.5Z"/><path class="cls-7" d="M78.15,79.78h-4.5a4.49,4.49,0,0,1-4.47-4.25c0,.08,0,.16,0,.25a4.51,4.51,0,0,0,4.5,4.5h4.5Z"/><path class="cls-7" d="M69.78,33.28h-1A33.42,33.42,0,0,0,50.21,64,33.41,33.41,0,0,1,69.78,33.28Z"/><path class="cls-7" d="M69.23,106.28h8.92v-.5H69.23L68.51,100a21.54,21.54,0,0,0-3.25-9L58,79.77A30.28,30.28,0,0,1,53.22,63,30.32,30.32,0,0,0,58,80.27l7.26,11.3a21.54,21.54,0,0,1,3.25,9Z"/><path class="cls-7" d="M117.15,156.26v.5a78.58,78.58,0,0,0,45-71v-.22A78.61,78.61,0,0,1,117.15,156.26Z"/><path class="cls-7" d="M83.65,4.28a81.59,81.59,0,0,1,81.5,81.25v-.25a81.5,81.5,0,0,0-163,0c0,.08,0,.17,0,.25A81.59,81.59,0,0,1,83.65,4.28Z"/><path class="cls-7" d="M103.84,109.11h-.13a4.68,4.68,0,0,1,.3,1.65v-.3A4.46,4.46,0,0,0,103.84,109.11Z"/><path class="cls-7" d="M100.28,128.84l.14-3.56h0l-.12,3.06a1.51,1.51,0,0,1-1.5,1.44H68.53a1.5,1.5,0,0,1-1.5-1.44l-.12-3.06h0l.15,3.56a1.5,1.5,0,0,0,1.5,1.44H98.78A1.51,1.51,0,0,0,100.28,128.84Z"/><rect class="cls-7" x="81.15" y="105.78" width="5" height="0.5"/><path class="cls-7" d="M114.15,157.61a77.92,77.92,0,0,1-29,6.13v.5a77.92,77.92,0,0,0,29-6.13Z"/><path class="cls-7" d="M117.15,102.88v.5a54.58,54.58,0,0,0,37-51.6v-.49h0A54.57,54.57,0,0,1,117.15,102.88Z"/><path class="cls-7" d="M114.15,103.81a54.75,54.75,0,0,1-13,1.93l-.06.5a54.23,54.23,0,0,0,13-1.93Z"/><path class="cls-7" d="M117.15,62.19v-.5h-.09a33.55,33.55,0,0,0-9.72-22.1l-.25.26.25.24-1.06,1.06,1.06-1.06a33.55,33.55,0,0,1,9.72,22.1Z"/><path class="cls-7" d="M63.65,30.28h20a33.31,33.31,0,0,1,23.44,9.57l.25-.26a33.32,33.32,0,0,0-23.69-9.81h-20A18.63,18.63,0,0,1,46.05,16.9l-.14.07A18.63,18.63,0,0,0,63.65,30.28Z"/><path class="cls-7" d="M15.79,125.16l6.72-6.72a41.21,41.21,0,0,1,29.34-12.16H66.2l-.06-.5H51.85a41.21,41.21,0,0,0-29.34,12.16l-6.72,6.72A78,78,0,0,1,5.16,85.53c0,.08,0,.17,0,.25A78,78,0,0,0,15.79,125.16Z"/><path class="cls-7" d="M92.52,136.69l1.71-3.41H94l-1.46,2.91a6.45,6.45,0,0,1-5.81,3.59H80.6a6.48,6.48,0,0,1-5.82-3.59l-1.45-2.91h-.25l1.7,3.41a6.48,6.48,0,0,0,5.82,3.59h6.11A6.45,6.45,0,0,0,92.52,136.69Z"/><polygon class="cls-7" points="100.55 122.28 100.76 117.28 100.74 117.28 100.55 121.78 66.76 121.78 66.57 117.28 66.55 117.28 66.76 122.28 100.55 122.28"/><path class="cls-7" d="M109.31,80.27A30.32,30.32,0,0,0,114.09,63a30.28,30.28,0,0,1-4.78,16.8l-7.26,11.3a21.54,21.54,0,0,0-3.25,9l-.72,5.75H89.15v.5h8.93l.72-5.75a21.54,21.54,0,0,1,3.25-9Z"/><path class="cls-7" d="M100.88,114.28l.15-3.44a1.49,1.49,0,0,0,0-.21l-.13,3.15H66.43l-.14-3.15c0,.07,0,.14,0,.21l.15,3.44Z"/><path class="cls-7" d="M82.15,164.24v-.5a78.48,78.48,0,0,1-64.56-36.15l-.2.2A78.49,78.49,0,0,0,82.15,164.24Z"/><path class="cls-7" d="M63.42,109.28a4.35,4.35,0,0,0-.13,1.19v.29a4.64,4.64,0,0,1,.24-1.48Z"/><g class="cls-8"><path id="FOR_LINE_WORK_CIRCLE" data-name="FOR LINE WORK CIRCLE" class="cls-9" d="M34.62,12A87.61,87.61,0,0,0,12,36.22L131.78,156A87.61,87.61,0,0,0,156,133.38Z"/></g><path id="border" class="cls-10" d="M84,168a84,84,0,1,1,84-84A84,84,0,0,1,84,168ZM84,8a76,76,0,1,0,76,76A76,76,0,0,0,84,8Z"/><g id="border_highlight" data-name="border highlight"><path class="cls-11" d="M84,8.43a76,76,0,1,1-76,76,76,76,0,0,1,76-76m0-1a77,77,0,1,0,77,77A77,77,0,0,0,84,7.43Z"/></g><path id="outer_pink" data-name="outer pink" class="cls-12" d="M132,152.88v-10a75.82,75.82,0,0,1-96,0v10A83.75,83.75,0,0,0,132,152.88Z"/><g id="elipse" class="cls-13"><ellipse class="cls-14" cx="84.54" cy="142.23" rx="40.53" ry="19"/></g><path id="right_glare" data-name="right glare" class="cls-15" d="M153.6,131.4l-5.78-5.78a76.65,76.65,0,0,1-23.6,23.25l5.79,5.78A84.63,84.63,0,0,0,153.6,131.4Z"/><path id="left_glare" data-name="left glare" class="cls-16" d="M13.77,38.42l5.79,5.79a76.44,76.44,0,0,1,23.25-23.6L37,14.82A84.67,84.67,0,0,0,13.77,38.42Z"/><path id="top_halo" data-name="top halo" class="cls-17" d="M84,8.43a76.08,76.08,0,0,1,76,76h8a84,84,0,0,0-168,0H8A76.08,76.08,0,0,1,84,8.43Z"/></g></g></g></g></svg>